<?xml version="1.0" encoding="UTF-8"?>
<svg viewBox="0 0 744.09447 1052.362179" xmlns="http://www.w3.org/2000/svg" xmlns:xlink="http://www.w3.org/1999/xlink">
 <defs>
  <linearGradient id="b">
   <stop stop-color="#b20000" offset="0"/>
   <stop stop-color="#f00" offset="1"/>
  </linearGradient>
  <linearGradient id="a">
   <stop stop-color="#8c8c8c" offset="0"/>
   <stop stop-color="#fff" offset="1"/>
  </linearGradient>
  <linearGradient id="c">
   <stop offset="0"/>
   <stop stop-color="#fff" offset="1"/>
  </linearGradient>
  <linearGradient id="q" x1=".52349" x2=".92282" y1="1.1622" y2=".64865" xlink:href="#b"/>
  <linearGradient id="p" x1=".010069" x2="1.0671" y1="1.7954" y2="-.045455" xlink:href="#a"/>
  <linearGradient id="o" x1=".19644" x2=".99107" y1=".85948" y2=".375" xlink:href="#a"/>
  <linearGradient id="n" x1=".4698" x2=".47987" y1="-.01851" y2=".25926" xlink:href="#b"/>
  <linearGradient id="m" x1="-.28072" x2="1.2179" y1=".47496" y2=".42603" xlink:href="#b"/>
  <linearGradient id="e" xlink:href="#b"/>
  <linearGradient id="d" x1=".364" x2="1.5348" y1=".44678" y2=".41444" gradientTransform="matrix(1 -1.356e-7 -1.5613e-6 1 3.9632e-7 -2.206e-7)" xlink:href="#c"/>
  <linearGradient id="l" x1=".0033557" x2=".85906" y1=".91176" y2="-1.2059" xlink:href="#c"/>
  <linearGradient id="k" x1="1.1188" x2=".06875" y1=".98438" y2=".0625" xlink:href="#a"/>
  <linearGradient id="j" x1="5.0945e-7" xlink:href="#c"/>
  <linearGradient id="i" x1="2.132e-6" xlink:href="#a"/>
  <linearGradient id="h" x1="-1.4793e-8" xlink:href="#a"/>
  <radialGradient id="g" cx=".34228" cy=".55006" r=".69962">
   <stop stop-color="#d5e7ff" stop-opacity=".6039" offset="0"/>
   <stop stop-color="#fff" stop-opacity=".9294" offset="1"/>
  </radialGradient>
  <radialGradient id="f" cx=".49995" cy=".48268" r=".93348" xlink:href="#c"/>
 </defs>
 <g transform="translate(51.971 -1.1812)">
  <g fill-rule="evenodd" font-size="12">
   <path transform="matrix(1.0583 0 0 .99948 -140.45 187.3)" d="m148.83 407.44a10.04 10.631 0 1 0 -20.08 0 10.04 10.631 0 1 0 20.08 0z" fill="#808080"/>
   <path d="m0.92736 590.8 34.348 68.096 48.715-1.1161-65.723-67.024c-1.1148-1.1369-4.4806-3.7036-6.7138-3.7669l-6.9026 0.2118c-2.2332-0.0632-4.406 2.245-3.7227 3.5996z" fill="url(#h)"/>
  </g>
  <g fill-rule="evenodd" font-size="12">
   <path d="m385.97 505.49h45.102a1.6704 1.6704 0 0 1 1.6704 1.6704v5.8466a1.6704 1.6704 0 0 1 -1.6704 1.6704h-45.102a1.6704 1.6704 0 0 1 -1.6704 -1.6704v-5.8466a1.6704 1.6704 0 0 1 1.6704 -1.6704" fill="url(#f)"/>
   <path d="m406.78 514.79c-1.2609 0.021-2.0637 1.9288-2.8578 3.7037l-3.5008 7.8239h16.004l-4.1795-8.7498c-0.8334-1.7448-1.4169-2.845-2.6792-2.8241l-2.7864 0.0463z" fill="url(#i)"/>
   <path d="m319.72 474.54c-1.4918 0.0431-2.1337 0.9487-1.6655 2.5245l14.844 49.955h30.42l-20.386-28.426 12.234-8.082c1.8443-1.2184 2.9474-2.3812-0.8316-2.2111l-17.71 0.797-8.898-12.641c-1.0175-1.4455-1.756-2.097-3.125-2.0575l-4.8815 0.141z" fill="url(#o)"/>
   <path d="m398.2 518.77c-2.3721 0-4.2818 2.2389-4.2818 5.02v2.0671h8.5635v-2.0671c0-2.7811-1.9096-5.02-4.2817-5.02z" fill="#298000"/>
   <path d="m352.14 481.56c-2.3721 0-4.2818 2.2389-4.2818 5.02v2.0671h8.5635v-2.0671c0-2.7811-1.9096-5.02-4.2817-5.02z" fill="#f1e64d"/>
  </g>
  <g fill-rule="evenodd" font-size="12">
   <path d="m261.36 551.45c-3.0887 0.4609-4.9635 3.2975-9.0533 11.588l-18.298 37.095 78.368-0.2416-0.1044-54.602c-0.0124-6.4942-8.8391-8.4665-12.886-5.9505-10.366 6.3806-23.266 9.9227-38.027 12.11z" fill="url(#k)"/>
   <path d="m252.48 562.93-10.073 20.585c13.194 4.1341 70.184-0.9868 70.116-6.893l-0.2533-22.104c0.0777 6.7758-48.367 11.66-59.789 8.4115z" fill="#f00"/>
   <path d="m299.56 539.42c0.7132 2.4636-3.9703 5.4189-10.273 7.5969-9.7846 3.3259-27.501 5.6556-27.913 4.4241 25.595-3.4834 32.449-9.2609 38.186-12.021z" fill="url(#j)"/>
   <path d="m251.87 564.07-8.6832 17.795c25.848 4.3685 69.385-3.1909 69.334-6.6945l-0.2533-17.44c0.0651 4.4844-43.77 10.483-60.398 6.3401z" fill="#ffbe00"/>
  </g>
  <path d="m239.74 600.06c-10.361 0-19.294 8.2717-19.294 15.979v43h176.42c44.816 0 138.2-19.042 181.9-31.962 22.795-6.1482 44.669-9.6772 66.994-6.7316 1.1853-12.056-42.744-19.894-63.018-20.516l-343.01 0.2303z" fill="url(#p)" fill-rule="evenodd"/>
  <path d="m152.41 614.71c-4.8869 0-12.213 5.8182-8.8213 10.071l15.901 15.772c3.9537 4.9567 9.3663 6.7301 14.253 6.7301l49.516-0.8353c4.887 0 8.8213-4.4916 8.8213-10.071v-11.596c0-5.5793-3.9343-10.071-8.8213-10.071h-70.848zm153.26-0.2953c4.8869-0.0277 12.583 6.1417 8.8214 10.071l-13.783 14.397c-4.3845 4.5797-9.3663 7.5653-14.253 7.5653h-32.836c-4.887 0-8.8213-4.4916-8.8213-10.071v-11.596c0-5.5793 3.9344-10.043 8.8213-10.071l52.051-0.2953zm-232.48 3.7649 39.856 0.063c4.1401 0.0065 7.8752 2.0277 10.871 6.9742l18.128 18.24c3.122 5.1552 1.8994 11.689-4.4847 11.88l-96.342 1.5371c-6.6886 0.1998-14.411-2.4451-16.753 3.7647l-23.724 62.896c-3.8554 12.435 9.2334 21.243 22.631 29.611l559.55 4.3256c7.3385 0.0567 64.564-67.674 63.604-137.89-0.1208-7.6527-42.742-5.0812-58.984-1.5722-14.177 2.8553-124.87 36.332-173.65 36.992l-88.485 1.1986c-9.6162 0.1303-14.042-8.336-7.1053-15.13l27.411-26.848c6.8686-6.7276 15.988-12.014 15.991-14.804l-270.32 2.2284c-14.725 0.1214-29.308 16.519-18.191 16.536z" fill="url(#q)" fill-rule="evenodd"/>
  <path d="m325.41 544.36c-2.9446 0-4.3305 2.5402-5.3152 5.3152l-6.4964 18.308c-0.9847 2.7751 2.3706 5.3151 5.3152 5.3151h26.576c2.9446 0 5.3152-2.3705 5.3152-5.3151v-18.308c0-2.9446-2.3706-5.3152-5.3152-5.3152h-20.08zm38.388 0c-2.9447 0-5.3152 2.3706-5.3152 5.3152v18.308c0 2.9446 2.3705 5.3151 5.3152 5.3151h20.08c2.9446 0 5.3152-2.3705 5.3152-5.3151v-18.308c0-2.9446-2.3706-5.3152-5.3152-5.3152h-20.08zm40.16-1.1811c-2.9448 0-5.2288 2.3719-5.3154 5.3152l-0.5905 20.08c-0.0865 2.9434 2.3706 5.3152 5.3153 5.3152h45.179c2.9447 0 5.8639-6.4258 3.8388-8.5634l-15.946-16.832c-2.025-2.1375-7.0953-5.3152-10.04-5.3152h-22.442zm-83.744-7.0027-24.56 64.964 210.94-1.1811-30.827-26.515-4.5464-0.2341c-3.6216 0.4345-6.0619-2.0839-7.9117-4.0117l-19.428-20.843c-4.409-3.5028-5.6224-6.7501-1.12-6.6694l3.6976 0.061c5.1578 0.0926 9.2617 0.6563 3.2968-5.2581-2.8988-3.0177-17.623-10.834-30.322-10.748l-87.406 0.5905c-5.9061 0.0399-9.7228 4.3208-11.812 9.846z" fill="url(#n)" fill-rule="evenodd"/>
  <path d="m325.41 544.36c-2.9446 0-4.3305 2.5402-5.3152 5.3152l-6.4964 18.308c-0.9847 2.7751 2.3706 5.3151 5.3152 5.3151h26.576c2.9446 0 5.3152-2.3705 5.3152-5.3151v-18.308c0-2.9446-2.3706-5.3152-5.3152-5.3152h-20.08zm38.388 0c-2.9446 0-5.3152 2.3706-5.3152 5.3152v18.308c0 2.9446 2.3706 5.3152 5.3152 5.3152h20.08c2.9446 0 5.3152-2.3706 5.3152-5.3152v-18.308c0-2.9446-2.3706-5.3152-5.3152-5.3152h-20.08zm40.16-1.1811c-2.9448 0-5.2288 2.3719-5.3154 5.3152l-0.5905 20.08c-0.0865 2.9434 2.3706 5.3152 5.3153 5.3152h45.179c2.9447 0 5.8639-6.4258 3.8388-8.5634l-15.946-16.832c-2.025-2.1375-7.0953-5.3152-10.04-5.3152h-22.442zm38.279-1.0541c-2.6497-0.0641-2.8136 2.4011-1.136 4.1918l21.76 23.228c1.6776 1.7908 4.1046 3.6517 6.5543 3.7938l6.4131 0.3719-30.426-31.509-3.165-0.0765z" fill="url(#g)" fill-rule="evenodd"/>
  <path d="m108.08 684.43-1.7718 3.5435 277.57-0.5906c161.23 0 217.89-34.244 257.46-34.244v-3.5435c-39.569 0-96.23 34.244-257.46 34.244l-275.8 0.5906z" fill="#ffe568" fill-rule="evenodd"/>
  <path transform="rotate(21.494)" d="m290.76 612.81a4.1341 8.2681 0 0 1 4.1341 8.2681v50.79a4.1341 8.2681 0 0 1 -4.1341 8.2681 4.1341 8.2681 0 0 1 -4.1341 -8.2681v-50.79a4.1341 8.2681 0 0 1 4.1341 -8.2681" fill="url(#m)" fill-rule="evenodd"/>
  <path transform="rotate(21.494)" d="m309.44 605.45a4.1341 8.2681 0 0 1 4.1341 8.2681v50.79a4.1341 8.2681 0 0 1 -4.1341 8.2681 4.1341 8.2681 0 0 1 -4.1341 -8.2681v-50.79a4.1341 8.2681 0 0 1 4.1341 -8.2681" fill="url(#e)" fill-rule="evenodd"/>
  <path transform="rotate(21.494)" d="m328.56 599.2a4.1341 8.2681 0 0 1 4.1341 8.2681v50.79a4.1341 8.2681 0 0 1 -4.1341 8.2681 4.1341 8.2681 0 0 1 -4.1341 -8.2681v-50.79a4.1341 8.2681 0 0 1 4.1341 -8.2681" fill="url(#e)" fill-rule="evenodd"/>
  <path transform="matrix(.99948 0 0 1.0583 .19531 -42.966)" d="m388.6 636a10.63 10.04 0 1 0 -21.261 0 10.63 10.04 0 1 0 21.261 0z" fill="#333434" fill-rule="evenodd"/>
  <path transform="matrix(.99948 0 0 1.0583 69.884 -44.147)" d="m388.6 636a10.63 10.04 0 1 0 -21.261 0 10.63 10.04 0 1 0 21.261 0z" fill="#333434" fill-rule="evenodd"/>
  <path d="m630.44 690.04c-13.414 32.422-27.74 46.7-42.887 67.861l-564.17-4.3736c-12.032-0.0933-31.145-17.141-20.064-36.967l498.9 0.7022c54.06 0.0761 131.77-35.99 128.22-27.223z" fill="url(#l)" fill-rule="evenodd"/>
  <path transform="rotate(21.494)" d="m286.63 656.99-0.0014 14.885c0 4.5805 1.8438 8.2681 4.1341 8.2681s4.134-3.6876 4.134-8.2681l0.2903-18.141c-2.9641 0.2315-7.3707 1.9288-8.557 3.2555z" fill="url(#d)" fill-rule="evenodd"/>
  <path d="m66.266 716.32-5.4554 13.85c-1.6783 4.2619-1.3139 8.3686 0.81709 9.2078s5.1977-1.9164 6.876-6.1783l6.917-16.773c-2.8428-0.8706-7.5648-0.906-9.1547-0.1062z" fill="url(#d)" fill-rule="evenodd"/>
  <path d="m45.595 716.53-5.4554 13.85c-1.6783 4.2619-1.3139 8.3686 0.81708 9.2078s5.1977-1.9164 6.876-6.1783l6.917-16.773c-2.8428-0.8707-7.5648-0.9061-9.1547-0.1063z" fill="url(#d)" fill-rule="evenodd"/>
  <g transform="matrix(.65999 -.13875 .12736 .60581 135.56 415.51)" font-size="12">
   <path d="m521.17 487.76h89.368a9.1873 9.1873 0 0 1 9.1873 9.1873v16.704a9.1873 9.1873 0 0 1 -9.1873 9.1873h-89.368a9.1873 9.1873 0 0 1 -9.1873 -9.1873v-16.704a9.1873 9.1873 0 0 1 9.1873 -9.1873" fill="#333" fill-rule="evenodd"/>
   <text x="522.00877" y="511.97867" fill="#fff" font-family="URW Chancery L" font-size="36" font-style="italic" writing-mode="lr">
    <tspan fill="#fff">GC2004</tspan>
   </text>
  </g>
 </g>
 <path transform="matrix(.99978 -.021032 .4522 21.495 -345.06 -15700)" d="m700.43 766.03c0 0.6523-107.99 1.724-302.39 1.724-249.91 0-367.33-1.5662-367.33-2.2185 0-0.3262 39.693-0.4704 98.813-0.533s63.254 0.8352 217.74 0.4506c130.86 0.3846 227.34 0.1597 286.84-0.849 37.013-0.5925 66.331 1.0997 66.331 1.4259z" fill="#004dff" fill-rule="evenodd"/>
 <path transform="matrix(.99978 -.021032 .021032 .99978 14.453 -14.063)" d="m672.08 777.15c-6.9713 6.2449-11.278-3.3062-24.813-16.592-13.825-12.364-26.964 1.4524-44.26 5.0918-32.417 4.6075-19.557 20.984-62.728 22.358s-121.35-15.582-171.17-15.582-156.34 31.131-201.88 0.2274c-36.169-23.61-66.654-2.7843-99.344-4.6409-44.462-2.4581-27.181 15.876-45.441 12.626s-25.046-7.8659-27.176-10.575c-2.5434-7.2619 8.9161-7.3243 27.176-10.574s-4.9268-1.4525 27.723-3.9105 35.149-16.884 76.902-5.8222c73.881 18.705 96.541 10.858 148.73 4.9521 49.619-4.4923 117.37 6.666 160.54 8.0407s51.339-20.259 108.79-9.533c32.164 6.1308 42.536-22.963 83.238-14.988 18.18 3.6686 51.515 30.874 43.712 38.922z" fill="#dfffff" fill-rule="evenodd"/>
</svg>
