<?xml version="1.0" encoding="UTF-8"?>
<svg viewBox="0 0 1052.362179 744.09447" xmlns="http://www.w3.org/2000/svg" xmlns:xlink="http://www.w3.org/1999/xlink">
 <defs>
  <filter id="a" x="0" y="0" width="1" height="1">
   <feGaussianBlur in="SourceAlpha" result="result0" stdDeviation="2.3"/>
   <feMorphology in="SourceAlpha" radius="6.6" result="result1"/>
   <feGaussianBlur in="result1" stdDeviation="8.9"/>
   <feColorMatrix result="result91" values="1 0 0 0 0 0 1 0 0 0 0 0 1 0 0 0 0 0 0.3 0"/>
   <feComposite in="result0" in2="result91" operator="out" result="result2"/>
   <feGaussianBlur result="result4" stdDeviation="1.7"/>
   <feDiffuseLighting result="result92" surfaceScale="10">
    <feDistantLight azimuth="225" elevation="45"/>
   </feDiffuseLighting>
   <feBlend in2="SourceGraphic" mode="multiply" result="result93"/>
   <feComposite in2="SourceAlpha" operator="in" result="result3"/>
   <feSpecularLighting in="result4" result="result94" specularExponent="17.9" surfaceScale="5">
    <feDistantLight azimuth="225" elevation="45"/>
   </feSpecularLighting>
   <feComposite in2="result3" operator="atop"/>
  </filter>
  <linearGradient id="b">
   <stop stop-color="#fff" offset="0"/>
   <stop stop-color="#fff" stop-opacity="0" offset="1"/>
  </linearGradient>
  <linearGradient id="c">
   <stop offset="0"/>
   <stop stop-color="#784421" offset="1"/>
  </linearGradient>
  <linearGradient id="n" x1="125.53" x2="351.83" y1="601.87" y2="465.39" gradientUnits="userSpaceOnUse">
   <stop stop-color="#e3e2db" offset="0"/>
   <stop stop-color="#e3e2db" stop-opacity="0" offset="1"/>
  </linearGradient>
  <linearGradient id="d" x1="489.42" x2="456.03" y1="615.43" y2="557.61" gradientUnits="userSpaceOnUse">
   <stop offset="0"/>
   <stop stop-opacity="0" offset="1"/>
  </linearGradient>
  <linearGradient id="m" x1="542.43" x2="576.98" y1="231.61" y2="325.47" gradientUnits="userSpaceOnUse" xlink:href="#b"/>
  <linearGradient id="e" x1="807.88" x2="769.88" y1="205.7" y2="303.59" gradientUnits="userSpaceOnUse" xlink:href="#b"/>
  <linearGradient id="l" x1="252.45" x2="246.75" y1="613.8" y2="582.85" gradientUnits="userSpaceOnUse" xlink:href="#b"/>
  <linearGradient id="k" x1="69.219" x2="183.23" y1="633.34" y2="555.17" gradientUnits="userSpaceOnUse" xlink:href="#b"/>
  <linearGradient id="j" x1="751.74" x2="753.98" y1="262.59" y2="256.28" gradientUnits="userSpaceOnUse" xlink:href="#c"/>
  <linearGradient id="i" x1="740.85" x2="743.5" y1="285.48" y2="277.95" gradientUnits="userSpaceOnUse" xlink:href="#c"/>
  <linearGradient id="h" x1="526.31" x2="517.67" y1="373.26" y2="358.87" gradientUnits="userSpaceOnUse" xlink:href="#c"/>
  <linearGradient id="g" x1="536.09" x2="527.46" y1="346.77" y2="332.95" gradientUnits="userSpaceOnUse" xlink:href="#c"/>
  <linearGradient id="f" x1="382.35" x2="365.07" y1="650.81" y2="540.25" gradientUnits="userSpaceOnUse" xlink:href="#b"/>
 </defs>
 <path d="m145.11 628.93c176.76-25.213 346.48-71.533 507.88-142.81 102.16-50.037 202.65-101.47 267.18-183.11 14.512-33.114 26.045-67.121 25.336-104.8-13.846-28.856-49.941-37.174-82.919-48.369-113.89 21.951-225.44 63.835-336.28 111.71-86.651 44.911-168.62 96.371-247.61 152.02-73.798 56.253-128.97 122.38-178.51 192.33z" fill="#008000"/>
 <path d="m691.38 215.59c48.576 12.337 101.39 22.857 129.48 43.974 3.3934 7.5734 2.6546 14.32-1.6287 20.359-39.056 36.05-82.03 67.528-130.29 92.835-95.08 54.877-181.9 73.979-267.92 89.578-29.656-5.1206-67.699-0.56387-78.991-26.873l4.8861-13.029c50.928-43.411 101.49-87.295 162.87-117.27z" fill="#a40"/>
 <path d="m691.03 215.92c48.576 12.337 101.39 22.857 129.48 43.974 3.3934 7.5734 2.6546 14.32-1.6287 20.359-39.056 36.05-82.03 67.528-130.29 92.835-95.08 54.877-181.9 73.979-267.92 89.578-29.656-5.1206-67.699-0.56387-78.991-26.873l4.8861-13.029c50.928-43.411 101.49-87.295 162.87-117.27z" fill="url(#e)"/>
 <path d="m684.05 269.33c50.157-0.0181 69.615 17.918 108.23 33.766-45.851 39.407-99.319 65.485-150.93 94.808-70.55 33.855-144.64 51.188-219.76 63.699l-37.477-3.5608c52.445-51.867 92.696-86.717 155.8-120.31l113.19-60.261c11.075-6.514 21.406-9.307 30.945-8.1434z" fill="#ffb380"/>
 <path d="m100.16 607.29 8.9578 16.287c12.973 10.851 23.457 15.482 33.388 18.73 182.41-7.8461 353.22-66.719 520.36-141.7 107.72-48.722 206.84-104.08 261.4-193.81l11.401-42.346-17.101 39.903c-68.684 85.497-165.85 135.39-264.66 183.23-164.24 70.207-333.17 118.98-508.15 140.07z" fill="#3e4837"/>
 <path d="m100.16 605.66 21.987-32.574c9.0562 15.461 25.81 19.375 43.974 21.173 176.97-17.872 329.91-72.435 478.02-134.37 104.18-47.778 197.31-103.73 266.29-177.53 15.103-27.764 26.886-56.433 25.245-88.763-3.4906-11.963-16.277-19.278-25.245-28.502 13.733 8.3344 27.799 16.502 32.574 29.316 3.9524 47.927-8.6271 79.322-22.802 109.12-65.981 81.79-164.85 134.8-267.1 184.86-159.57 69.081-328.52 115.52-506.52 140.07z" fill="#0f0"/>
 <path d="m738.79 360.59 88.677-61.038c16.946 14.913 38.429 27.233 45.49 47.794l-64.493 45.49c-13.378-16.903-45.342-22.19-69.675-32.246z" fill="#4d4d4d"/>
 <path d="m599.44 230.46 16.123 4.6066c-32.183 12.945-62.252 28.707-89.829 47.794l-21.881-9.2132z" fill="#4d4d4d"/>
 <path d="m691.03 215.92c48.576 12.337 101.39 22.857 129.48 43.974 3.3934 7.5734 2.6546 14.32-1.6287 20.359-39.056 36.05-82.03 67.528-130.29 92.835-95.08 54.877-181.9 73.979-267.92 89.578-29.656-5.1206-67.699-0.56387-78.991-26.873l4.8861-13.029c50.928-43.411 101.49-87.295 162.87-117.27z" fill="url(#m)"/>
 <path d="m532.06 311.07 48.945-36.277 158.35 58.734-53.552 39.732z" fill="#333"/>
 <path d="m557.4 263.28 211.33 76.585-6.3341 5.7583-212.48-78.312z" fill="#4d4d4d"/>
 <path d="m498.86 297.26 216.88 88.323-6.5903 4.9411-215.08-88.94z" fill="#4d4d4d"/>
 <path d="m123.06 616.39-22.2-10.836 10.608-15.508 10.608-15.508 3.8806 4.5336c5.5016 6.4274 17.974 12.251 30.408 14.197 8.3314 1.3044 12.085 1.3081 23.033 0.0227 108.17-12.7 208.03-36.783 324.03-78.141 117.14-41.767 195.75-77.529 268.34-122.06 9.5011-5.8297 17.932-10.976 18.735-11.435 1.6839-0.96346 8.2013 2.7957 14.146 8.1596l4.0905 3.6906 31.035-21.907c17.069-12.049 31.643-22.412 32.387-23.029 1.7572-1.4582-0.74353-7.6587-5.971-14.805l-3.7909-5.1824 6.5082-5.5788c3.5795-3.0683 14.117-12.791 23.416-21.605l16.908-16.026 7.4449-14.672c12.887-25.397 19.202-47.823 19.202-68.193 0-11.753-0.45344-13.021-7.7316-21.625-6.5253-7.7138-4.7039-7.769 3.6746-0.11148 10.867 9.9321 11.372 11.646 10.623 36.055-0.88409 28.807-4.941 46.115-17.388 74.185-6.0785 13.708-13.382 23.058-34.327 43.947-46.663 46.538-103.85 84.769-200.73 134.2-38.185 19.483-74.437 34.953-131.49 56.109-117.93 43.73-247.38 77.161-375.55 96.981-18.44 2.8517-34.465 5.1384-35.612 5.0817s-12.075-4.9795-24.285-10.939z" fill="#008000"/>
 <path d="m123.06 616.39-22.2-10.836 10.608-15.508 10.608-15.508 3.8806 4.5336c5.5016 6.4274 17.974 12.251 30.408 14.197 8.3314 1.3044 12.085 1.3081 23.033 0.0227 108.17-12.7 208.03-36.783 324.03-78.141 117.14-41.767 195.75-77.529 268.34-122.06 9.5011-5.8297 17.932-10.976 18.735-11.435 1.6839-0.96346 8.2013 2.7957 14.146 8.1596l4.0905 3.6906 31.035-21.907c17.069-12.049 31.643-22.412 32.387-23.029 1.7572-1.4582-0.74353-7.6587-5.971-14.805l-3.7909-5.1824 6.5082-5.5788c3.5795-3.0683 14.117-12.791 23.416-21.605l16.908-16.026 7.4449-14.672c12.887-25.397 19.202-47.823 19.202-68.193 0-11.753-0.45344-13.021-7.7316-21.625-6.5253-7.7138-4.7039-7.769 3.6746-0.11148 10.867 9.9321 11.372 11.646 10.623 36.055-0.88409 28.807-4.941 46.115-17.388 74.185-6.0785 13.708-13.382 23.058-34.327 43.947-46.663 46.538-103.85 84.769-200.73 134.2-38.185 19.483-74.437 34.953-131.49 56.109-117.93 43.73-247.38 77.161-375.55 96.981-18.44 2.8517-34.465 5.1384-35.612 5.0817s-12.075-4.9795-24.285-10.939z" fill="#7fff2a"/>
 <path d="m145.11 628.93c176.76-25.213 346.48-71.533 507.88-142.81 102.16-50.037 202.65-101.47 267.18-183.11 14.512-33.114 26.045-67.121 25.336-104.8-13.846-28.856-49.941-37.174-82.919-48.369-113.89 21.951-225.44 63.835-336.28 111.71-86.651 44.911-168.62 96.371-247.61 152.02-73.798 56.253-128.97 122.38-178.51 192.33z" fill="#008000" filter="url(#a)"/>
 <path d="m691.38 215.59c48.576 12.337 101.39 22.857 129.48 43.974 3.3934 7.5734 2.6546 14.32-1.6287 20.359-39.056 36.05-82.03 67.528-130.29 92.835-95.08 54.877-181.9 73.979-267.92 89.578-29.656-5.1206-67.699-0.56387-78.991-26.873l4.8861-13.029c50.928-43.411 101.49-87.295 162.87-117.27z" fill="#a40"/>
 <path d="m691.03 215.92c48.576 12.337 101.39 22.857 129.48 43.974 3.3934 7.5734 2.6546 14.32-1.6287 20.359-39.056 36.05-82.03 67.528-130.29 92.835-95.08 54.877-181.9 73.979-267.92 89.578-29.656-5.1206-67.699-0.56387-78.991-26.873l4.8861-13.029c50.928-43.411 101.49-87.295 162.87-117.27z" fill="url(#e)"/>
 <path d="m684.05 269.33c50.157-0.0181 69.615 17.918 108.23 33.766-45.851 39.407-99.319 65.485-150.93 94.808-70.55 33.855-144.64 51.188-219.76 63.699l-37.477-3.5608c52.445-51.867 92.696-86.717 155.8-120.31l113.19-60.261c11.075-6.514 21.406-9.307 30.945-8.1434z" fill="#fc0"/>
 <path d="m100.16 607.29 8.9578 16.287c12.973 10.851 23.457 15.482 33.388 18.73 182.41-7.8461 353.22-66.719 520.36-141.7 107.72-48.722 206.84-104.08 261.4-193.81l11.401-42.346-17.101 39.903c-68.684 85.497-165.85 135.39-264.66 183.23-164.24 70.207-333.17 118.98-508.15 140.07z" fill="#3e4837"/>
 <path d="m100.16 605.66 21.987-32.574c9.0562 15.461 25.81 19.375 43.974 21.173 176.97-17.872 329.91-72.435 478.02-134.37 104.18-47.778 197.31-103.73 266.29-177.53 15.103-27.764 26.886-56.433 25.245-88.763-3.4906-11.963-16.277-19.278-25.245-28.502 13.733 8.3344 27.799 16.502 32.574 29.316 3.9524 47.927-8.6271 79.322-22.802 109.12-65.981 81.79-164.85 134.8-267.1 184.86-159.57 69.081-328.52 115.52-506.52 140.07z" fill="#0f0"/>
 <path d="m738.79 360.59 88.677-61.038c16.946 14.913 38.429 27.233 45.49 47.794l-64.493 45.49c-13.378-16.903-45.342-22.19-69.675-32.246z" fill="#4d4d4d" filter="url(#a)"/>
 <path d="m599.44 230.46 16.123 4.6066c-32.183 12.945-62.252 28.707-89.829 47.794l-21.881-9.2132z" fill="#4d4d4d" filter="url(#a)"/>
 <path d="m343.98 439.23c73.045-65.618 155.25-129.4 347.22-211.58l1.0077 13.532c-139.13 49.498-241.9 127.33-340.39 206.94-3.1528-2.6047-5.8434-5.5175-7.8457-8.8893z" fill="url(#g)" filter="url(#a)"/>
 <path d="m357.77 451.65c104.43-80.593 209.39-163.4 333.15-199.31l0.35989 13.388c-122.32 28.382-219.76 113.5-320.09 190.45-5.4841-1.133-9.4348-2.841-13.424-4.5346z" fill="url(#h)" filter="url(#a)"/>
 <path d="m691 227.44c44.64 8.9971 88.396 22.634 131.5 45.418-1.2109 4.0148-3.2374 7.7382-7.1259 10.797-39.06-24.794-79.609-34.458-123.23-42.539z" fill="url(#j)" filter="url(#a)"/>
 <path d="m690.7 252.48c39.723 4.8593 79.674 18.58 113.58 40.812l-8.7094 7.6297c-29.662-19.352-68.634-35.745-104.44-35.053z" fill="url(#i)" filter="url(#a)"/>
 <path d="m532.06 311.07 61.16-30.577 157.54 55.477-60.881 40.546z" fill="#333" filter="url(#a)"/>
 <path d="m557.4 263.28 211.33 76.585-6.3341 5.7583-212.48-78.312z" fill="#4d4d4d" filter="url(#a)"/>
 <path d="m498.86 297.26 216.88 88.323-6.5903 4.9411-215.08-88.94z" fill="#4d4d4d" filter="url(#a)"/>
 <path d="m123.06 616.39-22.2-10.836 10.608-15.508 10.608-15.508 3.8806 4.5336c5.5016 6.4274 17.974 12.251 30.408 14.197 8.3314 1.3044 12.085 1.3081 23.033 0.0227 108.17-12.7 208.03-36.783 324.03-78.141 117.14-41.767 195.75-77.529 268.34-122.06 9.5011-5.8297 17.932-10.976 18.735-11.435 1.6839-0.96346 8.2013 2.7957 14.146 8.1596l4.0905 3.6906 31.035-21.907c17.069-12.049 31.643-22.412 32.387-23.029 1.7572-1.4582-0.74353-7.6587-5.971-14.805l-3.7909-5.1824 6.5082-5.5788c3.5795-3.0683 14.117-12.791 23.416-21.605l16.908-16.026 7.4449-14.672c12.887-25.397 19.202-47.823 19.202-68.193 0-11.753-0.45344-13.021-7.7316-21.625-6.5253-7.7138-4.7039-7.769 3.6746-0.11148 10.867 9.9321 11.372 11.646 10.623 36.055-0.88409 28.807-4.941 46.115-17.388 74.185-6.0785 13.708-13.382 23.058-34.327 43.947-46.663 46.538-103.85 84.769-200.73 134.2-38.185 19.483-74.437 34.953-131.49 56.109-117.93 43.73-247.38 77.161-375.55 96.981-18.44 2.8517-34.465 5.1384-35.612 5.0817s-12.075-4.9795-24.285-10.939z" fill="#008000"/>
 <path d="m123.06 616.39-22.2-10.836 10.608-15.508 10.608-15.508 3.8806 4.5336c5.5016 6.4274 17.974 12.251 30.408 14.197 8.3314 1.3044 12.085 1.3081 23.033 0.0227 108.17-12.7 208.03-36.783 324.03-78.141 117.14-41.767 195.75-77.529 268.34-122.06 9.5011-5.8297 17.932-10.976 18.735-11.435 1.6839-0.96346 8.2013 2.7957 14.146 8.1596l4.0905 3.6906 31.035-21.907c17.069-12.049 31.643-22.412 32.387-23.029 1.7572-1.4582-0.74353-7.6587-5.971-14.805l-3.7909-5.1824 6.5082-5.5788c3.5795-3.0683 14.117-12.791 23.416-21.605l16.908-16.026 7.4449-14.672c12.887-25.397 19.202-47.823 19.202-68.193 0-11.753-0.45344-13.021-7.7316-21.625-6.5253-7.7138-4.7039-7.769 3.6746-0.11148 10.867 9.9321 11.372 11.646 10.623 36.055-0.88409 28.807-4.941 46.115-17.388 74.185-6.0785 13.708-13.382 23.058-34.327 43.947-46.663 46.538-103.85 84.769-200.73 134.2-38.185 19.483-74.437 34.953-131.49 56.109-117.93 43.73-247.38 77.161-375.55 96.981-18.44 2.8517-34.465 5.1384-35.612 5.0817s-12.075-4.9795-24.285-10.939z" fill="#7fff2a"/>
 <path d="m736.57 193.19 122.15-32.574c18.767 11.635 45.419 15.386 54.561 36.645 7.3054 25.34-7.8698 45.061-16.694 66.369l-7.3291 8.1434c-52.654-55.199-101.97-55.246-152.69-78.584z" fill="#333" filter="url(#a)"/>
 <path d="m306.34 397.45c-52.456 31.954-127.65 98.009-183.69 177.35 3.4949 8.0976 34.709 20.683 44.339 19.578 153.42-18.97 274.46-51.846 306.36-94.407-22.096-2.6914-24.931-28.009-71.935-28.194-14.087-5.2526-34.003-47.144-58.264-49.516-8.4409-19.962-42.027-4.8544-36.814-24.816z" fill="url(#n)"/>
 <path d="m123.06 616.39-22.2-10.836 10.608-15.508 10.608-15.508 3.8806 4.5336c5.5016 6.4274 17.974 12.251 30.408 14.197 8.3314 1.3044 12.085 1.3081 23.033 0.0227 108.17-12.7 208.03-36.783 324.03-78.141 117.14-41.767 195.75-77.529 268.34-122.06 9.5011-5.8297 17.932-10.976 18.735-11.435 1.6839-0.96346 8.2013 2.7957 14.146 8.1596l4.0905 3.6906 31.035-21.907c17.069-12.049 31.643-22.412 32.387-23.029 1.7572-1.4582-0.74353-7.6587-5.971-14.805l-3.7909-5.1824 6.5082-5.5788c3.5795-3.0683 14.117-12.791 23.416-21.605l16.908-16.026 7.4449-14.672c12.887-25.397 19.202-47.823 19.202-68.193 0-11.753-0.45344-13.021-7.7316-21.625-6.5253-7.7138-4.7039-7.769 3.6746-0.11148 10.867 9.9321 11.372 11.646 10.623 36.055-0.88409 28.807-4.941 46.115-17.388 74.185-6.0785 13.708-13.382 23.058-34.327 43.947-46.663 46.538-103.85 84.769-200.73 134.2-38.185 19.483-74.437 34.953-131.49 56.109-117.93 43.73-247.38 77.161-375.55 96.981-18.44 2.8517-34.465 5.1384-35.612 5.0817s-12.075-4.9795-24.285-10.939z" fill="url(#l)"/>
 <path d="m123.06 616.39-22.2-10.836 10.608-15.508 10.608-15.508 3.8806 4.5336c5.5016 6.4274 17.974 12.251 30.408 14.197 8.3314 1.3044 12.085 1.3081 23.033 0.0227 108.17-12.7 208.03-36.783 324.03-78.141 117.14-41.767 195.75-77.529 268.34-122.06 9.5011-5.8297 17.932-10.976 18.735-11.435 1.6839-0.96346 8.2013 2.7957 14.146 8.1596l4.0905 3.6906 31.035-21.907c17.069-12.049 31.643-22.412 32.387-23.029 1.7572-1.4582-0.74353-7.6587-5.971-14.805l-3.7909-5.1824 6.5082-5.5788c3.5795-3.0683 14.117-12.791 23.416-21.605l16.908-16.026 7.4449-14.672c12.887-25.397 19.202-47.823 19.202-68.193 0-11.753-0.45344-13.021-7.7316-21.625-6.5253-7.7138-4.7039-7.769 3.6746-0.11148 10.867 9.9321 11.372 11.646 10.623 36.055-0.88409 28.807-4.941 46.115-17.388 74.185-6.0785 13.708-13.382 23.058-34.327 43.947-46.663 46.538-103.85 84.769-200.73 134.2-38.185 19.483-74.437 34.953-131.49 56.109-117.93 43.73-247.38 77.161-375.55 96.981-18.44 2.8517-34.465 5.1384-35.612 5.0817s-12.075-4.9795-24.285-10.939z" fill="url(#k)"/>
 <path d="m100.16 607.29 8.9578 16.287c12.973 10.851 23.457 15.482 33.388 18.73 182.41-7.8461 353.22-66.719 520.36-141.7 107.72-48.722 206.84-104.08 261.4-193.81l11.401-42.346-17.101 39.903c-68.684 85.497-165.85 135.39-264.66 183.23-164.24 70.207-333.17 118.98-508.15 140.07z" fill="url(#d)"/>
 <path d="m246.45 438.91c-20.244 75.94 63.542 102.36 156.91 107.68 9.1302 31.534 23.81 14.025 60.174 11.517 29.493-7.8696 55.3-15.739 72.554-23.609l6.3341 16.699c-71.682 26.672-147.91 50.1-230.33 69.099-56.598 10.106-113.48 18.805-171.6 21.306l-33.398-18.426-7.4858-18.426 22.457-31.095c37.657-46.001 76.155-91.762 124.38-134.74z" filter="url(#a)" stroke="#000"/>
 <path d="m123.06 616.39-22.2-10.836 10.608-15.508 10.608-15.508 3.8806 4.5336c5.5016 6.4274 17.974 12.251 30.408 14.197 8.3314 1.3044 12.085 1.3081 23.033 0.0227 108.17-12.7 208.03-36.783 324.03-78.141 117.14-41.767 195.75-77.529 268.34-122.06 9.5011-5.8297 17.932-10.976 18.735-11.435 1.6839-0.96346 8.2013 2.7957 14.146 8.1596l4.0905 3.6906 31.035-21.907c17.069-12.049 31.643-22.412 32.387-23.029 1.7572-1.4582-0.74353-7.6587-5.971-14.805l-3.7909-5.1824 6.5082-5.5788c3.5795-3.0683 14.117-12.791 23.416-21.605l16.908-16.026 7.4449-14.672c12.887-25.397 19.202-47.823 19.202-68.193 0-11.753-0.45344-13.021-7.7316-21.625-6.5253-7.7138-4.7039-7.769 3.6746-0.11148 10.867 9.9321 11.372 11.646 10.623 36.055-0.88409 28.807-4.941 46.115-17.388 74.185-6.0785 13.708-13.382 23.058-34.327 43.947-46.663 46.538-103.85 84.769-200.73 134.2-38.185 19.483-74.437 34.953-131.49 56.109-117.93 43.73-247.38 77.161-375.55 96.981-18.44 2.8517-34.465 5.1384-35.612 5.0817s-12.075-4.9795-24.285-10.939z" fill="url(#f)" filter="url(#a)"/>
 <path d="m100.16 607.29 8.9578 16.287c12.973 10.851 23.457 15.482 33.388 18.73 182.41-7.8461 353.22-66.719 520.36-141.7 107.72-48.722 206.84-104.08 261.4-193.81l11.401-42.346-17.101 39.903c-68.684 85.497-165.85 135.39-264.66 183.23-164.24 70.207-333.17 118.98-508.15 140.07z" fill="url(#d)" filter="url(#a)"/>
 <path transform="matrix(.47398 .41145 -.66064 .29519 583.95 295.79)" d="m198.08 481.52a72.554 38.005 0 1 1 -2e-3 -0.25226" filter="url(#a)"/>
</svg>
