<?xml version="1.0" encoding="UTF-8"?>
<svg enable-background="new 0 0 851.229 739.875" viewBox="0 0 709.383 422.55399" xmlns="http://www.w3.org/2000/svg">
 <defs>
  <linearGradient id="h" x1="141.6" x2="850.4" gradientUnits="userSpaceOnUse">
   <stop offset="0"/>
   <stop stop-color="#00457c" offset=".2473"/>
   <stop stop-color="#7993ba" offset=".7033"/>
   <stop stop-color="#00457c" offset="1"/>
  </linearGradient>
  <linearGradient id="g" x2="0" y1="330.59" y2="268.02" gradientUnits="userSpaceOnUse">
   <stop stop-color="#4d4d4d" offset="0"/>
   <stop offset="1"/>
  </linearGradient>
  <linearGradient id="f" x2="0" y1="330.47" y2="383.79" gradientUnits="userSpaceOnUse">
   <stop stop-color="#999" offset="0"/>
   <stop offset="1"/>
  </linearGradient>
  <linearGradient id="e" x2="0" y1="220.77" y2="72.173" gradientUnits="userSpaceOnUse">
   <stop stop-color="#333" offset="0"/>
   <stop stop-color="#1a1a1a" offset="1"/>
  </linearGradient>
  <linearGradient id="d" x2="0" y1="226.72" y2="50.724" gradientUnits="userSpaceOnUse">
   <stop stop-color="#333" offset="0"/>
   <stop stop-color="#1a1a1a" offset="1"/>
  </linearGradient>
  <linearGradient id="c" x2="0" y1="227" y2="150.33" gradientUnits="userSpaceOnUse">
   <stop stop-color="#7a7a7a" offset="0"/>
   <stop offset="1"/>
  </linearGradient>
  <linearGradient id="b" x2="0" y1="221.08" y2="153.79" gradientUnits="userSpaceOnUse">
   <stop stop-color="#7a7a7a" offset="0"/>
   <stop offset="1"/>
  </linearGradient>
  <linearGradient id="a" x1="750.67" x2="749.25" y1="243.55" y2="229.81" gradientUnits="userSpaceOnUse">
   <stop stop-color="#333" offset="0"/>
   <stop stop-color="#fff" offset=".522"/>
   <stop offset="1"/>
  </linearGradient>
  <linearGradient id="i" x1="846.97" x2="752.11" y1="225.97" y2="250.45" gradientUnits="userSpaceOnUse">
   <stop stop-color="#4d4d4d" offset="0"/>
   <stop offset="1"/>
  </linearGradient>
 </defs>
 <g transform="translate(-141.35 -19.698)" stroke="#000" stroke-width=".5">
  <path d="m850.4 374.8s-536.8-28.001-708.8 4.8v62.4h705.6l3.201-67.2z" fill="url(#h)"/>
  <path d="m647.44 301.86 105.37-6.545" fill="none"/>
 </g>
 <g transform="translate(-141.35 -19.698)">
  <path d="m271.55 323.73v-3.928s94.27-55.705 316.37-74.63l0.714 10.713-5.735-1.551c-1e-3 0-171.73 10.12-311.35 69.396z" fill="#808080" stroke="#000" stroke-width="1.5"/>
  <path d="m271.9 318.33-0.333-34s0.667-12.667 5.667-14c0 0 7 3.334 7.667 12.334l-1.334 30.333 8-3.333 0.333-29.334s2-8 5.667-8.333c0 0 5.333 2.333 5.333 33.333l7.333-3.333 0.333-40.667 2.667-3.666-0.333-1.667-52-2.333-5.333 3 1.333 1 0.333 3 1.333 1.333-0.333 60.333v44.667l7.333 0.333 46 1.667-0.333-42.333v-8l-21 3.333-17 1.667-1.333-5.334z" fill="#333"/>
  <path d="m262.23 261.33 3.334 106-7.334-0.333 0.334-105 4.333-2.333" fill="#666"/>
  <path d="m582.11 254.15s7.756 3.35 27.499 0.353l3.702 0.882-0.354 21.682-5.641-1.41-13.749-5.641-11.457-15.866z" fill="#666"/>
  <path d="m756.06 263s-0.738 14.012-3.867 16.749v109.5l-89.141 16.052-10.586-24.655-2.737-99.727 3.52-21.118 102.81 3.196z" fill="url(#g)"/>
  <path d="m654.7 260.56-4.341 5.116-2.171-10.233 7.598-3.722s11.938 0.155 13.645 0.775-1.396 3.566-1.396 3.566l-13.335 4.498z"/>
  <path d="m592.245,325.415v50.789l.843,3.371 19.809.843-.631-56.478-20.021,1.475z" fill="url(#f)"/>
  <path d="m593.3 272.1 18.967-4.426 0.421 58.375-6.112 1.054-13.065 5.479-1.265-6.112 1.054-54.37z" fill="#333"/>
  <path d="m610.893,403.246-22.196-2.74 .685-13.427 20.654,2.417c-.001,0-5.173,10.05.857,13.75z" fill="#999"/>
  <path d="m610.07 376.67-15.619-2.192s-7.125 6.166-4.248 12.058l18.635 1.78s-1.096-9.728 1.232-11.646z" fill="#999"/>
  <path d="m610.66 253.08v121.84l-2.48 9.302-0.311 8.37-1.24 10.85 10.541 0.311v-128.97l2.963-5.281 1.378-11.771-0.31-6.2-1.861 1.55h-8.68z" fill="#333"/>
  <path d="m630.19 252.15h12.401l8.391 0.348-1.88 38.097 2.17 90.839 3.41 6.509 1.55 9.921-0.62 12.712-22.322-2.791-4.341-21.082 1.241-134.55z" fill="#333"/>
  <path d="m631.74 252.77-0.311 127.11s-0.621 8.989 4.029 9.61l-2.169 18.292-18.912-5.89 0.931-130.52-0.621-16.742c1e-3 1e-3 14.573-3.41 17.053-1.86z" fill="#979696"/>
  <path d="m635.01 390.64-27.266-1.097 2.328-12.879 21.356 2.288c1e-3 0-2.584 6.893 3.582 11.688z" fill="#999"/>
  <path d="m609.726,389.495-.31-.93c.31.93 18.291,0 18.291,0 6.821.31 5.271,8.371 5.271,8.371-.93-7.44-6.512-6.511-6.512-6.511l-16.432-.93" fill="#333"/>
  <path d="m653.75 389.81 0.93 22.632 8.371-7.13-2.791-17.672-6.51 2.17z" fill="#4d4d4d"/>
  <path d="m650.911,379.885-20.724-.931 2.914,11.472 21.696-.62 4.531-1.86c.001-.001-2.912-7.752-8.417-8.061z" fill="#999"/>
  <path d="m647.86 273.54 1.24 104.48 4.96 4.03s4.34 4.03 5.271 5.891-4.961-55.186-4.65-90.839v-24.492l-6.82-4.341v5.271" fill="#4d4d4d"/>
  <path d="m713.38 54.79 20.748 8.972 7.851-1.122 13.942 2.917-3.849 6.615-5.047 9.533 2.804 144.12-21.87 0.561s5.048-108.79-7.289-108.23-3.365 25.234-3.365 25.234l-12.337 1.122 0.562-83.553 7.85-6.168z" fill="url(#e)"/>
  <path d="m642.07 47.53 49.138 12.912v-10.76l-52.243-17.822-2.095 8.855 5.2 6.815z" fill="#1a1a1a"/>
  <path d="m647.16 230.66 35.404-3.582 1.918-83.174s-0.229-32.555-17.273-46.705c0 0-14.736 4.792-19.586 31.588l-4.159-1.617-4.852-85.01-0.692-9.933 1.825 13.151 50.382 13.876 1.387 10.857v159.16h-43.66" fill="url(#d)"/>
  <path d="m599.73 43.286v2.817l1.408 1.784 12.675-11.267 5.351 2.535 3.85-1.784 11.454-7.041 15.867 5.164 1.127-4.883-16.524-6.572-15.868 10.516-6.008-1.221-13.332 9.952z" fill="#979696"/>
  <path d="m595.66 57.792 1.132 7.358 2.265-0.566-2.547 159.62 5.093-1.132 3.397-11.038v-152.83l-2.547-2.831v-7.641l-6.793 9.057z" fill="#666"/>
  <path d="m602.46 48.735v7.641l2.547 2.831v152.83l-3.397 9.906v14.434h11.604l0.283-197.26-11.037 9.622z" fill="#979696"/>
  <path d="m613.492,39.113 6.792.849-1.415,197.26-5.66-.849 .283-197.26z" fill="#333"/>
  <path d="m620.28 39.962 13.585-8.774-0.566 204.62-14.434 1.415 1.415-197.26z" fill="#979696"/>
  <path d="m633.869,31.188-.566,204.619 14.15.849 .316-192.738-4.844-3.39-3.679-.849-.283-8.208-5.094-.283z" fill="#333"/>
  <path d="m597.929,133.074v14.774l7.192-6.998 9.525-5.831 4.665-.681 13.607-8.261 12,3.83-.336-15.105-11.762-3.304-13.217,8.844-5.444.389-7.775,6.707-1.653.097-6.802,5.539z" fill="#c8c8c8" opacity=".82"/>
  <path d="m599.336,66.256-.145,7.432 6.123-3.888 .291-2.041 10.11-6.707 4.568-.291 13.219-7.095 10.418,2.195v-7.161l-5.072-1.158-6.221-1.166-12.344,7.484-4.568.097-11.178,8.359 .195.68-5.396,3.26z" fill="#a7a7a7" opacity=".82"/>
  <path d="m645.81 129.91-12.917-2.986-13.561 8.311-4.593 0.219-9.625 5.906h-1.968l-6.561 6.999" fill="none" stroke="#000" stroke-linecap="round" stroke-linejoin="round" stroke-width="2"/>
  <path d="m644.69 115.35-11.797-2.754-13.561 8.311-4.593 0.219-9.625 5.906h-1.968l-6.561 6.999" fill="none" stroke="#000" stroke-linecap="round" stroke-linejoin="round" stroke-width="2"/>
  <path d="m599.336,73.417 5.543-3.465 .924-2.541 9.703-6.468 5.082-.231 12.705-6.93 10.627,2.079" fill="none" stroke="#000" stroke-linecap="round" stroke-linejoin="round"/>
  <path d="m599.336,66.256 5.543-3.465 .924-2.541 9.703-6.468 5.082-.231 12.705-6.93 10.627,2.079" fill="none" stroke="#000" stroke-linecap="round" stroke-linejoin="round"/>
  <path d="m595.66 57.792-3.203-1.601 8.902-8.665 0.78 1.715-6.479 8.551z" fill="#575757"/>
  <path d="m591.098,52.378 .408,3.405 .953.408 8.902-8.665-1.411-1.822-8.852,6.674z" fill="#979696"/>
  <path d="m647.37 133.28s0-26.231 19.834-36.468c0 0 15.998 9.577 17.918 44.766v86.76l-28.794 1.552 1.279-87.651c0-2e-3 -3.839-40.309-10.237-8.959z" fill="url(#c)"/>
  <path d="m688.02 228.98 2.643-165.03 12.333-3.23-2.643 167.38-12.333 0.881z" fill="#979696"/>
  <path d="m601.36 47.526 12.705-11.537-0.624 3.507s-12.394 9.354-17.78 18.294l-3.203-1.6 8.902-8.664z" fill="#575757"/>
  <path d="m598.32 42.069 1.482 2.027 14.576-9.198-1.715-2.494-14.343 9.665z"/>
  <path d="m598.32 42.069-2.26-2.65 16.525-10.757 0.078 3.742-14.343 9.665z" fill="#575757"/>
  <path d="m612.586,28.662 5.534,4.365 15.901-9.977 .467,2.182-15.121,10.056-4.988-.39-1.715-2.494-.078-3.742z"/>
  <path d="m634.178,22.816 19.876,7.483-1.87.39-.781.857-16.915-6.314-.467-2.182 .157-.234z"/>
  <path d="m614.07 29.987 4.755-0.234 15.279-10.055 21.903 7.327-2.417 3.118-19.098-7.093-16.368 9.977-4.054-3.04z" fill="#878787"/>
  <path d="m613.811,36.62 5.916,1.409 14.459-9.108 16.993,5.727-1.033,1.503-16.277-4.963-13.585,8.774-6.792-.849 .319-2.493z" fill="#575757"/>
  <path d="m634.56 23.664-0.65795 7.98" fill="none" stroke="#000"/>
  <path d="m619.367,35.288 .36,2.741 .557,1.933" fill="#979696" stroke="#000"/>
  <path d="m614.379,34.898-.568,1.722-.319,2.493-.283,197.26" fill="none" stroke="#000"/>
  <path d="m644.92 129.91s-2.017-27.316 23.956-40.75c0 0 17.017 19.032 17.688 48.362" fill="none" stroke="#000" stroke-linecap="round" stroke-linejoin="round"/>
  <path d="m650.619,33.687 39.733,13.397-.231,3.004-39.975-13.937 .473-2.464z" fill="#979696"/>
  <path d="m690.35 47.084 10.857-3.695v3.003l-11.088 3.696 0.231-3.004z" fill="#979696"/>
  <path d="m701.21 43.389 19.636 6.468-1.387 2.772-18.249-6.237v-3.003z" fill="#979696"/>
  <path d="m716.46 56.556 1.617-1.155 14.092 5.313-0.924 2.079-14.785-6.237z" fill="#979696"/>
  <path d="m732.164,60.714 9.702-1.155-.231,3.465-10.395-.231 .924-2.079z" fill="#979696"/>
  <path d="m741.866,59.559 14.553,4.62-.924,2.31-13.86-3.465 .231-3.465z" fill="#979696"/>
  <path d="m690.668,63.951-.547-13.863 12.741-4.203 .139,14.836" fill="#979696"/>
  <path d="m680.45 47.031 1.167 75.478" fill="none" stroke="#000" stroke-width=".5"/>
  <path d="m670.34 44.697 0.77698 57.192" fill="none" stroke="#000" stroke-width=".5"/>
  <path d="m848.91 122.12-87.927-43.964" fill="none" stroke="#979696"/>
  <path d="m849.3 129.9-95.321-54.468" fill="none" stroke="#979696"/>
  <path d="m848.52 133.4-96.487-57.581" fill="none" stroke="#979696"/>
  <path d="m848.52 143.91-97.654-66.14 98.433 60.304" fill="none" stroke="#979696"/>
  <path d="m849.3 148.96-99.211-70.03" fill="none" stroke="#979696"/>
  <path d="m848.14 169.59-97.655-89.094" fill="none" stroke="#979696"/>
  <path d="m748.92 82.436 99.988 98.432" fill="none" stroke="#979696"/>
  <path d="m840.05 181.83-91.964-103.74" fill="none" stroke="#979696"/>
  <path d="m843.98 203.14-93.107-125.37 86.938 136.58" fill="none" stroke="#979696"/>
  <path d="m702.66 76.964 146.36 106.54" fill="none" stroke="#666"/>
  <path d="m700.98 68.552 147.48 85.796" fill="none" stroke="#666"/>
  <path d="m599.48 269.3-0.56 55.514 10.654-1.121 1.682-55.515-11.776 1.122z" fill="#979696"/>
  <path d="m709.95 226.69 18.505-1.683 1.122-67.852s-0.561-37.571-10.654-41.496c0 0-10.094 5.608-10.094 21.309l1.121 89.722z" fill="url(#b)"/>
  <path d="m701.21 46.392 16.033 5.337-0.787 4.827-6.503 6.949v163.18l-9.594 1.411 0.851-181.7z" fill="#333"/>
  <path d="m653.05 239.9 195.84-19.609-0.209 14.691-197.7 17.522 2.071-12.604z" fill="url(#a)" stroke="#afb1b4"/>
  <path d="m654.96 239.9 9.289 10.109" fill="none" stroke="#000"/>
  <path d="m672.72 248.64-11.203-8.197 14.752 0.274" fill="none" stroke="#000"/>
  <path d="m671.63 240.44 7.924 7.377" fill="none" stroke="#000"/>
  <path d="m679.83 239.35 8.743 7.65" fill="none" stroke="#000"/>
  <path d="m693.76 238.53 10.109 7.651" fill="none" stroke="#000"/>
  <path d="m714.53 237.16 9.29 6.831" fill="none" stroke="#000"/>
  <path d="m724.64 236.07 10.383 7.377" fill="none" stroke="#000"/>
  <path d="m756.18 230.88 11.202 7.923" fill="none" stroke="#000" stroke-width="2"/>
  <path d="m770.54 230.06 10.383 7.377" fill="none" stroke="#000"/>
  <path d="m784.74 228.97 8.196 7.377" fill="none" stroke="#000"/>
  <path d="m800.05 228.15 10.929 7.651" fill="none" stroke="#000"/>
  <path d="m832.29 224.05 11.749 9.016" fill="none" stroke="#000"/>
  <path d="m669.72 241.81v6.284" fill="none" stroke="#000"/>
  <path d="m656.06 250.01 191.8-17.76" fill="none" stroke="#000"/>
  <path d="m757.69 230.06v8.196" fill="none" stroke="#000"/>
  <path d="m782.01 230.33-0.54699 10.656" fill="none" stroke="#000"/>
  <path d="m812.61 227.05v11.475" fill="none" stroke="#000"/>
  <path d="m829.01 225.69-0.27399 11.203" fill="none" stroke="#000"/>
  <path d="m683.65 239.35 13.115-0.54601" fill="none" stroke="#000"/>
  <path d="m707.69 236.89 12.569-0.54601" fill="none" stroke="#000"/>
  <path d="m743.76,233.886-8.469.272 10.109,7.377" fill="none" stroke="#000"/>
  <path d="m754.14 232.25 0.82 9.017" fill="none" stroke="#000"/>
  <path d="m773 237.98 7.104-7.377" fill="none" stroke="#000"/>
  <path d="m817.8 233.06 10.109-7.65" fill="none" stroke="#000"/>
  <path d="m831.74 231.7 13.116-9.015" fill="none" stroke="#000"/>
  <path d="m749.23 224.75 100.5-9.5" fill="none" stroke="#878787" stroke-width="2"/>
  <path d="m848.48 220-100.25 7v3l100.25-10z" fill="#333"/>
  <path d="m647.98,239.5 3,11.25 2.071-10.854 96.179-10.146-1.75-5.25-91.25,4.5-10.603.892 2.353,9.608z" fill="#333"/>
  <path d="m695.33 245.19 6.037-8.489" fill="none" stroke="#b3b3b3"/>
  <path d="m646.721,268.774-14.225-.474-12.327.948" fill="none" stroke="#000"/>
  <path d="m611.16 266.4 21.336 1.897-12.367 1.204-8.884-0.65-0.085-2.451z"/>
  <path d="m648.17 269.21 13.642 1.239" fill="none" stroke="#000"/>
  <path d="m618.1 322.22 14.572 2.17 15.811-0.62" fill="none" stroke="#000"/>
  <path d="m620.58 333.38h12.711l16.122 2.48h-15.502l-1.239 8.061-0.931-8.061s-1.24-2.17-11.161-2.48z"/>
  <path d="m729.396,277.248c4.651.639 21.703.328 21.703.328l-39.374-2.17c0,0 .31-3.41.62-9.301 0,0 1.86,7.751-10.541,7.751l-11.471-.931 19.842,4.03c0,.001 14.569-.346 19.221.293z"/>
  <path d="m585.233,258.045c0,0 8.37,9.92 8.061,16.741 0,0 5.271-5.89 16.741-6.2 0,0-13.641,2.79-15.501.62 0,0-3.411-8.991 7.44-13.021 0,0 8.99-2.48 10.852-2.48 0,0-14.262.932-15.812-2.479 0,0-3.721,3.721-5.27-.62 0-.002-.93,6.819-6.511,7.439z"/>
  <path d="m592.98 352.29-1.24 19.222-2.171 14.262s-0.309-10.541 7.752-10.541c-2.116 0.452-4.341 12.923-4.341-22.943z"/>
  <path d="m621.2 263.93s0.311-7.131 8.371-7.44l-9.301-1.55s-3.101 4.029-8.061 3.1c1e-3 -1e-3 8.991-0.312 8.991 5.89z"/>
  <path d="m689.09 264.24 20.771 2.17" fill="none" stroke="#000"/>
  <path d="m706.76 265.79s5.271-1.55 5.271-4.65c0 0-1.859 4.962 20.772 6.821 0 0-22.013-3.72-21.393 4.03 0 0 1.24-5.891-4.65-6.201z"/>
  <path d="m731.26 267.03s18.911 3.101 22.941-2.79c0 0-0.619 4.341-0.93 8.371 1e-3 0-0.619-4.961-22.011-5.581z"/>
  <path d="m631.43 247.5 0.931 9.611 18.602 1.86s-1.24-5.89 8.061-6.82l-27.594-4.651z"/>
  <path d="m664.6 252.15 53.945 5.271 37.514 5.58-4.031 1.86s-37.822-3.41-50.534-2.79c0 0-33.483-5.581-43.404 2.17 0 0-4.96 2.48-4.65 7.131l-4.03-1.551s0.31 1.86 0.62-4.96c-2e-3 0 0.929-12.4 14.57-12.711z"/>
  <path d="m631.43 378.95s-0.62 9.61 4.03 10.541c0 0-1.55 8.371-1.55 14.882l-0.931-14.262c1e-3 0-3.099-4.341-1.549-11.161z"/>
  <path d="m591.74 324.7 0.62 12.091s17.671 1.551 18.911-13.641l-19.531 1.55z" fill="#666"/>
  <path d="m598.56 352.91v23.252s-1.239 6.82-3.41 10.541c0 0-5.58 0.62-5.58-4.03l-0.311 17.052s0-11.781 1.86-11.781l6.2 0.62 9.611 0.93-0.311 13.951s0.621-13.95 8.062-13.021c0 0-5.581-0.312-5.581-7.441l1.551-8.061-1.551 1.86-2.17 9.61s-1.24 2.171-9.301 0.311l2.17-10.541c2e-3 0 0.312-22.632-1.239-23.252z"/>
  <path d="m610.04 389.5s9.302-1.24 8.062-13.642c0 0 7.752-1.24 10.541 0.93 0 0-8.681-1.55-8.681 1.551 0 0 0.619 12.712-9.922 11.161z"/>
  <path d="m850.17 251.41-110.15 15.911-89.952-0.843 3.666-16.904 195.61-17.943 0.833 19.779z" fill="url(#i)"/>
  <path d="m848.9 251.7-24.477-12.239" fill="none" stroke="#000" stroke-width=".5"/>
  <path d="m840.94 254.14-43.906-14.522 0.546-11.476" fill="none" stroke="#000"/>
  <path d="m732.23 245.67 34.266 16.126" fill="none" stroke="#000"/>
  <path d="m768.82 242.42 34.267 15.66" fill="none" stroke="#000"/>
  <path d="m754.71 243.97 27.289 15.349" fill="none" stroke="#000"/>
  <path d="m783.24 241.18 33.027 15.35" fill="none" stroke="#000"/>
  <path d="m835.49 237.46 14.11 12.714" fill="none" stroke="#000"/>
  <path d="m755.33 260.87 93.187-8.683" fill="none" stroke="#000"/>
  <path d="m794.25 257.46v1.706" fill="none" stroke="#000"/>
  <path d="m787.89 257.92v1.706" fill="none" stroke="#000"/>
  <path d="m781.38 258.39v1.706" fill="none" stroke="#000"/>
  <path d="m829.76 254.05 0.15497 2.171" fill="none" stroke="#000"/>
  <path d="m844.64 252.65v2.171" fill="none" stroke="#000"/>
  <path d="m838.75 253.74v1.862" fill="none" stroke="#000"/>
  <path d="m653.25 259.81 100.38 3.387 95.047-8.838" fill="none" stroke="#000"/>
  <path d="m592.62 258.85s5.817 4.231 6.17 11.635l0.705 0.176s-4.212-13.44 2.478-14.477c0 0-8.648-1.917-9.353 2.666z"/>
  <path d="m610.43 235.05-2.468 19.743 10.576-0.881 0.334-16.693-8.442-2.169z" fill="#272727"/>
  <path d="m618.87 237.22 14.298-2.346-0.528 17.452-14.104 1.587 0.334-16.693z" fill="#666"/>
  <path d="m633.3 235.81 14.672 0.127 4.407 16.217h-20.978l1.899-16.344z" fill="#666"/>
  <path d="m306.23 324.33s76.667-47.333 288.67-58l-12-12s-191.33 14.667-312.67 70h36z" fill="#333"/>
  <path d="m596.23 212.33 9.333-6 6.667-2h6.667l14.666-2.667 13.334 1.333v13.334l-13.334-0.667-20.666 2.667-11.295 3.606-6.705 4.394" fill="#c8c8c8" opacity=".82" stroke="#000" stroke-width="1.5"/>
  <path d="m601.32 242.34h-6.346l0.353-15.865 5.993-4.054v19.919z" fill="#999"/>
  <path d="m271.56 287h-8.334l-4.511 1.588" fill="none" stroke="#000"/>
  <path d="m284.56 288.33 6.666 0.33298" fill="none" stroke="#000"/>
  <path d="m301.9 288.33h8" fill="none" stroke="#333"/>
  <path d="m258.9 309.33 4.667 0.66599" fill="none" stroke="#333"/>
  <path d="m258.9 314 4.333 0.33401" fill="none" stroke="#333"/>
  <path d="m271.56 292.67-9.334-0.333-3.917 1.536" fill="none" stroke="#000"/>
  <path d="m263.23 256.33 47.646 2.158" fill="none" stroke="#000"/>
  <path d="m261.9 256-4 2" fill="none" stroke="#000"/>
  <path d="m304.35 331.06 6.652 0.15601" fill="none" stroke="#000"/>
  <path d="m267.23 339.67h-6.333s4.333-0.333 4.333 3.667l2-3.667z"/>
  <path d="m258.56 262 3.735-2.033" fill="#666" stroke="#000" stroke-width=".5"/>
  <path d="m274.054,324.197c0,0-.001-.784.014-.784 0,0 12.892-6.25 12.914-6.25 0,0 .027-2.116.037-2.116 .024.001 12.593-1.832 12.652-1.831 .012,0 .07-4.44.077-4.44l12.763-1.412c.002,0 .087-5.194.091-5.194 .026,0 13.134,4.375 13.186,4.376l.207-11.83c.067.001 13.341,6.158 13.341,6.158s.179-10.344.181-10.344c.044.001 13.018,5.131 13.075,5.132l.098-5.59c.036,0 12.84,6.251 12.84,6.251l.247-14.187 12.784,2.373 .091-5.162c.05.001 12.453,7.558 12.477,7.558 0,0 .079-5.149.09-5.149s12.631,1.517 12.663,1.518c0,0 .212-13.157.229-13.157l13.017,4.849c.039.001.1-5.649.1-5.649l12.965,4.366c.033,0-.008-1.118.02-1.118l13.092-1.446 .191-10.968c.068.001 12.799,10.931 12.799,10.931s.11-8.127.142-8.126c.057,0 12.502,1.909 12.502,1.909l.103-5.886c.054.001 12.792,10.533 12.792,10.533 .038.001.21-12.177.212-12.177 .066.001 12.422,11.418 12.484,11.419l.284-16.252c.032.001 13.167,6.647 13.167,6.647l.115-6.662 13.25,2.844c0,0-.02-.398.008-.397 .021,0 12.541,7.488 12.564,7.488l.287-16.52c0,0 12.803,10.676 12.826,10.676s.105-6.077.105-6.077l13.227.346 .137-7.833c.029,0 12.896,11.309 12.896,11.309s.104-5.939.104-5.939c.055.001 12.949,9.443 13.002,9.444l.188-10.76" fill="none" stroke="#808080" stroke-linecap="round" stroke-linejoin="round" stroke-width=".4"/>
  <path d="m274.849,319.447c0,0 .025-1.612.028-1.612l13.049-1.856 .016-.921c.044.001 12.792-7.896 12.828-7.895 .001,0 .02-1.509.026-1.509l12.997-3.549c.006,0 .035-1.967.035-1.967l12.934,1.239c0,0 .021-1.625.028-1.625l13.063-5.823c0,0 .094-5.553.097-5.553l13.319.243c.002,0 .106-6.56.114-6.56s13.019,6.49 13.066,6.491c.004,0 .121-6.874.121-6.874l13.06-1.096c0,0 .019-1.437.025-1.437l13.08.893 .047-2.705c.071.001 12.698-7.415 12.771-7.414 .002,0 .001-.403.008-.403l13.042.94 .015-.84 13.469-1.684c.008,0 .025-1.414.025-1.414l12.77-1.204c0,0 .02-1.409.025-1.409l12.959,1.258 .002-.115 13.072-4.587c.004,0 .019-1.404.024-1.403l13.363,2.646 .04-2.309 12.994,1.475c0,0 .172-9.867.173-9.867l12.92,7.209c.006,0 .088-5.016.088-5.016l13.326-1.581 .025-1.517 13.436.576 .023-1.394 13.414-.197c.002,0 .025-1.395.025-1.395 .049.001 13.127-.115 13.141-.115 0,0 .02-1.429.023-1.429s12.688,4.4 12.734,4.401c.004,0 .092-5.391.094-5.391l12.615,4.23c0,0 .125-7.469.131-7.469" fill="none" stroke="#000" stroke-linecap="round" stroke-linejoin="round" stroke-width=".4"/>
  <path d="m273.308,325.25c0,0 .019-2.248.04-2.248 0,0 12.857-4.18 12.877-4.179 0,0 .023-1.495.026-1.495 .025.001 12.619-3.436 12.68-3.435 .003,0 .024-1.486.026-1.486l12.808-4.027c0,0 .002-.189.003-.189l13.274-.629 .112-6.403c.062.001 13.436.705 13.436.705l.079-4.541c.042,0 13.131-1.125 13.185-1.124l.025-1.448c.032.001 12.905,2.519 12.905,2.519l.139-7.982 12.834-.351 .024-1.431c.043.001 12.618-1.828 12.64-1.828 0,0 .023-1.428.025-1.428l12.691-.062c0,0 .109-6.547.113-6.547l13.068,1.9c.008,0 .025-1.421.025-1.421l13.066-1.43c.006,0 .02-1.417.025-1.417l13.123-3.279 .074-4.206c.055.001 12.916,4.158 12.916,4.158s.018-1.347.023-1.347c.057.001 12.561-1.405 12.561-1.405l.023-1.404c.043,0 12.932,2.577 12.932,2.577 .006,0 .092-5.362.094-5.362 .053.001 12.553,4.587 12.602,4.588l.164-9.412c.031,0 13.236,2.766 13.236,2.766l.023-1.397 13.307-.452c0,0 .02-1.396.025-1.396 .02.001 12.613,3.534 12.633,3.534l.168-9.658c0,0 12.918,4.358 12.938,4.359 .002,0 .023-1.391.023-1.391 .037,0 13.299-4.901 13.318-4.901l.016-.888c.021.001 13.014,4.555 13.014,4.555l.023-1.387c.047.001 13.043,4.449 13.09,4.45l.055-3.072" fill="none" stroke="#000" stroke-linecap="round" stroke-linejoin="round" stroke-width=".4"/>
  <path d="m258.61 323.5-39.636 19.73-1.569 6.797 40.945-21.246" fill="#808080" stroke="#000" stroke-width="1.5"/>
  <path d="m258.61,323.5c13.073.23 26.123.352 39.202.352 3.012,0 11.146-1.425 12.185,1.76 .273.835-.228,1.921.027,2.776 .32,1.077 1.346,1.581.981,2.827-2.674.824-2.292-2.524-3.476-3.32-.658-.441-3.055-.355-3.36.181-.324.572.158,2.425.185,2.983 .104,2.222.019,4.484.003,6.707-.006.908.341,4.588-.705,5.327-2.071,1.463-2.736-3.888-2.817-5.053-.22-3.16.269-6.912 1.053-9.762-1.22-.053-2.626-.318-3.49.741-.86-1.259-1.414-2.822-3.153-1.49-.963.737-1.025,2.021-1.268,3.052-.486,2.071-1.08,4.062-2.653,5.444-.619-1.667.391-3.975-.232-5.688-.585-1.608-3.946-2.76-3.858-.199-1.748-1.403-4.925.233-6.705.78 .242,1.222-.031,2.318-.83,3.262-.07.083-2.036,2.175-1.945,2.133-1.068.501-2.583-1.025-2.935-1.896-.66-1.636.625-2.488-1.385-3.496-2.989-1.498-3.383,1.551-4.934,3.333-.717.823-.944,1.46-1.226,2.925-.366,1.902-.32,4.3-.919,6.048-.754-1.934-.584-3.728-.707-5.786-.114-1.924-.729-2.012-1.592-3.56-.708-1.271-.343-2.829-.686-4.231-.402-1.644-1.173-3.073-.736-4.888-1.577-.596-3.281-.673-4.903-1.262" fill="#1a1a1a"/>
  <g opacity=".7">
   <path d="m650.597,291.293c0,0-.545.171-.483-.186l-.19-.304-.51-.253 .172-.197c0,0 1.393.052 16.821,1.176 0,0 6.175.378 14.501,1.049 0,0 60.333,4.928 64.855,5.419 0,0-37.817-3.23-40.208-3.366 0,0 36.168,3.065 38.936,3.403 0,0-35.079-2.999-38.214-3.104 0,0 32.29,2.761 36.188,3.221 0,0-6.194-.558-7.853-.674l2.886.277-4.652-.381-2.683-.251c0,0 7.271.688 7.775.779 0,0 3.325.207-9.816-.83 0,0-31.053-2.858-77.525-5.778z"/>
   <path d="m649.13 290.23s18.776 1.35 37.003 2.722c0 0 39.61 3.22 43.842 3.597 0 0 11.48 0.938 18.289 1.576" fill="none" stroke="#939598" stroke-width=".0022"/>
   <path d="m706.61 294.62c-3.195-0.292-27.216-2.206-27.216-2.206-9.59-0.784-30.262-2.184-30.262-2.184" fill="none" stroke="#000" stroke-width=".0022"/>
   <path d="m707.37 294.97s28.326 2.367 34.52 2.925" fill="none" stroke="#000" stroke-width=".0022"/>
   <path d="m699.35 294.74s32.599 2.756 35.338 3.024" fill="none" stroke="#939598" stroke-width=".0022"/>
  </g>
  <g opacity=".7">
   <path d="m650.674,308.924c0,0-.56.186-.507-.172l-.207-.3-.536-.239 .171-.201c0,0 1.446.016 17.482.731 0,0 6.416.215 15.071.666 0,0 62.726,3.335 67.432,3.707 0,0-39.321-2.232-41.805-2.305 0,0 37.605,2.11 40.487,2.375 0,0-36.476-2.072-39.729-2.096 0,0 33.574,1.908 37.632,2.266 0,0-6.441-.395-8.164-.466l3.001.2-4.837-.259-2.79-.179c0,0 7.562.495 8.088.573 0,0 3.455.119-10.207-.57 0,.001-32.294-2.038-80.582-3.731z"/>
   <path d="m649.12 307.9s19.516 0.854 38.461 1.745c0 0 41.181 2.174 45.581 2.439 0 0 11.937 0.634 19.017 1.093" fill="none" stroke="#939598" stroke-width=".0022"/>
   <path d="m708.87 310.77c-3.324-0.207-28.296-1.487-28.296-1.487-9.97-0.531-31.452-1.385-31.452-1.385" fill="none" stroke="#000" stroke-width=".0022"/>
   <path d="m709.67 311.1s29.45 1.619 35.892 2.014" fill="none" stroke="#000" stroke-width=".0022"/>
   <path d="m701.34 311.08s33.895 1.896 36.744 2.092" fill="none" stroke="#939598" stroke-width=".0022"/>
  </g>
  <g opacity=".7">
   <path d="m650.692,332.405c0,0-.545.213-.511-.146l-.22-.289-.544-.212 .16-.209c0,0 1.434-.059 17.361-.156 0,0 6.369-.111 14.97-.1 0,0 62.33.146 67.013.279 0,0-39.081-.234-41.546-.18 0,0 37.374.199 40.243.317 0,0-36.252-.219-39.479-.077 0,0 33.369.202 37.408.354 0,0-6.402-.067-8.114-.052l2.984.048-4.806-.013-2.775-.037c0,0 7.521.11 8.045.162 0,0 3.43-.057-10.145-.052 .002.001-32.104-.396-80.044.363z"/>
   <path d="m649.101,331.458c0,0 19.383-.139 38.203-.209 0,0 40.92.081 45.294.123 0,0 11.861.027 18.901.127" fill="none" stroke="#939598" stroke-width=".0022"/>
   <path d="m708.456,331.294c-3.305-.038-28.116-.05-28.116-.05-9.907-.024-31.239.214-31.239.214" fill="none" stroke="#000" stroke-width=".0022"/>
   <path d="m709.27 331.59s29.268 0.122 35.671 0.189" fill="none" stroke="#000" stroke-width=".0022"/>
   <path d="m701.02 331.99s33.686 0.173 36.519 0.224" fill="none" stroke="#939598" stroke-width=".0022"/>
  </g>
  <path d="m649.1 358.01 101.09-10.332"/>
  <g opacity=".7">
   <path d="m650.731,358.419c0,0-.517.268-.52-.094l-.247-.265-.559-.155 .137-.225c0,0 1.409-.204 17.121-1.931 0,0 6.275-.762 14.767-1.63 0,0 61.539-6.228 66.175-6.574 0,0-38.6,3.764-41.027,4.069 0,0 36.912-3.624 39.756-3.799 0,0-35.806,3.489-38.976,3.96 0,0 32.958-3.212 36.96-3.474 0,0-6.326.588-8.015.778l2.951-.258-4.745.479-2.742.246c0,0 7.434-.659 7.956-.661 0,0 3.381-.407-10.018.985 .001.003-31.731,2.891-78.974,8.549z"/>
   <path d="m649.06 357.64s19.119-2.119 37.688-4.115c0 0 40.4-4.104 44.723-4.509 0 0 11.71-1.186 18.669-1.807" fill="none" stroke="#939598" stroke-width=".0022"/>
   <path d="m707.634,351.407c-3.266.3-27.758,2.825-27.758,2.825-9.781.989-30.814,3.407-30.814,3.407" fill="none" stroke="#000" stroke-width=".0022"/>
   <path d="m708.47 351.62s28.901-2.871 35.229-3.459" fill="none" stroke="#000" stroke-width=".0022"/>
   <path d="m700.36 352.86s33.269-3.271 36.07-3.511" fill="none" stroke="#939598" stroke-width=".0022"/>
  </g>
  <path d="m660.23 399.9 91.273-20.149"/>
  <g opacity=".7">
   <path d="m661.77,400.144c0,0-.439.315-.486-.042l-.259-.238-.531-.099 .098-.237c0,0 1.265-.34 15.437-3.592 0,0 5.651-1.37 13.317-3.062 0,0 55.57-12.204 59.771-13.002 0,0-34.873,7.514-37.058,8.055 0,0 33.346-7.21 35.927-7.663 0,0-32.35,6.968-35.193,7.746 0,0 29.777-6.414 33.409-7.066 0,0-5.72,1.203-7.242,1.558l2.67-.544-4.285.939-2.48.513c0,0 6.725-1.382 7.203-1.435 0,0 3.044-.735-9.05,1.958-.001-.001-28.696,5.971-71.248,16.211z"/>
   <path d="m660.15 399.53s17.241-3.975 33.996-7.772c0 0 36.479-8.027 40.387-8.854 0 0 10.574-2.322 16.868-3.62" fill="none" stroke="#939598" stroke-width=".0022"/>
   <path d="m713 387.62c-2.952 0.617-25.063 5.521-25.063 5.521-8.833 1.939-27.79 6.397-27.79 6.397" fill="none" stroke="#000" stroke-width=".0022"/>
   <path d="m713.79 387.74s26.105-5.679 31.825-6.881" fill="none" stroke="#000" stroke-width=".0022"/>
   <path d="m706.52 389.76s30.054-6.504 32.589-7.016" fill="none" stroke="#939598" stroke-width=".0022"/>
  </g>
  <path d="m651.36 377.13 98.828-13.09" stroke="#000" stroke-width=".09"/>
 </g>
 <g transform="translate(-141.35 -19.698)" fill="none" stroke="#000" stroke-width="1.5">
  <path d="m656.9 148.33 10-5.333h32.666l8.667 0.666"/>
  <path d="m748.9 153.67-10-1.333-28.667 5.333"/>
  <path d="m711.57 146.33 20.667-4h15.333"/>
  <path d="m710.23 131.67h-18.667l-8-1.333-8.666 1.333-18 4"/>
  <path d="m591.22 52.78 2.184 3.931 7.644-7.425"/>
  <path d="m602.14 46.883 10.263-7.644 0.219-5.023"/>
  <path d="m620.92 39.458 11.794-8.518"/>
  <path d="m634.25 29.192v-4.804"/>
  <path d="m632.72 24.606-12.887 9.828-6.988-4.805-0.219 4.587-13.541 8.954-1.747-4.368"/>
  <path d="m635.12 23.296 16.38 6.77-1.747 4.805"/>
  <path d="m691.47 51.033 9.173-4.805 17.035 5.679"/>
  <path d="m700.64 46.228v-2.621"/>
  <path d="m651.28 34.653 19.22 6.115"/>
  <path d="m741.27 59.332-0.43798 3.932"/>
  <path d="m755.679,64.574-.218,2.403-3.058,1.091 .437,1.747"/>
  <path d="m605.64 68.287 8.517-6.552"/>
  <path d="m620.05 54.527 0.21899 4.15"/>
 </g>
 <g transform="translate(-141.35 -19.698)">
  <path d="m311.28 260.14v41.441" fill="none" stroke="#000" stroke-width=".5"/>
  <path d="m313.12 260.45 2.763 39.292" fill="none" stroke="#000" stroke-width=".5"/>
  <path d="m316.5 262.59 4.298 34.688" fill="none" stroke="#000" stroke-width=".5"/>
  <path d="m321.72 265.05 1.842 32.539" fill="none" stroke="#000" stroke-width=".5"/>
  <path d="m327.24 266.89 2.762 28.241" fill="none" stroke="#000" stroke-width=".5"/>
  <path d="m332.16 268.43 1.228 24.865" fill="none" stroke="#000" stroke-width=".5"/>
  <path d="m336.76 270.88 1.53 20.763c-38.257-3.565-67.76-28.531-67.76-28.531" fill="none" stroke="#000" stroke-width=".5"/>
  <path d="m342.9 272.42-0.614 18.418s-15.349 1.534-31.004-14.428" fill="none" stroke="#000" stroke-width=".5"/>
  <path d="m347.5 273.95-0.92099 15.655" fill="none" stroke="#000" stroke-width=".5"/>
  <path d="m689.4 247.79-44.742-185.97" fill="none" stroke="#000"/>
  <path d="m709.24 246.23-63.417-190.25" fill="none" stroke="#000"/>
  <path d="m727.53 243.9-78.589-192.58" fill="none" stroke="#000"/>
  <path d="m751.26 242.34-103.88-195.7" fill="none" stroke="#000"/>
  <path d="m795.61 234.56-149.4-191.42 122.94 195.7" fill="none" stroke="#000"/>
  <path d="m848.13 229.11-201.92-185.97 180.52 192.2" fill="none" stroke="#000"/>
  <path d="m848.91 208.88-202.7-165.74" fill="none" stroke="#000"/>
  <path d="m848.52 190.2-201.14-143.56" fill="none" stroke="#000"/>
  <path d="m808.45 219-61.082-135.78 77.423 133.45" fill="none" stroke="#333"/>
  <path d="m772.27 222.11-33.459-82.481" fill="none" stroke="#333"/>
  <path d="m792.5 223.66-44.742-82.091" fill="none" stroke="#333"/>
  <path d="m748.92 154.41 29.568 67.307" fill="none" stroke="#333"/>
  <path d="m819.73 217.05-71.586-96.877" fill="none" stroke="#333"/>
  <path d="m710.32 58.809 138.54 43.42" fill="#fff" stroke="#000" stroke-width=".5"/>
  <path d="m708.13 57.909 0.599-1.909 140.43 45.273-0.598 1.909-140.43-45.273z" fill="#fff" stroke="#000" stroke-width=".5"/>
  <path d="m641.65 38.122 207.44 65.798" fill="#fff" stroke="#000" stroke-width=".7731"/>
  <path d="m641.23 39.662 1.5-1.162 206.36 65.42-0.424 1.538-207.44-65.796z" fill="#fff" stroke="#000" stroke-width=".7731"/>
  <path d="m680.23 52 3.5 173" fill="none" stroke="#000" stroke-width=".5"/>
  <path d="m670.23 50.5 7 188" fill="none" stroke="#000" stroke-width=".5"/>
  <path d="m690.23 50.5-1 186.5" fill="none" stroke="#000" stroke-width=".5"/>
  <path d="m760.73 224-0.5-146.5" fill="none" stroke="#000" stroke-width=".5"/>
  <path d="m753.23 225 1.5-149.5" fill="none" stroke="#000" stroke-width=".5"/>
  <path d="m748.23 223-37.5-150.5" fill="none" stroke="#000" stroke-width=".5"/>
  <path d="m848.73 131.5-200-88" fill="none" stroke="#000"/>
  <path d="m848.73 139-199-93" fill="none" stroke="#000"/>
  <path d="m849.23 153-196.5-104.5" fill="none" stroke="#000"/>
  <path d="m850.23 173-200.5-124.5" fill="none" stroke="#000"/>
  <path d="m849.23 122-99.5-46.5" fill="none" stroke="#333"/>
  <path d="m849.73 128.5-98.5-48.5" fill="none" stroke="#333"/>
  <path d="m848.23 149-99.5-67.5 91.5 100.5" fill="none" stroke="#333"/>
  <path d="m848.23 170.5-99.5-89" fill="none" stroke="#333"/>
  <path d="m847.73 160.5-99-82.5 100.5 58" fill="none" stroke="#333"/>
  <path d="m848.73 143-100-65 100 101.5-102.5-100" fill="none" stroke="#333"/>
  <path d="m792.73 87.5-0.5 131" fill="none" stroke="#333"/>
  <path d="m800.23 90.5 0.5 128.5" fill="none" stroke="#333"/>
  <path d="m807.73 92.5-0.836 124.55-58.748-89.095" fill="none" stroke="#333"/>
  <path d="m815.23 216.5 0.5-119.5" fill="none" stroke="#333"/>
  <path d="m823.73 97.5-0.5 118" fill="none" stroke="#333"/>
  <path d="m831.23 99 0.5 118" fill="none" stroke="#333"/>
  <path d="m748.73 81.5 96 123.5" fill="none" stroke="#333"/>
  <path d="m835.23 216-86.5-131" fill="none" stroke="#333"/>
  <path d="m839.73 215.5 1.5-112" fill="none" stroke="#333"/>
  <path d="m395.17 280.1c89.202-38.302 176.61-174.25 196.9-207.58 2.909-4.76 4.444-7.41 4.448-7.418l2.812 1.628c-0.131 0.089-99.173 171.57-202.87 216.36l-1.286-2.988z" fill="#fff" stroke="#000"/>
  <path d="m598.99 80.199-80.7 171.4" fill="none" stroke="#333" stroke-width=".75"/>
  <path d="m524.72 251.24 73.915-169.61" fill="none" stroke="#333" stroke-width=".75"/>
  <path d="m566.49 245.53 31.067-107.84-37.852 108.91 35.708-33.565" fill="none" stroke="#333" stroke-width=".75"/>
  <path d="m515.07 251.95 82.486-61.417" fill="none" stroke="#333" stroke-width=".75"/>
  <path d="m442.59 256.24v9.284" fill="none" stroke="#333" stroke-width=".75"/>
  <path d="m446.16 253.38 0.35702 8.927" fill="none" stroke="#333" stroke-width=".75"/>
  <path d="m450.08 250.88v12.498" fill="none" stroke="#333" stroke-width=".75"/>
  <path d="m454.01 246.24v14.283" fill="none" stroke="#333" stroke-width=".75"/>
  <path d="m457.23 244.1 0.71402 16.782" fill="none" stroke="#333" stroke-width=".75"/>
  <path d="m461.16 240.17 1.785 20.71" fill="none" stroke="#333" stroke-width=".75"/>
  <path d="m464.37 238.39 2.499 21.067" fill="none" stroke="#333" stroke-width=".75"/>
  <path d="m472.94 229.82 1.787 28.567" fill="none" stroke="#333" stroke-width=".75"/>
  <path d="m480.44 223.39 2.142 34.636 116.05-187.11-120.34 187.47-1.071-31.423" fill="none" stroke="#333" stroke-width=".75"/>
  <path d="m487.58 215.18 1.429 42.136 109.62-181.4" fill="none" stroke="#333" stroke-width=".75"/>
  <path d="m492.22 211.6 2.5 43.564" fill="none" stroke="#333" stroke-width=".75"/>
  <path d="m495.79 207.32 2.5 47.849 101.05-176.4-95.341 175.33" fill="none" stroke="#333" stroke-width=".75"/>
  <path d="m500.43 201.61 2.5 51.419" fill="none" stroke="#333" stroke-width=".75"/>
  <path d="m507.93 192.68 4.284 58.561" fill="none" stroke="#333" stroke-width=".75"/>
  <path d="m512.57 186.97 4.643 63.917" fill="none" stroke="#333" stroke-width=".75"/>
  <path d="m516.5 183.75 5.356 66.774" fill="none" stroke="#333" stroke-width=".75"/>
  <path d="m519.72 179.11 5.356 69.274" fill="none" stroke="#333" stroke-width=".75"/>
  <path d="m524 174.11 3.571 76.414 71.774-164.26" fill="none" stroke="#333" stroke-width=".75"/>
  <path d="m527.93 169.83 4.286 80.699 65.702-155.33" fill="none" stroke="#333" stroke-width=".75"/>
  <path d="m531.86 164.83 8.213 84.627 58.203-146.76" fill="none" stroke="#333" stroke-width=".75"/>
  <path d="m535.07 161.26 9.641 87.128" fill="none" stroke="#333" stroke-width=".75"/>
  <path d="m539.71 155.19 6.785 92.483 52.133-138.19" fill="none" stroke="#333" stroke-width=".75"/>
  <path d="m543.28 150.54 8.213 97.839 47.135-132.12" fill="none" stroke="#333" stroke-width=".75"/>
  <path d="m547.57 144.12 9.642 103.2 40.707-122.84" fill="none" stroke="#333" stroke-width=".75"/>
  <path d="m551.14 139.83 13.925 106.05" fill="none" stroke="#333" stroke-width=".75"/>
  <path d="m559.5 127.37 10.164 117.8" fill="none" stroke="#333" stroke-width=".75"/>
  <path d="m564.58 120.9 9.408 124.27 23.569-102.48-128.91 117.84 0.713-26.067" fill="none" stroke="#333" stroke-width=".75"/>
  <path d="m569.2 113.51 9.788 131.66 18.211-89.27-109.27 99.983-3.929-36.78" fill="none" stroke="#333" stroke-width=".75"/>
  <path d="m574.28 106.58 8.635 137.52 13.568-63.561-87.842 72.845-4.642-56.419" fill="none" stroke="#333" stroke-width=".75"/>
  <path d="m579.37 98.729 5.695 145.37 11.426-43.565" fill="none" stroke="#333" stroke-width=".75"/>
  <path d="m583.53 92.723 1.537 151.38" fill="none" stroke="#333" stroke-width=".75"/>
  <path d="m588.633,244.28-.176,11.988 21.153-1.763 1.234-19.743-22.034,7.227-.177,2.291z" fill="#333"/>
  <path d="m265.473,259.152 .002.002 1.511-1.309c.004-.002.371.429 1.194,1.231s2.082,1.961 3.805,3.351c3.448,2.785 8.757,6.511 16.171,10.244 14.824,7.463 38.061,14.957 71.69,14.959 7.27,0 15.026-.352 23.291-1.126l.188,1.99c-8.323.78-16.144,1.136-23.478,1.136-67.866.012-94.249-30.314-94.374-30.478z" fill="#fff" stroke="#000" stroke-width=".5"/>
  <path d="m285.704,258.88 .933-1.174c.006.002 1.739,1.388 5.098,3.555s8.325,5.107 14.728,8.171c12.806,6.126 31.358,12.752 54.326,14.74l-.129,1.494c-46.264-4.008-74.755-26.627-74.956-26.786zm-.001-.001v.002-.002z" fill="#fff" stroke="#000" stroke-width=".5"/>
  <path d="m293.327,258.935 .775-1.283c.006.004 2.6,1.57 6.937,3.937s10.405,5.521 17.312,8.671c13.806,6.312 31.011,12.594 44.336,12.584l.693-.003 .012,1.498-.705.006c-27.431-.044-69.118-25.292-69.36-25.41zm-.001,0 0,0v.002-.002z" fill="#fff" stroke="#000" stroke-width=".5"/>
  <path d="m310.279,259.868 .597-1.376c.025.009 11.556,5.01 25.182,10.02 13.607,5.013 29.371,10.008 37.428,9.991 .653,0 1.253-.033 1.794-.098l.177,1.488c-.609.072-1.268.107-1.971.107-17.004-.042-63.138-20.127-63.207-20.132z" fill="#fff" stroke="#000" stroke-width=".5"/>
  <path d="m222.22 340.92s36.949-70.104 36.312-76.514" fill="none" stroke="#000" stroke-width=".5"/>
  <path d="m226.11 340.28s28.206-52.522 32.745-64.194" fill="none" stroke="#000" stroke-width=".5"/>
  <path d="m258.21 307.53-10.699 22.047" fill="none" stroke="#000" stroke-width=".5"/>
  <path d="m258.21 271.54-33.718 68.733" fill="none" stroke="#000" stroke-width=".5"/>
  <path d="m255.94 324.39-0.64799-48.956" fill="none" stroke="#000" stroke-width=".5"/>
  <path d="m251.73 281.59 2.27 43.768" fill="none" stroke="#000" stroke-width=".5"/>
  <path d="m247.84 292.29 3.567 35.015 7.132-12.321" fill="none" stroke="#000" stroke-width=".5"/>
  <path d="m244.59 300.4 0.97299 29.829" fill="none" stroke="#000" stroke-width=".5"/>
  <path d="m240.7 309.15 2.269 23.344 15.562-28.855" fill="none" stroke="#000" stroke-width=".5"/>
  <path d="m237.46 316.61 1.622 17.184 18.804-35.34" fill="none" stroke="#000" stroke-width=".5"/>
  <path d="m235.19 319.85 0.648 14.914 22.695-43.769" fill="none" stroke="#000" stroke-width=".5"/>
  <path d="m232.27 325.04 0.648 11.996c3.89-6.483 25.613-54.144 25.613-54.144" fill="none" stroke="#000" stroke-width=".5"/>
  <path d="m257.89 281.27-27.882 56.737v-9.078" fill="none" stroke="#000" stroke-width=".5"/>
  <path d="m310.23 302c-14.768-4.882-42.942-40.508-42.942-40.508s20.75 38.581 29.828 45.39" fill="none" stroke="#000" stroke-width=".5"/>
  <path d="m266.32 260.2s11.347 50.253 15.886 53.171" fill="none" stroke="#000" stroke-width=".5"/>
  <path d="m351.5 274.87v12.278" fill="none" stroke="#000" stroke-width=".5"/>
  <path d="m357.64 277.33-0.61401 7.982" fill="none" stroke="#000" stroke-width=".5"/>
  <path d="m307.9 258.3c15.349 15.042 62.623 23.944 62.623 23.944s-29.142-2.211-76.426-24.589" fill="none" stroke="#000" stroke-width=".5"/>
  <path d="m355.18 285.92s-33.153 0.922-43.897-16.576" fill="none" stroke="#000" stroke-width=".5"/>
  <path d="m274.75 316.31-7.464-54.822s47.335 33.395 60.628 32.746" fill="none" stroke="#000" stroke-width=".5"/>
  <path d="m269.53 262.29 2.015 57.514" fill="none" stroke="#000" stroke-width=".5"/>
  <path d="m270.53 263.11v55.658l3.891-51.443v49.293" fill="none" stroke="#000" stroke-width=".5"/>
  <path d="m278.44 269.35 0.30701 46.966" fill="none" stroke="#000" stroke-width=".5"/>
  <path d="m281.2 271.19v43.284" fill="none" stroke="#000" stroke-width=".5"/>
  <path d="m285.19 273.34-0.30701 39.6" fill="none" stroke="#000" stroke-width=".5"/>
  <path d="m289.49 275.49-0.477 35.286c-6.16-2.27-21.722-49.28-21.722-49.28s30.043 43.265 35.609 43.841" fill="none" stroke="#000" stroke-width=".5"/>
  <path d="m293.48 277.64 0.613 30.697" fill="none" stroke="#000" stroke-width=".5"/>
  <path d="m298.39 280.09-0.30701 27.014" fill="none" stroke="#000" stroke-width=".5"/>
  <path d="m303.61 281.32 0.61398 23.023" fill="none" stroke="#000" stroke-width=".5"/>
  <path d="m309.75 282.85-1.227 20.26" fill="none" stroke="#000" stroke-width=".5"/>
  <path d="m313.43 284.39 0.543 15.685c-15.238-6.16-43.444-36.96-43.444-36.96" fill="none" stroke="#000" stroke-width=".5"/>
  <path d="m317.73 285.31 1.109 13.467s-33.069-21.722-44.417-31.448" fill="none" stroke="#000" stroke-width=".5"/>
  <path d="m326.63 286.54 0.30698 10.13" fill="none" stroke="#000" stroke-width=".5"/>
 </g>
</svg>
