<?xml version="1.0" encoding="UTF-8"?>
<svg enable-background="new 0 0 415.644 211.851" viewBox="0 0 415.644 211.851" xmlns="http://www.w3.org/2000/svg">
 <path d="m319.74 152.79c-4.367 8.811-26.078 46.41-3.126 50.025 8.662 1.364 17.962-13.224 21.19-19.977 11.443-23.936-0.192-22.278-18.064-30.048" fill="#b5c4b5" fill-rule="evenodd"/>
 <path d="m163.43 145.15c-7.288 10.078-38.575 45.334-17.889 54.715 11.686 5.298 23.077-11.014 30.22-19.455 13.091-15.47 25.216-53.057-12.331-35.26" fill="#b5c4b5" fill-rule="evenodd"/>
 <path d="m319.22 211.85c13.367-1.853 47.804-22.608 19.278-19.803-11.199 1.104-31.848 15.566-28.483-10.247-3.514 1.194-11.488 2.965-15.11 5.037 14.38 2.812 7.081 23.279 24.315 25.013" fill-rule="evenodd"/>
 <path d="m153.707,211.504c21.183-.771 28.393-14.296 35.778-31.787-10.258,4.873-26.495,23.941-39.079,19.106-15.646-6.012-7.373-21.521-.955-32.22 6.512-10.857 24.865-31.129 39.86-24.752 14.745,6.271 2.485,16.925.173,29.875 21.536-.737 22.882-42.73-4.516-42.73-11.021,0-20.519,8.711-28.136,15.634-17.501,15.906-14.342,26.723-41.51,29.008 5.015,2.404 13.275,3.259 20.148,2.779-1.021.271-6.62,2.982-10.595,3.474 1.934.485 8.138,3.749 9.552,4.167-3.276.611-4.019,2.152-5.73,3.128 8.116,7.232 8.001,23.309 25.01,24.318" fill-rule="evenodd"/>
 <path d="m272.677,209.418c9.262-.239 20.274.139 27.789-2.432-7.149-6.208-18.839-37.356-26.572-20.148-8.095-2.085-12.106.147-8.511,8.511-7.18,6.185-4.73,14.85 7.294,14.069" fill="#cfb071" fill-rule="evenodd"/>
 <path d="m96.74,207.683c12.648-3.833 25.429-.466 36.82-2.258-2.631-2.28-15.811-30.579-19.366-20.932-1.522,4.131-17.069-10.095-15.197,7.903-11.655.332-9.028,9.255-2.257,15.287" fill="#cfb071" fill-rule="evenodd"/>
 <path d="m269.03,206.292 25.531-.867c-5.297-7.616-8.085-18.425-16.674-19.629l2.432,6.08c-.347.101-.578.331-.695.693-5.523-2.155-8.963-.69-13.72-1.735 6.553,5.063 10.738,9.776-1.216,9.553-.411,3.747 2.248,4.019 4.342,5.905" fill="#cfb071" fill-rule="evenodd"/>
 <path d="m98.65,204.555c9.79-3.113 20.428-2.926 30.394-.521-5.692-7.248-9.206-27.869-14.242-13.199-8.679-9.806-18.354-7.115-9.899,4.515-4.95-.873-8.65.896-12.505.695 2.707.636 6.306,2.443 8.859,3.648-4.669,1.767-2.58,2.529-2.607,4.862" fill="#cfb071" fill-rule="evenodd"/>
 <path d="m189.31 189.44c0.877-1.57 4.495-4.179 5.037-7.815-5.765 1.953-4.39 5.178-5.037 7.815" fill-rule="evenodd"/>
 <path d="m347.186,186.491c1.043-1.127 3.171-.654 4.342-1.911-5.597-3.561-3.223.703-4.342,1.911" fill-rule="evenodd"/>
 <path d="m326.17 185.28c29.671-16.151-15.305-20.178 0 0" fill-rule="evenodd"/>
 <path d="m303.592,181.454c12.247-7.736 17.897-33.436 35.604-27.964 11.766,3.635 4.779,6.749 9.552,14.241-.42-.661-1.176,26.044 6.254,8.338 6.866-16.366-5.696-36.913-24.143-34.913-23.544,2.552-19.396,35.688-43.072,33.002 3.973.074 10.539,2.02 15.458,2.085-2.14.891-4.193,2.622-6.946,3.647 .134.218.191.451.173.694 2.247.554 4.763.5 7.12.87" fill-rule="evenodd"/>
 <path d="m166.559,176.243c7.771-2.039 17.906-15.575 8.338-15.634-1.041-.409 1.894-1.708.347-2.259-7.733,3.699-11.281,10.813-8.685,17.893" fill-rule="evenodd"/>
 <path d="m212.931,173.116c7.252-.634 82.994-.72 83.715-7.034 .672-5.897-88.87-15.043-83.715,7.034" fill-rule="evenodd"/>
 <path d="m109.766,169.642 24.141-.521c.172-1.706.346-6.482 0-8.858-12.668,0-28.26-6.121-29.873,8.858l5.732.521" fill-rule="evenodd"/>
 <path d="m216.753,169.642c24.837-1.409 49.972-4.001 74.855-3.127 .479-.801.709-1.671.694-2.605-15.597-1.518-75.069-4.179-75.549,5.732" fill="#b5c4b5" fill-rule="evenodd"/>
 <path d="m120.013,167.731c5.762-1.028 8.983,1.964 10.248-5.036-7.665.794-16.482,1.115-22.753,3.299 4.165.578 8.326,1.267 12.505,1.737" fill="#b5c4b5" fill-rule="evenodd"/>
 <path d="m364.901,165.301c9.419-.52 20.775-.342 29.178-1.565-4.887.712 20.614-8.466 18.236-5.036 11.529-16.631-10.594-19.862-10.594-28.486 0-14.094-.08-24.187-3.821-36.65-2.897-9.658-10.651-21.609-8.856-29.528-31.419-16.836-67.806-.591-98.998,5.211 24.48,9.111 34.853-6.815 58.878-7.816 32.479-1.353 45.367,14.529 50.366,46.725 2.521,16.235.427,46.127-14.937,50.372-21.257,5.874-23.81-23.519-43.595-22.754 17.047,6.68 14.644,23.504 24.143,29.527" fill-rule="evenodd"/>
 <path d="m217.62,158.525c24.85-5.25 51.756-1.068 77.115-1.909-.041-.158.017-.273.173-.349-16.262-8.719-46.432-3.459-65.13-4.083-12.378-.413-18.555-23.34-19.278-9.813-.488,9.143-3.19,13.93 7.12,16.154" fill-rule="evenodd"/>
 <path d="m300.466,157.657c5.762-5.511 9.896-13.832 14.938-20.67l-7.295,4.169c-2.941-21.358 7.67-43.601 10.073-64.094-8.454,1.662-21.481,1.955-26.573,6.079 7.498-.6 15.315-.163 22.231,1.911-5.705,8.002-18.061,7.051-24.837,11.638 5.026-1.038 12.857.962 18.411.347-1.029,7.428-8.304,11.459-13.722,12.68 19.325.12 6.837,10.286-.173,13.548 11.826.229 11.009,3.333 1.216,8.338v.693c7.346,2.75 3.575,16.993 5.731,25.361" fill-rule="evenodd"/>
 <path d="m117.755,156.268c7.52-.477 15.962-.796 20.321-4.689-24.254,2.583-14.33-12.114 2.431-17.196-7.114-.808-14.618-.182-21.536,1.911-1.799-12.669 24.932-16.368 35.951-19.107-12.687-1.536-25.375,2.421-37.862,5.385-4.392-13.633 28.406-16.337 39.252-19.628-8.223-.657-15.812.871-23.881,2.172-6.092.982-30.338-1.538-15.589-5.594 24.323-6.688 47.671-11.974 73.164-10.82-17.791-2.599-35.859-1.42-53.667.434-12.604,1.313-38.924,5.542-19.278-7.035 19.531-12.504 58.515-8.087 81.282-10.075-18.84-3.539-90.068,8.811-93.352-.869-4.914-14.485 77.221-16.283 89.185-16.848-31.832-3.067-66.454,3.01-96.914.173 10.556,30.498 6.236,76.237 20.493,101.786" fill-rule="evenodd"/>
 <path d="m405.717,155.573c8.421-10.462-3.719-20.129-8.163-.695l8.163.695" fill="#b5c4b5" fill-rule="evenodd"/>
 <path d="m366.463,147.409c65.938-3.689-4.723-60.71 16.849-76.253-12.905-1.944-26.478-1.876-39.687-1.477-20.084.608-15.762,19.157-16.412,36.912-1.128,30.791 14.623,19.373 34.388,31.96-5.603-9.751-30.567-12.888-30.567-20.232 0-16.818 36.399-16.894 48.109-8.949 2.821-1.822 5.808-1.163 10.422-2.778-.411,8.542 2.969,36.128-6.253,36.128-8.6-.001-17.845-1.371-16.849,4.689" fill-rule="evenodd"/>
 <path d="m144.15 146.36c8.063-12.002 20.23-21.02 31.958-27.964-10.538-0.711-40.62 17.333-31.958 27.964" fill-rule="evenodd"/>
 <path d="m407.1 133.17c1.821-7.885 4.226-18.236-0.694-23.449-1.84 7.755-2.041 17.237 0.694 23.449" fill-rule="evenodd"/>
 <path d="m340.24 118.06c4.425-1.164 8.718-3.139 13.026-4.69-7.111-2.605-22.147-4.131-13.026 4.69" fill-rule="evenodd"/>
 <path d="m382.96 104.33c6.908-2.002 2.289-9.333-2.954-16.154-1.198 6.505 1.068 12.43 2.954 16.154" fill="#fff" fill-rule="evenodd"/>
 <path d="m361.08,103.985c5.55-9.757 20.317-17.382 6.079-.348l9.726.348c-3.062-21.668 6.127-28.408-17.021-30.745-28.718-2.899-25.835,5.774-27.961,29.876l29.177.869" fill="#fff" fill-rule="evenodd"/>
 <path d="m356.737,97.21c6.671-3.81 9.898-15.208.609-19.541-7.142-3.331-10.657,15.715-.609,19.541" fill-rule="evenodd"/>
 <path d="m356.56 93.91c1.203-3.551 3.182-7.314 1.563-12.332-6.321 4.29-3.063 7.526-1.563 12.332" fill="#fff" fill-rule="evenodd"/>
 <path d="m290.74 57.26c8.646-2.938 17.117-2.605 26.14-2.605 2.544 0 18.6-3.823 8.943-6.427-8.376-2.258-32.906 5.239-35.083 9.032" fill-rule="evenodd"/>
 <path d="m83.193,62.992c.344-1.352 3.587.382 1.736-3.647l-43.072.173c13.768,1.349 27.902,1.066 41.336,3.474" fill="#87e0ff" fill-rule="evenodd"/>
 <path d="m87.361,74.109c.184-1.023 3.133-.274 1.737-3.647l-42.899.347c13.706,1.359 27.751.668 41.162,3.3" fill="#87e0ff" fill-rule="evenodd"/>
 <path d="m88.751,90.263c.263-1.218 3.313.193 1.737-3.648l-43.073.347c13.75.974 27.984.766 41.336,3.301" fill="#87e0ff" fill-rule="evenodd"/>
 <path d="m99.344,125.177c.111-.877 3.17-.097 1.563-3.474h-43.072c13.8,1.208 28.096,1.572 41.509,3.474" fill="#87e0ff" fill-rule="evenodd"/>
 <path d="m97.781,135.075c1.393-1.677 4.409.834 2.259-3.646l-57.488.347c18.386,1.161 37.162,1.691 55.229,3.299" fill="#87e0ff" fill-rule="evenodd"/>
 <path d="m97.087,169.468c1.539-1.716 4.296.766 2.432-3.474h-57.489c18.351,1.354 36.973,1.263 55.057,3.474" fill="#87e0ff" fill-rule="evenodd"/>
 <path d="m359.17,52.745c3.573-5.968-.684-16.878 8.51-21.191-1.337,7.316-1.404,14.553 1.217,20.844-.147-5.336 1.977-11.935 1.563-17.717 3.354,6.86 4.003,7.469 2.433,15.807l.521.521c9.951-8.295 2.17-17.033-2.953-23.275-9.13,1.584-24.828,12.634-13.373,20.149-.062-5.538.803-6.17 1.563-10.943-.302,4.943.885,11.975.519,15.805" fill-rule="evenodd"/>
 <path d="m95.004,48.576c21.244-18.523 79.771-11.127 107.68-11.811-.426.27-2.67-1.063-2.779-1.39 4.573.005 9.148-.366 13.722-.348-36.767-4.405-74.352.828-111.33.521 4.115-4.823 6.695-10.947 10.769-15.807l-.694-1.042c-15.778,10.766-17.397,15.884-36.82,8.511 3.633,7.871 14.039,14.862 19.452,21.366" fill-rule="evenodd"/>
 <path d="m76.246,48.054c1.745-10.313-40.799-2.416-51.062-1.736 17.067.801 34.073-.405 51.062,1.736" fill="#87e0ff" fill-rule="evenodd"/>
 <path d="m289.7 42.149c7.033-1.301 39.311 1.251 42.03-3.648 3.053-5.495 13.776-25.808 11.116-30.396-5.632-9.721-74.868-3.906-92.05-4.517-25.165-0.895-161.26-13.926-172.81 15.98 44.046-16.42 105.08-10.054 150.93-7.643 29.381 1.545 58.799-3.157 87.883-2.432 27.531 0.688 12.709 18.477 3.301 7.469 2.308 4.518 5.461 11.227 7.988 17.022-11.02 1.62-32.302 3.403-38.384 8.165" fill-rule="evenodd"/>
 <path d="m68.083,30.164c1.472-2.184 3.915-.936.868-4.516-4.806-5.647-52.324,2.816-61.309,3.3 20.093.167 40.501-.638 60.441,1.216" fill="#87e0ff" fill-rule="evenodd"/>
 <path d="m64.436,21.479c.693-.693 7.852-4.327-.076-4.137l-64.36,1.532 64.436,2.605" fill="#87e0ff" fill-rule="evenodd"/>
 <path d="m243.673,30.164c-.231,10.48-.462,20.96-.695,31.439l35.606-.173c0,19.567 4.789,25.195-11.116,30.224-6.54,2.067-19.209-3-23.1,1.563-5.022,5.885 3.516,23.805 0,30.919-2.829,5.719-18.773,14.142-27.789,8.161-10.987-7.287-6.912-27.474-7.122-38.386-10.43.47-20.846,1.4-31.262,2.085 .914-8.592 10.032-8.436 18.932-8.511-30.465-1.696-16.59-12.016 5.383-15.459-27.187-4.044-35.355-9.727-1.563-9.727 13.472,0 8.336-20.305 8.336-32.221 .001-6.498 27.676-.354 34.39.086" fill="#ff0017" fill-rule="evenodd"/>
 <path d="m208.068,128.303 5.559,5.559c-1.854.463-3.706.924-5.559,1.388 .571-2.303.522-5.183 0-6.947" fill="#ff0017" fill-rule="evenodd"/>
 <path d="m335.723,78.451c-.463,7.47-.927,14.938-1.39,22.407 5.815.494 13.942,1.229 19.627,0-23.381-17.517 17.858-34.08 9.727-5.558 8.597-3.929 11.362-12.04 8.336-21.018-11.645.295-27.944-2.504-36.3,4.169" fill="#87e0ff" fill-rule="evenodd"/>
 <path d="m368.55 32.943c-1.023 5.956 0 12.875 0 18.933 9.713-4.479 11.581-16.215 0-18.933" fill="#ff0017" fill-rule="evenodd"/>
</svg>
