<?xml version="1.0" encoding="utf-8"?>
<svg version="1.1" id="Layer_1" xmlns="http://www.w3.org/2000/svg" xmlns:xlink="http://www.w3.org/1999/xlink" x="0px" y="0px"
	 viewBox="0 0 5005.069 3510.806" enable-background="new 0 0 5005.069 3510.806" xml:space="preserve">
<g>
	<path fill="#333333" stroke="#333333" d="M3159.72,130.522C3121.917-3.903,2921.393-44.51,2824.612,69.898
		c-56.738,68.427-63.598,160.549-83.481,243.805c-76.737,321.283-85.63,410.052-167.185,736.904
		c-16.623-19.914-33.162-40.525-56.616-42.771c-23.365-3.701-40.226,16.574-56.398,29.995
		c-11.384-53.615-23.623-107.081-37.487-160.098c-13.51-59.082-23.714-119.044-42.259-176.889
		c-28.038-126.145-56.948-251.892-86.323-377.805c-16.948-72.651-24.52-155.924-66.18-219.282
		c-29.174-44.369-73.443-79.476-124.6-93.536c-106.465-29.26-232.869,47.379-237.917,161.771
		c-3.229,73.173,50.422,153.014,125.709,164.094c42.513,6.257,87.694-10.113,116.367-42.164
		c50.055-55.95,37.099-141.124,3.174-159.071c-14.107-7.463-35.19-2.439-39.927,12.819c-4.301,13.854,5.67,27.549,10.793,41.119
		c12.07,31.972-5.986,71.079-36.827,85.72c-30.842,14.641-70.12,5.694-94.343-18.386c-47.87-47.588-36.507-136.235,26.378-177.439
		c65.546-42.949,161.622-19.612,211.599,63.694c20.985,34.971,25.643,76.189,34.397,115.669
		c28.54,128.708,57.116,258.556,88.777,387.516c54.579,234.355,58.098,262.823,95.088,403.594
		c5.341,23.164,13.712,46.254,13.788,70.342c-4.519,31.476-16.677,61.234-23.412,92.308
		c-62.592,288.873-75.716,703.068-22.252,1054.153c13.448,88.312,28.322,138.162,51.946,211.616
		c10.104,31.416,23.37,62.58,45.652,87.39c9.983,11.116,22.236,21.064,36.842,24.16c34.21,7.253,64.333-36.995,77.498-62.912
		c19.437-38.265,30.548-80.981,40.714-122.238c64.424-261.442,69.299-628.054,50.539-852.637
		c-6.194-116.961-23.876-232.956-50.281-347.06c-6.761-22.536-17.028-44.873-16.091-68.755c1.522-28.69,10.631-56.18,17.625-83.731
		c39.143-175.089,80.555-349.67,119.353-524.829c32.358-121.52,46.558-248.316,85.151-368.176
		c17.309-51.074,62.434-90.853,115.48-100.876c38.752-5.341,80.254,0.481,111.635,25.542c34.302,27.393,56.551,72.314,46.349,116.55
		c-10.012,43.411-47.044,83.714-94.164,79.108c-43.696-4.271-77.539-46.346-66.284-93.765c3.117-13.133,21.716-32.719,16.083-46.417
		c-2.284-5.554-8.492-8.435-14.4-9.476c-50.219-8.849-64.455,65.455-56.787,100.75c7.955,36.615,31.738,69.962,64.784,87.905
		C3068.877,378.79,3194.822,255.348,3159.72,130.522z"/>
	<path fill="#D6EBDF" stroke="#D6EBDF" d="M4879.303,794.713c-35.353-85.566-91.854-161.423-157.701-225.942
		c-43.088-40.304-86.818-81.03-139.208-108.977c-85.798-60.273-181.157-107.44-282.563-134.411
		c-53.297-21.213-109.762-30.952-165.628-42.48c-57.531-16.369-117.61-14.375-176.687-17.582
		c-71.102,3.335-142.682,9.183-211.986,26.319c-225.383,55.307-442.851,156.96-616.451,313.013
		c-84.711,78.078-159.74,169.101-207.753,274.662c-31.016,59.934-57.702,122.464-72.48,188.602
		c-22.8,72.488-29.079,148.929-29.756,224.599c-0.641,61.1,13.441,121.339,33.006,178.89
		c25.611,71.664,81.508,126.372,141.143,171.014c66.247,51.177,141.96,91.737,224.911,107.138
		c56.044,18.425,113.205-2.38,166.675-19.203c192.025-68.328,260.921-184.525,338.338-355.12
		c60.054-133.465,109.604-271.797,180.149-400.335c84.908-150.042,209.718-286.331,373.841-348.442
		c109.232-37.561,233.945-42.16,340.152,7.643c39.594,22.721,81.743,41.725,117.285,70.972
		c51.264,39.525,95.213,88.416,130.522,142.676c4.818,8.571,15.457,9.389,23.816,13.121
		C4897.822,838.223,4887.177,815.659,4879.303,794.713z M4719.175,659.559c-59.857-37.412-125.636-66.218-194.912-80.181
		c-41.343-9.738-83.95-7.371-125.917-8.604c-13.656,2.276-29.202,9.075-42.265,2.019c-30.366,12.284-63.429,15.807-93.708,28.241
		c-24.088,9.711-75.946,34.574-97.266,49.226c-57.864,32.684-105.826,79.376-152.972,125.594
		c-48.33,53.758-93.382,111.718-126.292,176.426c-42.022,72.716-53.448,104.464-90.156,180.005
		c-9.204,26.899-20.092,53.287-32.267,79.082c-17.33,39.317-30.527,80.801-51.261,118.522c-3.647,9.964-7.25,20.003-11.045,30.054
		c-27.452,50.513-47.637,105.095-80.94,152.354c-55.029,93.452-149.209,158.015-250.376,192.379
		c-36.729,9.775-74.405,21.938-112.858,17.869c-87.229-11.574-172.166-44.093-241.991-98.106
		c-60.727-55.198-118.449-83.143-157.196-229.264c-10.359-56.296-13.551-113.827-8.408-170.839
		c1.699-61.07,20.384-119.696,35.788-178.252c21.741-84.584,60.954-163.829,108.256-236.901
		c30.113-50.37,66.933-96.695,109.812-136.758c3.199-4.491,6.585-8.743,10.015-12.922
		c60.364-59.858,128.182-111.385,199.855-156.861c77.912-50.833,170.135-93.703,255.464-126.613l-0.189-5.203
		c3.583,1.393,7.253,2.935,11.01,4.625c49.239-28.317,105.899-38.007,160.266-51.826c26.758-6.96,53.955-11.792,80.925-18.13
		c13.027-1.562,26.137-2.726,39.325-3.24c63.972-14.783,129.406-6.681,193.926-2.466c25.153-1.857,50.001,3.118,74.396,8.852
		c50.275,7.527,100.473,20.313,148.212,38.351c7.958,0.043,16.758,1.881,22.94,7.672c51.667,8.903,99.736,32.559,145.902,56.526
		c23.149,9.487,45.621,21.057,65.744,36.275c36.462,16.547,68.246,42.219,100.816,65.398
		c46.198,35.915,91.574,73.749,129.252,118.835c25.839,30.814,54.197,60.414,71.104,97.463
		C4778.03,710.215,4752.422,679.714,4719.175,659.559z"/>
	<path fill="#D6EBDF" stroke="#D6EBDF" d="M3900.201,491.388c-51.31,3.948-100.966,18.455-151.176,28.667
		c-144.993,42.503-283.442,108.363-406.327,196.461c-47.601,37.048-90.605,79.716-131.702,123.709
		c-72.004,85.292-121.72,188.766-146.887,297.386c-23.21,92.488-32.519,193.135,2.257,283.952
		c18.66,31.859,46.034,59.249,77.678,78.348c44.997,22.462,96.9,33.312,147.012,25.84c36.309-4.169,69.247-22.367,98.647-43.078
		c59.391-48.617,94.417-119.172,124.522-188.209c24.953-52.686,45.127-107.459,70.459-159.919
		c28.263-71.789,59.218-142.61,95.079-210.87c55.582-117.31,132.616-223.698,224.714-314.957
		c33.967-36.274,75.459-64.013,112.031-97.332c-1.128-6.395-2.095-12.686-3.035-18.843
		C3975.85,487.942,3937.895,490.038,3900.201,491.388z M3381.26,1450.389c-28.902,29.955-70.236,44.789-110.952,48.54
		c-32.102-0.809-62.509-12.98-93.426-20.386c-32.362-7.162-57.851-30.782-76.013-57.418c-16.687-24.862-20.952-55.154-26.654-83.819
		c-7.158-35.713,3.397-71.49,9.409-106.464c8.183-47.657,33.927-91.02,68.671-124.072c29.094-22.866,67.123-33.049,103.857-33.145
		c50.668,2.729,103.094,19.187,138.281,57.578C3474.811,1218.061,3470.709,1371.245,3381.26,1450.389z M3864.44,608.25
		c-199.638,204.632-258.81,414.079-362.842,646.282c-4.076,10.165-10.271,19.326-18.15,27.034
		c-7.339-55.619-17.532-114.196-57.486-156.619c-55.231-58.549-80.478-64.328-160.215-78.745
		c-27.82,3.158-56.945-1.069-83.394,9.932c-27.638,9.805-48.161,32.06-74.753,43.84c4.597-46.914,28.656-88.652,49.616-129.831
		c54.91-106.491,144.753-190.432,242.658-257.21c54.927-39.12,115.344-69.366,175.536-99.231
		c99.575-41.134,202.448-77.432,309.967-90.311c21.811-3.688,44.229-5.644,66.097-0.079
		C3924.188,553.319,3891.799,578.199,3864.44,608.25z"/>
	<path fill="#D6EBDF" stroke="#D6EBDF" d="M1398.1,1591.386c34.948,41.658,74.847,79.794,122.59,106.569
		c58.865,40.918,131.306,51.701,198.826,71.104c35.082,11.341,70.58-1.84,104.583-10.329c53.497-12.668,104.89-35.385,149.12-68.239
		c70.515-50.811,144.295-106.598,178.808-189.418c86.838-202.151,15.147-484.538-103.442-670.002
		c-27.913-41.924-58.664-81.899-89.239-121.83c-120.214-132.33-274.085-230.502-437.015-301.612
		c-32.996-11.164-66.576-20.597-97.646-36.653c-70.295-25.734-143.458-42.553-216.439-58.633
		c-228.684-41.089-466.469,9.161-672.11,112.828c-46.931,27.422-96.686,50.826-138.726,85.833
		c-92.808,68.384-176.112,151.802-235.494,251.259c-23.127,46.51-52.606,93.782-52.829,147.389
		c3.915,0.853,11.731,2.617,15.646,3.47c32.797-45.003,93.877-151.629,238.517-221.486c111.652-59.225,249.49-68.125,366.759-20.283
		c101.149,28.295,225.926,134.346,288.394,216.776c66.885,75.98,107.34,169.753,154.716,258.014
		c27.82,66.407,59.343,131.16,87.889,197.195c16.659,42.953,39.999,82.717,60.079,124.128
		C1344.8,1509.844,1366.917,1553.746,1398.1,1591.386z M1307.28,1378.267c-0.166-1.741-0.408-5.324-0.5-7.108
		c-29.19-56.277-52.127-115.542-79.599-172.618c-2.358-6.723-4.674-13.372-6.962-19.887
		c-29.58-63.796-63.677-125.463-93.718-188.942c-2.207,0.042-6.563,0.14-8.771,0.181c1.303-1.601,3.925-4.863,5.186-6.539
		c-52.617-63.758-87.084-160.323-283.018-293.834c-14.421-4.777-27.851-11.869-39.163-21.979
		c-50.779-29.529-109.8-36.492-164.069-56.644c-13.317,5.256-27.93,2.626-41.656,1.615c-41.084,1.829-82.823-0.976-123.007,9.765
		c-69.868,14.535-134.202,47.007-193.811,85.322c-29.285,18.856-52.866,45.073-81.791,64.465
		c4.319-13.682,8.641-27.614,17.357-39.184c71.67-97.76,163.565-181.156,268.743-241.286l0.558-3.999
		c12.944-6.926,25.671-19.189,40.864-18.981c48.142-34.83,105.492-53.511,160.054-75.636c12.102-4.699,24.431-8.835,36.929-12.424
		c57.505-21.153,118.11-31.994,177.886-44.437c5.7,0.511,12.776-2.509,17.535,2.025c34.974-10.493,71.698-9.839,107.758-11.182
		c22.221-0.499,44.648-2.013,66.739,1.286c19.68-1.804,39.298,0.649,58.349,5.716c75.864,7.105,149.163,28.612,222.426,48.599
		c12.95,3.696,25.512,8.86,37.918,14.609c2.943,1.914,5.989,3.919,9.12,6.071c45.935,7.567,87.209,30.107,129.685,47.877
		c36.135,15.187,99.495,49.439,133.944,68.49l-1.281,4.121c58.157,28.916,108.755,69.772,158.868,110.562
		c15.202,12.715,29.729,26.32,43.121,41.13c7.077,5.966,14.198,12.008,21.345,18.182c56.94,57.876,103.401,125.219,144.96,194.714
		c38.145,69.112,76.459,165.94,103.23,284.162c8.104,66.693,16.356,134.243,6.052,201.257
		c-17.984,143.468-93.533,225.242-218.5,301.465c-53.069,37.793-117.168,59.204-181.972,63.397
		c-106.763,7.357-259.233-65.58-331.308-159.064c-45.366-62.715-88.437-128.403-115.339-201.353L1307.28,1378.267z"/>
	<path fill="#D6EBDF" stroke="#D6EBDF" d="M1599.755,1479.558c73.48,79.745,208.612,86.967,292.42,19.393
		c41.62-28.457,63.217-77.951,69.782-126.604c11.777-67.124-1.18-134.92-12.1-201.168c-15.019-63.568-35.992-126.457-69.194-182.984
		c-24.631-41.994-50.774-83.258-80.457-121.82c-32.747-39.313-70.856-74.019-112.079-104.087
		c-96.914-77.745-208.503-137.776-327.05-174.647c8.438-0.584,16.919-1.093,25.501-1.513c-67-15.683-132.941-35.357-199.541-52.316
		c-23.864-5.844-48.557-5.248-72.658-9.018c-41.684-7.504-84.264-4.061-126.172-2.199c-14.81,0.711-16.23,21.448-5.241,28.519
		c26.64,23.298,56.725,42.36,82.87,66.344c264.97,234.487,328.277,514.399,447.298,733.239
		C1538.367,1395.865,1559.552,1445.174,1599.755,1479.558z M1935.776,1288.403c7.882,33.454,0.334,67.832-5.227,101.104
		c-5.563,35.408-31.502,62.946-56.981,86.145c-47.314,34.547-109.959,49.055-167.14,34.916
		c-51.882-16.375-98.267-52.529-123.375-101.247c-33.878-76.691-35.434-173.754,16.576-242.81
		c36.926-54.529,106.504-77.436,169.932-75.02c41.626,0.388,81.592,19.816,107.164,52.822
		C1913.858,1183.41,1924.055,1237.715,1935.776,1288.403z M1494.68,1247.314c-74.691-157.241-156.449-387.395-314.007-557.464
		c-23.028-24.851-46.981-48.817-70.712-72.913c-20.887-21.328-46.781-37.264-65.475-60.712c16.488-6.8,34.366-5.124,51.671-3.413
		c72.757,3.201,141.666,29.195,211.856,46.103c57.184,12.947,109.003,40.679,162.968,62.448
		c69.129,38.181,140.981,73.19,201.618,124.696c81.264,62.46,147.526,143.867,193.1,235.609
		c13.528,33.699,37.317,64.911,36.675,102.822c-13.156-9.783-24.697-21.399-37.255-31.777
		c-40.019-25.851-88.853-29.349-135.196-28.039c-23.158,5.215-46.981,8.682-68.708,18.677
		c-30.167,12.715-54.94,34.907-77.477,58.134c-43.878,44.07-47.13,108.623-57.709,166.263
		C1510.987,1290.173,1504.237,1267.829,1494.68,1247.314z"/>
	<path fill="#D6EBDF" stroke="#D6EBDF" d="M4016.449,2498.037c-33.089-57.188-65.562-115.281-109.543-164.997
		c-74.083-88.829-163.956-165.205-267.298-217.763c-69.383-34.855-141.959-67.606-219.666-77.463
		c-88.588-15.203-181.294-15.352-268.032,10.03c-88.976,25.54-174.579,72.904-232.177,146.945
		c-5.382,8.938-17.746,21.485-7.622,31.342c12.797,6.168,24.55-3.84,35.573-9.203c44.404-26.649,95.179-41.36,146.371-47.227
		c53.772-7.316,107.233,9.73,156.929,28.667c91.647,45.552,152.66,143.913,158.56,245.651c4.849,46.787-4.261,93.443-17.917,138.073
		c-19.855,75.344-53.819,145.68-83.961,217.221c-14.36,43.5-27.406,87.727-35.185,132.915
		c-7.283,83.779,22.348,167.258,70.391,235.021c30.829,43.704,75.366,75.47,121.339,101.585
		c101.147,40.727,219.309,52.547,321.867,9.63c41.885-18.333,85.047-35.572,121.371-63.93
		c42.077-32.547,83.918-67.042,114.177-111.341c60.705-82.202,87.289-187.177,81.869-288.599
		C4098.546,2704.059,4061.891,2597.849,4016.449,2498.037z M4046.514,3001.537c-38.47,91.823-110.655,167.389-197.628,214.953
		c-66.189,40.65-144.075,61.285-221.502,61.493c-48.574-6.132-96.503-19.193-142.038-37.023l-3.877,2.551
		c-98.199-48.684-150.52-124.663-175.724-227.781c-13.951-73.275,5.12-148.264,33.453-215.823
		c15.162-34.929,26.712-71.384,42.925-105.783c21.231-44.564,32.98-92.654,45.207-140.178c11.126-42.664,9.819-87.189,7.646-130.813
		c-1.218-30.425-13.991-58.456-19.385-88.043c-1.853-1.059-5.645-3.324-7.498-4.382c-7.057-36.565-33.225-64.954-57.302-91.53
		c-47.24-46.184-105.638-85.784-172.759-93.204c-36.328-3.566-73.295-8.748-109.49-1.219c-17.28,3.637-34.849,6.945-52.517,4.948
		c7.093-10.179,15.931-19.14,27.193-24.691c45.476-25.484,94.602-45.096,145.573-56.047c30.779-6.268,61.497-13.494,92.916-16.26
		c43.774,2.467,88.586,1.251,131.068,13.556c2.927,1.03,8.796,3.031,11.739,4.002c74.564,12.479,148.908,35.017,213.082,76.027
		c95.538,50.043,177.672,122.475,247.251,204.388c27.763,37.045,57.347,73.38,78.898,114.68l6.081,1.68l-1.952,4.76
		c31.391,51.521,53.545,108.063,74.613,164.442c16.208,53.641,26.625,109.01,32.816,164.7
		C4078.109,2868.673,4071.683,2938.1,4046.514,3001.537z"/>
	<path fill="#D6EBDF" stroke="#D6EBDF" d="M3879.421,2582.436c-18.452-47.074-48.958-87.74-78.822-127.983
		c-44.016-56.449-95.752-106.971-154.183-148.34c-37.307-25.193-75.549-50.885-119.145-63.486
		c-2.466,6.697-9.175,13.773-4.592,21.339c64.718,122.723,58.592,272.416,10.614,399.854
		c-26.144,87.937-74.971,167.705-95.656,257.534c-24.167,88.526,36.079,185.991,121.773,213.056
		c56.281,20.373,119.385,15.727,174.514-5.933c42.045-18.227,84.622-38.701,116.612-72.485
		c57.693-50.261,90.98-125.616,93.048-201.795C3948.32,2759.435,3918.223,2667.537,3879.421,2582.436z M3767.019,3075.381
		c-24.869,27.76-64.5,34.752-99.449,41.608c-62.02,10.967-131.009-9.519-172.047-58.264
		c-22.244-34.195-42.063-76.354-31.659-117.952c24.989-87.364,106.532-161.07,199.58-162.213
		c39.816,3.426,81.302,15.465,110.795,43.858c28.322,25.002,50.852,59.776,51.329,98.675
		C3826.316,2977.661,3799.039,3030.356,3767.019,3075.381z M3826.288,3038.106c10.283-37.358,23.689-73.948,28.24-112.642
		c-3.909-22.406-6.546-45.353-16.1-66.118c-46.855-94.721-176.811-136.134-269.176-85.038
		c-18.883,13.705-39.781,24.359-60.53,34.928c20.84-64.149,52.364-124.576,66.732-190.823
		c20.302-62.594,23.653-128.944,20.5-194.195c-2.401-44.187-18.96-85.857-23.278-129.675
		c53.837,22.488,95.951,64.104,138.819,102.401c65.019,61.722,117,136.879,152.279,219.41
		c31.857,71.063,53.152,148.115,53.658,226.423C3916.901,2916.477,3886.93,2993.53,3826.288,3038.106z"/>
	<path fill="#D6EBDF" stroke="#D6EBDF" d="M2116.15,2211.819c-62.812-87.22-196.695-149.178-299.845-160.813
		c-142.722-21.431-289,13.377-415.473,80.223c-84.117,48.388-164.201,105.703-228.586,179.07
		c-104.367,108.419-174.758,246.55-211.45,392.009c-28.61,114.743-31.35,240.074,16.501,350.205
		c15.628,43.998,46.2,80.156,77.347,114.142c34.208,35.931,72.348,68.635,115.846,92.961
		c54.449,32.014,113.393,59.379,177.02,65.304c38.629,3.173,78.04,11.204,116.501,2.706c44.531-9.145,89.709-19.313,129.197-42.807
		c57.721-30.962,106.211-78.457,138.246-135.606c21.302-36.313,29.928-78.07,39.947-118.452
		c42.973-173.587-197.71-426.758-138.275-620.76c20.271-101.754,100.375-188.724,200.385-216.357
		c56.566-18.324,117.408-11.129,174.427,1.02c36.571,8.093,67.756,29.395,102.083,43.112
		C2124.261,2235.656,2122.402,2220.896,2116.15,2211.819z M1978.251,2161.317c-53.903-13.959-111.388-8.259-164.041,8.089
		c-37.302,14.776-76.368,30.528-104.126,60.662c-2.047,0.147-6.066,0.397-8.114,0.544c-18.606,24.964-43.091,45.6-56.923,74.095
		c-28.809,48.769-43.165,104.085-48.984,160.1l2.699,3.546c-5.205,67.427,16.2,132.945,39.195,195.303
		c13.743,41.172,36.19,78.626,50.686,119.557c20.864,45.076,41.011,90.968,49.988,140.172
		c24.747,105.683-19.151,219.627-95.869,293.359c-77.815,67.219-185.435,96.096-286.83,83.52
		c-52.028-10.382-105.433-22.197-149.824-52.856c-42.339-21.126-77.192-53.207-115.411-80.403c0.123-2.355,0.235-7.039,0.299-9.409
		c-36.491-21.645-55.323-61.845-76.689-96.748c-29.079-47.701-38.383-103.717-44.029-158.382
		c-7.549-59.319,0.449-119.53,15.045-177.17c17.821-82.107,47.915-161.515,88.764-234.859
		c23.755-43.201,55.029-81.386,83.577-121.364c70.023-81.609,151.011-155.587,247.121-205.184
		c40.131-29.231,88.71-41.573,134.463-58.877c62.073-23.709,129.18-33.511,195.48-30.332c24.411-9.469,52.628,0.549,77.911,3.88
		c34.476,3.451,66.806,16.889,100.038,25.978c30.68,8.537,59.667,22.279,85.672,40.633c14.965-2.242,24.301,16.266,33.784,25.7
		C2013.695,2171.058,1995.49,2167.536,1978.251,2161.317z"/>
	<path fill="#D6EBDF" stroke="#D6EBDF" d="M1466.081,2446.45c2.908-57.104,24.285-110.74,38.836-165.376
		c4.327-9.218-7.701-16.627-15.445-13.22c-20.628,6.328-38.727,18.733-57.359,29.362
		c-98.969,65.112-184.386,152.241-242.885,255.704c-28.346,55.302-52.958,112.854-71.068,172.387
		c-16.208,70.345-26.665,144.796-9.094,216.018c9.247,34.697,22.869,68.987,45.092,97.583
		c126.117,156.697,333.185,172.508,422.815,55.833c33.542-46.505,47.52-109.148,29.275-164.337
		C1547.633,2756.017,1458.86,2651.752,1466.081,2446.45z M1586.195,2976.916c5.257,49.032-21.705,96.281-57.865,127.574
		c-47.219,39.16-113.638,46.129-171.865,33.094c-27.381-6.78-57.912-14.46-75.84-37.955
		c-28.269-38.688-52.898-81.874-58.651-130.222c-10.691-48.654,18.536-96.873,55.84-125.85
		c34.228-24.957,76.328-42.918,119.375-40.079c39.334,5.246,79.051,18.511,108.75,45.89
		C1543.326,2883.255,1577.896,2925.63,1586.195,2976.916z M1532.938,2829.905c-22.552-11.025-45.188-22.449-65.089-37.797
		c-34.367-6.94-68.861-21.205-104.391-15.007c-53.494,8.396-102.879,38.685-136.883,80.542
		c-18.523,22.285-26.76,50.509-37.633,76.838c5.324,22.279,5.5,45.515,11.532,67.73c5.372,19.967,12.975,39.334,18.316,59.418
		c-38.623-24.726-63.391-66.442-78.084-108.997c-20.508-67.479-16.981-140.882,2.843-208.065
		c30.198-127.831,98.042-246.656,194.204-336.206c38.785-35.748,78.752-72.877,127.423-94.558
		c-12.812,48.312-26.175,97.041-26.263,147.542C1434.532,2644.019,1510.751,2746.873,1532.938,2829.905z"/>
	<path fill="#78EAB3" stroke="#78EAB3" d="M4973.751,1003.141c8.594-207.707-114.645-401.156-273.672-531.151
		c-213.456-173.008-491.382-262.649-724.599-263.287c-115.852-2.785-230.708,20.02-341.317,53.066
		c-93.409,25.932-181.597,66.953-268.38,109.541c-182.099,96.292-349.549,230.1-457.185,408.347
		c-73.05,123.787-127.859,260.657-143.329,404.409c-17.537,165.224,5.435,321.541,119.852,441.539
		c39.971,36.208,81.313,71.271,127.311,99.655c32.036,19.517,60.834,45.087,96.703,57.957
		c119.933,43.927,195.869,38.642,300.127,6.424c53.837-16.788,98.591-52.33,145.284-82.644
		c183.659-124.457,250.17-406.233,376.42-659.386c77.8-162.845,225.968-335.663,414.439-380.377
		c48.843-13.34,100.218-11.617,150.065-6.026c240.279,41.645,414.283,274.132,383.402,472.546
		c-6.988,66.576-42.978,126.57-87.219,175.319c-8.462,11.323-21.944,14.838-35.072,10.153c8.031-36.197,26.751-71.06,22.274-109.076
		c-7-57.602-41.538-114.296-96.325-137.225c-49.273-24.793-110.111-20.173-156.963,7.898
		c-69.492,38.201-101.315,131.226-71.477,204.454c26.78,60.16,88.269,96.624,150.345,110.996
		c90.082,24.713,188.615-14.624,248.642-83.621C4926.892,1227.401,4971.088,1116.112,4973.751,1003.141z M4888.929,860.868
		c-8.36-3.732-18.999-4.55-23.816-13.121c-35.31-54.26-79.258-103.151-130.522-142.676c-35.542-29.247-77.691-48.25-117.285-70.972
		c-106.207-49.802-230.919-45.203-340.152-7.643c-164.123,62.111-288.932,198.399-373.841,348.442
		c-70.545,128.538-120.094,266.87-180.149,400.335c-76.927,169.513-145.465,286.489-338.338,355.12
		c-53.47,16.823-110.631,37.628-166.675,19.203c-82.951-15.4-158.665-55.961-224.911-107.138
		c-59.634-44.642-115.532-99.349-141.143-171.014c-19.565-57.55-33.647-117.79-33.006-178.89
		c0.677-75.67,6.956-152.111,29.756-224.599c14.779-66.138,41.464-128.668,72.48-188.602
		c48.012-105.561,123.042-196.584,207.753-274.662c173.6-156.053,391.068-257.705,616.451-313.013
		c69.303-17.136,140.884-22.984,211.986-26.319c59.077,3.207,119.156,1.213,176.687,17.582
		c55.866,11.527,112.331,21.267,165.628,42.48c101.406,26.97,196.765,74.138,282.563,134.411
		c52.389,27.947,96.119,68.673,139.208,108.977c65.847,64.519,122.348,140.376,157.701,225.942
		C4887.177,815.659,4897.822,838.223,4888.929,860.868z M4615.654,1321.082c-62.651,3.886-114.757-63.702-98.351-123.436
		c8.876-45.776,53.839-79.503,99.984-77.222c48.901,0.877,95.733,42.68,97.46,92.721
		C4719.503,1268.328,4672.1,1323.086,4615.654,1321.082z"/>
	<path fill="#78EAB3" stroke="#78EAB3" d="M4510.991,447.464c-20.123-15.218-42.595-26.788-65.744-36.275
		c5.757,5.741,11.303,11.804,17.052,18.046c-46.454,15.924-98.744,2.268-135.763-28.504c-14.08-11.977-19.345-30.219-27.19-46.068
		c-6.182-5.792-14.982-7.63-22.94-7.672c-49.636,21.298-108.17,25.274-157.326,0.512c-16.325-7.295-25.686-23.107-34.729-37.515
		c14.504-0.981,29.139-1.739,43.844-1.347c-24.396-5.734-49.243-10.709-74.396-8.852c4.478,1.568,13.377,4.689,17.856,6.257
		c-11.707,12.911-23.17,27.269-39.575,34.469c-26.656,11.072-56.531,10.855-84.682,7.453c-32.833-5.15-71.739-12.482-87.525-45.713
		c-13.188,0.514-26.298,1.678-39.325,3.24c4.335,2.347,12.961,6.966,17.297,9.313c-36.947,99.334-165.916,112.468-258.487,60.642
		c-3.756-1.69-7.426-3.232-11.01-4.625l0.189,5.203c2.569,26.512-1.234,54.344-17.327,76.457
		c-25.341,39.952-74.019,55.032-118.617,59.698c-36.033,2.419-75.419,3.758-106.741-17.266c-4.362,2.484-8.605,5.001-12.779,7.724
		c4.066,17.797,8.765,36.516,3.689,54.71c-11.647,53.146-60.393,89.071-110.04,104.02c-30.324,7.394-64.937,15.344-93.504-1.869
		c-3.43,4.178-6.816,8.43-10.015,12.922c32.698,56.769,4.032,127.949-39.394,170.316c-30.335,31.334-73.876,42.188-115.276,49.464
		c7.871,30.184,34.929,53.091,34.052,85.974c0.479,44.808-11.502,91.643-39.152,127.524c-20.689,27.615-54.519,38.287-83.768,53.696
		c20.396,14.662,44.701,27.599,55.633,51.684c17.76,35.014,14.31,76.891-0.199,112.433c-11.992,28.42-27.385,59.015-57.344,71.658
		c1.632,6.153,3.38,12.337,5.156,18.653c42.156-20.774,87.834,11.421,109.229,47.401c24.74,37.561,23.835,84.513,15.638,127.014
		c32.83-13.766,70.92-21.105,103.993-3.134c46.227,18.767,67.118,67.055,83.813,110.583c15.165-16.013,29.243-34.074,49.078-44.509
		c28.442-13.55,61.052-16.314,92.184-13.502c33.021,2.31,61.45,20.994,89.461,36.99c0.001-18.224-0.541-36.529,1.12-54.625
		c1.528-31.077,25.137-56.219,50.731-71.092c36.104-17.357,77.419-6.808,114.113,2.951c-11.283-39.323-25.238-82.059-8.765-122.17
		c16.18-47.289,65.883-72.152,112.464-78.616c9.429-1.954,17.081,4.92,25.145,8.825c3.795-10.051,7.398-20.09,11.045-30.054
		c-4.023,4.523-7.988,9.061-11.925,13.732c-18.792-16.686-39.681-35.879-41.083-62.771c-1.03-37.288,17.026-76.034,48.962-96.133
		c19.324-13.713,43.317-16.632,66.295-17.622c-3.349,14.757-6.655,29.588-10.988,44.272c12.174-25.795,23.063-52.183,32.267-79.082
		c-3.937,4.671-7.846,9.476-11.756,14.28c-23.019-31.51-38.938-68.735-42.06-107.836c-1.974-24.027,6.336-51.101,28.333-63.537
		c28.737-16.551,62.939-17.509,95.24-16.271c1.735,4.106,5.263,12.334,7.013,16.381c4.496-7.727,8.978-15.396,13.385-23.022
		c-47.866-16.123-59.847-123.938,1.291-160.091c34.821-22.222,77.45-22.07,117.251-23.55c-0.372-27.937-4.676-57.612,8.456-83.467
		c14.201-29.654,37.365-59.501,71.229-66.52c27.469-6.331,54.371,5.097,79.33,15.569c0.441,4.014,1.266,12.025,1.708,16.039
		c4.681-3.217,9.608-6.18,14.493-9.216c-1.782-15.996-4.624-32.965,2.803-47.956c15.81-38.087,61.05-53.454,99.45-51.787
		c28.035,0.292,51.945,16.14,74.228,31.493c13.063,7.056,28.609,0.256,42.265-2.019c-7.631-1.276-15.13-2.578-22.585-3.807
		c8.72-26.965,27.908-51.523,57.352-56.072c43.925-13.014,86.238,9.865,121.38,34.231c8.55-10.232,17.2-20.373,26.011-30.41
		c-30.511-19.112-61.539-39.115-82.446-69.122C4501.258,446.069,4507.732,446.974,4510.991,447.464z M3904.477,608.718
		c-92.098,91.259-169.132,197.648-224.714,314.957c-35.861,68.26-66.816,139.081-95.079,210.87
		c-25.332,52.459-45.506,107.233-70.459,159.919c-30.105,69.037-65.131,139.592-124.522,188.209
		c-29.4,20.711-62.338,38.909-98.647,43.078c-50.112,7.472-102.015-3.378-147.012-25.84c-31.644-19.099-59.019-46.489-77.678-78.348
		c-34.776-90.817-25.467-191.464-2.257-283.952c25.166-108.62,74.883-212.094,146.887-297.386
		c41.097-43.993,84.101-86.662,131.702-123.709c122.885-88.098,261.334-153.958,406.327-196.461
		c50.21-10.212,99.865-24.718,151.176-28.667c37.694-1.349,75.649-3.446,113.272,1.156c0.94,6.157,1.907,12.447,3.035,18.843
		C3979.936,544.706,3938.444,572.444,3904.477,608.718z"/>
	<path fill="#78EAB3" stroke="#78EAB3" d="M3575.409,613.701c-60.191,29.866-120.609,60.111-175.536,99.231
		c-97.905,66.778-187.748,150.719-242.658,257.21c-20.96,41.179-45.019,82.917-49.616,129.831
		c26.593-11.78,47.116-34.035,74.753-43.84c26.449-11.001,55.573-6.774,83.394-9.932c-7.201-1.476-14.345-2.935-21.444-4.321
		c52.065-99.078,131.094-182.942,226.175-241.673c50.84-32.227,102.285-65.55,159.988-84.138
		c-27.536,59.256-83.034,129.282-177.927,369.002c-5.665,15.209-15.505,28.177-26.576,39.875
		c39.954,42.424,50.147,101.001,57.486,156.619c7.879-7.708,14.074-16.869,18.15-27.034
		c53.358-119.095,98.238-241.953,158.142-358.05c111.348-223.592,256.738-334.684,291.733-373.171
		c-21.868-5.565-44.286-3.61-66.097,0.079C3777.857,536.269,3674.984,572.567,3575.409,613.701z"/>
	<path fill="#78EAB3" stroke="#78EAB3" d="M2186.732,979.545c-42.936-108.32-101.979-210.556-177.192-299.622
		c-147.819-171.155-349.579-286.086-559.37-363.877c-139.602-42.887-270.098-82.115-439.585-73.993
		c-120.532,1.374-239.102,29.664-352.748,68.25c-49.415,16.204-95.705,40.026-142.817,61.745
		c-49.095,23.516-93.76,54.934-139.497,84.245c-46.682,29.563-86.495,68.241-127.384,105.063
		c-43.733,45.178-87.046,91.849-119.307,146.299C68.53,800.646,29.234,909.782,29.84,1021.548
		c-2.928,177.084,91.602,328.972,179.869,386.303c53.296,35.415,120.602,52.31,183.676,37.602
		c216.166-45.315,200.998-240.048,104.483-309.041c-37.489-31.839-90.091-37.22-136.967-29.642
		c-83.658,15.895-143.03,105.615-128.682,188.988c3.732,23.552,17.094,44.387,20.985,68.045c-6.746,11.717-20.45,9.204-28.624,0.746
		c-23.368-21.675-40.906-48.773-58.602-75.034c-30.334-48.411-42.773-106.329-43.905-162.873
		c4.432-133.365,83.839-253.198,185.111-335.042c184.749-138.496,399.098-117.733,577.431,40.461
		c207.721,176.272,266.805,456.057,403.991,693.757c44.416,77.419,97.141,154.032,173.901,202.475
		c40.596,24.622,78.057,55.386,123.43,71.224c106.706,44.844,232.209,41.524,336.674-8.113
		c37.837-15.136,66.2-45.423,100.186-66.862c76.593-51.96,148.049-117.916,184.375-204.967
		c51.431-116.089,49.907-247.581,28.323-370.395C2221.811,1091.935,2210.142,1033.719,2186.732,979.545z M400.459,1167.25
		c33.682,2.423,65.629,22.985,82.769,52.052c24.011,47.17,6.483,113.267-42.28,137.186c-55.076,31.163-135.914-4.036-144.609-68.498
		C280.833,1225.549,336.688,1161.162,400.459,1167.25z M2152.027,1501.073c-34.513,82.82-108.293,138.607-178.808,189.418
		c-44.23,32.854-95.623,55.571-149.12,68.239c-34.003,8.489-69.502,21.67-104.583,10.329
		c-67.52-19.403-139.961-30.186-198.826-71.104c-47.743-26.774-87.642-64.911-122.59-106.569
		c-31.183-37.64-53.3-81.542-77.013-123.919c-20.08-41.411-43.419-81.176-60.079-124.128
		c-28.547-66.035-60.069-130.787-87.889-197.195c-47.376-88.261-87.831-182.034-154.716-258.014
		C956.06,805.865,831.68,699.795,730.008,671.354c-117.269-47.841-255.107-38.941-366.759,20.283
		C221,760.34,160.419,864.156,124.732,913.123c-3.915-0.853-11.731-2.617-15.646-3.47c0.223-53.607,29.702-100.879,52.829-147.389
		c188.934-316.439,649.628-521.199,1046.33-449.921c72.982,16.08,146.144,32.899,216.439,58.633
		c31.071,16.056,64.65,25.489,97.646,36.653c162.93,71.11,316.801,169.282,437.015,301.612
		c30.575,39.93,61.326,79.906,89.239,121.83C2166.919,1016.136,2238.998,1298.614,2152.027,1501.073z"/>
	<path fill="#78EAB3" stroke="#78EAB3" d="M2081.951,1268.649c0.782-41.519,25.462-90.569,70.559-96.171
		c-1.272-5.617-2.5-11.16-3.701-16.569c-17.591,0.789-36.083-0.233-50.845-10.821c-53.588-30.528-77.523-95.022-77.012-154.208
		c-0.395-27.379,12.194-52.372,30.02-72.264c6.112,2.505,12.311,5.159,18.537,7.946c-6.549-12.928-13.277-25.651-20.229-38.246
		c-2.078,3.343-6.177,10.045-8.257,13.389c-41.478-8.518-84.178-23.079-113.588-55.095c-36.202-40.484-61.638-97.899-41.651-151.968
		c4.652-0.271,13.884-0.769,18.536-1.04c-7.148-6.175-14.268-12.216-21.345-18.182c-115.149,38.13-240.34-68.824-201.989-151.692
		l1.281-4.121c-7.662-4.237-15.28-8.4-22.812-12.414c0.316,3.541,1.022,10.578,1.339,14.119
		c-63.078,18.98-136.075,18.103-192.888-18.247c-33.448-21.526-48.091-61.43-49.268-99.824c-3.131-2.152-6.177-4.157-9.12-6.071
		c-39.683,31.801-93.704,36.978-142.593,32.27c-53.429-5.098-105.226-41.434-117.751-95.478c-19.05-5.067-38.668-7.52-58.349-5.716
		c12.997,2.577,25.849,5.933,38.745,9.363c-37.335,43.297-100.84,49.218-153.967,41.56c-25.896-2.677-42.896-23.285-59.275-41.026
		c-4.759-4.534-11.835-1.514-17.535-2.025c6.849,30.728-25.193,47.909-49.472,56.408c-41.567,12.636-92.582,17.606-128.414-11.971
		c-12.498,3.589-24.827,7.725-36.929,12.424c2.586,26.453-16.215,47.657-37.196,60.992c-36.017,22.47-82.94,33.304-122.858,14.644
		c-15.194-0.208-27.921,12.055-40.864,18.981c-1.588,11.373-1.953,21.041-9.013,26.886c-18.031,17.828-40.282,30.511-60.883,45.015
		c8.16,10.403,16.437,20.837,24.773,31.286c34.062-23.618,73.685-48.333,117.112-38.167c30.631,2.805,55.117,24.526,63.768,53.66
		c-8.002,2.019-15.892,4.32-23.805,6.237c13.726,1.011,28.339,3.641,41.656-1.615c24.857-12.807,49.378-29.789,78.337-30.381
		c32.433-0.674,67.947,9.274,89.253,35.175c13.439,15.577,13.242,37.143,14.621,56.55c-4.588-1.157-13.631-3.499-18.143-4.7
		c11.312,10.11,24.742,17.201,39.163,21.979c-4.001-5.023-7.886-10.015-11.669-14.918c21.704-13.457,46.174-25.99,72.583-22.171
		c39.092,1.662,67.972,33.788,84.679,66.385c13.156,24.928,8.614,53.884,4.445,80.488c48.467,4.407,104.396,1.498,141.754,38.33
		c35.959,40.922,29.269,108.268-8.775,145.72c-1.26,1.676-3.882,4.938-5.186,6.539c41.598-0.774,86.199-6.038,122.174,18.229
		c17.407,10.788,22.621,32.536,22.149,51.828c-1.195,42.602-15.29,85.105-41.834,118.704c2.288,6.515,4.604,13.164,6.962,19.887
		c65.557-16.499,131.415,47.268,122.043,112.895c-2.662,26.125-23.243,44.343-42.444,59.723c0.091,1.784,0.333,5.367,0.5,7.108
		l4.164-0.087c57.239-5.954,124.261,23.372,140.639,82.525c12.946,37.315,1.168,76.286-8.238,112.934
		c19.06-4.671,37.998-10.066,57.549-12.093c37.902-4.498,78.667,13.571,98.886,46.41c14.424,26.773,10.326,58.55,11.958,87.89
		c23.101-15.411,46.144-32.974,73.969-38.518c32.583-6.919,67.428-5.569,98.764,6.409c23.836,8.79,40.834,28.456,57.663,46.631
		c10.141-23.57,18.91-47.882,32.687-69.544c17.392-27.486,46.203-47.159,78.068-53.264c24.877-5.072,49.782,2.997,73.888,8.403
		c-5.25-34.388-9.425-70.941,4.809-103.792c17.507-45.428,63.081-85.717,114.392-76.657c-4.588,22.031-9.425,44.058-16.388,65.584
		c14.416-34.248,23.861-70.572,28.472-107.364c-3.265,12.076-7.133,24.057-10.899,36.126
		C2110.564,1372.532,2083.083,1322.114,2081.951,1268.649z M1892.175,1498.951c-83.808,67.573-218.94,60.352-292.42-19.393
		c-40.203-34.384-61.389-83.693-86.621-128.863c-120.08-220.788-181.648-498.15-447.298-733.239
		c-26.145-23.984-56.23-43.046-82.87-66.344c-10.989-7.07-9.569-27.807,5.241-28.519c41.909-1.862,84.488-5.305,126.172,2.199
		c24.1,3.77,48.794,3.175,72.658,9.018c66.599,16.959,132.541,36.633,199.541,52.316c-8.583,0.42-17.063,0.929-25.501,1.513
		c118.547,36.871,230.136,96.901,327.05,174.647c41.223,30.068,79.333,64.774,112.079,104.087
		c29.683,38.561,55.826,79.826,80.457,121.82c33.202,56.527,54.175,119.416,69.194,182.984
		c10.92,66.248,23.877,134.044,12.1,201.168C1955.393,1421,1933.796,1470.494,1892.175,1498.951z"/>
	<path fill="#78EAB3" stroke="#78EAB3" d="M3394.433,1131.203c-35.188-38.391-87.613-54.848-138.281-57.578
		c-36.734,0.096-74.763,10.279-103.857,33.145c-34.744,33.052-60.488,76.415-68.671,124.072
		c-6.012,34.974-16.567,70.752-9.409,106.464c5.701,28.664,9.967,58.957,26.654,83.819c18.162,26.636,43.65,50.256,76.013,57.418
		c30.917,7.406,61.323,19.578,93.426,20.386c40.715-3.751,82.049-18.585,110.952-48.54
		C3470.709,1371.245,3474.811,1218.061,3394.433,1131.203z M3303.359,1376.193c-52.01,29.779-125.053,3.754-148.381-50.964
		c-18.273-40.177-7.769-90.672,24.138-120.834c23.489-24.922,60.017-32.049,92.877-27.708c44.515,6.058,79.563,45.92,87.155,89.226
		C3364.43,1309.171,3343.496,1356.641,3303.359,1376.193z"/>
	<path fill="#78EAB3" stroke="#78EAB3" d="M1571.444,1141.231c-47.713-97.4-89.23-198.054-142.559-292.737
		c-19.816-35.308-43.383-68.535-59.329-105.894c52.361,14.806,99.403,43.279,146.155,70.481
		c97.666,60.475,191.221,138.584,240.452,244.935c-77.918,18.851,34.756-13.234,108.958,34.697
		c12.558,10.378,24.099,21.994,37.255,31.777c0.641-37.911-23.147-69.123-36.675-102.822
		c-45.575-91.741-111.837-173.149-193.1-235.609c-60.637-51.506-132.49-86.515-201.618-124.696
		c-53.966-21.768-105.784-49.501-162.968-62.448c-70.189-16.908-139.098-42.902-211.856-46.103
		c-17.305-1.711-35.183-3.387-51.671,3.413c18.694,23.448,44.588,39.383,65.475,60.712
		c76.537,77.716,137.568,134.387,233.01,306.362c57.316,104.73,100.528,216.266,151.709,324.015
		c9.557,20.514,16.307,42.859,31.349,60.434c10.579-57.64,13.831-122.193,57.709-166.263
		C1580.68,1141.425,1574.503,1141.291,1571.444,1141.231z"/>
	<path fill="#78EAB3" stroke="#78EAB3" d="M1935.776,1288.403c-11.721-50.688-21.918-104.993-59.051-144.09
		c-25.572-33.006-65.537-52.434-107.164-52.822c-63.427-2.416-133.006,20.491-169.932,75.02
		c-52.01,69.055-50.454,166.119-16.576,242.81c25.107,48.718,71.493,84.872,123.375,101.247
		c57.181,14.139,119.825-0.369,167.14-34.916c25.479-23.199,51.419-50.737,56.981-86.145
		C1936.109,1356.235,1943.658,1321.857,1935.776,1288.403z M1735.31,1402.37c-63.646-9.638-104.74-86.802-77.707-144.967
		c18.199-44.49,69.089-73.121,116.534-64.148c50.083,6.596,89.247,52.707,89.189,103.089
		C1868.142,1361.472,1798.283,1418.805,1735.31,1402.37z"/>
	<path fill="#78EAB3" stroke="#78EAB3" d="M3412.775,2066.259c-42.482-12.304-87.294-11.089-131.068-13.556
		c18.669,14.077,36.146,31.23,58.745,39.001C3367.709,2098.953,3390.832,2078.96,3412.775,2066.259z"/>
	<path fill="#78EAB3" stroke="#78EAB3" d="M3884.847,2350.675c-69.579-81.913-151.713-154.344-247.251-204.388
		c-64.174-41.01-138.518-63.548-213.082-76.027c9.904,22.995,20.178,49.795,45.617,59.64c37.178,16.926,76.863-0.923,113.651-9.74
		c10.772,32.023,17.722,69.943,48.28,89.821c37.026,28.386,85.658,23.41,129.384,21.089c-2.774,33.888-5.499,74.45,24.431,98.121
		c21.965,24.128,56.158,18.706,85.014,15.195c-0.023,23.748-5.631,49.152,3.776,71.889c18.195,31.484,56.766,39.606,89.08,49.079
		C3942.194,2424.055,3912.611,2387.72,3884.847,2350.675z"/>
	<path fill="#78EAB3" stroke="#78EAB3" d="M3415.473,2231.181c-19.949-28.18-58.049-15.125-86.765-21.129
		c-18.264-23.647-14.962-61.416-43.904-77.22c-30.459-21.675-68.934-12.176-102.128-3.66c2.191-20.092,4.308-40.142,6.115-60.209
		c-50.97,10.951-100.097,30.563-145.573,56.047c-11.262,5.551-20.101,14.512-27.193,24.691c17.668,1.997,35.237-1.311,52.517-4.948
		c36.195-7.529,73.162-2.347,109.49,1.219c67.121,7.42,125.519,47.02,172.759,93.204c24.077,26.575,50.246,54.964,57.302,91.53
		C3417.172,2299.313,3436.859,2261.753,3415.473,2231.181z"/>
	<path fill="#78EAB3" stroke="#78EAB3" d="M4042.487,2636.237c-21.067-56.379-43.221-112.921-74.613-164.442
		c-12.272,29.476-27.548,64.124-10.479,95.12c14.878,35.943,54.149,48.525,81.474,72.319c-2.225,33.469-33.183,62.186-25.72,98.168
		c0.573,33.333,32.422,50.476,55.716,68.171c-23.225,19.902-50.018,41.432-53.79,74.111c-8.424,37.915,14.429,71.707,32.542,102.791
		c-27.233,5.2-62.07,4.293-78.435,30.983c-20.634,35.925-13.316,78.844-11.272,118.223c-37.186,1.798-77.258-18.411-111.854,2.489
		c-31.39,18.987-27.324,60.916-33.683,92.468c-26.112-15.115-55.037-34.055-86.631-26.371
		c-33.325,6.408-52.894,36.896-73.341,60.994c-13.566-21.958-26.206-50.016-53.922-56.005
		c-41.444-9.829-80.308,13.204-113.133,35.706c45.535,17.829,93.464,30.89,142.038,37.023
		c77.427-0.208,155.313-20.843,221.502-61.493c86.973-47.565,159.158-123.131,197.628-214.953
		c25.169-63.437,31.596-132.864,28.789-200.6C4069.112,2745.247,4058.695,2689.878,4042.487,2636.237z"/>
	<path fill="#78EAB3" stroke="#78EAB3" d="M3463.711,3141.761c-26.714-30.356-69.384-24.675-105.201-20.941
		c5.571-27.865,17.346-57.6,6.633-85.585c-11.208-26.358-35.782-43.011-55.851-61.985c19.65-11.866,43.887-23.519,49.351-48.145
		c10.572-34.893-12.179-66.709-26.988-96.286c23.857-8.8,59.233-8.503,68.306-37.51c11.229-29.565-7.404-58.212-18.197-84.711
		c24.587-5.401,59.012-5.545,67.71-35.03c16.909-33.711-6.681-66.378-24.645-93.527c22.347-15.171,52.101-25.858,62.688-52.767
		c7.625-23.549-11.569-42.981-28.712-55.71c-6.318-7.65-23.04-12.977-16.832-25.026c11.37-25.129,39.539-50.188,25.527-79.931
		c-13.654-15.006-34.965-19.355-51.911-29.517c5.394,29.587,18.167,57.618,19.385,88.043c2.173,43.624,3.48,88.149-7.646,130.813
		c-12.226,47.524-23.976,95.615-45.207,140.178c-16.213,34.398-27.763,70.854-42.925,105.783
		c-28.333,67.56-47.403,142.548-33.453,215.823c25.094,102.672,77.147,178.91,175.724,227.781
		C3486.411,3209.258,3493.335,3167.299,3463.711,3141.761z"/>
	<path fill="#78EAB3" stroke="#78EAB3" d="M3569.253,2774.308c92.365-51.095,222.32-9.683,269.176,85.038
		c9.553,20.765,12.19,43.712,16.1,66.118c13.059-59.18,16.434-121.124,1.172-180.231c-23.255-87.879-61.19-172.938-117.679-244.582
		c-26.975-33.63-53.736-68.775-91.259-91.261c-0.842,36.539,2.801,73.201-1.35,109.676c-6.682,55.723-17.862,111.129-36.568,164.156
		C3597.668,2714.249,3589.752,2747.648,3569.253,2774.308z"/>
	<path fill="#78EAB3" stroke="#78EAB3" d="M999.461,3015.549c18.931-32.104,41.307-68.445,29.883-107.24
		c-5.217-31.677-33.68-49.993-57.146-67.986c23.105-18.74,53.977-36.482,55.991-69.63c7.507-35.645-21.262-63.218-28.143-95.715
		c24.947-28.053,67.033-40.048,81.133-77.836c17.063-32.162-2.654-66.187-11.585-97.343c31.522-12.857,69.894-20.31,88.829-51.721
		c15.198-22.289,4.579-49.684,0.116-73.557c32.111,5.272,70.3,6.318,92.907-21.667c25.322-24.497,15.354-61.209,20.6-92.113
		c28.385-4.579,57.966,2.66,85.812-6.273c26.323-8.396,51.277-24.884,65.415-49.089c10.036-19.388,13.46-41.289,18.326-62.24
		c35.2,5.214,70.825,23.738,106.688,11.785c31.963-8.843,43.519-43.663,61.102-68.083c22.595,10.157,45.167,28.917,71.568,24.25
		c22.53-3.559,37.341-22.494,53.77-36.412c-66.3-3.179-133.407,6.622-195.48,30.332c-45.753,17.304-94.332,29.646-134.463,58.877
		c-96.109,49.596-177.098,123.575-247.121,205.184c-28.548,39.978-59.822,78.163-83.577,121.364
		c-40.848,73.344-70.943,152.752-88.764,234.859c-14.596,57.64-22.594,117.851-15.045,177.17
		c5.646,54.666,14.949,110.681,44.029,158.382c21.366,34.903,40.198,75.104,76.689,96.748c1.938-38.069,8.907-80.204-12.38-114.458
		C1060.829,3017.92,1026.275,3021.864,999.461,3015.549z"/>
	<path fill="#78EAB3" stroke="#78EAB3" d="M1998.347,2145.17c-26.005-18.354-54.992-32.096-85.672-40.633
		c-33.231-9.089-65.562-22.527-100.038-25.978c8.918,2.812,17.813,6.184,26.736,9.688c1.648,18.16,3.471,36.366,5.529,54.635
		c-33.386-7.56-70.776-13.043-101.051,7.184c-30.364,14.17-28.971,51.743-33.766,80.003c27.758-30.134,66.824-45.885,104.126-60.662
		c52.653-16.348,110.138-22.048,164.041-8.089c17.239,6.219,35.444,9.741,53.879,9.554
		C2022.648,2161.437,2013.311,2142.928,1998.347,2145.17z"/>
	<path fill="#78EAB3" stroke="#78EAB3" d="M1701.97,2230.612c-28.407,2.06-64.781-8.432-84.725,18.502
		c-23.393,31.42,1.552,70.104,1.458,104.767c-21.57,11.294-54.331,19.359-57.341,48.22c1.537,24.728,21.66,43.025,34.701,62.706
		c5.819-56.014,20.174-111.33,48.984-160.1C1658.879,2276.212,1683.365,2255.576,1701.97,2230.612z"/>
	<path fill="#78EAB3" stroke="#78EAB3" d="M1688.643,2783.213c-14.496-40.931-36.943-78.385-50.686-119.557
		c-22.995-62.358-44.4-127.876-39.195-195.303c-20.164,20.904-52.985,40.077-50.584,73.142c7.419,30,41.234,40.439,63.718,57.165
		c-16.244,27.415-37.08,60.081-22.081,92.726c8.91,29.58,44.003,29.047,68.875,34.405c-8.849,26.742-26.478,55.36-16.35,84.133
		c10.298,27.184,44.451,27.595,67.873,36.527c-12.343,29.269-31.614,59.586-25.213,92.709c5.169,26.888,32.095,39.642,52.541,53.878
		c-18.634,16.787-40.011,32.09-52.24,54.541c-12.955,29.923-1.003,62.7,6.935,92.398c-34.794-4.855-75.759-8.209-102.539,19.42
		c-29.662,24.538-22.455,65.981-21.346,99.896c-35.632-18.023-75.036-42.642-116.38-30.136
		c-28.532,6.551-38.376,37.049-50.437,60.047c-22.279-25.783-43.124-60.046-80.425-63.493
		c-32.514-6.826-59.142,16.445-83.799,33.704c-2.835-33.557-0.167-76.271-32.915-96.417c-35.202-22.245-76.693-1.608-113.7,4.008
		c38.219,27.196,73.072,59.277,115.411,80.403c44.392,30.659,97.796,42.475,149.824,52.856
		c101.395,12.576,209.015-16.301,286.83-83.52c76.719-73.732,120.616-187.677,95.869-293.359
		C1729.654,2874.181,1709.507,2828.29,1688.643,2783.213z"/>
	<path fill="#78EAB3" stroke="#78EAB3" d="M1388.999,2432.108c-93.764,74.352-153.968,183.771-191.616,295.921
		c-18.419,66.615-29.655,139.036-8.44,206.452c10.873-26.33,19.111-54.553,37.633-76.838
		c34.005-41.857,83.389-72.146,136.883-80.542c35.529-6.198,70.024,8.067,104.391,15.007
		c-38.695-76.275-64.286-159.371-75.612-244.202C1386.929,2509.48,1389.51,2470.64,1388.999,2432.108z"/>
	<path fill="#44C88C" stroke="#44C88C" d="M4615.654,1321.082c56.446,2.004,103.849-52.755,99.093-107.937
		c-1.727-50.041-48.56-91.844-97.46-92.721c-46.145-2.281-91.107,31.446-99.984,77.222
		C4500.897,1257.381,4553.003,1324.968,4615.654,1321.082z M4556.613,1179.319c14.445-21.106,40.788-32.889,66.16-31.546
		c24.251,2.491,46.774,18.599,56.833,41.006c12.729,23.935,5.543,53.633-7.943,75.622c-21.538,23.241-58.462,36.358-88.437,21.85
		C4543.559,1269.481,4531.672,1213.03,4556.613,1179.319z"/>
	<path fill="#44C88C" stroke="#44C88C" d="M4237.649,2790.009c-4.031-3.021-12.092-9.061-16.138-12.021
		c-4.311-3.154,23.908-45.312,26.503-49.862c10.052-17.626,12.044-40.723,7.856-60.315c-8.098-37.871-36.062-55.415-67.553-72.974
		c10.607-37.228,24.62-77.003,6.524-111.442c-11.463-27.997-38.799-43.94-66.209-52.738c-2.869-1.014-8.621-2.984-11.505-3.939
		c6.549-32.507,12.15-68.533-5.12-98.766c-18.491-34.391-56.148-51.633-92.699-59.092c-0.973-30.96-1.74-66.508-22.461-91.155
		c-17.974-21.38-45.565-34.946-73.641-34.368c-8.015,0.165-16.412,1.303-23.753-1.921c-11.609-5.098-9.219-19.119-11.052-29.45
		c-4.568-25.75-15.212-52.895-38.095-67.591c-27.463-17.64-70.827-20.392-102.042-15.829c-0.854-2.93-2.564-8.789-3.419-11.718
		c-12.328-25.21-24.367-55.057-52.678-65.666c-28.307-13.938-60.494-14.895-90.521-6.731c-5.417-0.875-10.68-2.086-15.763-3.501
		c-20.472-19.584-37.878-44.574-65.524-54.378c-16.652-5.905-38.617-8.839-56.091-4.775c-20.029,4.659-41.278,20.245-59.643,29.56
		c-17.149-36.951-59.212-60.621-99.646-56.075c-33.727,3.793-57.25,23.953-82.272,44.634c-8.222,6.795-7.15,6.315-17.159,2.334
		c-8.302-3.302-16.144-7.901-24.454-11.276c-31.406-12.753-59.78-18.141-89.478,3.285c-14.571,10.513-24.139,25.363-34.206,39.911
		c-10.5,15.174-16.907,25.419-34.914,16.15c-29.939-15.413-67.853-5.981-93.76,13.253c-28.611,21.24-39.129,57.364-67.005,79.03
		c-19.061,14.815-43.204,20.823-62.628,35.273c-29.348,21.832-47.469,57.41-37.451,94.288c5.048,18.582,12.667,28.065,0.76,45.01
		c-9.62,13.692-23.477,22.183-34.645,34.226c-31.551,34.027-30.312,91.353-1.761,126.848c17.083,17.19,26.021,23.686,33.692,35.04
		c0.74,9.749-2.841,19.228-4.335,28.885c-2.564,19.364-1.644,39.089,1.384,58.433c0.924,2.193,2.698,6.625,3.623,8.819
		c17.332,38.509,54.51,66.765,96.871,70.315c47.763,4.004,94.356-23.632,112.917-67.998c13.274-30.942,9.576-65.3,4.87-97.868
		c25.454-21.446,45.737-48.478,55.796-80.49c31.018,6.553,65.5,16.604,95.057-0.672c6.915-3.125,13.863-6.368,21.319-8.218
		c15.725,13.106,27.02,31.569,45.559,41.401c14.748,7.567,30.969,11.944,46.811,17.037c-3.498,21.001-8.578,42.524-5.244,64.023
		c4.087,19.374,18.298,34.402,25.876,52.441c3.101,7.38-23.559,28.038-27.736,33.499c-10.129,13.244-16.845,29.121-19.112,45.659
		c-3.791,27.645,9.211,44.637,15.5,69.335c-9.335,6.469-19.921,11.5-29.667,17.457c-39.595,18.881-60.726,69.661-44.908,110.833
		c3.237,8.424,7.822,16.38,9.864,25.172c5.409,23.301-15.517,29.014-30.007,39.91c-18.374,13.816-29.998,39.113-32.667,61.443
		c-3.192,26.71,5.428,54.622,23.122,74.862c6.873,7.863,15.236,14.931,18.949,24.697c6.18,16.255-13.242,31.225-19.25,45.189
		c-16.283,37.844-7.348,81.102,23.749,109.242c17.598,15.925,38.814,18.718,60.912,25.292c1.975,0.588-11.348,35.072-12.084,38.592
		c-3.162,15.138,1.285,31.452,6.465,45.619c13.704,37.473,51.189,64.335,95.505,65.806c14.158,0.47,26.333-4.83,39.975-3.433
		c-1.416-0.145,4.639,48.801,7.417,54.344c24.438,48.757,82.274,63.697,114.136,49.05c11.805-5.427,15.14-17.907,40.733-3.641
		c22.026,12.278,36.324,34.937,58.931,44.938c35.94,15.901,85.837,4.496,110.504-26.189c5.091-6.332,9.544-13.646,16.706-17.47
		c12.797-6.832,25.182,8.221,36.013,13.505c56.233,27.427,88.506,22.648,137.177-38.99c5.438-6.888,10.867-19.609,18.87-23.643
		c22.149-11.165,43.059,10.324,64.14,8.664c21.857-1.721,45.68-20.711,58.825-37.008c16.813-20.844,25.416-48.156,23.589-74.889
		c0.036,0.541,54.841-5.998,59.812-6.767c40.041-6.192,81.912-56.68,71.986-109.804c-1.455-7.79-3.888-15.88-1.568-23.456
		c3.688-12.043,15.19-14.724,25.417-18.869c22.887-9.277,37.41-20.119,47.547-42.965c10.068-22.689,13.438-48.791,10.222-73.433
		c-1.514-11.6-6.681-20.65-15.268-27.581c-9.282-7.492,35.443-66.614,40.726-79.726
		C4278.673,2860.009,4271.916,2810.871,4237.649,2790.009z M4227.873,2676.619c6.728,18.874-5.394,46.045-15.464,61.788
		c-11.743,18.36-31.719,15.979-41.831,0.588c-11.446-17.423-8.377-44.253-11.542-64.031c-3.142-19.625-7.642-38.857-10.814-58.366
		C4206.388,2627.16,4212.971,2634.816,4227.873,2676.619z M4128.446,2457.934c18.812,8.135,34.143,25.935,41.595,44.441
		c9.775,24.272,4.477,67.205-30.148,80.34c-11.247,4.267-12.172,3.554-16.14-6.844c-6.9-18.085-10.072-37.363-18.49-54.968
		c-5.757-12.039-28.82-54.329-13.133-64.564C4097.317,2452.957,4112.661,2451.109,4128.446,2457.934z M4011.625,2301.784
		c5.471-1.833,11.492-0.37,16.976,1.353c38.388,12.065,83.702,46.844,64.399,93.41c-5.096,16.617-20.417,26.116-33.721,35.585
		c0.835-0.595-35.172-64.134-38.487-70.005C4011.916,2346.408,3980.406,2312.195,4011.625,2301.784z M3888.656,2177.046
		c20.111-5.817,42.449-12.813,60.825-2.962c15.231,8.162,31.162,27.566,36.934,51.615c2.565,10.691,5.071,52.865-11.694,54.417
		c-4.865,0.45-9.433-2.189-13.545-4.834c-31.713-20.401-59.863-47.009-81.046-78.286
		C3870.196,2182.324,3873.362,2181.47,3888.656,2177.046z M3747.966,2075.096c2.564-10.301,27.059-16.032,35.418-17.386
		c32.425-5.253,53.114,13.105,71.747,40.351c15.332,22.419,11.342,28.624,2.641,49.852c-7.357,17.946-4.324,14.582-80.373-28.344
		c-6.401-3.613-12.875-7.28-18.188-12.36C3751.6,2099.933,3745.302,2085.8,3747.966,2075.096z M3667.516,1970.999
		c36.182,9.561,53.125,53.091,42.698,87.206c-93.824-23.044-91.927-22.67-126.496-47.594
		C3595.638,1977.019,3634.156,1959.551,3667.516,1970.999z M3483.436,1914.869c27.89-1.886,60.739,22.404,67.999,56.105
		c2.816,13.078-2.77,19.153-17.934,16.226c-17.57-3.39-34.978-7.616-52.149-12.654c-14.139-4.149-40.707-8.079-50.506-19.944
		C3410.912,1930.463,3458.683,1916.542,3483.436,1914.869z M3297.731,1889.032c56.735-10.272,99.24,41.739,83.695,62.236
		c-6.244,8.232-18.426,8.088-28.707,7.159c-19.416-1.755-38.833-3.511-58.25-5.266c-11.289-1.021-45.76,1.908-51.767-9.362
		C3231.578,1922.928,3277.667,1892.664,3297.731,1889.032z M3151.126,1905.989c28.708,2.483,52.151,23.172,60.772,50.286
		c-43.589,17.188-90.75,22.052-134.949,37.758C3054.993,1949.045,3103.909,1893.557,3151.126,1905.989z M2948.496,1978.66
		c31.714-19.027,76.884-7.39,93.948,25.992c-40.004,23.546-78.126,50.169-118.675,72.691
		C2900.176,2045.868,2914.289,1996.206,2948.496,1978.66z M2817.819,2095.206c24.281-15.884,58.411-14.847,81.684,2.469
		c-28.167,38.72-56.333,77.44-84.5,116.16C2776.274,2184.172,2776.144,2122.467,2817.819,2095.206z M2745.851,2279.366
		c12.793-21.609,38.02-36.368,52.373-24.688c7.778,6.329,8.376,17.795,8.336,27.831c-0.353,87.67,0.579,87.382-2.637,92.387
		c-4.135,6.432-13.465,6.658-20.879,4.818C2736.699,2368.209,2724.451,2315.512,2745.851,2279.366z M3275.394,2379.62
		c1.803-8.695,3.167-17.382,4.717-25.83c-26.262-0.826-56.693,5.785-78.472-12.89c-16.764-11.56-22.293-31.882-30.276-49.339
		c-4.41-7.269-9.296-14.161-14.097-20.905c-26.779,21.766-48.256,48.059-78.138,45.956c-20.259,1.148-35.193-13.759-47.584-27.612
		c-9.867,0.77-21.5-2.45-29.42,4.933c-3.923,14.792-2.501,30.253-3.266,45.445c-6.811,25.21-28.635,39.83-50.051,51.729
		c-6.315,5.358-12.154,11.284-17.934,17.225c2.914,6.996,5.914,14.141,8.866,21.462c23.155,42.355,3.117,99.93-42.757,116.51
		c-42.002,15.074-90.696-3.594-108.745-45.143c-11.994-27.613-5.147-52.865,4.762-79.539c7.74-2.961,15.549-5.715,23.362-8.47
		c10.955-3.851,32.738,39.55,37.266,47.238c1.604,2.724,18.139-13.584,19.363-15.311c10.845-15.305,5.246-37.499,38.897-93.641
		c16.946-28.17,39.313-53.831,67.701-70.726c47.979-25.698,101.913-48.053,157.46-37.93c48.763,10.392,103.845,20.14,136.168,62.232
		c40.945,40.258,81.972,122.089,56.85,178.642c-16.256,36.593-66.727-27.188-69.414-48.446
		C3255.81,2415.134,3266.656,2396.715,3275.394,2379.62z M3239.75,2585.221c7.204-62.641,90.169-92.163,77.802-23.169
		c-6.294,35.107-18.887,69.072-36.997,99.786c-0.954,1.618-24.943-25.922-26.718-28.657
		C3243.417,2617.124,3237.7,2603.061,3239.75,2585.221z M3183.105,2722.56c15.087-37.041,55.718-50.433,87.597-39.924
		c-10.499,33.849-20.997,67.698-31.495,101.546c-3.132,10.094-7.125,21.243-16.583,25.933c-11.161,5.534-25.268-1.098-32.271-11.411
		C3175.6,2776.977,3173.186,2746.914,3183.105,2722.56z M3192.242,2839.798c6.892,0.038,14.085,3.364,17.201,9.52
		c4.055,8.014,2.553,8.013-17.011,137.109c-0.745,4.913-36.9-16.53-39.544-18.948
		C3094.107,2913.738,3158.012,2839.612,3192.242,2839.798z M3206.725,3154.451c-54.527-18.334-81.499-89.867-33.035-129.887
		c5.895-4.868,13.87-8.941,20.94-6.042c6.664,2.732,9.594,10.387,11.816,17.246c9.716,29.986,19.432,59.972,29.15,89.958
		c2.477,7.646,4.842,16.458,0.659,23.318C3230.611,3158.302,3216.993,3157.904,3206.725,3154.451z M3261.794,3291.108
		c-25.633-18.017-37.098-57.674-30.4-87.862c4.071-18.348,20.597-25.803,36.701-14.823c6.296,4.293,11.097,10.398,15.793,16.403
		c58.504,74.823,58.21,73.147,58.786,78.121C3344.632,3299.833,3296.38,3315.416,3261.794,3291.108z M3481.742,3392.552
		c-6.94,5.232-14.177,9.432-18.027,11.308c-34.704,16.913-78.914-12.906-95.328-43.438c-5.52-13.742-7.082-43.691,9.33-46.396
		c17.33-2.855,33.226,8.047,48.314,14.974c60.111,27.596,62.818,28.476,68.14,32.277
		C3506.205,3369.872,3494.475,3382.951,3481.742,3392.552z M3671.112,3398.455c-9.571,30.5-39.757,52.124-72.134,48.543
		c-30.722-3.397-61.069-29.638-69.409-59.416c-0.961-3.43-1.658-7.082-0.771-10.531c4.29-16.675,100.623,0.214,117.209,0.838
		C3658.312,3377.392,3673.055,3383.323,3671.112,3398.455z M3798.027,3427.433c-15.959,7.665-33.65,4.327-49.647-1.313
		c-26.388-9.303-44.561-15.214-41.984-41.197c0.462-4.656,1.657-9.456,4.761-12.953c6.348-7.149,28.886-6.62,38.041-8.709
		c17.269-3.941,34.266-9.122,50.426-16.441c10.69-4.843,23.519-8.068,33.844-2.486c6.821,3.687,11.453,11.04,12.085,18.776
		C3847.419,3385.952,3818.51,3419.147,3798.027,3427.433z M3965.426,3348.875c-37.756,21.288-79.502,3.683-87.977-11.87
		c-3.995-7.345-1.192-16.144,3.959-22.155c3.986-4.652,9.225-8.025,14.422-11.265c9.121-5.685,86.761-56.161,94.681-44.023
		c5.755,8.821,6.275,19.642,7.077,30.098C3999.684,3316.921,3985.544,3337.531,3965.426,3348.875z M3907.449,3214.533
		c-36.324,28.358-79.487,45.597-121.371,63.929c-102.558,42.918-220.719,31.097-321.867-9.629
		c-45.973-26.115-90.51-57.881-121.339-101.585c-48.043-67.764-77.674-151.243-70.391-235.021
		c7.779-45.188,20.826-89.414,35.186-132.915c30.142-71.541,64.105-141.876,83.96-217.221
		c13.656-44.63,22.765-91.287,17.917-138.073c-5.901-101.739-66.914-200.099-158.56-245.652
		c-49.696-18.936-103.157-35.982-156.929-28.666c-51.192,5.866-101.968,20.577-146.372,47.227
		c-11.023,5.363-22.776,15.37-35.573,9.202c-10.125-9.856,2.24-22.405,7.622-31.342c57.599-74.041,143.201-121.405,232.177-146.945
		c86.738-25.381,179.444-25.233,268.032-10.03c77.707,9.858,150.283,42.609,219.667,77.464
		c103.342,52.559,193.215,128.934,267.298,217.763c43.982,49.716,76.454,107.809,109.543,164.998
		c45.443,99.812,82.098,206.022,87.047,316.557c5.419,101.422-21.165,206.397-81.869,288.599
		C3991.367,3147.491,3949.526,3181.986,3907.449,3214.533z M4115.686,3210.043c-9.476,26.216-24.007,33.178-43.188,34.356
		c-11.287,0.693-58.532,1.295-55.453-17.738c0.718-4.438,3.623-8.162,6.428-11.67c24.491-30.625,47.943-62.691,74.675-91.32
		c1.929-2.066,16.525,15.635,17.57,17.515c4.72,8.491,6.724,18.513,6.717,28.166
		C4122.427,3181.24,4120.59,3196.478,4115.686,3210.043z M4203.36,3065.618c-14.843,25.756-61.422,50.194-88.618,27.917
		c9.627-13.721,18.93-25.706,24.558-41.984c7.836-22.665,9.579-45.525,19.942-67.299c9.803-20.597,18.711-12.514,37.476-5.357
		c7.517,2.866,14.33,34.148,15.349,41.901C4214.086,3036.141,4211.099,3052.191,4203.36,3065.618z M4245.178,2867.861
		c-6.712,31.378-34.449,48.708-57.189,68.397c-6.797,5.884-17.307-18.163-18.039-21.454c-2.64-11.873-0.4-24.562,0.243-36.533
		c0.953-17.764-4.759-81.473,18.574-87.748C4210.458,2784.69,4254.08,2826.254,4245.178,2867.861z"/>
	<path fill="#44C88C" stroke="#44C88C" d="M4994.167,882.449c-9.261-53.241-27.124-99.083-51.403-146.712
		c-34.682-68.038-75.271-130.173-126.437-186.822c-143.48-158.857-335.817-273.504-544.095-323.219
		c-50.33-12.014-100.271-23.761-151.626-30.945c-77.103-10.787-155.299-13.624-232.989-8.685
		c-249.416,15.857-509.404,123.155-695.283,257.139c-4.156,2.996-8.36,5.986-12.341,9.214
		c-63.465,51.466-129.211,102.148-182.602,164.28c-106.289,123.692-185.859,272.951-227.986,415.722
		c-11.616,39.366-22.148,80.234-27.087,121.06c-4.512,37.303-9.7,76.054-10.981,113.982
		c-4.689,138.829,42.46,276.545,140.754,383.343c173.607,188.627,405.792,229.369,595.343,143.813
		c243.43-109.878,342.867-398.249,431.194-610.115c27.783-66.64,58.088-132.419,95.038-194.52
		c181.508-305.061,433.33-356.403,616.193-265.104c31.349,15.652,60.537,35.739,85.954,59.907
		c25.266,24.024,51.685,47.009,72.926,74.791c29.707,39.003,52.783,81.555,69.201,127.142c17.42,48.373,25,92.815,16.457,143.831
		c-7.051,42.11-26.934,75.968-46.514,113.331c-8.56-57.539-19.107-119.215-59.927-160.605
		c-22.733-23.051-53.102-37.497-84.523-45.211c-70.429-17.289-142.502-4.735-194.107,49.769
		c-73.491,77.617-64.975,206.311,7.886,281.321c115.848,119.266,346.379,68.325,455.335-124.253
		C4992.412,1139.112,5015.679,1006.115,4994.167,882.449z M4973.752,1003.141c-2.664,112.971-46.86,224.26-120.673,309.511
		c-60.026,68.997-158.561,108.333-248.643,83.621c-62.076-14.373-123.565-50.836-150.344-110.996
		c-29.84-73.228,1.984-166.253,71.476-204.454c46.852-28.072,107.69-32.692,156.963-7.898
		c54.787,22.929,89.325,79.623,96.326,137.225c4.477,38.016-14.244,72.878-22.275,109.075c13.127,4.685,26.61,1.17,35.072-10.153
		c44.241-48.75,80.23-108.744,87.219-175.319c17.206-110.549-27.683-223.097-99.233-306.098
		c-71.724-86.128-173.602-147.284-284.169-166.448c-49.847-5.591-101.222-7.315-150.065,6.025
		c-103.526,24.561-194.879,86.986-266.563,164.445c-59.938,63.93-110.077,136.814-147.876,215.932
		c-126.076,252.807-192.685,534.878-376.42,659.386c-46.693,30.314-91.447,65.856-145.283,82.644
		c-103.954,32.122-179.682,37.691-300.127-6.424c-35.869-12.87-64.667-38.44-96.703-57.957
		c-45.998-28.384-87.339-63.447-127.311-99.655c-114.511-120.097-137.368-276.523-119.852-441.539
		c15.469-143.751,70.278-280.622,143.329-404.409c107.635-178.247,275.085-312.054,457.184-408.347
		c86.783-42.589,174.97-83.609,268.38-109.542c110.609-33.046,225.466-55.851,341.317-53.066
		c232.036,0.635,510.255,89.559,724.599,263.287C4859.139,602.011,4982.344,795.467,4973.752,1003.141z"/>
	<path fill="#44C88C" stroke="#44C88C" d="M4119.08,347.503c49.155,24.762,107.689,20.786,157.325-0.512
		c-47.738-18.038-97.937-30.824-148.212-38.351c-14.705-0.392-29.338,0.367-43.843,1.348
		C4093.393,324.396,4102.753,340.208,4119.08,347.503z"/>
	<path fill="#44C88C" stroke="#44C88C" d="M4326.536,400.731c37.02,30.772,89.31,44.428,135.763,28.504
		c-5.748-6.242-11.295-12.305-17.052-18.046c-46.166-23.967-94.234-47.623-145.902-56.526
		C4307.191,370.512,4312.456,388.754,4326.536,400.731z"/>
	<path fill="#44C88C" stroke="#44C88C" d="M3947.396,347.967c28.152,3.402,58.026,3.619,84.682-7.453
		c16.404-7.2,27.868-21.558,39.574-34.469c-4.478-1.568-13.378-4.689-17.856-6.257c-64.52-4.215-129.954-12.317-193.926,2.466
		C3875.657,335.486,3914.564,342.817,3947.396,347.967z"/>
	<path fill="#44C88C" stroke="#44C88C" d="M4611.807,512.862c-32.57-23.179-64.354-48.85-100.816-65.398
		c-3.258-0.49-9.733-1.395-12.933-1.869c20.907,30.006,51.936,50.009,82.447,69.121c-8.812,10.037-17.461,20.178-26.011,30.41
		c-35.142-24.366-77.455-47.245-121.38-34.231c-29.444,4.549-48.633,29.107-57.352,56.072c7.455,1.229,14.953,2.531,22.584,3.807
		c41.967,1.233,84.574-1.134,125.917,8.604c69.276,13.963,135.055,42.769,194.912,80.181c33.247,20.154,58.855,50.656,92.987,69.6
		c-16.906-37.049-45.264-66.648-71.103-97.463C4703.38,586.611,4658.004,548.777,4611.807,512.862z"/>
	<path fill="#44C88C" stroke="#44C88C" d="M3837.843,314.809c-4.335-2.347-12.962-6.967-17.297-9.314
		c-26.97,6.338-54.167,11.17-80.925,18.13c-54.367,13.819-111.028,23.509-160.266,51.826
		C3671.893,427.258,3800.886,414.164,3837.843,314.809z"/>
	<path fill="#44C88C" stroke="#44C88C" d="M4182.402,593.088c-7.428,14.991-4.585,31.961-2.804,47.956
		c27.071-14.292,54.317-28.537,82.774-40.01c30.28-12.433,63.343-15.956,93.708-28.24c-22.284-15.353-46.194-31.201-74.229-31.493
		C4243.453,539.634,4198.212,555,4182.402,593.088z"/>
	<path fill="#44C88C" stroke="#44C88C" d="M3432.59,512.184c44.599-4.666,93.276-19.746,118.618-59.698
		c16.092-22.113,19.896-49.945,17.327-76.457c-84.09,32.433-166.338,70.697-242.684,118.889
		C3357.172,515.942,3396.558,514.603,3432.59,512.184z"/>
	<path fill="#44C88C" stroke="#44C88C" d="M4084.069,618.653c-33.864,7.018-57.028,36.866-71.229,66.52
		c-13.132,25.855-8.828,55.53-8.456,83.467c-39.8,1.48-82.429,1.328-117.25,23.55c-61.357,36.282-48.974,144.029-1.292,160.091
		c32.911-64.708,77.963-122.668,126.293-176.426c47.146-46.218,95.109-92.91,152.971-125.594
		c-0.441-4.014-1.266-12.025-1.707-16.038C4138.44,623.75,4111.539,612.321,4084.069,618.653z"/>
	<path fill="#44C88C" stroke="#44C88C" d="M3206.72,661.373c49.647-14.949,98.393-50.874,110.04-104.021
		c5.076-18.193,0.377-36.913-3.689-54.71c-71.673,45.476-139.491,97.004-199.855,156.861
		C3141.783,676.716,3176.396,668.766,3206.72,661.373z"/>
	<path fill="#44C88C" stroke="#44C88C" d="M3425.961,1124.946c11.073-11.698,20.912-24.665,26.577-39.875
		c95.13-240.321,150.227-309.392,177.927-369.002c-57.703,18.588-109.148,51.91-159.988,84.138
		c-95.08,58.731-174.11,142.594-226.174,241.673C3340.344,1060.627,3364.711,1060.016,3425.961,1124.946z"/>
	<path fill="#44C88C" stroke="#44C88C" d="M2915.097,1323.517c14.509-35.543,17.959-77.42,0.199-112.433
		c-10.933-24.085-35.238-37.022-55.634-51.684c29.25-15.409,63.08-26.081,83.769-53.696c27.65-35.881,39.631-82.716,39.152-127.524
		c0.876-32.884-26.181-55.79-34.052-85.974c41.4-7.275,84.941-18.13,115.276-49.464c43.427-42.368,72.092-113.547,39.395-170.317
		c-42.879,40.063-79.7,86.387-109.812,136.758c-47.301,73.072-86.515,152.318-108.256,236.901
		c-15.403,58.556-34.088,117.182-35.788,178.252c-5.142,57.012-1.951,114.543,8.409,170.839
		C2887.713,1382.532,2903.105,1351.937,2915.097,1323.517z"/>
	<path fill="#44C88C" stroke="#44C88C" d="M345.457,798.009c192.63-120.078,397.136-95.444,576.986,109.744
		c40.696,46.43,76.102,97.184,109.731,148.888c103.494,159.118,183.015,445.492,309.345,596.929
		c93.689,112.307,230.039,194.991,378.374,200.492c111.923,4.151,223.442-32.935,312.789-100.08
		c14.671-11.025,28.906-22.621,42.879-34.516c29.409-25.035,58.923-48.974,83.539-79.044c23.536-28.752,47.219-59.92,62.264-93.814
		c44.509-100.266,60.904-209.896,49.124-319.154c-10.819-100.343-39.29-204.699-77.098-298.036
		c-59.238-146.235-143.049-256.601-255.387-361.117c-86.745-80.705-185.512-147.292-291.528-196.395
		c-45.864-21.243-81.116-41.663-135.326-63.345c-228.117-91.24-496.762-121.221-734.938-63.117
		c-266.209,64.944-508.842,214.656-662.977,434.684c-126.31,180.309-150.232,423.463-38.393,629.053
		c8.459,15.547,18.058,23.981,29.495,36.641c24.686,27.33,48.424,54.277,78.729,75.696c56.276,39.777,153.943,71.019,218.782,52.963
		c52.921-14.738,103.04-40.222,141.72-79.999c20.179-20.751,33.522-40.245,41.283-67.717
		c69.529-246.087-296.505-364.591-375.223-100.8c-3.518,17.288-6.61,34.627-10.585,51.981c-0.198,0.864-23.979-24.205-25.855-27.37
		c-22.399-37.781-22.333-88.288-18.325-134.532C165.752,990.339,237.779,865.131,345.457,798.009z M165.979,1289.515
		c17.696,26.262,35.234,53.36,58.602,75.035c8.173,8.458,21.877,10.971,28.624-0.746c-3.892-23.657-17.253-44.493-20.985-68.045
		c-14.348-83.373,45.024-173.093,128.682-188.988c46.876-7.579,99.478-2.198,136.968,29.642
		c96.721,69.141,111.491,263.766-104.483,309.041c-63.075,14.708-130.38-2.187-183.677-37.602
		c-35.062-22.773-62.914-54.752-87.599-88.025C7.473,1159.192-11.872,924.63,128.833,707.655
		c32.261-54.45,75.573-101.121,119.306-146.299c40.889-36.821,80.702-75.5,127.385-105.063
		c45.736-29.311,90.401-60.729,139.497-84.245c47.112-21.719,93.402-45.542,142.816-61.745
		c113.646-38.586,232.216-66.876,352.748-68.25c162.824-7.803,287.288,27.206,439.585,73.993
		c209.791,77.791,411.552,192.722,559.37,363.877c75.213,89.066,134.256,191.303,177.192,299.623
		c23.409,54.174,35.079,112.39,48.763,169.633c21.585,122.814,23.109,254.306-28.323,370.395
		c-36.326,87.051-107.782,153.007-184.375,204.967c-33.986,21.44-62.349,51.726-100.186,66.863
		c-104.465,49.637-229.968,52.957-336.674,8.113c-45.373-15.838-82.834-46.602-123.431-71.224
		c-185.087-116.807-273.9-441.688-397.879-668.062c-48.286-84.356-105.483-164.923-180.014-228.169
		C706.288,673.872,491.94,653.1,307.185,791.6c-101.272,81.844-180.679,201.677-185.111,335.042
		C123.205,1183.186,135.644,1241.104,165.979,1289.515z"/>
	<path fill="#44C88C" stroke="#44C88C" d="M3770.205,975.191c-21.998,12.436-30.308,39.51-28.334,63.537
		c3.122,39.101,19.041,76.327,42.06,107.836c3.909-4.804,7.819-9.609,11.756-14.279c25.419-52.311,48.621-105.965,76.771-156.984
		c-1.75-4.047-5.279-12.275-7.014-16.381C3833.143,957.682,3798.941,958.64,3770.205,975.191z"/>
	<path fill="#44C88C" stroke="#44C88C" d="M1266.926,429.439c48.889,4.708,102.909-0.468,142.593-32.27
		c-12.406-5.75-24.968-10.913-37.918-14.609c-73.263-19.988-146.562-41.494-222.426-48.599
		C1161.699,388.005,1213.496,424.341,1266.926,429.439z"/>
	<path fill="#44C88C" stroke="#44C88C" d="M1467.906,503.064c56.813,36.351,129.81,37.227,192.888,18.247
		c-0.316-3.541-1.023-10.578-1.339-14.119c-36.7-19.439-72.854-39.988-111.132-56.076c-42.477-17.77-83.75-40.31-129.686-47.877
		C1419.815,441.635,1434.459,481.538,1467.906,503.064z"/>
	<path fill="#44C88C" stroke="#44C88C" d="M975.603,379.168c53.128,7.658,116.632,1.736,153.967-41.56
		c-49.695-13.218-49.562-11.905-105.483-10.648c-36.062,1.343-72.785,0.689-107.759,11.182
		C932.708,355.883,949.707,376.492,975.603,379.168z"/>
	<path fill="#44C88C" stroke="#44C88C" d="M1882.975,675.419c-13.392-14.81-27.919-28.415-43.121-41.13
		c-50.114-40.79-100.711-81.646-158.869-110.561C1642.447,607.006,1768.463,713.338,1882.975,675.419z"/>
	<path fill="#44C88C" stroke="#44C88C" d="M849.322,392.525c24.279-8.499,56.32-25.68,49.472-56.408
		c-59.776,12.443-120.381,23.284-177.886,44.437C756.739,410.131,807.755,405.161,849.322,392.525z"/>
	<path fill="#44C88C" stroke="#44C88C" d="M3659.15,1280.85c1.402,26.892,22.291,46.084,41.084,62.771
		c3.937-4.672,7.902-9.209,11.925-13.732c20.733-37.72,33.931-79.205,51.261-118.522c4.333-14.684,7.639-29.515,10.987-44.272
		c-22.978,0.99-46.97,3.909-66.295,17.622C3676.176,1204.816,3658.12,1243.563,3659.15,1280.85z"/>
	<path fill="#44C88C" stroke="#44C88C" d="M1927.435,846.61c29.411,32.016,72.11,46.577,113.588,55.095
		c2.079-3.343,6.179-10.045,8.257-13.388c-41.559-69.496-88.019-136.839-144.959-194.715c-4.652,0.271-13.884,0.769-18.536,1.039
		C1865.797,748.711,1891.233,806.126,1927.435,846.61z"/>
	<path fill="#44C88C" stroke="#44C88C" d="M646.783,453.971c20.981-13.335,39.783-34.54,37.196-60.992
		c-54.561,22.126-111.912,40.806-160.054,75.637C563.843,487.275,610.766,476.441,646.783,453.971z"/>
	<path fill="#44C88C" stroke="#44C88C" d="M3271.993,1176.688c-32.86-4.341-69.389,2.786-92.876,27.707
		c-31.907,30.162-42.411,80.657-24.138,120.834c23.328,54.718,96.37,80.743,148.381,50.964
		c40.136-19.551,61.072-67.022,55.789-110.279C3351.556,1222.608,3316.507,1182.745,3271.993,1176.688z"/>
	<path fill="#44C88C" stroke="#44C88C" d="M472.005,622.278c40.184-10.741,81.922-7.935,123.006-9.765
		c7.914-1.917,15.803-4.218,23.806-6.237c-8.652-29.134-33.137-50.854-63.769-53.66c-43.426-10.167-83.05,14.549-117.111,38.167
		c-8.336-10.449-16.613-20.883-24.773-31.286c20.601-14.504,42.852-27.187,60.884-45.015c6.834-5.66,7.263-14.846,8.454-22.888
		C377.324,551.725,285.429,635.12,213.759,732.881c-8.716,11.57-13.038,25.502-17.357,39.184
		c28.925-19.391,52.507-45.609,81.792-64.465C337.802,669.284,402.136,636.813,472.005,622.278z"/>
	<path fill="#44C88C" stroke="#44C88C" d="M3675.97,1351.119c-46.581,6.464-96.284,31.327-112.464,78.616
		c-16.473,40.111-2.518,82.847,8.765,122.17c-36.694-9.759-78.009-20.308-114.114-2.951c-25.594,14.873-49.203,40.014-50.731,71.091
		c-1.661,18.097-1.119,36.402-1.12,54.625c-28.012-15.996-56.439-34.68-89.461-36.99c-31.133-2.813-63.743-0.048-92.185,13.502
		c-19.835,10.435-33.913,28.497-49.078,44.509c-16.694-43.527-37.586-91.815-83.812-110.582
		c-33.073-17.972-71.164-10.632-103.993,3.134c8.196-42.501,9.102-89.453-15.639-127.014
		c-21.395-35.98-67.073-68.175-109.229-47.401c37.623,129.129,98.215,161.687,152.039,210.612
		c69.825,54.014,154.762,86.532,241.991,98.106c38.453,4.069,76.128-8.094,112.858-17.869
		c101.167-34.364,195.347-98.927,250.376-192.379c33.303-47.259,53.488-101.842,80.94-152.354
		C3693.05,1356.039,3685.399,1349.165,3675.97,1351.119z"/>
	<path fill="#44C88C" stroke="#44C88C" d="M2097.964,1145.089c14.763,10.588,33.254,11.61,50.846,10.821
		c-18.724-78.944-45.23-155.748-79.302-229.347c-6.226-2.787-12.424-5.441-18.537-7.946c-17.826,19.892-30.416,44.885-30.021,72.264
		C2020.441,1050.066,2044.377,1114.56,2097.964,1145.089z"/>
	<path fill="#44C88C" stroke="#44C88C" d="M1515.711,813.081c-46.752-27.202-93.794-55.675-146.155-70.481
		c15.946,37.359,39.514,70.586,59.33,105.894c53.328,94.684,94.846,195.337,142.559,292.737c3.059,0.06,9.235,0.194,12.294,0.254
		c22.537-23.227,47.31-45.42,77.477-58.134c21.727-9.995,45.55-13.462,68.707-18.677c8.74-2.2,17.454-4.533,26.239-6.658
		C1706.932,951.665,1613.377,873.557,1515.711,813.081z"/>
	<path fill="#44C88C" stroke="#44C88C" d="M800.736,667.542c4.512,1.2,13.555,3.542,18.143,4.699
		c-1.379-19.407-1.182-40.973-14.622-56.55c-21.305-25.901-56.821-35.85-89.253-35.175c-28.959,0.592-53.479,17.574-78.337,30.381
		C690.936,631.049,749.957,638.013,800.736,667.542z"/>
	<path fill="#44C88C" stroke="#44C88C" d="M828.23,674.603c3.783,4.903,7.668,9.894,11.668,14.917
		c195.954,133.525,230.772,230.526,283.018,293.834c38.044-37.452,44.735-104.798,8.775-145.72
		c-37.358-36.832-93.286-33.923-141.754-38.33c4.17-26.603,8.711-55.56-4.445-80.488c-16.708-32.596-45.587-64.722-84.679-66.384
		C874.404,648.613,849.934,661.146,828.23,674.603z"/>
	<path fill="#44C88C" stroke="#44C88C" d="M2081.951,1268.65c1.132,53.465,28.613,103.882,65.713,141.211
		c3.767-12.069,7.634-24.049,10.899-36.126c10.304-67.013,2.051-134.563-6.053-201.257
		C2107.414,1178.08,2082.734,1227.13,2081.951,1268.65z"/>
	<path fill="#44C88C" stroke="#44C88C" d="M1239.905,1008.122c-33.375-22.513-75.091-19.72-113.404-18.41
		c30.041,63.479,64.138,125.146,93.719,188.942c26.543-33.599,40.638-76.101,41.833-118.704
		C1262.526,1040.658,1257.312,1018.91,1239.905,1008.122z"/>
	<path fill="#44C88C" stroke="#44C88C" d="M1657.603,1257.402c-27.034,58.165,14.06,135.33,77.707,144.967
		c62.973,16.435,132.832-40.898,128.016-106.026c0.058-50.383-39.106-96.493-89.188-103.089
		C1726.693,1184.281,1675.802,1212.913,1657.603,1257.402z"/>
	<path fill="#44C88C" stroke="#44C88C" d="M2032.087,1492.173c-14.234,32.851-10.06,69.404-4.81,103.792
		c-24.105-5.406-49.011-13.475-73.887-8.403c-31.865,6.105-60.676,25.778-78.068,53.264c-13.777,21.661-22.546,45.973-32.687,69.543
		c-16.829-18.175-33.827-37.841-57.663-46.631c-31.337-11.979-66.181-13.328-98.764-6.409c-27.825,5.544-50.869,23.107-73.97,38.518
		c-1.631-29.341,2.466-61.118-11.957-87.89c-20.22-32.839-60.985-50.908-98.886-46.41c-19.552,2.027-38.489,7.422-57.549,12.093
		c9.405-36.648,21.184-75.619,8.238-112.934c-16.378-59.153-83.4-88.479-140.639-82.525
		c26.901,72.95,69.973,138.638,115.339,201.353c72.1,93.516,224.577,166.418,331.308,159.064
		c64.804-4.194,128.902-25.605,181.972-63.397c77.554-47.304,153.849-108.078,190.027-194.101
		c6.963-21.526,11.801-43.553,16.389-65.584C2095.167,1406.456,2049.594,1446.745,2032.087,1492.173z"/>
	<path fill="#44C88C" stroke="#44C88C" d="M1349.224,1311.437c9.372-65.627-56.486-129.394-122.043-112.895
		c27.471,57.076,50.409,116.341,79.599,172.618C1325.981,1355.78,1346.563,1337.562,1349.224,1311.437z"/>
	<path fill="#44C88C" stroke="#44C88C" d="M440.948,1356.488c48.763-23.918,66.292-90.016,42.28-137.186
		c-17.14-29.067-49.087-49.629-82.769-52.052c-63.771-6.089-119.626,58.299-104.119,120.74
		C305.035,1352.452,385.873,1387.652,440.948,1356.488z M335.491,1225.067c14.295-22.905,43.327-33.471,69.207-26.714
		c39.851,3.058,70.432,44.623,60.037,83.585c-6.988,43.387-58.81,70.326-98.509,51.786
		C324.351,1319.131,307.89,1259.579,335.491,1225.067z"/>
	<path fill="#44C88C" stroke="#44C88C" d="M4015.074,2879.683c3.772-32.68,30.565-54.208,53.79-74.111
		c-23.294-17.695-55.143-34.838-55.716-68.171c-7.462-35.982,23.496-64.699,25.721-98.167
		c-27.324-23.794-66.596-36.375-81.474-72.319c-17.606-31.97-0.99-67.168,12.432-99.879c-39.273-10.85-77.235-19.742-95.161-50.76
		c-9.407-22.737-3.798-48.141-3.776-71.889c-28.855,3.511-63.048,8.933-85.014-15.195c-29.929-23.67-27.204-64.233-24.429-98.12
		c-43.726,2.321-92.358,7.297-129.385-21.089c-30.559-19.879-37.508-57.798-48.28-89.822c-36.788,8.818-76.473,26.666-113.651,9.74
		c-25.439-9.845-35.714-36.646-45.616-59.64c-2.944-0.971-8.813-2.972-11.74-4.002c-21.943,12.702-45.066,32.694-72.322,25.445
		c-22.6-7.77-40.077-24.924-58.745-39.001c-31.42,2.767-62.138,9.993-92.917,16.26c-1.808,20.068-3.924,40.117-6.115,60.209
		c33.194-8.516,71.669-18.015,102.128,3.66c28.941,15.804,25.639,53.572,43.904,77.219c28.716,6.004,66.817-7.051,86.766,21.129
		c21.385,30.573,1.698,68.132-7.381,99.526c1.853,1.058,5.646,3.323,7.498,4.382c16.946,10.162,38.258,14.511,51.911,29.517
		c14.012,29.743-14.157,54.803-25.527,79.931c-6.208,12.049,10.514,17.376,16.832,25.026c17.143,12.729,36.337,32.161,28.712,55.71
		c-10.587,26.908-40.342,37.595-62.688,52.767c17.963,27.149,41.554,59.817,24.645,93.528c-8.698,29.484-43.124,29.628-67.71,35.029
		c10.794,26.499,29.427,55.146,18.197,84.712c-9.073,29.007-44.448,28.71-68.306,37.51c14.81,29.578,37.559,61.393,26.988,96.286
		c-5.464,24.626-29.701,36.278-49.352,48.145c20.068,18.974,44.643,35.628,55.85,61.985c10.714,27.986-1.062,57.719-6.633,85.585
		c35.816-3.733,78.488-9.414,105.201,20.941c29.623,25.538,22.699,67.496,17.758,101.75c34.882-22.946,72.98-48.698,117.01-38.256
		c27.716,5.989,40.355,34.047,53.922,56.005c20.447-24.098,40.016-54.586,73.341-60.994c31.594-7.684,60.519,11.257,86.631,26.371
		c6.359-31.552,2.293-73.48,33.683-92.467c34.597-20.9,74.668-0.69,111.853-2.489c-2.043-39.379-9.361-82.298,11.272-118.223
		c16.366-26.691,51.202-25.783,78.435-30.983C4029.504,2951.39,4006.651,2917.598,4015.074,2879.683z M3943.583,2854.197
		c-2.068,76.179-35.354,151.534-93.048,201.795c-31.988,33.784-74.566,54.258-116.611,72.485
		c-55.128,21.66-118.233,26.306-174.513,5.934c-85.694-27.065-145.941-124.531-121.773-213.056
		c20.684-89.829,69.511-169.597,95.656-257.534c47.978-127.439,54.104-277.131-10.614-399.855
		c-4.583-7.565,2.125-14.642,4.592-21.339c43.595,12.6,81.837,38.293,119.144,63.486c58.431,41.368,110.168,91.89,154.183,148.34
		c29.865,40.243,60.371,80.908,78.823,127.983C3918.223,2667.537,3948.32,2759.435,3943.583,2854.197z"/>
	<path fill="#44C88C" stroke="#44C88C" d="M3711.495,2396.947c-42.867-38.298-84.981-79.913-138.819-102.401
		c4.319,43.818,20.878,85.487,23.278,129.674c3.152,65.251-0.198,131.6-20.5,194.195c-14.368,66.247-45.893,126.674-66.732,190.823
		c20.749-10.569,41.647-21.224,60.53-34.928c20.499-26.661,28.415-60.06,39.592-91.085c18.707-53.027,29.886-108.434,36.568-164.156
		c4.152-36.475,0.508-73.137,1.35-109.677c37.523,22.485,64.285,57.631,91.259,91.261c56.49,71.644,94.424,156.703,117.68,244.582
		c15.261,59.107,11.885,121.051-1.173,180.231c-4.552,38.694-17.958,75.284-28.241,112.642
		c60.642-44.576,90.613-121.629,91.145-195.327c-0.506-78.309-21.802-155.36-53.658-226.423
		C3828.496,2533.826,3776.514,2458.669,3711.495,2396.947z"/>
	<path fill="#44C88C" stroke="#44C88C" d="M1692.236,3139.976c-7.938-29.698-19.89-62.475-6.935-92.398
		c12.229-22.45,33.606-37.753,52.24-54.541c-20.447-14.236-47.373-26.99-52.542-53.878c-6.401-33.123,12.871-63.44,25.213-92.71
		c-23.421-8.931-57.574-9.342-67.872-36.526c-10.128-28.773,7.501-57.39,16.35-84.132c-24.872-5.358-59.965-4.825-68.875-34.405
		c-14.998-32.645,5.838-65.311,22.081-92.726c-22.484-16.726-56.299-27.165-63.718-57.165
		c-2.402-33.065,30.419-52.238,50.583-73.142l-2.698-3.546c-13.042-19.681-33.164-37.978-34.701-62.706
		c3.01-28.861,35.771-36.926,57.341-48.22c0.093-34.664-24.851-73.347-1.458-104.767c19.809-26.751,52.66-16.163,92.839-19.046
		c4.796-28.26,3.403-65.833,33.767-80.003c30.275-20.227,67.665-14.744,101.051-7.184c-2.058-18.269-3.881-36.475-5.529-54.635
		c-8.922-3.503-17.818-6.875-26.736-9.687c-25.283-3.331-53.5-13.349-77.911-3.88c-16.429,13.918-31.24,32.853-53.77,36.412
		c-26.401,4.667-48.973-14.093-71.568-24.25c-17.583,24.419-29.138,59.239-61.101,68.082
		c-35.863,11.953-71.488-6.571-106.688-11.785c-4.866,20.951-8.29,42.852-18.326,62.24c-14.137,24.205-39.092,40.693-65.414,49.089
		c-27.846,8.933-57.428,1.693-85.812,6.273c-5.247,30.904,4.722,67.616-20.6,92.113c-22.607,27.985-60.796,26.94-92.906,21.667
		c4.463,23.873,15.081,51.268-0.117,73.557c-18.935,31.412-57.306,38.865-88.829,51.722c8.931,31.156,28.648,65.181,11.585,97.343
		c-14.1,37.788-56.187,49.782-81.133,77.836c6.881,32.497,35.651,60.069,28.144,95.715c-2.014,33.147-32.887,50.89-55.991,69.63
		c23.466,17.992,51.93,36.309,57.146,67.986c11.423,38.794-10.952,75.136-29.883,107.24c26.813,6.315,61.368,2.371,79.154,27.588
		c21.179,34.081,14.601,75.561,12.081,123.868c37.006-5.616,78.498-26.254,113.7-4.009c32.747,20.146,30.079,62.861,32.915,96.418
		c24.657-17.259,51.284-40.53,83.799-33.704c37.301,3.448,58.147,37.71,80.425,63.494c12.061-22.998,21.905-53.496,50.438-60.047
		c41.343-12.507,80.748,12.113,116.38,30.136c-1.108-33.916-8.315-75.359,21.346-99.896
		C1616.476,3131.767,1657.442,3135.122,1692.236,3139.976z M1576.973,3094.742c-90.716,118.09-298.123,99.092-422.815-55.833
		c-22.223-28.596-35.845-62.886-45.092-97.583c-17.571-71.222-7.114-145.673,9.094-216.018
		c18.109-59.533,42.722-117.085,71.068-172.387c92.38-163.387,249.102-269.378,300.244-285.066
		c7.744-3.408,19.773,4.002,15.445,13.219c-14.551,54.636-35.928,108.272-38.836,165.376
		c-7.216,205.227,81.575,309.632,140.167,483.955C1624.494,2985.594,1610.516,3048.237,1576.973,3094.742z"/>
	<path fill="#44C88C" stroke="#44C88C" d="M3774.24,2822.417c-29.493-28.393-70.979-40.433-110.795-43.859
		c-93.05,1.143-174.592,74.849-199.581,162.214c-10.405,41.598,9.414,83.758,31.658,117.952
		c41.038,48.745,110.028,69.231,172.048,58.264c34.95-6.855,74.58-13.848,99.449-41.608c32.021-45.025,59.298-97.72,58.549-154.289
		C3825.09,2882.193,3802.561,2847.419,3774.24,2822.417z M3728.25,3011.215c-7.921,28.686-38.919,41.933-65.468,47.629
		c-40.406,4.712-87.263-12.149-106.109-50.404c-12.321-29.733-11.828-66.615,8.255-92.884c16.018-22.07,39.978-40.96,67.473-45.021
		c35.987,2.722,77.3,13.521,94.778,48.648C3746.577,2946.838,3739.198,2981.763,3728.25,3011.215z"/>
	<path fill="#44C88C" stroke="#44C88C" d="M1188.943,2934.48c-21.216-67.416-9.979-139.837,8.44-206.452
		c37.648-112.15,97.852-221.569,191.616-295.921c0.512,38.532-2.07,77.373,3.239,115.798
		c11.326,84.831,36.917,167.927,75.612,244.202c19.9,15.348,42.537,26.773,65.089,37.797
		c-22.186-83.029-98.406-185.897-94.025-368.56c0.089-50.501,13.452-99.231,26.264-147.542
		c-48.671,21.681-88.639,58.811-127.423,94.558c-96.162,89.55-164.006,208.374-194.204,336.206
		c-19.825,67.184-23.352,140.587-2.843,208.065c14.693,42.556,39.461,84.271,78.084,108.997
		c-5.342-20.084-12.944-39.451-18.316-59.418C1194.443,2979.995,1194.267,2956.76,1188.943,2934.48z"/>
	<path fill="#44C88C" stroke="#44C88C" d="M1505.94,2849.369c-29.699-27.38-69.417-40.645-108.751-45.89
		c-43.047-2.84-85.147,15.122-119.375,40.078c-37.303,28.977-66.532,77.196-55.84,125.85c5.753,48.347,30.382,91.534,58.651,130.222
		c17.928,23.495,48.459,31.175,75.84,37.955c58.226,13.035,124.646,6.066,171.865-33.094c36.16-31.292,63.123-78.542,57.865-127.574
		C1577.896,2925.63,1543.326,2883.255,1505.94,2849.369z M1494.391,3013.833c-4.606,30.385-25.16,56.778-54.647,66.217
		c-28.898,14.56-61.697,4.077-89.478-7.584c-40.974-26.985-55.379-90.264-26.19-130.763c13.64-21.383,36.26-36.167,60.526-42.722
		c25.504-2.706,51.265,6.157,74.478,16.353C1489.713,2936.111,1507.465,2977.783,1494.391,3013.833z"/>
	<path fill="#44C88C" stroke="#44C88C" d="M2288.633,2243.594c-9.232-6.812-20.459-12.55-24.199-22.533
		c-8.552-22.533,4.973-44.52,3.821-67.174c-2.068-44.121-33.917-82.254-80.298-89.707c-18.255-2.854-34.873-0.243-41.605-20.468
		c-15.95-47.921-43.241-86.366-97.764-89.343c-18.194-0.972-36.328,1.579-54.22,4.373c-21.59,3.34-20.438,2.612-26.625-16.702
		c-9.521-29.761-42.211-50.35-71.868-54.662c-37.056-5.345-58.829,17.128-91.396,26.481c-13.889-3.34-24.381-14.03-35.662-21.986
		c-38.754-17.37-88.424-27.453-122.205,5.588c-6.308,6.195-11.765,13.484-19.529,17.614c-12.919,6.863-34.085-5.102-47.549-8.017
		c-25.715-5.588-48.458-11.661-73.566-1.336c-22.562,9.292-41.909,26.663-52.582,48.71c-3.699,7.592-7.096,16.338-14.799,19.8
		c-15.889,7.106-34.691-7.288-50.762-8.624c-45.518-3.86-84.73,24.882-97.644,64.988c-2.305,7.349-3.882,15.184-8.49,21.318
		c-10.311,13.727-23.896,7.835-37.542,5.709c-16.133-2.551-35.236,1.154-49.55,8.686c-24.077,10.629-40.452,32.433-51.612,55.634
		c-2.365,16.581-3.457,33.344-4.124,50.289c-0.121,2.43-36.45,1.701-41.241,1.883c-55.412,2.632-103.415,68.289-81.571,133.619
		c-1.334-4.191-49.731,10.447-55.13,14.273c-65.001,46.25-51.722,79.398-47.609,133.194c0.304,4.191-46.335,30.732-52.036,35.348
		c-30.223,24.524-29.19,61.078-21.53,98.574c0.91,4.434,13.828,40.146,13.464,40.39c-34.083,21.379-62.589,41.543-67.683,84.909
		c-2.79,23.565,3.215,48.103,16.557,67.721c4.549,6.681,10.006,13.119,11.826,21.014c3.093,13.969-12.675,22.897-19.832,32.98
		c-10.371,14.698-18.437,31.157-20.377,49.257c-7.642,42.151,18.558,83.694,55.917,102.158
		c-13.039,35.956-31.901,78.106-14.071,115.641c9.452,19.607,35.419,50.827,57.434,60.189c16.86,7.167,23.653,2.065,24.259,23.444
		c0.789,29.214-1.638,61.221,17.225,85.82c24.563,32.251,69.806,31.461,105.709,41.422c5.822,20.164,11.523,40.572,20.742,59.582
		c20.162,29.803,62.843,47.592,88.485,43.608c11.038-1.762,20.923-8.017,31.962-9.596c10.614-1.518,21.53,0.85,27.474,9.596
		c4.67,6.924,4.063,15.913,7.642,23.14c3.396,6.924,10.006,13.119,15.647,18.221c34.029,31.052,82.555,35.295,120.447,14.941
		c9.946-5.345,19.953-12.572,31.234-11.722c15.404,1.154,24.805,16.824,37.238,24.173c22.622,13.362,49.67,29.578,75.689,17.552
		c16.314-7.531,31.658-17.188,45.547-28.546c6.186-5.041,26.988-30.915,35.54-29.396c35.722,6.134,74.657,20.286,109.167,0.911
		c37.42-17.553,42.272-62.619,59.01-95.659c8.612-3.28,18.013-3.158,27.232-3.645c36.267,5.163,68.471-18.646,90.244-45.369
		c10.371-33.952,5.519-69.361,3.7-103.98c17.587-9.171,40.209-12.815,54.704-27.271c26.39-26.243,36.542-68.111,24.139-105.194
		c-2.002-5.891-4.367-13.058-8.127-18.039c-3.821-4.98-11.281-7.289-14.313-12.512c-9.643-16.885,11.098-41.179,20.135-53.873
		c31.48-44.224,21.261-97.468-14.676-127.06c-7.157-5.892-15.283-10.811-20.621-18.342c-9.703-13.605-0.667-34.437,2.669-48.832
		c10.623-45.322,1.417-69.45-31.537-94.201c-3.093-2.308-42.575-26.299-42.999-24.477c6.55-28.485,15.465-58.428,7.217-87.459
		c-7.581-27.574-30.93-46.099-49.064-66.627c22.319-31.947,31.477-69.968,30.324-108.596c28.323-17.978,57.131-36.745,75.871-65.352
		c34.388,9.779,69.624,17.553,105.649,15.002c16.253-2.43,22.44,15.609,30.566,26.116c2.183,3.28,6.61,9.779,8.794,13.119
		c12.839,15.043,21.251,21.756,34.751,33.344c-10.492,45.005-4.306,93.837,27.353,129.185
		c31.597,29.396,79.085,38.203,119.901,26.36c29.293-10.993,53.976-34.437,65.863-63.408c13.949-34.134,5.762-68.206-1.819-102.583
		c-0.545-2.733,19.65-18.889,22.258-21.622C2345.411,2342.601,2332.471,2276.055,2288.633,2243.594z M2144.17,2090.904
		c24.623,0.486,49.731,3.037,71.625,15.669c10.493,12.816,23.41,25.631,25.958,42.88c5.641,25.327-10.007,48.224-19.71,70.454
		c-20.499-11.115-33.357-30.368-44.941-49.743c-15.405-19.375-35.479-34.437-49.913-54.42
		C2127.431,2104.873,2138.226,2098.678,2144.17,2090.904z M2028.708,1982.761c15.916-3.656,36.746,0.532,53.2,13.255
		c24.725,19.118,34.599,52.797,30.612,68.295c-1.89,7.345-7.303,14.144-14.67,15.908c-8.645,2.07-17.243-2.931-24.733-7.724
		c-24.978-15.981-51.485-30.767-75.426-48.254C1976.083,2008.459,2012.603,1986.46,2028.708,1982.761z M1868.766,1921.026
		c26.867,1.154,62.285,5.588,73.263,34.68c9.036,14.333,11.705,31.097,6.308,47.495c-43.666-10.629-87.515-20.772-130.393-34.134
		C1824.978,1945.684,1845.599,1927.282,1868.766,1921.026z M1666.262,1921.998c23.592-26.542,68.351-22.23,92.549,1.154
		c11.705,9.9,15.405,25.327,20.014,39.357c-11.524,3.584-23.047,7.349-34.691,10.507c-13.767,0.182-27.474,0.608-41.12,1.276
		c-19.286-0.911-38.512-2.004-57.737-2.672C1648.007,1953.641,1652.495,1934.874,1666.262,1921.998z M1487.168,1955.402
		c16.618-16.095,39.057-27.088,62.407-28.06c16.011,1.518,29.536,11.418,43.423,18.889c6.429,8.746,17.831,19.01,12.555,31.097
		c-2.547,10.143-15.041,9.9-23.107,12.694c-25.047,3.948-49.974,9.718-71.747,23.323c-13.766-2.854-27.473-5.648-41.18-8.321
		C1472.794,1987.774,1473.522,1968.157,1487.168,1955.402z M1310.924,2041.161c14.249-41.769,57.871-60.84,105.225-42.88
		c6.732,2.551,13.646,6.074,17.164,12.329c4.124,7.167,2.79,16.459-1.396,23.626c-14.332,24.335-80.976,50.418-105.771,60.311
		c-3.881,1.518-8.126,3.097-12.13,1.883C1300.857,2092.483,1307.65,2050.575,1310.924,2041.161z M1167.31,2143.501
		c4.145-26.016,22.455-49.389,48.397-56.606c25.775-7.228,55.917,1.154,73.203,21.865c-88.138,75.214-89.197,78.329-101.525,79.564
		C1165.005,2190.693,1164.945,2158.321,1167.31,2143.501z M1089.074,2199.682c23.531-3.037,46.699,2.429,68.835,10.143
		c-17.405,36.381-50.156,61.222-75.932,91.225c-7.46,7.47-15.162,14.577-22.924,21.744c-9.703-13.787-19.408-28.121-21.712-45.127
		C1043.328,2258.546,1049.353,2229.984,1089.074,2199.682z M949.401,2369.378c17.665-33.304,61.402-42.13,90.547-19.071
		c-57.714,96.736-57.728,99.549-67.926,105.195C932.844,2477.124,940.547,2386.02,949.401,2369.378z M900.761,2500.568
		c22.572-12.544,39.594-2.581,39.057,17.31c-0.231,8.634,0.006,6.495-33.781,106.531c-1.092,3.219-29.9-20.043-32.022-22.472
		c-9.037-10.507-14.131-20.771-13.585-34.68C861.529,2540.376,876.858,2513.801,900.761,2500.568z M823.374,2682.532
		c17.769-18.767,43.424-34.134,70.17-29.275c-0.364,30.611-12.494,59.4-16.739,89.585c-2.487,18.1-6.368,36.138-12.251,53.63
		c-19.529-7.045-37.723-19.375-46.457-38.871C804.028,2734.28,810.638,2704.823,823.374,2682.532z M823.374,2952.747
		c-41.605-30.125-29.596-102.097,16.617-120.864c9.158-4.677,18.983,0.182,28.322,2.247c-10.188,42.515,6.247,84.787,2.851,127.424
		C857.276,2974.794,836.777,2960.46,823.374,2952.747z M871.346,3123.961c-54.644-31.562-41.543-103.614,8.188-127.849
		c17.163,44.155,34.326,88.371,51.49,132.526C911.678,3135.501,889.419,3133.74,871.346,3123.961z M1036.552,3264.14
		c-2.339,11.203-15.328,16.145-27.049,16.763c-19.893,0.911-40.028-6.013-55.129-18.949c-34.494-29.351-38.128-89.318-11.584-96.692
		c13.039-3.644,25.108,7.592,33.964,17.796c16.253,18.706,32.567,37.413,48.821,56.12
		C1031.761,3246.283,1038.372,3254.908,1036.552,3264.14z M1168.704,3372.553c-3.691,8.094-11.554,6.266-18.194,9.05
		c-11.705,4.787-15.807,16.967-40.695,7.531c-43.148-16.689-62.314-66.955-42.332-107.867c87.593,57.527,90.671,58.641,97.28,67.599
		C1169.736,3355.608,1172.162,3364.901,1168.704,3372.553z M1272.898,3454c-17.892-0.79-34.812-10.629-45.486-24.902
		c-14.009-18.585-10.371-37.535-8.977-59.46c45.305,11.479,90.609,22.958,135.974,34.498
		C1344.115,3436.618,1304.186,3455.323,1272.898,3454z M1518.584,3429.949c-21.052,40.378-76.865,55.488-115.474,20.286
		c-8.976-8.26-30.627-32.676-13.827-43.062c6.158-3.822,7.336-3.052,102.738-13.908c8.612-0.972,18.255-1.701,24.866,3.887
		C1525.983,3404.743,1523.982,3419.441,1518.584,3429.949z M1464.001,3327.609c-38.451,8.503-77.872,0.486-116.506-2.673
		c-63.62-5.952-122.57-33.283-177.031-65.291c-43.484-24.355-81.632-57.031-115.838-92.987
		c-31.113-34.012-61.679-70.15-77.326-114.123c-47.852-110.175-45.123-235.473-16.497-350.203
		c36.692-145.463,107.106-283.637,211.42-392.05c64.408-73.369,144.464-130.643,228.583-179.05
		c126.513-66.87,272.795-101.672,415.5-80.232c103.799,11.717,237.182,73.853,299.844,160.829c6.247,9.05,8.127,23.808-6.125,25.934
		c-34.326-13.727-65.5-34.984-102.07-43.123c-57.01-12.147-117.9-19.314-174.424-0.972
		c-100.009,27.635-180.125,114.548-200.382,216.341c-43.938,143.09,76.225,320.436,124.874,471.311
		c12.251,48.407,25.715,99.607,13.404,149.411c-10.068,40.389-18.68,82.176-39.968,118.496
		c-32.022,57.152-80.541,104.648-138.278,135.563C1553.699,3308.295,1508.516,3318.498,1464.001,3327.609z M1640.729,3416.647
		c-22.137,7.592-47.549,3.887-67.138-8.625c-10.674-6.802-19.589-12.998-11.038-24.901c8.052-11.331,16.304-13.688,101.222-53.448
		c6.488-3.097,14.191-6.134,20.68-2.915C1703.671,3336.46,1690.571,3399.534,1640.729,3416.647z M1821.703,3259.463
		c-9.339,31.947-36.267,54.723-68.471,61.283c-13.48-2.411-34.521-7.93-48.822-11.661c2.062-25.023,26.745-37.596,41.422-54.845
		c17.908-24.532,22.657-35.115,45.001-61.343c5.943,2.247,11.765,4.92,17.527,7.896
		C1820.672,3217.616,1827.526,3238.631,1821.703,3259.463z M1899.846,3120.115c-4.646,21.838-23.691,45.937-46.242,49.884
		c-15.465,1.397-30.203-4.738-44.88-8.199c9.377-32.618,10.755-34.086,23.716-82.541c3.863-14.442,5.756-33.32,12.814-46.14
		c0.955-1.734,28.92,8.338,31.63,10.123c11.214,7.385,13.63,20.557,17.997,32.44
		C1900.087,3089.844,1902.972,3105.421,1899.846,3120.115z M1899.262,2884.701c42.186,51.359-4.273,116.178-36.463,113.354
		c-21.019-1.844-17.095-26.767-18.896-41.865c-2.655-22.255-5.31-44.51-7.965-66.765c-0.975-8.174-1.658-17.396,3.646-23.685
		c6.512-7.72,18.679-6.977,28.175-3.559C1880.069,2866.611,1890.958,2874.591,1899.262,2884.701z M1842.57,2713.262
		c48.859,51.99,0.253,132.336-32.166,110.904c-8.957-5.921-9.447-11.625-34.974-82.948c-5.456-15.244-17.731-37.084,1.461-48.032
		c8.603-4.908,19.308-4.449,28.894-1.972C1819.821,2694.841,1832.643,2702.698,1842.57,2713.262z M2248.76,2503.511
		c-7.76,20.934-24.936,38.553-45.525,46.815c-39.795,15.97-89.811-5.084-111.163-41.256c-16.071-29.335-6.55-63.347,10.735-89.585
		c0.546-2.187,1.577-6.56,2.063-8.807c-19.954-10.021-38.997-22.047-55.857-36.684c-1.395-1.822-4.125-5.345-5.459-7.106
		c-12.251-12.39-13.524-29.822-8.854-45.674c-4.792-8.563-9.522-17.127-13.707-25.874c-27.049,15.974-57.312,39.782-90.608,28.728
		c-22.016-10.932-40.028-28.364-61.558-40.146c-11.766,24.233-17.467,54.541-40.695,71.061c-22.5,13.483-49.913,11.357-74.96,14.455
		c1.577,30.125,23.895,56.181,19.043,86.974c-2.668,19.739-20.498,31.765-33.963,44.398c-5.883,7.896-14.98,15.974-13.827,26.906
		c26.112,17.387,56.753,22.969,67.077,56.728c8.915,24.719-1.516,50.775-10.371,73.976l-2.243,4.616
		c-9.522,6.438-19.408,12.208-29.233,18.099c-23.895-52.172-43.06-107.199-52.339-163.865
		c-4.488-66.931,12.069-137.749,54.705-190.529c28.141-35.712,70.655-56.727,113.836-67.72
		c50.885-12.451,103.648-1.944,152.713,13.422c15.942,4.992,27.583,15.183,40.677,24.542c14.54,10.393,28.954,19.693,41.854,32.285
		c24.774,24.179,44.135,53.976,55.728,86.642c2.773,7.815,5.171,15.893,9.711,22.829c4.54,6.936,11.734,12.716,20.002,13.171
		c17.126,0.942,18.611-18.819,21.25-31.03c7.763-2.065,15.586-4.13,23.53-5.952c4.1-0.94,16.943,35.313,18.087,39.413
		C2254.144,2471.318,2254.738,2487.385,2248.76,2503.511z M2298.407,2329.966c-2.649,25.336-18.87,49.423-42.318,59.739
		c-34.994,15.396-27.511-19.673-28.074-42.944c-0.191-7.882-2.25-94.578-2.29-94.577
		C2264.241,2251.363,2303.001,2286.039,2298.407,2329.966z"/>
</g>
</svg>
