<?xml version="1.0" encoding="UTF-8"?>
<svg viewBox="0 0 190 183.75" xmlns="http://www.w3.org/2000/svg">
 <g transform="matrix(1.25,0,0,-1.25,0,183.75)">
  <g transform="scale(.24)">
   <path d="m310.906,609.102c-2.656-7.176-12.578-12.047-14.172-19.844 9.211,3.808 17.45,13.109 28.344,14.527 1.152-.441.531-1.594.711-2.48-7.973-6.11-14.262-15.145-19.133-24.094 3.719,1.328 7.969,4.254 11.692,6.023 6.644,3.102 13.55,5.493 21.257,6.024 1.243-.086 1.329-1.77.711-2.481-8.152-5.933-12.046-13.019-18.781-20.195v-1.062c7.797,1.503 13.465,10.453 22.324,10.628l1.063-1.418c-7.973-8.058-12.668-15.945-17.715-25.863 5.047,3.985 12.133,4.961 18.422,8.504 2.129.973 4.254-.266 6.379-.355v-1.774c-7.528-7.793-12.754-15.855-18.07-25.156 4.25-.176 8.859,6.91 13.109,1.773-1.152-3.898-4.871-6.734-6.731-10.277-3.011-3.453-3.543-8.238-6.734-11.336-.086-.621.266-1.418-.352-1.773 1.946-.442 3.895,1.418 6.024,1.773 1.859.531 5.226-.535 3.894-3.191l-3.894-4.25 .351-.356c13.465,11.781 29.942,19.399 46.418,25.512 1.594-.356 5.227,1.152 6.024-1.418 .355-4.43-5.402-3.809-7.086-7.086 12.047,2.746 24.184,7.531 37.559,8.148 1.418-1.152 4.515.977 4.96-1.769-1.593-3.191-6.113-3.723-8.859-6.379-2.391-1.859-3.277-2.922-5.668-4.961 3.985.707 8.238,2.746 12.399,3.899 7.796,1.769 17.187.886 24.804,2.125 4.164-5.582-5.492-4.516-7.797-8.149l-8.5-7.086c2.832-1.062 6.375.531 9.918,0 5.758-.09 12.844.797 15.946-3.543-2.125-2.926-5.758-2.746-8.504-5.672l-5.313-4.25c8.856-2.129 19.75,3.543 26.219-2.48v-2.481c-5.051-2.214-9.656-5.402-14.527-8.148 7.261-.266 14.617-.445 20.55-3.898v-2.125c-3.808-1.508-7.265-3.989-10.984-5.672 6.024-1.418 13.641.355 18.07-4.25-2.48-3.457-7.796-3.278-11.339-5.672l.355-.707c4.695.265 9.125-.09 12.758-2.481v-2.48c-4.52-1.238-8.594-3.543-12.758-5.668 6.203-.977 15.59,2.39 19.844-2.836 1.328-3.367-2.926-4.43-4.606-6.024 4.957-1.593 11.957,2.305 13.11-4.25-1.774-2.48-5.407-3.632-7.086-5.671l11.336,1.418c3.543,2.214 6.554,6.554 9.922,6.378 8.769,5.227 16.566,12.668 26.218,15.59 12.313,2.039 24.364,4.696 37.559,4.606 .797-.442 3.543-.356 4.254-2.125 1.062-3.985-3.723-1.153-5.317-2.481-2.48-.972-4.781-2.304-7.086-3.543 10.188.797 21.438.09 31.891-.707 .797-.8 2.566-.976 2.481-2.48l-.356-2.129c-5.402,1.242-10.809-1.77-15.59-4.25l.356-.711c10.183,2.836 19.133-1.68 27.636-4.957 1.063-.27.618-1.863.707-2.836-4.25-.18-9.832.707-13.464-2.125 11.605-1.684 20.816-11.25 25.867-20.906l-.356-1.774c-2.125.711-4.429,1.332-6.379,2.481 2.571-5.313 3.989-12.313 2.836-19.133-1.062-6.023-2.656-13.641 0-19.488-.797-.442-.797-1.684-1.769-.707-1.508,3.718-6.824,4.871-6.024,9.566-2.129-5.226-1.242-11.781-2.48-17.363-3.633-6.731-4.254-15.68-10.984-20.196 0-1.328-.887-1.593-2.129-1.417l-4.25-4.606c-2.039,1.238-3.188,3.984-2.125,6.379h-1.418c-4.696-5.938-10.012-11.961-15.235-17.363-1.332.265-2.215,1.152-2.48,2.48l.707,3.188h-1.774l-33.66-44.645c.532-6.113 10.188-10.273 7.797-16.652 .797-1.063 2.656-1.774 1.418-3.543-2.129-.266-5.141.441-7.09.707 3.547-6.555 11.516-10.363 15.946-15.59-2.567-4.516-6.645.973-10.274.707-1.594,1.066-3.723.801-5.316,1.773 1.418-5.136 10.011-7.175 11.34-12.753-1.243-2.661-4.961-1.067-6.735,0-.707.085-1.414,1.328-2.125.351 .266-2.832 2.125-5.402 1.418-8.148-3.808.441-2.125-3.899-3.543-5.668 17.098-.266 34.281,1.679 51.375,2.48 3.988-3.277 1.153-9.39 2.481-13.82 .445-13.465-.618-26.219-1.77-38.977l.356-85.0388c1.148-11.8672 1.504-24.0039 2.832-35.7851-.887-.8868-1.95-1.2422-3.188-1.0625-1.328.6211-1.062,2.0351-1.062,3.1875-35.344,19.664-76.625,24.9804-115.868,35.0781-42.515,8.9492-86.984,14.2618-131.453,17.3628 3.719-5.136 3.188-12.9331 3.188-18.7808 9.035-5.9336 9.832-17.4492 8.152-27.6367-5.492-14.5273-20.019-22.1445-33.308-27.6367-1.063-.2656-2.571.6211-3.188-.707 2.566-8.8594-3.367-16.4766-8.859-22.6797-13.11-7.43754-31.27-5.93363-44.289.7109-27.817,15.5898-40.75,45.9727-40.039,78.6602 .796,6.7304 1.152,13.6408 2.48,20.1948l-9.566-.355-.711,1.418c-63.157,2.926-129.1527,6.469-193.4612,2.48-6.1993-.085-12.0469-.972-17.3633-3.187l-1.0625,2.836c-.6211,28.433-2.92191,56.246-3.543,84.683-.88672,1.063-2.03516,1.504-1.0625,2.833 44.7344-1.77 91.9455,2.304 138.1875-2.125 33.57.441 63.777-.622 95.313-1.774 6.82-1.945 6.023,5.672 8.859,8.859v.711c-2.305.797-2.215-4.078-5.317-2.48-2.566,1.859-5.136,4.25-3.187,7.441l2.832,7.793c-5.668,4.43-14.348,1.418-20.195,5.317-1.77-.266-2.567.617-3.899-.711 1.774-1.77 5.227-3.364 3.899-6.731-2.746-2.925-7.352-3.633-11.34-3.191-31.887,2.57-59.879,15.504-84.328,32.953-5.848-13.551-17.36-27.105-34.3675-26.93-1.6836.621-2.8359,2.305-4.9609,1.774-3.2773-8.149-9.5664-14.172-17.7188-16.653-5.0468-.089-10.2734,2.481-12.7539,5.668l-.7109,4.961c-4.0742-1.507-8.9453-3.101-13.4609-1.418-4.0782,4.254-7.0899,10.895-4.2539,17.008 1.2421,3.988 3.5429,6.82 5.3164,10.278-3.1914.265-7.6211.265-9.9219,2.832-3.9883,3.191-4.2539,8.238-3.8984,12.757 .707,8.239 7.4414,15.5 14.5273,19.489-3.8984,2.3-8.5938,4.961-8.1484,10.273 .0859,9.832 8.0586,14.883 15.5898,19.488v3.188c-14.1719-1.504-15.5039-17.625-22.3242-27.281-4.1641-10.188-4.0742-22.766-10.9844-31.18-3.7187-1.949-8.9453-2.305-13.10937-1.063-5.75781,6.555-3.63281,17.008-4.60547,25.864 1.41797,14.972.70703,30.828 7.44144,43.582 3.1015,18.691 9.5664,36.32 18.0703,52.441 3.2773,3.719 4.5156,8.945 10.2734,9.211 8.8594,0 17.8946.531 25.1602-3.187 11.6914,33.128 28.1679,72.105 63.7771,85.746 4.785,1.507 10.364,1.859 14.883-.356 3.098-2.656 5.844-6.023 5.668-10.273-2.836-16.742-17.363-27.461-24.449-41.813-7.352-13.726-15.149-27.281-18.778-42.515 8.059,2.48 15.946-.711 24.094-2.129 11.071-6.375 7.883-21.789 10.985-32.949 3.187-15.946 3.632-31.27 3.187-47.836 10.629-2.747 20.109,3.453 31.18,2.836 1.332,1.949-3.278,5.046.355,7.085-6.199-3.011-14.703-6.734-22.32-3.191-2.57,2.481-3.899,6.203-4.254,9.922 .176,7.441 5.758,12.578 11.34,15.945 5.933,2.481 14.348,1.774 19.133-2.125 15.324,1.504 28.168,9.922 35.433,23.387 5.227,10.184 8.77,21.523 9.211,33.305-6.113-17.45-17.98-35.965-38.265-37.559-9.125-.887-18.782-.707-25.512,5.316-3.723,19.754 0,40.04 6.375,57.399 4.078,9.922 7.09,20.285 13.82,29.055-5.316.976-11.25,4.339-13.109,9.921-5.227,8.063-1.242,18.692 3.187,25.512 1.774,2.57 5.227,4.164 8.504,4.606 10.188,1.859 9.922-13.465 19.844-9.211 6.82,5.312 10.098,13.996 9.566,23.386-3.457,3.985-5.402,11.512-2.48,17.004 5.933,4.52-1.508,14.352 4.961,18.782 5.402,3.277 1.152,9.921 4.961,14.171 7.793,4.696 7.176,16.567 17.008,19.489 3.097,11.074 8.414,22.41 17.359,29.765 .977,7.262 10.898,7.172 13.82,13.461 3.278.621 4.785,7.09 8.504,3.192-1.683-5.137-4.961-9.657-7.441-14.528 .886-.445 2.836-.797 3.187.352 11.696,13.199 27.551,18.605 42.168,26.93l.707-.707" fill="#231f20"/>
   <path d="m294.961,595.281c-4.695-8.324-12.047-14.261-13.816-23.738 .707-1.063 2.125-1.773 3.187-1.063 7.527,7.708 15.766,16.032 25.156,21.614-3.718-6.465-14.347-13.555-12.754-23.739 2.036-2.214 4.961-.355 7.086.352 9.035,4.164 16.032,11.695 25.512,14.172-6.469-8.766-15.324-13.551-18.781-24.094-.442-2.301 1.508-2.301 2.836-3.187 7.527,1.328 12.047,8.504 18.777,12.047-2.832-8.946-16.031-15.946-14.527-27.637 5.14-2.922 10.011,1.859 13.82,4.605 2.039,2.481 5.668,4.696 8.859,6.379v-1.062c-6.468-7.973-15.769-15.59-15.589-26.575 2.48-3.191 6.64,0 8.855,0-3.277-7.441-10.453-12.843-9.211-21.613 2.656-1.418 4.781-.445 7.442.352-.887-2.656-1.86-5.313-2.481-8.149 .621-.621 1.684-.265 2.481-.355l-.356-3.188c-13.285-13.023-23.121-28.879-34.723-44.289 6.379,27.813 5.313,60.321-3.191,87.871-1.684,4.871-4.605,10.454-9.566,12.754-2.215-.086-4.43-.086-6.024,1.418-4.515-2.39-6.109-8.238-8.855-12.047-1.332-.621-3.102-.265-4.61-.355 2.129,5.316 2.66,11.605 6.379,15.945 1.242,2.039-.441,4.43-2.836,3.899-5.843-1.95-10.273-5.137-15.941-7.442-.711,4.785 7.617,9.567 1.062,13.11-4.785,2.394-7.797-2.746-10.984-3.895 5.934,7.086 7.441,16.742 15.59,22.32 1.504-3.898-4.52-7.617-.356-10.984 5.493,0 6.645,6.82 10.985,8.859 8.859,8.149 16.211,13.821 26.574,19.844v-2.129" fill="#b75225"/>
   <path d="m248.898,542.133c5.938-.973 8.86,2.746 13.465,4.961 .532-5.317-6.91-10.629-3.187-16.297 3.363-.356 4.515-1.684 3.898-5.317-4.875-11.25-16.035-23.917-8.152-37.203 2.746-2.304 3.191-7.531 7.797-6.023 4.429,4.781 2.746,12.664 5.668,18.422 1.859,5.492 4.785,10.719 8.148,15.238l1.067-1.773c1.503-25.422-.801-48.895-3.547-72.989-6.465,1.149-14.348,8.59-20.903,1.77-5.406-5.758-2.925-13.465-3.543-21.258 .086-9.035 3.629-16.566 6.375-24.449 1.332-2.57 4.786-3.988 7.797-2.836 3.633.797 2.836,4.695 4.25,7.086-.883,6.644-2.48,13.023-2.832,19.844 6.731.707 13.199-4.25 18.426,1.062-3.812-7.086-9.836-13.73-9.922-21.969 .887-1.062 2.922-1.593 3.899-.351l.707.707c-5.051-7.883-10.629-17.363-14.883-26.574-.176-1.418.179-2.657 1.418-3.543 4.254-1.153 5.668,3.101 8.148,5.312-4.781-11.07-11.957-21.789-15.59-33.66 .18-1.238.887-3.543 2.836-2.832 2.215.531 3.633,2.301 4.606,4.25-2.391-8.859-9.567-16.566-8.86-25.867 .446-1.68 2.395-1.149 3.543-1.77l1.418.707c-5.226-9.211-2.832-23.117-15.59-27.636-12.222-6.731-29.675-11.336-43.226-4.25-7.617,4.425-14.617,11.957-14.883,21.257-4.34,3.809-8.504-3.718-12.402-5.312-6.289-2.481-12.844-8.684-20.196-4.254-1.593,3.367-1.593,7.262 0,10.629 1.684,3.988 5.934,6.379 9.567,7.797 5.137.441 11.781,1.328 14.883-3.543 17.363,1.328 32.773,11.781 40.394,27.636 6.821,15.59 12.133,32.243 7.793,50.668 3.453-.886 6.82-2.656 7.797-6.378 .707-2.922-.18-7.176 2.125-8.856 2.481,1.859 2.922,6.199 2.125,9.566-1.152,5.047-5.402,8.504-9.922,10.629-5.933,1.504-12.222-.531-17.008-3.898-2.035-2.922-6.199-5.402-6.023-8.859-.266-1.594 1.328-.797 1.773-1.77 4.606,2.215 6.731,8.945 12.754,8.859 1.418-16.742-7.707-31.183-18.07-42.168-9.566-6.109-22.41-10.183-34.723-6.375-7.175,1.594-4.785,9.653-5.316,15.235 .09,26.488 8.859,49.43 21.969,70.512l3.898,3.898c1.063-2.215 1.859-5.672 4.961-6.734 3.188-.883 6.555-.176 8.859,2.125 2.481-3.719 4.426-9.743 10.629-8.856 .887.442.707,1.328.707,2.125-3.984,2.656-7.086,6.113-8.148,10.629 .797,2.926 1.504,7.086.707,10.633 .711-4.875 3.723-8.774 7.797-11.34 2.836-1.328 6.554-.621 9.211.707 11.429,11.781 17.984,29.5 15.945,47.481-1.152,6.464-5.312,12.578-11.336,14.527-2.129,2.57-4.695-.266-7.09-.356-3.629-3.894-7.172-7.527-9.211-12.398 1.063.531-3.101,3.984-1.418,6.023-2.656,3.629-1.062,7.704-.355,11.692 4.254,6.289 11.961,9.301 20.199,8.859 7.176-.18 12.754-5.672 17.715-9.57 1.594-.442 2.57.535 2.125,2.129-4.16,7.441-12.93,12.668-21.965,12.754-5.758-.707-11.519-1.153-15.945-4.961-.977,4.875 2.035,8.418 4.961,11.34 5.578,3.277 12.578,5.582 19.484,3.543 6.024-1.95 10.719-5.582 14.176-10.629 .887-.266 2.922.175 2.832,1.769-2.746,9.656-13.195,13.645-22.676,14.528-4.43-.883-9.39-.618-13.109-3.188h-.707c1.769,6.91 8.238,11.074 14.527,12.402 10.008,2.567 16.918-3.988 24.445-6.734 2.746,6.289-5.492,6.289-8.148,9.922-5.758,3.101-14.793,2.746-20.906.707 4.164,8.859 14.527,7.887 20.55,13.82-.175-3.898-3.097-8.414 1.418-10.984" fill="#fcd7a8"/>
   <path d="m287.875,536.109c9.477-27.105 11.25-61.828 3.543-90.351 1.152-6.645-2.566-13.996-7.441-18.07-5.934-7.086-14.082.972-21.614-2.129-3.898-6.024.621-12.93.711-19.485 1.414-1.949.266-4.429-.355-6.379l-1.418-1.418c-7.262,10.453-8.063,25.071-6.379,38.621 1.062,1.684 2.129,3.989 4.254,4.606 7.883.887 15.144-11.25 20.195-.352 1.328,24.536 4.871,48.188 2.481,72.989-.266,2.66-2.039,5.316-3.899,6.734-5.402.531-6.289-5.492-9.211-8.859-4.074-7.352-6.554-15.414-7.441-24.094-1.328,1.504-2.571,3.367-3.543,5.668-2.391,11.43 4.781,20.64 9.211,30.117 4.695,5.582 6.203,12.758 11.34,18.781 5.05,1.239 7.882-3.101 9.566-6.379" fill="#fcd7a8"/>
   <path d="m416.496,522.293c-3.187-4.164-6.203-7.09-9.922-11.34 1.242-3.453 4.164-2.125 6.735-2.125 8.414,2.125 16.031,6.11 25.156,6.375-4.074-4.957-12.402-7.262-12.758-13.816 6.469-3.278 14.441.265 21.969-.356h1.418c-3.543-4.695-9.746-6.113-12.758-11.34 .445-5.136 6.91-3.363 10.633-4.25l11.336.707c-3.899-3.894-13.731-2.656-12.047-10.628l2.836-2.481 19.488-.351c-3.809-1.95-9.656-2.836-10.984-7.09 3.632-3.719 10.007-2.215 14.882-3.543-4.078-1.95-9.566-2.832-11.695-7.442 4.074-3.894 11.34-1.414 17.008-2.125-4.074-3.453-8.859-4.429-13.109-8.148-.442-1.508.621-2.656 1.773-3.188 5.578-1.683 12.93-1.332 18.777-.355-2.57-3.102-10.187-4.34-9.566-9.567 4.605-4.605 10.809,1.239 17.008,0-2.571-2.039-6.465-4.429-7.086-8.148 3.187-5.141 9.211-.711 13.816-1.066-1.504-1.946-3.187-3.188-3.543-5.668 2.571-2.215 4.696.976 7.086,1.418 18.336,15.234 38.27,34.105 66.262,31.89-1.418-1.152-3.988-2.836-3.898-4.609-2.125-1.414-4.961-3.188-5.317-5.668l.711-.707c9.742,3.012 19.93,6.023 31.18,4.25-5.137-1.418-7.086-5.313-10.629-8.859l2.48-2.477c7.528.086 15.325,2.922 22.676.352-3.898-1.063-8.148-3.098-9.566-6.024 1.949-4.695 8.504-2.746 12.754-4.25 5.14-2.926 11.074-4.875 14.175-10.277-1.949-.356-4.695.886-6.734-1.063-.707-3.187 2.66-3.984 3.898-6.023 3.102-5.934 1.504-11.606 1.418-18.426-1.152,1.328-2.214,3.809-4.961,2.836-3.277-14.969-2.746-31.535-11.339-44.293 1.328,8.328 4.695,17.719 3.898,27.285-.887.09-1.504,1.86-2.48.707-3.278-8.148-6.114-16.476-9.922-24.445-3.364-5.492-6.555-9.746-10.985-14.176-1.238,5.316 5.493,11.43 1.063,16.301-4.871-1.063-5.137-7.442-7.793-10.629-10.363-20.465-27.817-34.195-40.746-53.504 1.062-7 4.34-13.199 8.148-18.07-3.367-.532-7.972,5.843-9.566,0l.707-2.836 9.566-9.922c-3.543,2.039-8.504,1.859-12.047,2.836h-.707c-2.836-4.43 3.368-4.785 4.25-7.442l4.961-5.668c-3.367-4.695 5.492-11.781-2.125-13.464-1.593-1.418-2.57-3.102-3.187-4.961-2.836,4.429-4.074,9.566-8.504,12.402-5.141.266-11.516,2.746-15.945-.711l-6.024-6.023c-2.394,3.632-5.848,6.82-10.277,7.797-6.555,1.683-7.352-7.973-13.465-3.192-6.199,3.192-11.426-2.301-15.234-4.957l-9.211,4.606c1.679,2.39 3.984,5.226 3.543,8.855-5.938,2.66-7.532-3.363-11.696-5.312 2.746,6.289 7.707,10.539 9.922,17.359-.531,1.684-2.48,2.215-3.898,1.418l-9.211-7.086c12.047,27.195 24.715,55.453 43.582,78.66-.531,2.391 3.898,2.391 2.836,5.317-1.153,2.566-4.164,2.035-5.672,1.062-20.106-23.742-32.067-52.441-45.707-80.078l-43.582-4.606c-1.153.973-4.254,3.809-5.317.707-6.464-3.277-14.613-.085-21.257,1.418-12.934-.441-20.02,10.278-27.993,18.071 .266,2.66 4.34,3.722 2.481,6.379-3.188.265-6.91-2.039-9.211-3.543 5.934,12.136 13.375,24.535 20.902,36.496-3.808,1.683-5.578-1.508-8.504-3.192 5.493,10.809 14.707,22.766 21.614,34.371-.442.442-.266,1.86-1.414,1.418-5.938-1.152-7.266-6.644-13.11-8.152 7.262,9.391 12.399,20.199 20.196,28.703l9.21,13.817c0,2.48-3.277,1.242-4.605,1.062 5.668,10.984 14.617,18.426 20.551,28.703-.973,2.035-3.278.707-4.606.356-11.25-10.633-20.73-24.805-27.992-38.977 1.684-4.344 3.453.617 5.668,1.063-1.238-4.871-7.351-7.618-10.273-13.11-6.114-8.949-12.758-17.453-17.364-26.929 .621-1.774.09-3.989 1.774-5.317 3.629-.617 2.566,3.278 5.668,3.899 2.304,1.238 3.453,3.101 5.668,4.605l-18.778-27.637v-5.312c1.418.262 2.836-.621 4.25.707-3.453-10.984-13.109-18.07-16.652-29.766-.09-.883.621-1.504.356-2.476 2.035-1.242 3.453-1.242 5.667-.356l-13.464-26.574c-.266-1.242.711-1.949.355-3.191 1.774-.266 3.543-2.567 5.317-.707-5.583-10.364-10.278-20.993-15.239-31.536-.621-2.746.711-4.785 3.188-5.316l1.066.355c-3.191-9.3-11.164-17.98-9.57-27.992 2.394-1.418 4.961-.351 7.797.356l-12.754-24.805-.711-5.668c-3.188,1.063-6.379,1.063-9.567,0-2.039-6.379 5.403-3.719 8.86-6.379 5.402-3.629 5.933-11.601 4.961-18.422-2.215-5.582-2.395-12.312-6.735-16.656-1.328-4.1601 3.368-4.871 4.961-6.3749 8.86-.5352 16.567,4.6949 20.2,12.7539 2.566,7.352 2.921,16.918-.356,24.094 .356.976.707,2.57 2.125,2.48 3.188-.265 5.492-3.277 7.441-5.668 2.922-9.656 1.153-20.906-3.898-29.054-6.644-9.2153-18.512-10.4536-25.867-18.0708-1.86-1.2422-4.957-1.7734-5.668-3.5429 7.973-2.4805 13.906,4.164 21.613,4.6054 10.098,4.961 17.895,14.5274 20.199,25.5113 3.809-1.507 5.223-4.871 7.086-8.152 1.153-11.7812-1.683-25.1562-13.465-30.8241-11.25-6.9961-28.523-9.6563-40.039-1.418-2.125,1.1524-5.582,7.707-8.503,3.543 2.125-5.9336 8.769-9.3906 14.171-12.7539 13.555-5.3164 28.434-.0899 38.977,7.4414 6.465,2.5664 11.516,9.1211 13.109,15.9414 4.52-2.6563 4.606-8.3242 4.606-13.461-3.188-16.3906-20.106-26.3984-35.078-30.121-5.137,1.5976-10.274-.9727-15.235,1.4179-6.554,1.6836-12.843,4.8711-18.425,8.1485-4.782,4.9609-9.833,9.125-13.11,15.2382-1.152.7969-3.984.7969-5.316.3555-1.77-8.2383-1.946-20.9961 4.254-28.7031 8.238-8.0586 21.172-5.9336 30.824-1.7695 5.406-.1797 9.922-2.3047 14.527-3.1915v-4.25h-1.414c-.355-2.039 1.86,0 1.063-2.125-.797,1.2383-1.063-.9765-1.418-1.7734v-1.0625c-8.68-6.6445-18.782-10.7187-31.18-8.8594-23.828,4.3399-38.977,27.6407-44.293,49.6055-6.555,21.793-1.949,47.305 4.254,67.324 1.328,11.602 6.375,21.703 9.566,32.598 .621,1.859 3.278,2.305 1.77,4.605-1.949,1.508-4.426.266-6.375-.355-2.395-2.125-2.395-5.668-4.961-7.438 3.543,10.274 7.086,20.551 10.629,30.825 .797,2.125 3.898,2.39 2.836,5.316-.887,1.328-2.746.531-3.899.352-1.418-2.481-2.656-3.543-4.961-5.313 2.391,9.832 6.2,20.551 12.754,29.406 .532,1.243-.883,1.684-1.414,2.481-4.078-1.063-7.797-3.363-10.277-6.024 4.43,10.809 7.707,23.387 15.59,31.536 .355.976-.532,1.507-1.063,2.128-5.668-.179-7.797-6.82-12.047-8.152 3.543,10.719 9.125,22.324 15.59,32.246 0,.797.176,1.684-.707,2.125-5.937-3.898-10.187-6.644-14.883-12.047 5.317,15.5 11.426,32.242 20.196,47.125-.883,1.594-3.543.442-4.25-.707l-10.278-10.984c3.278,13.019 8.328,25.598 15.946,36.492 .179,1.242-.176,2.481-1.418,2.836-5.844-.355-6.907-6.996-10.985-10.273 2.836,10.718 9.746,21.168 13.465,32.242-4.515,2.304-6.91-3.809-9.922-5.668 5.758,10.984 9.391,22.851 17.719,31.887-.621,1.062-1.418,2.48-2.836,1.417l-10.273-7.441c8.058,14.086 16.828,31.004 28.699,43.582 .09,1.152 0,2.57-1.418,2.481l-2.125-.352c-5.227-5.141-9.922-9.48-14.172-14.883 16.387,30.824 34.813,60.59 60.234,86.102 9.391,7.086 20.106,13.906 30.825,19.133 .265-2.571-5.758-4.43-4.25-7.797 1.949-2.215 5.312-1.239 7.441,0 11.957,6.468 25.066,10.367 38.621,13.113" fill="#fcd7a8"/>
   <path d="m416.496,522.293c-3.187-4.164-6.203-7.09-9.922-11.34 1.242-3.453 4.164-2.125 6.735-2.125 8.414,2.125 16.031,6.11 25.156,6.375-4.074-4.957-12.402-7.262-12.758-13.816 6.469-3.278 14.441.265 21.969-.356h1.418c-3.543-4.695-9.746-6.113-12.758-11.34 .445-5.136 6.91-3.363 10.633-4.25l11.336.707c-3.899-3.894-13.731-2.656-12.047-10.628l2.836-2.481 19.488-.351c-3.809-1.95-9.656-2.836-10.984-7.09 3.632-3.719 10.007-2.215 14.882-3.543-4.078-1.95-9.566-2.832-11.695-7.442 4.074-3.894 11.34-1.414 17.008-2.125-4.074-3.453-8.859-4.429-13.109-8.148-.442-1.508.621-2.656 1.773-3.188 5.578-1.683 12.93-1.332 18.777-.355-2.57-3.102-10.187-4.34-9.566-9.567 4.605-4.605 10.809,1.239 17.008,0-2.571-2.039-6.465-4.429-7.086-8.148 3.187-5.141 9.211-.711 13.816-1.066-1.504-1.946-3.187-3.188-3.543-5.668 2.571-2.215 4.696.976 7.086,1.418 18.336,15.234 38.27,34.105 66.262,31.89-1.418-1.152-3.988-2.836-3.898-4.609-2.125-1.414-4.961-3.188-5.317-5.668l.711-.707c9.742,3.012 19.93,6.023 31.18,4.25-5.137-1.418-7.086-5.313-10.629-8.859l2.48-2.477c7.528.086 15.325,2.922 22.676.352-3.898-1.063-8.148-3.098-9.566-6.024 1.949-4.695 8.504-2.746 12.754-4.25 5.14-2.926 11.074-4.875 14.175-10.277-1.949-.356-4.695.886-6.734-1.063-.707-3.187 2.66-3.984 3.898-6.023 3.102-5.934 1.504-11.606 1.418-18.426-1.152,1.328-2.214,3.809-4.961,2.836-3.277-14.969-2.746-31.535-11.339-44.293 1.328,8.328 4.695,17.719 3.898,27.285-.887.09-1.504,1.86-2.48.707-3.278-8.148-6.114-16.476-9.922-24.445-3.364-5.492-6.555-9.746-10.985-14.176-1.238,5.316 5.493,11.43 1.063,16.301-4.871-1.063-5.137-7.442-7.793-10.629-10.363-20.465-27.817-34.195-40.746-53.504 1.062-7 4.34-13.199 8.148-18.07-3.367-.532-7.972,5.843-9.566,0l.707-2.836 9.566-9.922c-3.543,2.039-8.504,1.859-12.047,2.836h-.707c-2.836-4.43 3.368-4.785 4.25-7.442l4.961-5.668c-3.367-4.695 5.492-11.781-2.125-13.464-1.593-1.418-2.57-3.102-3.187-4.961-2.836,4.429-4.074,9.566-8.504,12.402-5.141.266-11.516,2.746-15.945-.711l-6.024-6.023c-2.394,3.632-5.848,6.82-10.277,7.797-6.555,1.683-7.352-7.973-13.465-3.192-6.199,3.192-11.426-2.301-15.234-4.957l-9.211,4.606c1.679,2.39 3.984,5.226 3.543,8.855-5.938,2.66-7.532-3.363-11.696-5.312 2.746,6.289 7.707,10.539 9.922,17.359-.531,1.684-2.48,2.215-3.898,1.418l-9.211-7.086c12.047,27.195 24.715,55.453 43.582,78.66-.531,2.391 3.898,2.391 2.836,5.317-1.153,2.566-4.164,2.035-5.672,1.062-20.106-23.742-32.067-52.441-45.707-80.078l-43.582-4.606c-1.153.973-4.254,3.809-5.317.707-6.464-3.277-14.613-.085-21.257,1.418-12.934-.441-20.02,10.278-27.993,18.071 .266,2.66 4.34,3.722 2.481,6.379-3.188.265-6.91-2.039-9.211-3.543 5.934,12.136 13.375,24.535 20.902,36.496-3.808,1.683-5.578-1.508-8.504-3.192 5.493,10.809 14.707,22.766 21.614,34.371-.442.442-.266,1.86-1.414,1.418-5.938-1.152-7.266-6.644-13.11-8.152 7.262,9.391 12.399,20.199 20.196,28.703l9.21,13.817c0,2.48-3.277,1.242-4.605,1.062 5.668,10.984 14.617,18.426 20.551,28.703-.973,2.035-3.278.707-4.606.356-11.25-10.633-20.73-24.805-27.992-38.977 1.684-4.344 3.453.617 5.668,1.063-1.238-4.871-7.351-7.618-10.273-13.11-6.114-8.949-12.758-17.453-17.364-26.929 .621-1.774.09-3.989 1.774-5.317 3.629-.617 2.566,3.278 5.668,3.899 2.304,1.238 3.453,3.101 5.668,4.605l-18.778-27.637v-5.312c1.418.262 2.836-.621 4.25.707-3.453-10.984-13.109-18.07-16.652-29.766-.09-.883.621-1.504.356-2.476 2.035-1.242 3.453-1.242 5.667-.356l-13.464-26.574c-.266-1.242.711-1.949.355-3.191 1.774-.266 3.543-2.567 5.317-.707-5.583-10.364-10.278-20.993-15.239-31.536-.621-2.746.711-4.785 3.188-5.316l1.066.355c-3.191-9.3-11.164-17.98-9.57-27.992 2.394-1.418 4.961-.351 7.797.356l-12.754-24.805-.711-5.668c-3.188,1.063-6.379,1.063-9.567,0-2.039-6.379 5.403-3.719 8.86-6.379 5.402-3.629 5.933-11.601 4.961-18.422-2.215-5.582-2.395-12.312-6.735-16.656-1.328-4.1601 3.368-4.871 4.961-6.3749 8.86-.5352 16.567,4.6949 20.2,12.7539 2.566,7.352 2.921,16.918-.356,24.094 .356.976.707,2.57 2.125,2.48 3.188-.265 5.492-3.277 7.441-5.668 2.922-9.656 1.153-20.906-3.898-29.054-6.644-9.2153-18.512-10.4536-25.867-18.0708-1.86-1.2422-4.957-1.7734-5.668-3.5429 7.973-2.4805 13.906,4.164 21.613,4.6054 10.098,4.961 17.895,14.5274 20.199,25.5113 3.809-1.507 5.223-4.871 7.086-8.152 1.153-11.7812-1.683-25.1562-13.465-30.8241-11.25-6.9961-28.523-9.6563-40.039-1.418-2.125,1.1524-5.582,7.707-8.503,3.543 2.125-5.9336 8.769-9.3906 14.171-12.7539 13.555-5.3164 28.434-.0899 38.977,7.4414 6.465,2.5664 11.516,9.1211 13.109,15.9414 4.52-2.6563 4.606-8.3242 4.606-13.461-3.188-16.3906-20.106-26.3984-35.078-30.121-5.137,1.5976-10.274-.9727-15.235,1.4179-6.554,1.6836-12.843,4.8711-18.425,8.1485-4.782,4.9609-9.833,9.125-13.11,15.2382-1.152.7969-3.984.7969-5.316.3555-1.77-8.2383-1.946-20.9961 4.254-28.7031 8.238-8.0586 21.172-5.9336 30.824-1.7695 5.406-.1797 9.922-2.3047 14.527-3.1915v-4.25h-1.414c-.355-2.039 1.86,0 1.063-2.125-.797,1.2383-1.063-.9765-1.418-1.7734v-1.0625c-8.68-6.6445-18.782-10.7187-31.18-8.8594-23.828,4.3399-38.977,27.6407-44.293,49.6055-6.555,21.793-1.949,47.305 4.254,67.324 1.328,11.602 6.375,21.703 9.566,32.598 .621,1.859 3.278,2.305 1.77,4.605-1.949,1.508-4.426.266-6.375-.355-2.395-2.125-2.395-5.668-4.961-7.438 3.543,10.274 7.086,20.551 10.629,30.825 .797,2.125 3.898,2.39 2.836,5.316-.887,1.328-2.746.531-3.899.352-1.418-2.481-2.656-3.543-4.961-5.313 2.391,9.832 6.2,20.551 12.754,29.406 .532,1.243-.883,1.684-1.414,2.481-4.078-1.063-7.797-3.363-10.277-6.024 4.43,10.809 7.707,23.387 15.59,31.536 .355.976-.532,1.507-1.063,2.128-5.668-.179-7.797-6.82-12.047-8.152 3.543,10.719 9.125,22.324 15.59,32.246 0,.797.176,1.684-.707,2.125-5.937-3.898-10.187-6.644-14.883-12.047 5.317,15.5 11.426,32.242 20.196,47.125-.883,1.594-3.543.442-4.25-.707l-10.278-10.984c3.278,13.019 8.328,25.598 15.946,36.492 .179,1.242-.176,2.481-1.418,2.836-5.844-.355-6.907-6.996-10.985-10.273 2.836,10.718 9.746,21.168 13.465,32.242-4.515,2.304-6.91-3.809-9.922-5.668 5.758,10.984 9.391,22.851 17.719,31.887-.621,1.062-1.418,2.48-2.836,1.417l-10.273-7.441c8.058,14.086 16.828,31.004 28.699,43.582 .09,1.152 0,2.57-1.418,2.481l-2.125-.352c-5.227-5.141-9.922-9.48-14.172-14.883 16.387,30.824 34.813,60.59 60.234,86.102 9.391,7.086 20.106,13.906 30.825,19.133 .265-2.571-5.758-4.43-4.25-7.797 1.949-2.215 5.312-1.239 7.441,0 11.957,6.468 25.066,10.367 38.621,13.113z" fill="none" stroke="#231f20" stroke-miterlimit="3.8636" stroke-width="1.9683"/>
   <path d="m233.664,481.898c3.102-7.972 1.859-18.601-.355-26.574-.887,5.578-5.758,11.516-12.047,13.11-3.367.441-6.114-.621-8.86-1.77 .711,6.555 4.875,15.234 10.633,20.551 .883-.18 1.949-.531 2.125.707 3.985-.09 6.465-3.633 8.504-6.024" fill="#fcd7a8"/>
   <path d="m200.004,453.551c1.769,1.508 3.894,2.926 5.312,4.609v-14.883c-1.418.442-1.418,3.719-3.898,2.481-3.188-2.57 3.191-5.227 0-7.797 .355-4.43 0-9.301-4.605-10.273-6.997-.797-3.985,8.945-6.731,13.109-2.125,3.984-5.137,7.617-10.277,7.086-2.215-1.86-3.278-5.668-1.77-8.504 1.063-1.77 2.301-3.809 4.25-4.961l3.192-.355c-2.215-2.567-6.379-2.567-9.215-1.415-4.43,1.68-6.11,6.375-7.442,10.274-.086,7.973 1.864,16.211 9.215,19.844 10.274,1.769 10.895-14.618 21.969-9.215" fill="#fcd7a8"/>
   <path d="m215.238,450.719c2.039-1.684 4.785-1.328 6.731-.356 3.633,2.125 4.695,6.996 4.609,9.922 1.684-5.492 5.402-12.402 1.418-18.07-2.394-3.723-4.344-7.973-8.859-9.567-2.926,0-5.758.973-7.086,3.543-3.899,6.2-3.012,15.325-2.129,22.676l4.254,3.543c-1.242-3.367-.887-7.972 1.062-11.691" fill="#fff"/>
   <path d="m221.969,461.348c.711-1.86.355-4.254-1.063-5.668h-1.062c-.442,1.945-1.063,5.758 2.125,5.668" fill="#fff"/>
   <path d="m142.6 457.8c3.187-5.582-0.622-12.758-3.899-17.364-15.855-23.296-33.394-48.808-39.684-77.949-11.691-10.101-17.894-25.867-25.867-38.976-3.3632 6.554-7.0859 12.398-11.691 18.07 3.0118 31.18 14.527 58.906 29.762 85.039 10.101 13.727 23.211 28.344 40.039 33.305 3.898-0.356 8.593 1.062 11.34-2.125" fill="#fffbb2"/>
   <path d="m63.2344,373.828-6.3789-29.055c-1.418.622-3.2774.266-4.961.356-3.1015,6.644-6.1132,14.969-12.7578,19.488l-2.125-.711-12.7539-13.816c3.4531,8.414 6.6445,18.691 14.1719,25.863 8.0625.887 17.8945,1.774 24.8047-2.125" fill="#fddd04"/>
   <path d="m130.91,360.719c2.567-6.024 3.629-12.754 4.606-19.489 3.101-20.019 6.113-39.949 2.836-61.296-.532-3.012-3.368-4.606-5.317-6.379-14.086,17.98-17.273,42.961-24.094,65.195-1.062,2.125-2.304,4.52-4.253,6.023-6.731,2.305-9.8325-4.96-13.1099-8.148-5.4922-7.883-11.3359-14.617-15.2343-24.094-.3555-1.418 1.3281-1.062 1.7695-2.125l1.7734.352c3.9844,6.555 7.5274,13.023 12.0469,18.781-3.1016-6.469-5.8477-13.109-8.1484-19.844-7.9727,1.153-18.1602,1.153-25.8672-1.418l-.3555,2.481c6.0234,1.242 13.375.355 18.7813,2.125l-1.0625,4.961c8.3242,14.351 14.4375,30.207 26.5737,41.457 2.481,1.594 4.34,3.633 7.793,3.543 11.075-11.25 12.934-27.637 17.719-42.164 2.832-12.934 4.34-26.399 7.086-39.328 .707-1.684 2.125-.622 3.188-.356 2.214,2.035-.356,4.871 0,7.442-1.77,1.417-.887,4.429-2.125,6.375-3.368,18.07-7,36.941-12.758,54.921-2.746,4.52-4.34,10.719-8.149,14.528 5.848-.09 11.871-.797 16.301-3.543" fill="#fddd04"/>
   <path d="m46.578 344.77c-10.629-3.101-21.699-8.679-29.055-15.945 3.0118 11.961 12.848 20.996 21.262 29.766 3.9843-3.457 6.7304-8.594 7.7929-13.821" fill="#fff"/>
   <path d="m62.168 333.79c-7.8828 1.508-15.059-0.797-21.613-3.543-10.984-6.996-20.02-18.867-24.094-31.18 1.0625-0.976 1.8594-2.304 3.543-1.773 6.9102 14.617 17.188 28.082 33.66 31.891 4.5195 0.089 11.43 1.859 13.465-2.836 1.5977-3.098 3.543-6.11 4.2539-9.567-12.047 0-24.539-2.746-32.246-11.691-10.008-13.996-13.551-31.18-18.777-47.481-1.9492-3.101-4.6953-5.136-9.5664-4.25l-1.418 1.063c-1.5938 24.891-5.582 56.781 14.527 73.344 9.3008 6.82 20.02 13.023 32.953 12.402l5.3125-6.379" fill="#fddd04"/>
   <path d="m109.65 320.32c-8.945 0.356-15.324-5.312-21.257-10.984 4.6953 10.101 6.6446 22.234 15.234 29.765 3.191-5.757 3.988-12.578 6.023-18.781" fill="#fff"/>
   <path d="m123.23,280.633c-.707-5.758-4.96-10.274-9.566-14.528-.09-.882 0-2.035 1.063-2.125 4.961.887 9.3,6.465 11.695,10.629 2.035-2.035 4.25-6.73 7.793-5.312 3.101,2.125 5.937,4.074 7.797,7.793 8.679-2.656 17.008,1.863 25.511,2.836 6.11,1.859 13.02,1.683 18.071,6.023-1.508,3.985.531,4.074 1.418,7.442 8.59-10.278 21.168-17.985 35.785-15.59 10.894,1.328 21.348,5.047 29.41,11.691 .617-1.062 1.418-3.719 3.543-3.187l2.48,1.769c-3.011-9.832-9.566-18.16-11.695-28.344 .18-2.57.621-5.14 3.543-5.671 2.836-.707 4.695,2.57 6.379,4.605-2.832-7.172-10.363-14.082-9.566-23.383 1.242-1.593 3.101-2.746 4.961-1.773-1.063-5.668-9.657-3.899-14.528-4.25-7.707.621-15.058,3.719-20.551,8.148-2.57-.09-5.757.532-6.73-2.48 .352-3.985 1.945-7.528 2.832-11.336-22.32,1.859-43.672,8.945-62.359,19.84-5.758,3.722-13.911,7.617-18.782,14.172-1.593,1.597-3.718,1.597-5.312,0-4.344-5.403-1.332-13.817-6.734-18.778-5.668-6.644-12.668-11.871-21.2583-14.527-2.3047-.176-4.5195.621-6.0234,1.769 .9726,4.875 3.0117,11.606.707,17.008-1.9492,2.129-4.0742,5.938-7.793,6.024 1.0625,3.277-.3555,6.379-1.418,9.215l-4.9609,4.25c4.6055,4.871 7.6172,12.757 4.25,19.488 2.3047-1.684 7.707-2.656 10.9844-.707 .5312-2.836.0898-7.086 3.1914-8.86 2.2148-2.746 6.1098-2.214 9.2108-1.769 1.774.176 2.125,2.211 1.418,3.543-2.836,1.594-7.531-.531-9.2147,3.187-2.211,10.188 12.4917,13.375 9.2147,23.032h-1.062c-4.34-6.555-9.3012-13.11-16.6567-15.235-2.832-.269-5.1367,1.504-5.6679,3.895 1.0625,3.898 8.2383,6.113 3.5429,10.633l-2.832-2.481c4.3399,10.008 13.9922,17.805 24.4457,20.551 3.988-12.313 7.355-25.426 13.464-37.207" fill="#b75225"/>
   <path d="m123.23,280.633c-.707-5.758-4.96-10.274-9.566-14.528-.09-.882 0-2.035 1.063-2.125 4.961.887 9.3,6.465 11.695,10.629 2.035-2.035 4.25-6.73 7.793-5.312 3.101,2.125 5.937,4.074 7.797,7.793 8.679-2.656 17.008,1.863 25.511,2.836 6.11,1.859 13.02,1.683 18.071,6.023-1.508,3.985.531,4.074 1.418,7.442 8.59-10.278 21.168-17.985 35.785-15.59 10.894,1.328 21.348,5.047 29.41,11.691 .617-1.062 1.418-3.719 3.543-3.187l2.48,1.769c-3.011-9.832-9.566-18.16-11.695-28.344 .18-2.57.621-5.14 3.543-5.671 2.836-.707 4.695,2.57 6.379,4.605-2.832-7.172-10.363-14.082-9.566-23.383 1.242-1.593 3.101-2.746 4.961-1.773-1.063-5.668-9.657-3.899-14.528-4.25-7.707.621-15.058,3.719-20.551,8.148-2.57-.09-5.757.532-6.73-2.48 .352-3.985 1.945-7.528 2.832-11.336-22.32,1.859-43.672,8.945-62.359,19.84-5.758,3.722-13.911,7.617-18.782,14.172-1.593,1.597-3.718,1.597-5.312,0-4.344-5.403-1.332-13.817-6.734-18.778-5.668-6.644-12.668-11.871-21.2583-14.527-2.3047-.176-4.5195.621-6.0234,1.769 .9726,4.875 3.0117,11.606.707,17.008-1.9492,2.129-4.0742,5.938-7.793,6.024 1.0625,3.277-.3555,6.379-1.418,9.215l-4.9609,4.25c4.6055,4.871 7.6172,12.757 4.25,19.488 2.3047-1.684 7.707-2.656 10.9844-.707 .5312-2.836.0898-7.086 3.1914-8.86 2.2148-2.746 6.1098-2.214 9.2108-1.769 1.774.176 2.125,2.211 1.418,3.543-2.836,1.594-7.531-.531-9.2147,3.187-2.211,10.188 12.4917,13.375 9.2147,23.032h-1.062c-4.34-6.555-9.3012-13.11-16.6567-15.235-2.832-.269-5.1367,1.504-5.6679,3.895 1.0625,3.898 8.2383,6.113 3.5429,10.633l-2.832-2.481c4.3399,10.008 13.9922,17.805 24.4457,20.551 3.988-12.313 7.355-25.426 13.464-37.207z" fill="none" stroke="#231f20" stroke-miterlimit="3.8636" stroke-width="1.9683"/>
   <path d="m84.137 304.03c-5.1367-3.722-0.9726-14.086-8.5039-16.3-2.4805 0.179-4.7812-4.606-8.1484-4.961-6.8203-2.036-16.918-5.578-23.031 0.355-2.039 1.594-1.5039 4.606-1.0625 6.734 7.3516 13.727 25.422 17.981 40.746 14.172" fill="#fcd7a8"/>
   <path d="m80.242 278.16s0.2656-2.215 0-3.543c-0.6211-1.594-1.332-5.312-3.5469-6.379 0.4453-1.414-4.25-7.793-5.668-9.566-8.1484-7.527-17.539-13.02-29.41-13.109-2.3008 1.593-5.2266 3.277-5.3125 6.378-0.8867 10.895 8.2383 18.602 16.297 23.032 8.5937 0 16.125 2.566 23.031 6.73 2.0391-0.086 3.9883-1.683 4.6094-3.543" fill="#fcd7a8"/>
   <path d="m352.715,254.422c10.277-6.024 22.324-7.707 34.015-10.277-7.261-9.301-13.109-18.868-16.296-30.118-3.012,2.039-6.735,1.684-9.215,3.899l-9.918.355c-7.887-.621-14.262-6.289-18.071-12.758-1.242-2.48-1.949-5.226-2.128-8.148l-7.438-.711c.086,4.875 4.691,9.481 5.313,14.883-1.95.621-3.543.711-5.313-.352l-.711-.711c4.52,12.223 10.543,23.829 16.652,35.434-1.152,3.277-3.984.621-6.023.355l-1.418-1.418c1.863,5.934 5.938,12.489 8.859,18.778 4.165-1.684 8.063-6.996 11.692-9.211" fill="#fff"/>
   <path d="m81.305 254.07c-0.5313-14.261-12.137-24.269-21.613-32.597-3.8984-2.125-8.5078-4.785-13.113-3.188-3.2773 2.657-2.7461 7.793-1.7695 11.336 2.832 8.328 8.7695 13.91 17.008 15.946 4.7813 3.187 10.984 7.441 14.879 12.757 1.9492-1.242 3.7227-1.949 4.6094-4.254" fill="#fcd7a8"/>
   <path d="m441.297,251.23c-1.504-3.894-3.453-8.945.355-12.398 3.989.176 3.989,3.895 7.086,5.313l-7.086-12.047c-.886-2.481 1.418-3.102 2.125-4.606h2.129l6.731,6.379c2.215-2.394-1.063-2.394-2.125-3.898-3.543-6.645-10.098-11.957-10.629-19.844-4.785-1.504-.445-10.098-6.735-7.793-18.16-.797-36.582-1.152-54.566-2.481-2.656,7.262 4.34,13.02 8.504,19.133 1.328,1.684-.973,2.571-1.77,3.188l-7.089-2.832c3.543,9.121 9.48,16.121 15.238,23.738 14.703,1.508 29.762,2.391 43.582,6.023 1.238,1.243 2.656,1.95 4.25,2.125" fill="#b75225"/>
   <path d="m90.16 239.18c0-13.2-8.0586-25.157-18.777-30.118-3.3672-0.796-5.668 1.153-8.1484 2.481-3.0117 6.91 4.7812 9.391 7.4375 13.465 5.6719 5.316 10.453 11.871 13.82 19.133 2.8359-0.797 4.7851-2.301 5.668-4.961" fill="#fcd7a8"/>
   <path d="m528.461,227.848c4.961-15.504 7.887-36.231-1.414-50.317-3.547-3.894-6.645-8.945-13.113-6.375-3.895.883-6.641,4.426-7.438,8.149 .973,1.328.707,3.898-1.418,3.898-1.418,19.133.176,40.125 15.942,51.024 3.632-.446 7.531-4.43 7.441-6.379" fill="#fcd7a8"/>
   <path d="m504.367,228.91c.887-3.277-2.301-5.758-2.832-8.859-2.57-13.285-7.355-27.813-1.418-41.102-4.519-2.57-10.543-8.945-16.301-4.961 0,0-3.898,5.938-4.25,8.504-1.152,14.793.442,31.801 10.985,42.52-.266,4.34 4.429,6.113 6.73,8.148 3.102.445 5.668-2.125 7.086-4.25" fill="#fcd7a8"/>
   <path d="m484.879,232.098c-10.098-13.641-14.438-30.914-12.399-49.606l3.188-7.793c-2.746-1.418-6.289-.531-8.859.707-.973,2.125-4.34,4.52-1.77,6.735-.09.972.266,2.125-.355,2.832-1.239.531-.707-1.153-1.77-1.063-2.75,18.246 4.16,36.496 17.359,48.188h4.606" fill="#fcd7a8"/>
   <path d="m465.04 225.72c-6.644-14.176-12.668-30.207-7.086-46.774-3.898-4.605-7.973-10.363-14.527-11.691-7.09 2.215-5.492 10.629-6.379 16.652 1.504 12.668 7.707 23.387 12.402 34.723 3.188 4.074 9.742 15.769 15.59 7.09" fill="#fcd7a8"/>
   <path d="m534.484,223.242-.351.707v-.355l.351-.352" fill="#fcd7a8"/>
   <path d="m596.137,221.824c3.101-20.465-1.328-43.582-.352-62.715-.976-30.828-1.508-65.3746 1.77-97.0856-47.125,20.0196-99.121,29.9414-150.942,39.3286-32.953,5.316-67.41,8.148-100.629,11.695-6.73,1.859-1.769,10.363-4.25,14.879-1.597,5.847-6.113,9.832-10.277,13.109-3.898.266-9.742,1.508-11.691-2.476v-1.067c-.532.09-1.153-.086-1.063-.707 3.985-6.199 5.934-15.59 2.481-22.676l-9.215-.711c2.39,9.036 2.215,20.375-3.899,27.637l1.418,7.09 14.176,30.469c.531,1.773-.887,2.57-2.129,3.191l-5.312-2.125 4.961,12.047c37.293,3.363 72.636,5.137 111.257,5.313l1.063-.707c-2.922-8.329-3.809-21.438.707-29.766 1.949-2.922 5.758-4.781 9.215-6.375 8.504-.621 12.844,7.973 17.359,12.754 1.328-2.305 4.074-5.668 7.442-5.313 4.253-1.152 6.91,1.77 10.277,2.832 2.922-2.48 6.641-5.492 10.984-4.25 4.606,1.684 9.387,4.871 12.399,8.149 3.543-4.696 8.238-10.364 14.883-8.504 3.988-3.277 7.265,1.328 10.628,2.836 12.493,10.183 11.606,29.23 10.278,43.582l-2.125,6.023c19.75,2.215 39.769,2.922 60.586,3.543" fill="#874231"/>
   <path d="m372.56 206.23v-6.734c-12.223-1.238-25.246-0.355-37.204-2.125 1.77 5.668 4.34 10.098 9.567 13.465 8.328 3.808 21.172 2.746 27.637-4.606" fill="#fcd7a8"/>
   <path d="m112.84,196.313c43.492-4.43 88.047.175 131.098-5.317-.618-3.633-3.454-8.594 0-11.691 1.417.621 3.101-1.594 3.898.707-3.102-8.59-8.238-17.805-9.211-27.992 1.418-.618 1.684-3.364 3.895-2.832-4.692-7.532-.973-18.602-4.606-26.575l-1.418-6.379c-46.148,0-92.121,2.657-138.539,3.188-27.3711-.531-52.9726,0-80.0781-3.188-1.418,26.664-2.8359,53.414-4.25,80.079l14.5234-.711 84.6877.711" fill="#874231"/>
   <path d="m317.637,107.375c-2.746-2.656-6.024-6.91-10.274-5.312l2.836,4.96c2.656-.445 4.781.797 7.438.352" fill="#fff"/>
   <path d="m296.73 37.574c-3.988-1.5937-12.312-1.8594-16.652 1.418-4.164 3.8984-5.227 10.188-4.609 15.945 5.847-7.3555 12.492-14.262 21.261-17.363" fill="#fff"/>
   <path d="m416.809,523.961c-3.192-4.164-6.204-7.086-9.922-11.336 1.238-3.457 4.164-2.129 6.73-2.129 8.418,2.129 16.035,6.113 25.156,6.379-4.074-4.961-12.398-7.266-12.753-13.82 6.464-3.278 14.437.265 21.968-.352h1.418c-3.543-4.695-9.746-6.113-12.758-11.34 .446-5.136 6.911-3.367 10.629-4.25l11.34.707c-3.898-3.898-13.73-2.656-12.047-10.629l2.836-2.48 23.114,1.191c-3.809-1.949-13.282-4.382-14.61-8.632 3.629-3.719 13.676-1.848 18.547-3.18-4.074-1.945-13.234-3.199-15.359-7.805 4.074-3.898 11.34-1.418 17.007-2.125-4.074-3.457-8.859-4.43-13.109-8.148-.445-1.508.621-2.66 1.77-3.192 5.582-1.683 12.933-1.328 18.781-.355-2.57-3.098-7.613-4.949-9.567-9.567 4.606-4.605 10.805,1.243 17.008,0-2.57-2.035-6.468-4.425-7.086-8.148 3.188-5.137 9.211-.707 13.817-1.062-1.504-1.95-3.188-3.188-3.543-5.668 2.57-2.215 4.695.972 7.086,1.414 18.336,15.238 38.269,34.105 66.258,31.89-1.415-1.152-3.985-2.836-3.895-4.605-2.129-1.418-4.961-3.188-5.316-5.668l.707-.711c9.746,3.012 19.933,6.023 31.183,4.254-5.14-1.418-7.086-5.317-10.633-8.86l2.481-2.48c7.531.09 15.328,2.922 22.68.355-3.899-1.062-8.153-3.101-9.567-6.023 1.949-4.695 8.504-2.746 12.754-4.254 5.137-2.922 11.074-4.871 14.172-10.273-1.945-.356-4.691.886-6.731-1.063-.707-3.191 2.657-3.988 3.899-6.023 3.098-5.938 1.504-11.606 1.418-18.426-1.152,1.328-2.215,3.808-4.961,2.836-3.277-14.973-1.484-40.469-13.297-47.36 1.328,8.329 6.652,20.782 5.856,30.348-.887.09.039-1.141-.934-2.293-3.277-8.152-7.66-13.473-11.469-21.445-3.367-5.492-6.554-9.742-10.984-14.172-1.238,5.312 5.492,11.426 1.062,16.297-4.871-1.063-5.136-7.438-7.793-10.629-10.363-20.461-27.816-34.191-40.75-53.504 1.063-6.996 4.344-13.195 8.153-18.07-3.367-.532-7.973,5.847-9.571,0l.711-2.832 9.567-9.922c-3.543,2.035-8.504,1.859-12.047,2.832h-.707c-2.836-4.426 3.363-4.781 4.25-7.438l4.961-5.672c-3.367-4.695 5.492-11.781-2.125-13.464-1.598-1.414-2.571-3.098-3.192-4.957-2.832,4.425-4.074,9.566-8.504,12.398-5.136.266-11.515,2.746-15.941-.707l-6.023-6.023c-2.395,3.632-5.848,6.82-10.278,7.793-6.554,1.683-7.351-7.973-13.465-3.188-6.199,3.188-11.425-2.305-15.234-4.961l-9.215,4.606c1.684,2.394 3.988,5.226 3.543,8.859-5.933,2.656-7.527-3.367-11.691-5.316 2.746,6.289 7.707,10.542 9.922,17.363-.532,1.683-2.481,2.215-3.899,1.418l-9.211-7.086c12.047,27.195 24.715,55.449 43.582,78.66-.531,2.391 3.895,2.391 2.832,5.312-1.148,2.571-3.586-.121-5.09-1.093-20.109-23.742-34.796-55.828-48.437-83.465l-47.539-3.117c-1.152.976-15.258.984-20.465,6.183-12.934-.445-20.019,10.274-27.992,18.071 .266,2.656 4.34,3.718 2.48,6.375-3.191.269-6.91-2.036-9.214-3.543 5.937,12.136 13.378,24.539 20.906,36.496-3.809,1.683-5.582-1.504-8.504-3.188 5.492,10.809 14.707,22.766 21.613,34.371-.441.442-.265,1.86-1.418,1.414-5.933-1.148-7.262-6.64-13.109-8.148 7.265,9.391 12.402,20.195 20.199,28.699l9.211,13.82c0,2.481-3.277,1.239-4.606,1.063 5.668,10.984 14.614,18.426 20.551,28.699-.976,2.039-3.277.711-4.605.356-7.992-17.985-20.731-24.801-27.992-38.977 1.683-4.34 3.453.621 5.668,1.063-1.239-4.871-7.352-7.618-10.274-13.11-6.113-8.945-12.758-17.449-17.363-26.929 .621-1.77.09-3.985 1.769-5.313 3.633-.621 2.571,3.277 5.672,3.898 2.301,1.239 3.453,3.098 5.668,4.606l-18.777-27.637v-5.316c1.414.265 2.832-.621 4.25.707-3.453-10.981-13.109-18.07-16.652-29.762-.09-.887.621-1.504.351-2.48 2.039-1.239 3.457-1.239 5.672-.356l-13.465-26.574c-.265-1.238.707-1.949.356-3.188 1.769-.265 3.543-2.57 5.312-.707-5.578-10.367-10.273-20.996-15.234-31.535-.621-2.746.707-4.785 3.187-5.316l1.063.355c-3.188-9.3-11.16-17.984-9.567-27.992 2.395-1.418 4.961-.355 7.797.356l-12.758-24.805-.707-5.668c-3.187,1.062-6.379,1.062-9.566,0-2.039-6.379-40.395,7.527-37.203,18.422 .617,1.863 3.277,2.305 1.769,4.609-1.949,1.504-4.429.266-6.379-.355-2.39-2.125-2.39-5.668-4.96-7.442l10.632,30.828c.797,2.125 3.895,2.391 2.832,5.313-.882,1.328-2.746.531-3.894.355-1.418-2.48-2.66-3.543-4.961-5.316 2.391,9.832 6.199,20.551 12.754,29.41 .531,1.242-.887,1.684-1.418,2.481-4.074-1.063-7.793-3.368-10.274-6.024 4.43,10.809 7.707,23.387 15.59,31.535 .356.973-.531,1.504-1.062,2.125-5.672-.175-7.797-6.82-12.047-8.148 3.543,10.719 9.121,22.32 15.59,32.242 0,.797.175,1.684-.711,2.125-5.934-3.894-10.184-6.64-14.879-12.047 5.312,15.504 11.426,32.246 20.195,47.129-.887,1.594-3.543.442-4.25-.711l-10.277-10.984c3.277,13.023 8.328,25.601 15.945,36.496 .176,1.242-.176,2.48-1.418,2.836-5.847-.356-6.91-7-10.984-10.277 2.836,10.718 9.746,21.171 13.465,32.246-4.52,2.3-6.911-3.813-9.922-5.672 5.758,10.984 9.39,22.855 17.719,31.89-.622,1.063-1.418,2.481-2.836,1.418l-10.278-7.441c8.063,14.086 16.832,31.004 28.703,43.582 .086,1.152 0,2.57-1.418,2.48l-2.125-.355c-5.226-5.137-9.921-9.477-14.175-14.879 16.39,30.824 34.812,60.586 60.238,86.098 9.387,7.086 20.105,13.91 30.824,19.136 .266-2.57-5.758-4.429-4.25-7.796 1.949-2.215 5.313-1.243 7.438,0 11.961,6.464 25.07,10.363 38.625,13.109" fill="#b75225"/>
   <path d="m416.809,523.961c-3.192-4.164-6.204-7.086-9.922-11.336 1.238-3.457 4.164-2.129 6.73-2.129 8.418,2.129 16.035,6.113 25.156,6.379-4.074-4.961-12.398-7.266-12.753-13.82 6.464-3.278 14.437.265 21.968-.352h1.418c-3.543-4.695-9.746-6.113-12.758-11.34 .446-5.136 6.911-3.367 10.629-4.25l11.34.707c-3.898-3.898-13.73-2.656-12.047-10.629l2.836-2.48 23.114,1.191c-3.809-1.949-13.282-4.382-14.61-8.632 3.629-3.719 13.676-1.848 18.547-3.18-4.074-1.945-13.234-3.199-15.359-7.805 4.074-3.898 11.34-1.418 17.007-2.125-4.074-3.457-8.859-4.43-13.109-8.148-.445-1.508.621-2.66 1.77-3.192 5.582-1.683 12.933-1.328 18.781-.355-2.57-3.098-7.613-4.949-9.567-9.567 4.606-4.605 10.805,1.243 17.008,0-2.57-2.035-6.468-4.425-7.086-8.148 3.188-5.137 9.211-.707 13.817-1.062-1.504-1.95-3.188-3.188-3.543-5.668 2.57-2.215 4.695.972 7.086,1.414 18.336,15.238 38.269,34.105 66.258,31.89-1.415-1.152-3.985-2.836-3.895-4.605-2.129-1.418-4.961-3.188-5.316-5.668l.707-.711c9.746,3.012 19.933,6.023 31.183,4.254-5.14-1.418-7.086-5.317-10.633-8.86l2.481-2.48c7.531.09 15.328,2.922 22.68.355-3.899-1.062-8.153-3.101-9.567-6.023 1.949-4.695 8.504-2.746 12.754-4.254 5.137-2.922 11.074-4.871 14.172-10.273-1.945-.356-4.691.886-6.731-1.063-.707-3.191 2.657-3.988 3.899-6.023 3.098-5.938 1.504-11.606 1.418-18.426-1.152,1.328-2.215,3.808-4.961,2.836-3.277-14.973-1.484-40.469-13.297-47.36 1.328,8.329 6.652,20.782 5.856,30.348-.887.09.039-1.141-.934-2.293-3.277-8.152-7.66-13.473-11.469-21.445-3.367-5.492-6.554-9.742-10.984-14.172-1.238,5.312 5.492,11.426 1.062,16.297-4.871-1.063-5.136-7.438-7.793-10.629-10.363-20.461-27.816-34.191-40.75-53.504 1.063-6.996 4.344-13.195 8.153-18.07-3.367-.532-7.973,5.847-9.571,0l.711-2.832 9.567-9.922c-3.543,2.035-8.504,1.859-12.047,2.832h-.707c-2.836-4.426 3.363-4.781 4.25-7.438l4.961-5.672c-3.367-4.695 5.492-11.781-2.125-13.464-1.598-1.414-2.571-3.098-3.192-4.957-2.832,4.425-4.074,9.566-8.504,12.398-5.136.266-11.515,2.746-15.941-.707l-6.023-6.023c-2.395,3.632-5.848,6.82-10.278,7.793-6.554,1.683-7.351-7.973-13.465-3.188-6.199,3.188-11.425-2.305-15.234-4.961l-9.215,4.606c1.684,2.394 3.988,5.226 3.543,8.859-5.933,2.656-7.527-3.367-11.691-5.316 2.746,6.289 7.707,10.542 9.922,17.363-.532,1.683-2.481,2.215-3.899,1.418l-9.211-7.086c12.047,27.195 24.715,55.449 43.582,78.66-.531,2.391 3.895,2.391 2.832,5.312-1.148,2.571-3.586-.121-5.09-1.093-20.109-23.742-34.796-55.828-48.437-83.465l-47.539-3.117c-1.152.976-15.258.984-20.465,6.183-12.934-.445-20.019,10.274-27.992,18.071 .266,2.656 4.34,3.718 2.48,6.375-3.191.269-6.91-2.036-9.214-3.543 5.937,12.136 13.378,24.539 20.906,36.496-3.809,1.683-5.582-1.504-8.504-3.188 5.492,10.809 14.707,22.766 21.613,34.371-.441.442-.265,1.86-1.418,1.414-5.933-1.148-7.262-6.64-13.109-8.148 7.265,9.391 12.402,20.195 20.199,28.699l9.211,13.82c0,2.481-3.277,1.239-4.606,1.063 5.668,10.984 14.614,18.426 20.551,28.699-.976,2.039-3.277.711-4.605.356-7.992-17.985-20.731-24.801-27.992-38.977 1.683-4.34 3.453.621 5.668,1.063-1.239-4.871-7.352-7.618-10.274-13.11-6.113-8.945-12.758-17.449-17.363-26.929 .621-1.77.09-3.985 1.769-5.313 3.633-.621 2.571,3.277 5.672,3.898 2.301,1.239 3.453,3.098 5.668,4.606l-18.777-27.637v-5.316c1.414.265 2.832-.621 4.25.707-3.453-10.981-13.109-18.07-16.652-29.762-.09-.887.621-1.504.351-2.48 2.039-1.239 3.457-1.239 5.672-.356l-13.465-26.574c-.265-1.238.707-1.949.356-3.188 1.769-.265 3.543-2.57 5.312-.707-5.578-10.367-10.273-20.996-15.234-31.535-.621-2.746.707-4.785 3.187-5.316l1.063.355c-3.188-9.3-11.16-17.984-9.567-27.992 2.395-1.418 4.961-.355 7.797.356l-12.758-24.805-.707-5.668c-3.187,1.062-6.379,1.062-9.566,0-2.039-6.379-40.395,7.527-37.203,18.422 .617,1.863 3.277,2.305 1.769,4.609-1.949,1.504-4.429.266-6.379-.355-2.39-2.125-2.39-5.668-4.96-7.442l10.632,30.828c.797,2.125 3.895,2.391 2.832,5.313-.882,1.328-2.746.531-3.894.355-1.418-2.48-2.66-3.543-4.961-5.316 2.391,9.832 6.199,20.551 12.754,29.41 .531,1.242-.887,1.684-1.418,2.481-4.074-1.063-7.793-3.368-10.274-6.024 4.43,10.809 7.707,23.387 15.59,31.535 .356.973-.531,1.504-1.062,2.125-5.672-.175-7.797-6.82-12.047-8.148 3.543,10.719 9.121,22.32 15.59,32.242 0,.797.175,1.684-.711,2.125-5.934-3.894-10.184-6.64-14.879-12.047 5.312,15.504 11.426,32.246 20.195,47.129-.887,1.594-3.543.442-4.25-.711l-10.277-10.984c3.277,13.023 8.328,25.601 15.945,36.496 .176,1.242-.176,2.48-1.418,2.836-5.847-.356-6.91-7-10.984-10.277 2.836,10.718 9.746,21.171 13.465,32.246-4.52,2.3-6.911-3.813-9.922-5.672 5.758,10.984 9.39,22.855 17.719,31.89-.622,1.063-1.418,2.481-2.836,1.418l-10.278-7.441c8.063,14.086 16.832,31.004 28.703,43.582 .086,1.152 0,2.57-1.418,2.48l-2.125-.355c-5.226-5.137-9.921-9.477-14.175-14.879 16.39,30.824 34.812,60.586 60.238,86.098 9.387,7.086 20.105,13.91 30.824,19.136 .266-2.57-5.758-4.429-4.25-7.796 1.949-2.215 5.313-1.243 7.438,0 11.961,6.464 25.07,10.363 38.625,13.109z" fill="none" stroke="#231f20" stroke-miterlimit="3.8636" stroke-width="3.9371"/>
   <path d="m122.105,278.773c-.707-5.757-4.96-10.277-9.566-14.527-.086-.887 0-2.039 1.063-2.129 4.961.887 9.3,6.469 11.695,10.633 2.035-2.039 5.816-3.203 9.359-1.785 3.102,2.125.828-21.777-4.047-15.223-1.593,1.594-3.718,1.594-5.312,0-4.34-5.406-1.328-13.82-6.734-18.781-5.668-6.645-12.668-11.871-21.2583-14.527-2.3047-.176-4.5195.621-6.0234,1.773 .9726,4.871 3.0117,11.602.707,17.008-1.9492,2.125-4.0742,5.933-7.793,6.023 1.0625,3.278-.3555,6.375-1.418,9.211l-4.9609,4.254c4.6055,4.871 7.6172,12.754 4.25,19.485 2.3047-1.68 7.707-2.657 10.9844-.708 .5312-2.835.0898-7.085 3.1914-8.859 2.2148-2.746 6.1098-2.215 9.2108-1.769 1.774.175 2.125,2.214 1.418,3.543-2.836,1.593-7.5312-.532-9.2108,3.187-2.2149,10.188 12.4878,13.375 9.2108,23.031h-1.062c-4.34-6.554-9.3012-13.109-16.6527-15.234-2.836-.266-5.1407,1.504-5.6719,3.898-.2539,4.356.7109,8.149.7109,8.149 4.3399,10.008 13.9961,17.804 24.4457,20.551 3.988-12.313 7.355-25.422 13.464-37.204" fill="#fcd7a8"/>
   <path d="m122.105,278.773c-.707-5.757-4.96-10.277-9.566-14.527-.086-.887 0-2.039 1.063-2.129 4.961.887 9.3,6.469 11.695,10.633 2.035-2.039 5.816-3.203 9.359-1.785 3.102,2.125.828-21.777-4.047-15.223-1.593,1.594-3.718,1.594-5.312,0-4.34-5.406-1.328-13.82-6.734-18.781-5.668-6.645-12.668-11.871-21.2583-14.527-2.3047-.176-4.5195.621-6.0234,1.773 .9726,4.871 3.0117,11.602.707,17.008-1.9492,2.125-4.0742,5.933-7.793,6.023 1.0625,3.278-.3555,6.375-1.418,9.211l-4.9609,4.254c4.6055,4.871 7.6172,12.754 4.25,19.485 2.3047-1.68 7.707-2.657 10.9844-.708 .5312-2.835.0898-7.085 3.1914-8.859 2.2148-2.746 6.1098-2.215 9.2108-1.769 1.774.175 2.125,2.214 1.418,3.543-2.836,1.593-7.5312-.532-9.2108,3.187-2.2149,10.188 12.4878,13.375 9.2108,23.031h-1.062c-4.34-6.554-9.3012-13.109-16.6527-15.234-2.836-.266-5.1407,1.504-5.6719,3.898-.2539,4.356.7109,8.149.7109,8.149 4.3399,10.008 13.9961,17.804 24.4457,20.551 3.988-12.313 7.355-25.422 13.464-37.204z" fill="none" stroke="#231f20" stroke-miterlimit="3.8636" stroke-width="2.9529"/>
  </g>
 </g>
</svg>
