<?xml version="1.0" encoding="UTF-8"?>
<svg version="1.1" viewBox="0 0 594.68 458.54" xmlns="http://www.w3.org/2000/svg" xmlns:xlink="http://www.w3.org/1999/xlink">
 <defs>
  <radialGradient id="ao" cx="190.6" cy="422.68" r="29.134" gradientTransform="matrix(1.5999 -.16944 .18658 1.7617 -86.072 -503.58)" gradientUnits="userSpaceOnUse" xlink:href="#aa"/>
  <linearGradient id="aa">
   <stop stop-color="#609a00" offset="0"/>
   <stop stop-color="#8fdd1d" offset="1"/>
  </linearGradient>
  <radialGradient id="an" cx="224.41" cy="491.33" r="54.118" gradientTransform="matrix(1 0 0 1.0202 95.983 -243.56)" gradientUnits="userSpaceOnUse" xlink:href="#aa"/>
  <linearGradient id="ad" x1="390.25" x2="116.46" y1="696.26" y2="589.19" gradientTransform="translate(95.983 -234.22)" gradientUnits="userSpaceOnUse" xlink:href="#aa"/>
  <linearGradient id="ae" x1="571.3" x2="487.46" y1="679.56" y2="496.61" gradientTransform="matrix(.80478 .59357 -.59357 .80478 595 -569.74)" gradientUnits="userSpaceOnUse" xlink:href="#aa"/>
  <linearGradient id="af" x1="562.01" x2="504.69" y1="664.25" y2="480.11" gradientTransform="matrix(.80478 .59357 -.59357 .80478 595 -569.74)" gradientUnits="userSpaceOnUse" xlink:href="#aa"/>
  <radialGradient id="ap" cx="500.36" cy="571.69" r="34.893" gradientTransform="matrix(1.7134 -.058895 .038478 1.1194 -283.46 -277.78)" gradientUnits="userSpaceOnUse" xlink:href="#aa"/>
  <radialGradient id="aq" cx="386.45" cy="701.37" r="23.234" gradientTransform="matrix(.92782 .37304 -.15016 .37347 240.75 -190.93)" gradientUnits="userSpaceOnUse" xlink:href="#z"/>
  <linearGradient id="z">
   <stop stop-color="#91003a" offset="0"/>
   <stop stop-color="#f80063" offset="1"/>
  </linearGradient>
  <radialGradient id="ar" cx="343.88" cy="835.67" r="83.773" gradientTransform="matrix(.80478 .59357 -.36708 .49769 401.27 -305.46)" gradientUnits="userSpaceOnUse" xlink:href="#z"/>
  <radialGradient id="as" cx="480.18" cy="693.68" r="42.634" gradientTransform="matrix(1.4175 .046381 -.05788 1.7689 -93.564 -959.87)" gradientUnits="userSpaceOnUse" xlink:href="#z"/>
  <radialGradient id="at" cx="477.36" cy="782.47" r="52.751" gradientTransform="matrix(.49387 .72917 -1.1332 .76754 1160.7 -607.96)" gradientUnits="userSpaceOnUse" xlink:href="#z"/>
  <linearGradient id="ag" x1="395.35" x2="458.68" y1="771.61" y2="823.81" gradientTransform="matrix(.80478 .59357 -.59357 .80478 595 -569.74)" gradientUnits="userSpaceOnUse" xlink:href="#z"/>
  <linearGradient id="ah" x1="248.5" x2="307.49" y1="738.14" y2="819.57" gradientTransform="matrix(.80478 .59357 -.59357 .80478 595.71 -566.76)" gradientUnits="userSpaceOnUse" xlink:href="#ab"/>
  <linearGradient id="ab">
   <stop stop-color="#f06" offset="0"/>
   <stop stop-color="#91003a" offset="1"/>
  </linearGradient>
  <radialGradient id="au" cx="366.4" cy="761.89" r="75.676" gradientTransform="matrix(.80478 .59357 -.30785 .4174 366.11 -259.41)" gradientUnits="userSpaceOnUse" xlink:href="#z"/>
  <radialGradient id="av" cx="429" cy="695.07" r="77.334" gradientTransform="matrix(.50868 .82073 -.62499 .38737 741.98 -374.6)" gradientUnits="userSpaceOnUse" xlink:href="#z"/>
  <radialGradient id="aw" cx="363.38" cy="747.47" r="34.223" gradientTransform="matrix(-.76697 -.72129 1.1525 -1.2255 -124.75 1424.2)" gradientUnits="userSpaceOnUse" xlink:href="#z"/>
  <linearGradient id="ai" x1="362.95" x2="384.49" y1="710.49" y2="710.49" gradientTransform="matrix(.80478 .59357 -.59357 .80478 595 -569.74)" gradientUnits="userSpaceOnUse" xlink:href="#ab"/>
  <linearGradient id="aj" x1="368.2" x2="425.48" y1="735.18" y2="735.18" gradientTransform="matrix(.80478 .59357 -.59357 .80478 595 -569.74)" gradientUnits="userSpaceOnUse" xlink:href="#ab"/>
  <linearGradient id="ak" x1="417.45" x2="458.61" y1="743.19" y2="743.19" gradientTransform="matrix(.80478 .59357 -.59357 .80478 589.28 -569.07)" gradientUnits="userSpaceOnUse" xlink:href="#ab"/>
  <linearGradient id="al" x1="518.03" x2="606.44" y1="625.18" y2="586.66" gradientTransform="matrix(.80478 .59357 -.59357 .80478 595 -569.74)" gradientUnits="userSpaceOnUse" xlink:href="#aa"/>
  <linearGradient id="am" x1="298.97" x2="250.68" y1="855.43" y2="933.92" gradientTransform="matrix(.80478 .59357 -.59357 .80478 595 -569.74)" gradientUnits="userSpaceOnUse" xlink:href="#aa"/>
  <radialGradient id="ax" cx="371.37" cy="763.05" r="216.22" gradientTransform="matrix(1 0 0 -.51341 95.983 749.4)" gradientUnits="userSpaceOnUse">
   <stop stop-color="#f20067" offset="0"/>
   <stop stop-color="#f4d7e3" stop-opacity="0" offset="1"/>
  </radialGradient>
  <filter id="ac" x="-.065" y="-.78" width="1.13" height="2.56" color-interpolation-filters="sRGB">
   <feGaussianBlur stdDeviation="5.5810929"/>
  </filter>
 </defs>
 <g transform="translate(-194.09 -54.523)">
  <path transform="matrix(1 0 0 1.2413 98.115 -394.04)" d="m464.67 625.57c0 4.7421-46.131 8.5863-103.04 8.5863-56.905 0-103.04-3.8442-103.04-8.5863s46.131-8.5863 103.04-8.5863c56.905 0 103.04 3.8442 103.04 8.5863z" fill="#d14f83" filter="url(#ac)"/>
  <path d="m465.73 367.93c-1.1805 0.028-2.3364 0.1067-3.4688 0.21875-0.18696 0.0186-0.37697 0.0415-0.5625 0.0625-0.93632 0.10572-1.8526 0.23598-2.75 0.40625-0.9407 0.17879-1.8569 0.40107-2.75 0.65625-0.12469 0.0356-0.2513 0.0566-0.375 0.0937-0.18909 0.0568-0.37575 0.12702-0.5625 0.1875-0.43064 0.13955-0.86343 0.278-1.2812 0.4375-0.0731 0.0279-0.14608 0.0653-0.21875 0.0937-0.29569 0.11609-0.58611 0.24847-0.875 0.375-0.45445 0.19891-0.90678 0.39949-1.3438 0.625-0.0414 0.0213-0.0838 0.0409-0.125 0.0625-0.15597 0.0817-0.3151 0.16477-0.46875 0.25-0.26837 0.14892-0.52013 0.30896-0.78125 0.46875-0.37243 0.22778-0.73656 0.46831-1.0938 0.71875-0.15741 0.11031-0.31438 0.22895-0.46875 0.34375-0.14339 0.10671-0.29677 0.20187-0.4375 0.3125-0.2547 0.20002-0.5042 0.41194-0.75 0.625-0.21544 0.18709-0.41659 0.39643-0.625 0.59375-0.13458 0.12731-0.27465 0.24337-0.40625 0.375-0.21228 0.21234-0.42062 0.4325-0.625 0.65625-0.193 0.21142-0.3767 0.43447-0.5625 0.65625-0.22077 0.26356-0.44589 0.53405-0.65625 0.8125-0.0276 0.0366-0.035 0.0881-0.0625 0.125-0.27344 0.36689-0.55743 0.732-0.8125 1.125-0.12381 0.19054-0.22436 0.39695-0.34375 0.59375-0.0827 0.13647-0.1695 0.26675-0.25 0.40625-0.48192 0.83356-0.94139 1.7112-1.3438 2.6562-0.0406 0.0955-0.0853 0.18458-0.125 0.28125-0.12667 0.30728-0.22565 0.61831-0.34375 0.9375-0.16147 0.43678-0.32367 0.88428-0.46875 1.3438-0.10733 0.33956-0.21432 0.67908-0.3125 1.0312-0.0682 0.24466-0.12379 0.49918-0.1875 0.75-0.0487 0.19183-0.11021 0.36704-0.15625 0.5625-0.0783 0.33102-0.14819 0.65845-0.21875 1 10.621 4.4027 24.188 23.469 24.188 23.469 32.012 25.392 64.678 15.796 73.781 57.969 15.039 4.168 26.417 2.6025 34.312-0.9375-1e-3 8e-3 1e-3 0.0231 0 0.0312 2.205-0.98558 4.1204-2.1287 5.7812-3.3438 0.76272-0.55701 1.4442-1.1385 2.0938-1.7188 0.0729-0.0653 0.14727-0.12206 0.21875-0.1875 0.67713-0.61833 1.2938-1.2506 1.8438-1.875 0.0253-0.0288 0.0374-0.0649 0.0625-0.0937 0.29459-0.33777 0.58622-0.66493 0.84375-1 0.48895-0.63839 0.8947-1.2621 1.25-1.875 0.0515-0.0883 0.10754-0.16248 0.15625-0.25 0.12687-0.22871 0.23569-0.43354 0.34375-0.65625 0.22347-0.45658 0.41798-0.888 0.5625-1.3125 0.0479-0.14138 0.0858-0.26912 0.125-0.40625 0.0505-0.17382 0.0885-0.33359 0.125-0.5 5e-3 -0.0211-4e-3 -0.0415 0-0.0625 0.058-0.27531 0.1055-0.52928 0.125-0.78125 4e-3 -0.0553-3e-3 -0.10218 0-0.15625 9e-3 -0.19978 0.0157-0.41161 0-0.59375-3e-3 -0.0325 4e-3 -0.0619 0-0.0937-0.0227-0.20749-0.0687-0.38151-0.125-0.5625 0.95323-0.62943 1.3398-18.949-4.5625-27.844-6.7757-10.211-19.708-20.468-30.188-29.5-4.1914-3.6138-7.9864-7.0207-10.844-10.156-0.36302-0.39827-0.69977-0.79844-1.0312-1.1875-0.32665-0.38302-0.64352-0.75124-0.9375-1.125-0.58799-0.74746-1.1181-1.4789-1.5625-2.1875-0.22742 0.10261-0.46328 0.20258-0.71875 0.28125-0.75999 0.23478-1.6328 0.36512-2.625 0.40625-0.33381 0.0138-0.67301 6e-3 -1.0312 0-0.37295-6e-3 -0.75782-5e-3 -1.1562-0.0312-0.74377-0.0492-1.5164-0.13567-2.3438-0.25-0.0193-3e-3 -0.0432 3e-3 -0.0625 0-0.33668-0.0471-0.71288-0.13065-1.0625-0.1875-0.53471-0.0867-1.0614-0.17315-1.625-0.28125-0.2695-0.0518-0.56792-0.0999-0.84375-0.15625-1.6378-0.33405-3.3484-0.74819-5.1875-1.2188-0.58051-0.14863-1.1832-0.30928-1.7812-0.46875-0.4979-0.13263-0.99067-0.26696-1.5-0.40625-2.1683-0.59366-4.4388-1.2602-6.7812-1.9375-0.0896-0.0259-0.1914-0.0365-0.28125-0.0625-2.3242-0.67238-4.7465-1.3686-7.1875-2.0625-0.12209-0.0347-0.25268-0.0592-0.375-0.0937-6.2671-1.7769-12.802-3.5267-19.219-4.75-0.16762-0.0319-0.33258-0.0626-0.5-0.0937-0.20819-0.0389-0.41714-0.0561-0.625-0.0937-1.1082-0.20082-2.2166-0.39705-3.3125-0.5625-1.1108-0.16798-2.2189-0.34233-3.3125-0.46875-0.19068-0.022-0.37242-0.0419-0.5625-0.0625-1.243-0.13553-2.4432-0.23945-3.6562-0.3125-0.0313-2e-3 -0.0625 2e-3 -0.0937 0-1.0502-0.0618-2.1022-0.0844-3.125-0.0937-0.60091-5e-3 -1.191-0.014-1.7812 0zm184.5 5.5938c-13.063 11.901-77.823 4.8359-88.312 23.812 3.4869 6.0872 18.196 15.291 20.531 22.312 5.3399 0.38047 21.625 8.3438 21.625 8.3438 7.8706-1.5109 20.343-17.196 30.875-26.938 0 0-18.57 29.736-23.625 30.625 9.1116 6.2147 16.377 13.387 17.969 17.844 13.067-25.045 17.411-48.377 20.938-76zm-245.78 9.8438c-0.18658 1e-3 -0.37585 0.0289-0.5625 0.0312-1.0935 0.0143-2.1866 0.0373-3.2812 0.0937-0.10477 5e-3 -0.20773 0.0255-0.3125 0.0312-0.99989 0.0552-2.001 0.12912-3 0.21875-0.27134 0.0243-0.54129 0.0356-0.8125 0.0625-0.74926 0.0741-1.5022 0.15687-2.25 0.25-1.6888 0.2106-3.3869 0.47593-5.0625 0.78125-1.1166 0.20368-2.2359 0.41164-3.3438 0.65625-0.1683 0.0372-0.33193 0.0869-0.5 0.125-1.2 0.27193-2.4072 0.55616-3.5938 0.875-0.0218 6e-3 -0.0407 0.0254-0.0625 0.0312-1.1669 0.3145-2.3177 0.64122-3.4688 1-0.42142 0.13127-0.83095 0.26915-1.25 0.40625-0.78594 0.25722-1.5669 0.53502-2.3438 0.8125-0.31387 0.11215-0.62521 0.22833-0.9375 0.34375-0.88048 0.32528-1.758 0.6491-2.625 1-0.1687 0.0683-0.33184 0.14951-0.5 0.21875-2.0301 0.83584-4.0265 1.7156-5.9688 2.6875-0.50488 0.25259-1.0018 0.51975-1.5 0.78125-0.55816 0.29302-1.1068 0.60221-1.6562 0.90625-0.34257 0.18955-0.69222 0.36871-1.0312 0.5625-0.84345 0.48216-1.6796 0.99208-2.5 1.5-0.21877 0.13545-0.43918 0.269-0.65625 0.40625-0.5827 0.36838-1.1488 0.74377-1.7188 1.125-0.46279 0.30959-0.92094 0.61958-1.375 0.9375-0.79808 0.55879-1.5739 1.1347-2.3438 1.7188-0.11236 0.0852-0.23201 0.16425-0.34375 0.25-0.0708 0.0543-0.14821 0.1017-0.21875 0.15625-0.87019 0.6728-1.7319 1.358-2.5625 2.0625-0.2284 0.19375-0.54812 0.35414-0.90625 0.4375-0.17981 0.0421-0.36685 0.0584-0.5625 0.0625-0.39693 7e-3 -0.79614-0.0542-1.1875-0.25-0.18596-0.0898-0.36182-0.23043-0.53125-0.375-5e-3 -5e-3 -0.0258 5e-3 -0.0312 0-0.0822-0.0716-0.14237-0.16419-0.21875-0.25-0.0758-0.0871-0.1812-0.17918-0.25-0.28125-5e-3 -7e-3 5e-3 -0.0245 0-0.0312-0.14547-0.21952-0.2698-0.45712-0.375-0.75-0.18106-0.4193-0.3635-0.81028-0.5625-1.1875-0.19431-0.36984-0.38388-0.70108-0.59375-1.0312-0.62938-0.99051-1.3232-1.7934-2.0625-2.4375-2.9622-2.591-6.6255-2.4569-9.5625-0.125-0.48791 0.38797-0.93428 0.8361-1.375 1.3438-0.2207 0.25382-0.44984 0.4984-0.65625 0.78125-0.21124 0.28876-0.39918 0.5877-0.59375 0.90625-0.5714 0.93388-1.0707 1.977-1.4688 3.1562-3e-3 9e-3 3e-3 0.0221 0 0.0312-0.26123 0.77817-0.48656 1.6211-0.65625 2.5-0.0856 0.44465-0.15899 0.90545-0.21875 1.375-0.17985 1.4086-0.23934 2.9092-0.15625 4.5312 5.3e-4 0.0106-5.4e-4 0.0207 0 0.0312 0.0278 0.53097 0.0659 1.0723 0.125 1.625 0.0608 0.57337 0.15381 1.1538 0.25 1.75 0.0172 0.0547-0.0102 0.11705-0.0625 0.21875-0.14012 0.30112-0.58295 0.77455-1.1562 1.2812-0.18335 0.16328-0.3925 0.34263-0.59375 0.5-0.59958 0.46346-1.2547 0.88356-1.7812 1.0625-6.6361 2.2553-11.002 6.3606-14.094 11.5-0.30917 0.51371-0.62198 1.0292-0.90625 1.5625-4e-3 8e-3 4e-3 0.0234 0 0.0312-0.27954 0.52539-0.55523 1.051-0.8125 1.5938-0.2656 0.55972-0.50614 1.111-0.75 1.6875-0.24022 0.5675-0.46643 1.1367-0.6875 1.7188-1.7738 4.6661-2.9657 9.7558-4.0625 14.875-0.27376 1.2769-0.5425 2.541-0.8125 3.8125-0.27199 1.2819-0.5288 2.5496-0.8125 3.8125-0.28157 1.2528-0.56652 2.4668-0.875 3.6875-0.31061 1.231-0.64651 2.4404-1 3.625-0.17536 0.58758-0.34245 1.1451-0.53125 1.7188-0.19164 0.58335-0.38626 1.1515-0.59375 1.7188 0.3949 0.43672 0.78041 0.88504 1.1562 1.3438 0.0421 0.0513 0.0831 0.10465 0.125 0.15625 0.33184 0.40928 0.65038 0.82494 0.96875 1.25 0.0769 0.10267 0.14257 0.20895 0.21875 0.3125 0.28052 0.38124 0.57267 0.76374 0.84375 1.1562 0.10701 0.15501 0.20687 0.31208 0.3125 0.46875 0.233 0.34541 0.46073 0.67823 0.6875 1.0312 0.13975 0.21757 0.26868 0.43597 0.40625 0.65625 0.18841 0.30158 0.37787 0.59991 0.5625 0.90625 0.16831 0.2793 0.33455 0.56078 0.5 0.84375 0.1469 0.2512 0.29264 0.49612 0.4375 0.75 0.19883 0.34839 0.39835 0.70946 0.59375 1.0625 0.10333 0.18671 0.21002 0.3746 0.3125 0.5625 1.8896 3.4644 3.6257 7.1253 5.4688 10.75 0.21488 0.42197 0.43848 0.8294 0.65625 1.25 3.8503 7.4491 8.2044 14.619 15.094 19.5 0.0493 0.0349 0.10671 0.0592 0.15625 0.0937 0.67042 0.46926 1.3746 0.91833 2.0938 1.3438h18.406c0.82545-1.7827 0.55895-3.3288-1.4375-4.875-12.446-9.6388 6.4755-34.862 17.844-43.5-8.607-1.9852-11.237-6.7118-18.156-16.094-4.3406-5.8851-4.9274-10.972-2.75-15.344 77.962-32.465 100.05-33.073 115.5-25.375-2.2793-3.0904-4.7727-5.8771-7.4688-8.3438-0.0315-0.0204-0.0623-0.0422-0.0937-0.0625-0.40439-0.36855-0.80601-0.73881-1.2188-1.0938-0.18385-0.15803-0.37703-0.31341-0.5625-0.46875-0.26324-0.22053-0.5148-0.4411-0.78125-0.65625-0.22783-0.18404-0.45737-0.35113-0.6875-0.53125-0.22208-0.17377-0.43206-0.36112-0.65625-0.53125-0.27871-0.21152-0.56184-0.41907-0.84375-0.625-0.18203-0.13296-0.37917-0.24437-0.5625-0.375-0.0796-0.0567-0.17017-0.1-0.25-0.15625-0.24998-0.1762-0.49766-0.35932-0.75-0.53125-0.51881-0.35358-1.034-0.69561-1.5625-1.0312-0.0949-0.0603-0.18603-0.12781-0.28125-0.1875-0.11503-0.0721-0.22828-0.14747-0.34375-0.21875-0.58536-0.3613-1.1849-0.69137-1.7812-1.0312-0.81608-0.46528-1.6333-0.91813-2.4688-1.3438-0.4523-0.23037-0.91734-0.46863-1.375-0.6875-0.10423-0.0498-0.208-0.10702-0.3125-0.15625-0.56313-0.26542-1.1168-0.50172-1.6875-0.75-0.56847-0.24752-1.1431-0.48808-1.7188-0.71875-1.7339-0.6939-3.521-1.331-5.3125-1.875-0.0503-0.0153-0.10587-0.0162-0.15625-0.0312-0.11782-0.0355-0.2257-0.0902-0.34375-0.125-0.4223-0.12457-0.85621-0.22729-1.2812-0.34375-0.67522-0.18483-1.3496-0.36671-2.0312-0.53125-1.1498-0.27795-2.3027-0.52894-3.4688-0.75-1.0791-0.20452-2.1594-0.37456-3.25-0.53125-0.15501-0.0223-0.31353-0.0412-0.46875-0.0625-0.0827-0.0113-0.16728-0.0203-0.25-0.0312-1.1693-0.15655-2.3519-0.30322-3.5312-0.40625-1.6119-0.14097-3.2189-0.23793-4.8438-0.28125-0.73715-0.0196-1.48-0.0313-2.2188-0.0312-0.1774 2e-5 -0.35378-1e-3 -0.53125 0zm30.969 28c-1.177 0.0119-2.3645 0.0793-3.5625 0.15625-0.28198 0.0181-0.56068 0.0409-0.84375 0.0625-1.9983 0.15209-4.0159 0.37459-6.0625 0.6875-2.983 0.45577-6.004 1.0675-9.0625 1.8125-1.5396 0.37503-3.0725 0.78226-4.625 1.2188-3.2687 0.91842-6.5459 1.9573-9.8438 3.0938-0.20935 0.0721-0.41561 0.14589-0.625 0.21875-1.7285 0.6014-3.4597 1.2305-5.1875 1.875-2.1305 0.79488-4.255 1.6265-6.375 2.4688-0.29128 0.11571-0.58403 0.22736-0.875 0.34375-1.2017 0.48076-2.3985 0.97865-3.5938 1.4688-13.167 5.3984-25.874 11.219-36.875 15.094-7.5e-4 0.0103 7.3e-4 0.021 0 0.0312-3e-3 0.0333 2e-3 0.0606 0 0.0937-0.75046 11.458 11.165 19.468 19.688 20.719 23.097-29.127 69.533-22.776 105.78-16.375 0.0412 0.0197 0.0839 0.0428 0.125 0.0625 7.418 1.3108 14.363 2.5873 20.656 3.5938 2.0774 0.33373 4.1543 0.65056 6.0625 0.90625 0.0515 7e-3 0.10486 0.0245 0.15625 0.0312 1.0978 0.14604 2.183 0.26096 3.2188 0.375-0.13636-0.11879-0.27086-0.28151-0.4375-0.5-2.4214-3.1538-7.8858-16.17-10.844-15.656-5.4694 0.94925-29.157-13.837-36.031-17.344-3.5078-1.7891-7.2383-2.9958-11.156-3.6875-0.2507-0.0444-0.49784-0.0846-0.75-0.125-1.0479-0.16709-2.1156-0.27591-3.1875-0.375-1.8795-0.17401-3.8047-0.26968-5.75-0.25zm153.75 15.875c0.75152 2.6455 1.3616 5.143 1.8125 7.5312 0.0818 0.43477 0.14663 0.88612 0.21875 1.3125 0.0638 0.37659 0.13119 0.75487 0.1875 1.125 0.0458 0.30237 0.0841 0.60819 0.125 0.90625 7e-3 0.0509 0.0245 0.10542 0.0312 0.15625 0.0228 0.16959 0.0413 0.3318 0.0625 0.5 0.12082 0.95083 0.21055 1.8744 0.28125 2.7812 0.0596 0.77654 0.10143 1.5365 0.125 2.2812 4e-3 0.11262-3e-3 0.23185 0 0.34375 0.0267 1.0896 0.0176 2.1654-0.0312 3.1875-0.0485 1.0394-0.12605 2.06-0.25 3.0312-0.0778 0.59976-0.17561 1.207-0.28125 1.7812-0.0496 0.27095-0.10056 0.54718-0.15625 0.8125-0.25594 1.2101-0.59005 2.3729-0.96875 3.4688 7e-3 0.0121 0.0244 0.0191 0.0312 0.0312-5.9071 17.063-26.476 20.368-49.812 16.844 1.1371 4.6708 0.10762 16.391-0.0625 19.812 10.448 2.4523 21.797 9.9043 31.406 19.906h53.25c0.21388-11.102-0.11342-22.723-1.4062-33.719-1e-3 -0.0103 1e-3 -0.0209 0-0.0312-1.541-13.088-4.4004-25.246-9.25-34.531-0.6967-1.3344-1.4387-2.6035-2.2188-3.8125-4.645-7.2068-10.808-12.069-18.875-13.375-0.0101-2e-3 -0.0213 2e-3 -0.0312 0-0.66342-0.10664-1.3418-0.19235-2.0312-0.25-0.0101-8.4e-4 -0.0211 8.2e-4 -0.0312 0-0.70031-0.0578-1.3974-0.0879-2.125-0.0937zm-90.656 6.7188c15.344 20.11 21.413 54.861 23.688 79.094h12.812c3.3008-23.383 1.6758-51.345-15.438-67-6.1425-5.619-7.4557-2.2868-21.062-12.094zm-73.938 11.562c-1.263-0.018-2.529 9e-4 -3.8125 0.0312-15.973 0.37763-33.379 4.7101-48.562 17.969-9.964 8.701-22.976 24.579-23.906 34.531-0.21123 2.2588 0.19454 3.7643 0.75 5.0625 0.0334 0.0829 0.0591 0.16889 0.0937 0.25 0.24994 0.55444 0.52068 1.096 0.78125 1.625 0.19058 0.38027 0.363 0.75676 0.53125 1.1562 0.63856 1.6247 0.92551 3.5718 0 6.9062h44.656c-0.87879-7.7727-0.3916-15.564 2.6562-23.469 6.4062-16.614 25.264-34.653 50-18.812 7.3142-5.3946 15.506-10.355 19.844-17.594-0.0652-0.015-0.15224-0.0469-0.21875-0.0625 0.0348-0.057 0.0907-0.099 0.125-0.15625-7.5542-1.7423-23.992-7.1679-42.938-7.4375zm63.031 5.875c-7.5812 0.15793-14.59 2.3247-17.438 8.25-11.874 24.709 27.613 39.071 43.438 53.406h4.2188c-2.832-18.069-2.7868-39.608-14.594-59.594-4.1929-1.1464-9.204-1.9976-14.094-2.0625-0.50935-7e-3 -1.0258-0.0105-1.5312 0zm-22.625 12.875c-17.091 11.511-25.592 26.443-29.531 42.5 11.483 4.8514 24.246 5.4608 35.438 6.2812h36.188c-19.84-11.661-60.461-31.802-42.094-48.781zm-35.562 4.9688c-2.674 0.0222-5.3484 0.46517-7.7812 1.5938-0.42895 0.19898-0.84371 0.40771-1.25 0.625-0.40632 0.2173-0.80303 0.45383-1.1875 0.6875-0.38443 0.23364-0.76165 0.47071-1.125 0.71875-0.72682 0.49615-1.4152 1.0205-2.0625 1.5625-3.5591 2.9806-5.9484 6.5458-7.7188 9.375-0.89838 1.4357-1.7084 2.9424-2.4062 4.5-0.17989 0.40154-0.33313 0.80994-0.5 1.2188-0.15748 0.38565-0.32275 0.76443-0.46875 1.1562-0.0232 0.0622-0.0396 0.1251-0.0625 0.1875-0.27363 0.74537-0.5171 1.4841-0.75 2.25-0.0288 0.0947-0.0655 0.18628-0.0937 0.28125-0.21909 0.73839-0.41155 1.4946-0.59375 2.25-0.11728 0.48609-0.21028 0.97623-0.3125 1.4688-0.0778 0.37456-0.1808 0.74695-0.25 1.125-0.0248 0.13557-0.0388 0.27025-0.0625 0.40625-0.14471 0.8297-0.27088 1.6555-0.375 2.5-0.0369 0.29912-0.062 0.60546-0.0937 0.90625-0.35589 3.3618-0.40155 6.8149-0.15625 10.312 0.016 0.22848 0.0458 0.45803 0.0625 0.6875h28.406c-1.3342-1.2644-1.0599-3.5649 2.2188-7.7812-0.34718-8.8802 12.889-26.791 15.312-30 0.23382-0.30947 0.5-0.625 0.5-0.625 2.4e-4 -3.1e-4 0-0.0312 0-0.0312s-5.0414-2.8263-11.438-4.375c-0.70874-0.17335-1.4192-0.33245-2.1562-0.46875-1.8436-0.33814-3.7463-0.5471-5.6562-0.53125zm-128.09 20.812c-16.463-0.17409-28.772 9.3624-38.625 23h56.375c-4.6962-3.1546-13.574-9.5449-17.75-23zm239.41 5.4062c0.12259 0.62034 0.23742 1.2238 0.34375 1.8438 5e-3 0.0322 0.0258 0.0616 0.0312 0.0937 0.0402 0.23628 0.0562 0.4823 0.0937 0.71875 0.7875 4.9917 1.0413 9.9816 0.8125 14.938h23.375c-6.8424-6.729-15.061-12.716-24.656-17.594z" fill="url(#ax)"/>
  <path d="m328.95 340.41 7.3464-6.7846c-10.699-11.279-24.184-19.756-38.879-24.499-17.069-5.5234-35.801-5.8681-52.831-0.33803-17.044 5.5459-32.056 17.121-41.153 32.467-9.0931 15.369-11.851 34.34-6.9354 51.372 4.9382 17.041 17.71 31.612 34.025 38.115h1e-5c8.7576 3.4785 18.372 4.6414 27.642 3.3765 9.27-1.2662 18.155-4.9547 25.552-10.573 0 0 1e-5 0 1e-5 -1e-5 7.3972-5.6186 13.281-13.147 16.935-21.614 3.6536-8.4675 5.0676-17.852 4.0945-26.955 0.71889 9.1268-0.96126 18.401-4.7935 26.642-3.8318 8.2408-9.8123 15.441-17.146 20.695 0 1e-5 -1e-5 1e-5 -1e-5 1e-5 -7.3331 5.2541-16.02 8.5619-24.922 9.5244h-2e-5c-8.902 0.96387-18.029-0.41594-26.193-3.9274 0-1e-5 -1e-5 -1e-5 -1e-5 -1e-5 -15.193-6.5123-26.751-20.651-30.866-36.476-4.141-15.845-0.98958-33.348 7.6594-47.101 8.6483-13.783 22.762-23.936 38.285-28.534 15.541-4.6155 32.588-3.7447 47.844 1.6372 13.152 4.651 25.096 12.662 34.336 22.974z" fill="url(#am)" fill-rule="evenodd"/>
  <path d="m630.88 254.34 6.8014 7.3308c14.401-13.741 33.34-22.934 53.225-25.725 15.253-2.1335 31.138-0.5752 45.454 5.1269 14.306 5.6929 27.11 15.563 35.724 28.378 8.6122 12.799 13.043 28.623 11.646 44.068-1.386 15.43-8.6778 30.518-20.449 40.77-7.891 6.8854-17.726 11.616-28.11 13.478-10.384 1.8639-21.326 0.86013-31.264-2.9069-9.9376-3.7659-18.868-10.295-25.505-18.694-6.6367-8.3989-10.971-18.659-12.357-29.351 1.1078 10.725 5.1825 21.17 11.691 29.863 6.5091 8.6921 15.432 15.604 25.554 19.745 10.123 4.1397 21.404 5.4914 32.291 3.8295 10.887-1.6637 21.327-6.3326 29.872-13.403 12.739-10.56 20.95-26.302 22.861-42.857 1.9008-16.545-2.3336-33.636-11.326-47.75l-1e-5 -1e-5c-8.9922-14.101-22.492-25.162-37.915-31.745-15.414-6.5754-32.566-8.7661-49.223-6.8514-21.726 2.4871-42.626 11.908-58.973 26.695z" fill="url(#al)" fill-rule="evenodd"/>
  <path d="m503.24 320.2c13.392-22.669 11.547-47.369 15.932-66.699-7.038 16.994-62.834 31.741-49.014 60.499 4.8596 10.113 21.902 9.2573 33.083 6.2002z" fill="url(#ak)"/>
  <path d="m516.64 224.38c1.7445 9.977-0.38563 21.649-1.4696 30.923-11.963 9.799-71.742 34.148-50.186 54.076-17.091-11.511-25.596-26.437-29.535-42.494 19.522-8.2478 42.887-4.2289 55.582-9.84 5.5913-10.581 22.941-21.306 25.608-32.665z" fill="url(#aj)"/>
  <path d="m456.91 230.78c-4.1541 9.413-3.7266 16.466-1.402 23.599l31.674-2.5266 7.815-8.0431c-11.826-1.5043-21.001-2.0703-28.678 1.442-7.9805-4.2196-9.3541-13.535-9.4096-14.471z" fill="#f06"/>
  <path d="m526.76 228.78-3.3382 5.6054c0.40786 7.7379-1.1372 74.155-24.902 105.3 13.607-9.807 14.894-6.4658 21.037-12.085 26.612-24.344 15.855-78.476 7.2032-98.822z" fill="#f06"/>
  <path d="m507.66 229.83c-4.7223-6.1189-12.448-11.194-16.226-12.604-9.7594-2.1423-12.756 9.2668-12.18 21.577 6.1812 0.20466 16.506 1.2563 17.734 2.5221 4.5903-4.8466 8.5842-8.4787 10.672-11.495z" fill="#96003c"/>
  <path d="m491.35 214.29c-17.948-3.4573-14.365 17.673-15.206 24.871-4.7518 0.0188-7.8634 0.43452-10.254 1.2215-18.56-13.176 10.548-40.262 25.46-26.093z" fill="url(#ai)"/>
  <path d="m481.33 207.41c-14.282-3.2256-34.807-7.0823-50.893 2.7278-24.105 14.701-36.914 56.121-22.152 79.711 2.5751 4.1151 6.4884 9.7675 13.352 12.951 11.122 5.1592 27.025-3.7569 27.025-3.7569s-16.184-20.918-15.802-30.683c-11.568-14.876 14.439-5.8614 15.468-11.793-3.9585-31.46 15.632-47.526 33.003-49.158z" fill="url(#aw)"/>
  <path d="m540.74 278.2c1.9463-20.515-5.074-42.982-11.27-58.57-3.713-0.94207-6.4938 8.2019-8.4899 10.591-1.4988-33.466-40.729-39.144-60.889-41.504 7.3458-9.563 13.103-66.077 32.464-66.731 30.527-1.032 32.26 14.942 50.107 18.772 64.501 13.843 65.51 103.16-1.9221 137.44z" fill="url(#av)"/>
  <path d="m401.68 234.34c-25.762-6.568-66.509-24.802-55.593 15.813 10.384 19.035 1.4523 16.153 2.2972 25.188 0.93068 9.9522 13.956 25.863 23.92 34.564 34.705 30.306 80.983 13.854 95.308 10.55-4.3374-7.2392-12.531-12.171-19.845-17.566-24.736 15.84-43.584-2.2167-49.99-18.831-6.4715-16.784-1.5-33.062 3.904-49.719z" fill="url(#au)"/>
  <path d="m455.08 188.87c6.8064-8.7183 4.4871-16.817 8.1866-24.714-75.095-52.683-57.782-0.52059-104.71 3.3995-5.966 18.617-35.842 24.065-38.845 47.131 1.0339 13.644 7.8202 28.961 14.947 39.081 4.1874-2.7233 3.7452-1.9059 7.2012-3.9271-8.063-44.998 38.226-26.695 62.574-20.32 15.19-21.537 29.96-32.466 50.648-40.65z" fill="url(#ah)"/>
  <path d="m503.57 324.34c-34.77 3.8281-105.63 26.886-136-11.413-8.5532 1.2553-20.544 9.3186-19.7 20.843 32.003 11.271 78.535 39.308 108.38 24.083 6.8744-3.5063 30.556-18.31 36.026-17.361 3.1552 0.54761 9.162-14.302 11.286-16.152z" fill="url(#ag)"/>
  <path d="m537.88 304.45c-9.1036 42.172-41.754 32.583-73.766 57.975 0 0-13.564 19.062-24.184 23.465 9.0634 43.871 82.007 0.34604 96.562 6.9128 7.11-11.337 33.704-27.816 44.545-44.154 5.9024-8.8947 5.5288-27.198 4.5755-27.828 1.8028-5.7917-13.581-25.837-47.732-16.372z" fill="url(#at)"/>
  <path d="m540.55 300.31c1.1371-4.6708 0.11492-16.402-0.0552-19.823 22.898-5.3744 50.099-34.805 53.906-62.31 9.2751-2.3094 16.102-2.9472 26.01-6.867 5.5109 26.52 15.323 134.74-31.244 135.11 12.024-42.327-15.488-51.114-48.617-46.11z" fill="url(#as)"/>
  <path d="m362.94 308.96c-11.368-8.6377-30.263-33.852-17.817-43.491 3.5335-2.7366 1.5898-5.4982-2.1037-9.4853-30.064 2.8484-31.525 32.615-45.478 48.045 6.5329 17.86 4.7107 44.137 25.946 51.354 1.42 0.48258 3.7213 2.6226 3.5831 3.0608-3.0214 18.725 11.865 26.368 17.532 13.245 0.8416-2.3431 3.1668-2.2167 4.0804-1.4417 29.102 24.685 83.299 30.208 108.87-4.4656-15.453 7.6985-37.54 7.0818-115.5-25.383-2.1774-4.372-1.6097-9.446 2.7309-15.331 6.9197-9.3819 9.5483-14.121 18.155-16.106z" fill="url(#ar)"/>
  <path d="m510.45 227.28s3.6362-4.5104 4.2788-9.061c-10.212-25.548-57.174-25.449-66.47-16.659 51.086-3.6671 60.909 20.232 62.191 25.72z" fill="url(#aq)"/>
  <path d="m359.79 224.77c-11.882-0.211-19.211 5.4759-13.795 25.629 10.384 19.035 1.4608 16.158 2.3057 25.193 0.93067 9.9522 13.94 25.847 23.904 34.548 34.705 30.305 81 13.862 95.325 10.558-1.3669-2.2814-3.127-4.3518-5.1117-6.2616-20.7 4.0379-50.518 5.71-74.749-15.449-9.964-8.701-22.99-24.637-23.921-34.589-0.8449-9.0352 8.078-6.1576-2.3057-25.193-1.6248-6.0451-2.0976-10.766-1.6531-14.436z" fill="#ff448f"/>
  <path d="m620.39 211.32c-2.7547 1.0897-5.4486 2.132-8.1247 3.1397-0.2285 22.054-5.264 73.747-21.939 102.74 2.474 7.1591 2.3996 16.714-1.1526 29.218 46.567-0.37302 36.728-108.58 31.217-135.1z" fill="#ff448f"/>
  <path d="m429.73 144.58c-18.312-7.4716-26.615-2.8646-34.819 4.1602 9.9138 2.464 23.153 9.3206 42.144 23.04-2.1939 4.7213 1.4071 14.348 3.9103 23.652 4.4175-2.4244 9.1138-4.5763 14.139-6.5641 6.8064-8.7184 4.4609-16.818 8.1604-24.715-14.08-9.8781-24.919-16.058-33.535-19.573z" fill="#ff448f"/>
  <path d="m514.11 125.11c-5.2863-2.1094-11.995-3.4451-21.535-3.1226-4.7842 0.16172-8.7473 3.7491-12.099 9.1813 24.197 1.3519 26.981 15.207 43.422 18.735 57.547 12.35 64.268 84.665 17.222 124.49-0.17675 1.2433-0.12325 2.5706-0.36842 3.8112 67.433-34.284 66.408-123.59 1.9071-137.43-12.27-2.6333-16.919-11.016-28.549-15.656z" fill="#ff448f"/>
  <path d="m503.58 324.34c-8.2948 0.91325-18.743 2.9218-30.105 4.9298-12.487 5.985-25.997 12.893-39.051 19.712-16.7 8.5178-38.642 3.4971-60.32-4.5559 27.987 11.927 59.761 24.849 82.147 13.431 6.8744-3.5063 30.568-18.31 36.037-17.361 3.1552 0.54761 9.1681-14.305 11.292-16.155zm-155.7 9.3225c2e-3 0.0332-9e-3 0.0653-6e-3 0.0986 0.44242 0.1558 0.90726 0.32149 1.3552 0.48356-0.45193-0.19291-0.89919-0.39042-1.3488-0.58218z" fill="#ff448f"/>
  <path d="m335.25 257.51c-22.673 6.8462-25.075 32.56-37.712 46.535 6.533 17.86 4.7142 44.119 25.95 51.336 1.42 0.48257 3.7127 2.6348 3.5746 3.0727-3.0214 18.725 11.888 26.367 17.554 13.244 0.84159-2.3431 3.151-2.2258 4.0646-1.4509 26.504 22.482 73.826 29.075 101.38 3.8783-29.161 18.836-72.278 9.1763-96.005-13.533-0.8655-0.82835-3.1752-1.1107-4.1559 1.1776-6.2186 11.079-50.852-69.749-14.652-104.26z" fill="#ff448f"/>
  <path d="m572.19 305.35c0.57219 4.4138 0.1147 18.883-4.9382 26.498-10.841 16.337-37.43 32.826-44.54 44.164-11.345-5.1183-58.183 20.209-82.576 10.852 9.9483 42.232 81.91-0.56661 96.355 5.9504 7.11-11.337 33.699-27.826 44.54-44.164 5.9024-8.8948 5.5218-27.199 4.5685-27.829 1.0101-3.2452-3.3504-10.975-13.41-15.472z" fill="#ff448f"/>
  <path d="m428.56 211.37c-22.883 15.652-34.649 55.517-20.275 78.487 2.5751 4.1151 6.4915 9.7692 13.355 12.953 11.122 5.1592 27.012-3.7925 27.012-3.7925s-0.25003-0.32581-0.48385-0.63528c-4.2554 1.1681-8.9499 1.6683-13.191 0.16874-7.133-2.5219-11.577-7.7886-14.529-11.642-15.203-19.847-9.5754-56.111 8.1127-75.539z" fill="#ff448f"/>
  <path d="m624.24 318.56c-1.5914 4.4572-3.558 17.952-12.67 24.167 5.055 0.88879 23.119 28.342 23.119 28.342-10.532-9.741-20.968-23.409-28.838-24.92-4.0581 4.5653-19.224 6.9785-23.666 6.3483-2.3353 7.0216-17.02 16.226-20.507 22.313 10.49 18.977 75.229 11.899 88.293 23.8-3.5269-27.623-9.1276-56.521-25.731-80.051z" fill="url(#ap)"/>
  <path d="m635.25 276.44 2.9592 9.5521c17.438-5.6104 33.398-15.278 46.595-27.763 13.205-12.477 23.692-27.813 30.206-44.742 6.4999-16.934 8.9503-35.263 7.5128-53.209-1.4295-17.946-6.7525-35.572-15.769-51.104-9.251-15.916-22.124-29.587-37.187-39.972-9.8663-6.836-21.021-12.352-33.067-14.117-14.569-2.0972-29.801 1.7399-41.555 10.393 0 2e-6 0 5e-6 -1e-5 7e-6 -8.3102 6.1231-14.846 14.554-18.696 24.065 0 8e-6 0 1.5e-5 -1e-5 2.2e-5 -3.8486 9.5119-4.993 20.058-3.3002 30.116v1e-5c1.6938 10.058 6.2179 19.587 12.888 27.222 6.6708 7.6342 15.467 13.349 25.089 16.34-9.5558-3.1976-18.168-9.0816-24.593-16.764-6.4256-7.6822-10.655-17.152-12.095-27.001v-3e-5c-1.4407-9.8489-0.0911-20.072 3.8177-29.159 3.9074-9.0879 10.375-17.043 18.415-22.701 11.351-7.9948 25.916-11.284 39.488-9.0201 11.265 1.8473 21.722 7.3767 31.132 14.137 14.332 10.349 26.424 23.778 34.913 39.155 8.2704 14.962 12.945 31.844 13.94 48.867v2e-5c0.98625 17.023-1.7049 34.252-8.1197 49.904-6.4008 15.658-16.526 29.747-29.042 41.085-12.523 11.33-27.487 19.953-43.531 24.715z" fill="url(#af)" fill-rule="evenodd"/>
  <path d="m636.04 275.46 3.1616 9.4871c22.572-7.9134 42.197-23.357 55.124-43.187 12.917-19.837 18.98-43.821 17.136-67.173-1.0325-13.023-4.464-25.792-9.9841-37.54-3.654-7.8266-8.4018-15.37-14.907-21.287-7.3074-6.6417-16.938-10.886-26.809-10.852h-2e-5c-7.3695 0.0446-14.643 2.519-20.465 6.9146-5.8202 4.3979-10.13 10.673-12.145 17.606-2.0139 6.9337-1.7176 14.469 0.78783 21.161 2.5063 6.6916 7.2058 12.498 13.154 16.322-5.8227-4.0117-10.273-9.9225-12.516-16.549-2.2437-6.6266-2.2752-13.955-0.13172-20.536 2.1416-6.5818 6.4569-12.416 12.05-16.365 5.5916-3.9513 12.472-6.0258 19.241-5.8468 9.0734 0.21444 17.827 4.5004 24.37 10.787 5.8589 5.625 10.043 12.871 13.341 20.464 4.9325 11.434 7.807 23.725 8.3878 36.08v1e-5c1.0466 22.123-5.4527 44.491-17.994 62.447-12.531 17.962-31.142 31.576-51.8 38.069z" fill="url(#ae)" fill-rule="evenodd"/>
  <path d="m435.92 406.95c-1.8774 4.9075-4.1039 9.6794-6.6514 14.266l-1e-5 2e-5c-7.5215 13.536-17.864 25.499-30.275 34.622-12.408 9.1275-26.857 15.395-41.901 18.517-15.045 3.117-30.736 3.0973-45.622-0.31757-14.888-3.4065-28.959-10.204-41.052-19.486-12.089-9.287-22.241-21.09-29.313-34.479l-2e-5 -1e-5c-6.9641-13.378-11.156-28.681-7.8428-42.634 1.6042-6.9695 4.9501-13.56 9.889-18.424 4.9116-4.8468 11.468-8.1384 18.118-8.6041 5.2543-0.408 10.691 0.8699 15.186 3.5507l3e-5 1e-5c4.501 2.6717 8.1887 6.8198 10.308 11.567 2.1288 4.7424 2.7535 10.223 1.7611 15.289-0.98123 5.0682-3.6081 9.8797-7.3096 13.427l7.0065 7.135c5.1167-5.1125 8.5562-11.732 9.8038-18.82 1.2364-7.0902 0.24471-14.449-2.7989-20.931-3.0536-6.4776-8.076-11.9-14.264-15.432-6.1937-3.5226-13.388-5.0595-20.446-4.3898-8.9194 0.89704-17.149 5.1643-23.208 11.447-6.0342 6.2677-9.9401 14.232-11.644 22.539-3.3005 16.594 1.4556 33.454 9.3611 47.568 7.8336 14.168 18.816 26.464 31.755 36.022 12.935 9.5628 27.865 16.416 43.58 19.718 15.717 3.2934 32.078 3.0058 47.649-0.52462 15.572-3.526 30.4-10.306 43.058-19.974h1e-5c12.654-9.6723 23.041-22.158 30.479-36.149 2.3531-4.4244 4.4136-9.0038 6.1608-13.696" fill="url(#ad)" fill-rule="evenodd"/>
  <path d="m301.33 283.61c5.5676-17.94 19.489-23.329 20.726-25.224-31.14-12.354-48.754-28.325-56.125-39.818-0.98244-1.5317 40.684 33.04 60.086 33.628-17.692-41.421-8.9833-49.474-5.199-54.565-15.3-22.98-87.613-20.913-103.04-24.44 21.89 20.897 33.265 110.95 83.55 110.42z" fill="url(#an)"/>
  <path d="m288.48 177.23c-16.559-29.414 23.256-53.208 33.783-72.156 11.428 28.384 34.412 38.41 22.63 73.755-8.2991 4.6121-16.807 11.105-19.608 14.127-3.9395-3.7007-9.4238-7.5581-14.439-10.512-1.0292-0.57843 1.3369-41.72 5.3003-45.438-2.5754-0.42384-12.132 45.112-8.7341 44.143-5.8303-2.3552-11.097-3.7572-18.932-3.9201z" fill="url(#ao)"/>
 </g>
</svg>
