<?xml version='1.0' encoding='utf-8'?>
<svg xmlns="http://www.w3.org/2000/svg" version="1.1" width="600px" height="976px" viewBox="0 0 600 976"> <g id="layer1"> <g style="fill:rgb(0,0,0); fill-opacity:1.0; stroke-linejoin: miter"> <path d="M459.9927,203.95375C460.7708,203.95375,461.6341,205.17555,464.03253,209.32928C465.55264,211.96509,466.5957,213.68794,467.54037,214.9479L467.5357,214.9479C467.09418,215.04056,466.6422,215.13457,466.1795,215.23C465.24902,215.42305,464.34872,215.61469,463.47766,215.80525L463.47766,215.80525C463.35535,215.361,463.23328,214.94081,463.11224,214.5492C462.62927,212.93518,461.54053,210.16388,460.71313,208.405C459.02295,204.81186,458.90918,204.37433,459.58765,204.05524C459.72516,203.99055,459.85767,203.95375,459.9927,203.95375 Z M443.18127,222.62593C443.21008,222.62593,443.23895,222.6275,443.2679,222.63063L443.26346,222.63063C443.24475,222.64304,443.2261,222.65544,443.20752,222.66786C442.77942,222.94736,442.32962,223.28374,441.85492,223.68002L441.85492,223.68002C442.3456,222.96652,442.75723,222.62593,443.18127,222.62593 Z M438.164,227.38194C436.92245,228.79057,435.54593,230.48047,434.00735,232.47772L434.00735,232.47772C433.07965,230.44133,433.6641,230.18407,435.86267,228.90135C436.62985,228.46178,437.41696,227.93712,438.15964,227.38194 Z M407.72897,235.97688C408.931,235.97688,416.1663,241.6073,419.77847,245.39696C420.68625,246.3454,421.46738,247.203,422.1645,248.02434L422.16028,248.02434C417.81976,252.94453,413.2967,256.92468,409.66806,258.83258C406.08887,260.6738,405.1567,261.04965,400.6953,261.1418L400.6953,261.1418C399.5934,260.72815,399.24045,260.44806,399.01993,259.97925C398.4644,258.79828,398.96866,256.9347,401.09323,252.25294C404.20102,245.42097,405.5198,242.22293,406.05075,240.28545C406.32285,239.29823,406.71622,237.91641,406.8937,237.24991C407.12442,236.4356,407.38315,236.00705,407.70682,235.97757C407.71396,235.97711,407.72134,235.97688,407.72897,235.97688 Z M197.825,327.875C197.92032,327.875,198.01563,328.06567,198.01563,328.35156C198.01563,328.58984,197.77734,328.82813,197.49141,328.82813C197.25313,328.82813,197.1578,328.58984,197.30078,328.35156C197.44376,328.06567,197.68204,327.875,197.825,327.875 Z M198.63516,317.8672C198.82578,317.8672,198.87344,319.8211,198.68282,322.2516C198.34921,326.30237,198.2539,326.6836,196.87187,327.92267C196.06172,328.68518,194.53671,329.49536,193.48828,329.78125C189.05624,330.92505,187.43594,331.78284,186.48282,333.4508C185.99022,334.25684,185.49763,334.93665,185.40045,334.93665C185.39421,334.93665,185.38959,334.93384,185.38672,334.9281C185.14844,334.68982,186.05391,330.11487,186.62578,328.7328C187.00703,327.8274,187.76953,327.2555,189.15157,326.77893C190.77188,326.2547,191.48672,325.58752,193.3453,322.8235C195.29922,319.91638,197.49141,317.8672,198.63516,317.8672 Z M172.18234,348.25787C172.30733,348.26016,172.78984,348.7474,173.75859,349.79688C174.80704,350.98828,175.99844,352.5609,176.37968,353.3711C176.64857,353.90887,176.76485,354.1953,176.67007,354.1953C176.5465,354.1953,176.06398,353.70822,175.09297,352.65625C174.04453,351.46484,172.85312,349.8922,172.47188,349.08203C172.20381,348.5459,172.08742,348.2596,172.18063,348.25787 Z M197.74036,349.67392C197.8138,349.67392,197.858,350.0047,197.92032,350.60706C198.01563,351.41724,197.72969,353.27576,197.30078,354.75317C196.87187,356.23047,196.44296,357.42188,196.34766,357.42188C196.10938,357.42188,196.53828,354.2766,197.20547,351.46484C197.50122,350.22812,197.64528,349.67392,197.74036,349.67392 Z M197.30078,329.78125C197.87265,329.78125,198.01563,330.78204,198.06328,335.35706C198.06328,338.4547,198.20625,342.31482,198.30156,343.9828C198.49219,346.69922,198.39688,347.12817,197.30078,348.46252C194.48906,351.79846,193.10703,356.18286,192.1539,364.71326L191.53438,370.05078L190.00937,365.85706C189.15157,363.52185,187.67422,359.75708,186.7211,357.5172L184.91016,353.3711L184.91016,345.1266C184.91016,337.35864,184.95781,336.83435,185.86328,336.31018C186.3875,336.02423,187.15,335.73828,187.53125,335.73828C187.9125,335.69067,188.72266,335.64294,189.24687,335.59534C189.81876,335.54767,191.725,334.21326,193.44063,332.64063C195.2039,331.068,196.91953,329.78125,197.30078,329.78125 Z M198.62433,361.7834C198.6761,361.7834,198.75095,362.4946,198.82578,363.6172C198.96875,365.04688,198.82578,369.14532,198.53984,372.67188C197.87265,381.2024,196.9672,388.875,196.63359,388.875C196.39531,388.875,194.10782,379.72498,193.39297,375.9602C193.25,375.10236,193.53593,374.29224,194.4414,373.1961C195.63281,371.8141,198.34921,364.3797,198.5875,361.94922C198.59773,361.8366,198.61017,361.7834,198.62433,361.7834 Z M184.3925,403.73215C184.42088,403.73215,184.45107,403.75116,184.48125,403.79138C184.62422,403.9344,184.67188,404.36328,184.5289,404.6969C184.47404,404.84317,184.41919,404.9123,184.3724,404.9123C184.29727,404.9123,184.24297,404.73404,184.24297,404.41095C184.20537,403.99738,184.28642,403.73215,184.3925,403.73215 Z M185.34563,407.06808C185.37401,407.06808,185.40419,407.0871,185.43437,407.12732C185.57735,407.27032,185.625,407.69922,185.48203,408.03284C185.42717,408.1791,185.37231,408.24823,185.32553,408.24823C185.2504,408.24823,185.19609,408.06998,185.19609,407.7469C185.1585,407.3333,185.23955,407.06808,185.34563,407.06808 Z M321.19455,413.39432C321.22604,413.39432,321.26233,413.4333,321.30234,413.5133C321.39764,413.84692,321.39764,414.41876,321.30234,414.7047C321.259,414.80585,321.22003,414.85443,321.18677,414.85443C321.11032,414.85443,321.06406,414.59778,321.06406,414.1328C321.06406,413.65234,321.1135,413.39432,321.19455,413.39432 Z M591.41125,413.39432C591.44275,413.39432,591.479,413.4333,591.51904,413.5133C591.6143,413.84692,591.6143,414.41876,591.51904,414.7047C591.4757,414.80585,591.4367,414.85443,591.40344,414.85443C591.327,414.85443,591.28076,414.59778,591.28076,414.1328C591.28076,413.65234,591.3302,413.39432,591.41125,413.39432 Z M187.25188,416.59933C187.28026,416.59933,187.31044,416.61835,187.34062,416.65857C187.4836,416.80157,187.53125,417.23047,187.38828,417.5641C187.33342,417.71036,187.27856,417.77948,187.23178,417.77948C187.15665,417.77948,187.10234,417.60123,187.10234,417.27814C187.06474,416.86456,187.1458,416.59933,187.25188,416.59933 Z M321.6716,416.43494C321.703,416.43494,321.7391,416.49155,321.7789,416.61096C321.8742,417.08752,321.8742,417.84998,321.7789,418.27893C321.73676,418.41934,321.6988,418.4853,321.66614,418.4853C321.58804,418.4853,321.54062,418.10745,321.54062,417.46875C321.54062,416.81537,321.59024,416.43494,321.6716,416.43494 Z M591.8883,416.43494C591.9197,416.43494,591.9558,416.49155,591.9956,416.61096C592.0909,417.08752,592.0909,417.84998,591.9956,418.27893C591.9534,418.41934,591.91547,418.4853,591.8828,418.4853C591.8047,418.4853,591.7573,418.10745,591.7573,417.46875C591.7573,416.81537,591.8069,416.43494,591.8883,416.43494 Z M485.012,413.47015L484.72134,418.66016L484.40927,415.68118L484.40442,415.68118C484.60684,414.9483,484.80792,414.21075,485.00714,413.47015 Z M435.6241,415.74875C436.15903,416.2881,436.84296,417.07285,437.61063,418.06192L437.60626,418.06192C437.38977,418.2719,437.1622,418.4917,436.923,418.7223C436.80603,418.83435,436.68933,418.94724,436.5731,419.06067L436.5731,419.06067C436.19885,418.29184,435.81052,417.57745,435.4115,416.9298L435.40714,416.9298C435.48804,416.4998,435.55975,416.10196,435.61975,415.74875 Z M510.84525,412.65213C511.1459,413.2373,511.42438,413.80557,511.6773,414.35074L511.67218,414.35074C511.6871,414.51428,511.7104,414.69574,511.74246,414.89532C512.2759,418.26437,512.5116,419.5494,512.38135,419.5494C512.2905,419.5494,512.0217,418.92435,511.55182,417.9453C510.7531,416.2653,510.46375,415.12643,510.84012,412.65213 Z M187.75755,419.77087C187.78893,419.77087,187.82504,419.82748,187.86484,419.9469C187.96016,420.42346,187.96016,421.1859,187.86484,421.61487C187.82271,421.75528,187.78473,421.82123,187.75209,421.82123C187.67398,421.82123,187.62656,421.4434,187.62656,420.8047C187.62656,420.1513,187.6762,419.77087,187.75755,419.77087 Z M308.8021,408.8828L308.8021,408.8828C310.42264,416.10156,311.40305,422.41425,311.4375,426.23755C311.4375,426.92346,311.42307,427.32813,311.28763,427.32813C311.0749,427.32813,310.56357,426.32977,309.34064,423.85474C307.88315,420.97446,304.80844,416.67914,302.82135,414.53836L302.81833,414.53836C304.32007,412.95465,306.2831,411.10635,308.799,408.8828 Z M509.50467,422.93475C509.69397,422.93475,509.95374,423.9642,510.39288,426.3406L510.3878,426.3406C510.07684,426.60318,509.74005,426.86853,509.37656,427.1388C509.2124,427.25943,509.05292,427.37796,508.898,427.49463L508.898,427.49463C508.9453,426.74838,509.0038,426.02313,509.0737,425.33203C509.21457,423.81796,509.32938,422.93475,509.50467,422.93475 Z M301.12048,418.06302C301.26984,418.06302,301.56754,418.408,302.1922,419.13672C302.85938,419.89923,304.0031,421.7578,304.76563,423.1875C306.1113,425.84348,307.22015,429.20996,307.95532,432.77853L307.95532,432.77853C307.1276,431.91632,305.97815,430.82913,304.38156,429.32834C304.1138,429.08243,303.85794,428.84637,303.61353,428.61957L303.6105,428.61957C303.23468,426.9064,302.817,425.31415,302.3828,423.99768C301.57263,421.7102,300.95313,419.3274,300.95313,418.7555C300.97476,418.30127,300.9964,418.06302,301.12048,418.06302 Z M493.92645,359.15643C496.46796,359.15643,497.1715,361.7993,498.41226,375.71707C500.0222,393.88107,500.93686,397.1932,506.50504,405.38794C506.97107,406.07468,507.42596,406.7699,507.8652,407.46542L507.86014,407.46542C506.983,409.87372,506.18915,412.43118,505.5948,414.89532C504.9276,417.7547,503.68854,421.3766,502.92606,422.94922C502.13748,424.5001,501.78387,425.19556,501.66528,425.19556C501.56888,425.19556,501.62778,424.73584,501.73465,423.90234C502.4495,419.0891,502.6401,416.51563,502.35416,415.70544C502.2155,415.38855,502.10977,415.21982,501.9857,415.21982C501.8112,415.21982,501.6003,415.5533,501.21042,416.27734C500.78152,417.03986,499.97134,418.99377,499.39948,420.5664L498.30338,423.42578L498.30338,419.85156C498.25574,414.75232,496.0159,407.0797,494.1573,405.50708C493.86768,405.26572,493.6422,405.13742,493.48016,405.13614L493.47522,405.13614C493.00278,405.13995,493.07782,406.2418,493.68073,408.7953C494.8245,413.9422,495.1104,418.42188,494.49088,423.28284C493.97705,427.3507,492.53983,433.68857,492.1843,433.68857C492.14413,433.68857,492.11777,433.6077,492.10806,433.4336C491.15494,415.32422,490.48776,408.7953,489.48697,407.22266C489.1534,406.6985,488.7245,405.07813,488.53384,403.64844C488.4029,402.61703,488.24942,401.78806,488.07538,401.1732L488.0705,401.1732C489.31656,395.7092,490.314,390.5926,490.86523,386.5333C491.4666,382.3846,491.9137,374.98917,491.88974,370.15262C491.84082,360.27225,492.0426,359.16568,493.90817,359.15646C493.91428,359.15643,493.92038,359.15643,493.92645,359.15643 Z M194.91797,418.1836L195.06094,423.1875C195.1086,425.95154,195.01328,429.47815,194.775,431.05078L194.39375,433.91016L194.0125,428.52502C193.72656,424.56958,193.82187,422.52032,194.29843,420.66174L194.91797,418.1836 Z M436.51462,383.6841C437.62607,383.6841,438.37527,384.3904,438.97122,385.82288C440.30005,389.06372,442.459,406.4651,442.13406,410.61243C441.89697,412.95114,441.6528,413.85794,439.84183,415.81433L439.84183,415.81433C437.70322,413.73,435.3255,412.14346,432.87137,411.22583C431.48932,410.70154,429.63074,409.55786,428.77292,408.74768L427.24792,407.27032L427.24792,409.7484C427.24792,411.01956,427.35794,411.81393,427.75998,412.67755L427.7557,412.67755C427.73636,413.5888,427.83813,414.93616,428.0579,416.6976L428.0579,416.6976L427.2956,415.80078L427.24792,419.04138C427.24792,421.61487,427.4862,422.7586,428.487,424.71252C428.68716,425.1062,428.8948,425.5802,429.10522,426.1162L429.10092,426.1162C429.09122,427.9612,428.84103,429.63425,428.3383,431.90857L427.5281,435.67346L426.67032,431.6703C426.19376,429.47815,425.62186,423.95,425.38358,419.23206C424.95468,411.1781,424.33514,407.46094,423.4297,407.46094C422.90546,407.46094,422.1906,410.08203,421.76172,413.5133C421.57108,414.89532,421.2375,416.03906,420.9992,416.03906C420.76093,416.03906,420.5703,416.37268,420.5703,416.7539C420.5703,417.04932,420.39862,417.23032,420.1439,417.23032C420.06992,417.23032,419.98892,417.21503,419.9031,417.18286C419.776,417.1352,419.6489,417.11398,419.5306,417.11398C419.29413,417.11398,419.09296,417.1987,418.99765,417.3258C418.85468,417.5641,419.09296,420.66174,419.56952,424.1883C419.9737,427.32056,420.18933,430.95844,420.22372,434.10986L420.22372,434.10986C420.05627,433.02448,419.5218,431.87134,418.556,430.52988L418.55182,430.52988C418.54153,430.04004,418.5313,429.53082,418.5211,429.0016C418.3781,421.9961,418.0922,415.5149,417.8539,414.60938C417.56433,413.45114,417.11484,412.85995,416.59372,412.85995C416.17145,412.85995,415.70212,413.2482,415.23282,414.03748C414.60022,415.1029,413.73502,420.1226,413.25476,424.8064L413.25476,424.8064C412.5022,424.06412,411.8493,423.38596,411.2803,422.72742L411.2762,422.72742L413.2789,416.7539C414.75626,412.17896,415.85233,408.31873,415.70938,408.12817C415.56693,407.99463,415.41785,407.9243,415.25494,407.9243C414.54587,407.9243,413.57532,409.25723,411.7539,412.5125L409.3711,416.7539L409.22812,413.03674C409.1328,410.98755,409.4664,407.3656,409.89532,404.93518C410.32422,402.5047,410.80078,399.97888,410.8961,399.21643C411.056,398.31696,410.9141,397.89536,410.604,397.89536C410.17477,397.89536,409.42328,398.70316,408.70392,400.16956C407.95352,401.70496,407.3178,403.2795,406.79672,404.8905L406.79672,404.8905C405.89917,390.8237,405.76764,391.16898,414.32672,390.367C421.16418,389.78027,429.3063,387.529,432.61185,385.30157C434.28564,384.22772,435.53952,383.6841,436.51462,383.6841 Z M563.9612,435.99658L563.926,436.29297L563.88934,436.1172L563.8837,436.1172C563.9076,436.0772,563.9316,436.037,563.95557,435.99658 Z M200.51163,438.4494C200.55331,438.4494,200.61288,438.55664,200.68437,438.77112C200.82735,439.10474,200.68437,439.72424,200.39844,440.2008C200.13632,440.6059,200.00528,440.80844,199.96953,440.80844C199.93379,440.80844,199.99336,440.6059,200.1125,440.2008C200.25546,439.72424,200.39844,439.057,200.44609,438.77112C200.44609,438.55664,200.46992,438.4494,200.51163,438.4494 Z M233.0588,438.5299C233.08382,438.5299,233.11104,438.60773,233.13828,438.77112C233.23358,439.39063,233.23358,440.34375,233.13828,440.91565C233.10986,441.10028,233.08147,441.18756,233.05557,441.18756C232.99463,441.18756,232.94766,440.7035,232.94766,439.8672C232.94766,439.0162,232.99629,438.5299,233.0588,438.5299 Z M503.27548,438.5299C503.3005,438.5299,503.32773,438.60773,503.35495,438.77112C503.45026,439.39063,503.45026,440.34375,503.35495,440.91565C503.32654,441.10028,503.29813,441.18756,503.27225,441.18756C503.2113,441.18756,503.16434,440.7035,503.16434,439.8672C503.16434,439.0162,503.21298,438.5299,503.27548,438.5299 Z M365.9919,439.30994C366.02332,439.30994,366.05942,439.36655,366.0992,439.48596C366.19452,439.96252,366.19452,440.72498,366.0992,441.15393C366.05707,441.29434,366.0191,441.3603,365.98645,441.3603C365.90836,441.3603,365.86093,440.98245,365.86093,440.34375C365.86093,439.69037,365.91055,439.30994,365.9919,439.30994 Z M636.2086,439.30994C636.24,439.30994,636.2761,439.36655,636.3159,439.48596C636.4112,439.96252,636.4112,440.72498,636.3159,441.15393C636.27374,441.29434,636.2358,441.3603,636.2031,441.3603C636.125,441.3603,636.07764,440.98245,636.07764,440.34375C636.07764,439.69037,636.1272,439.30994,636.2086,439.30994 Z M164.30934,414.9078L164.30934,414.9078C164.66685,414.90985,166.01392,416.23218,167.70625,418.46954C171.70938,423.807,173.94922,429.85938,174.56876,437.29376C174.92213,440.98477,174.91965,441.76404,173.52165,441.76404C173.22295,441.76404,172.8605,441.72845,172.42422,441.6781C171.08984,441.53516,171.08984,441.48755,170.94687,437.96094C170.66093,430.6219,168.18282,421.66248,165.08516,416.7539C164.27124,415.48572,164.0738,414.90915,164.30771,414.9078 Z M209.6873,422.80438C209.68877,422.80438,209.69014,422.805,209.6914,422.80627C209.73906,422.9016,209.6914,427.19067,209.54843,432.33752L209.35782,441.77344L207.49922,441.77344C205.68828,441.77344,205.64063,441.72583,205.64063,440.15314C205.64063,439.24768,206.40312,435.86407,207.35625,432.6234C208.26172,429.3828,209.16719,425.85626,209.31015,424.71252C209.44933,423.6456,209.63365,422.80438,209.6873,422.80438 Z M239.28801,422.93475C239.58725,422.93475,240.0627,425.5078,241.14453,431.90857C241.8117,435.8164,242.33594,439.6289,242.33594,440.39142C242.33594,441.6305,242.19296,441.77344,240.71562,441.77344L239.14297,441.77344L238.80937,438.86646C238.42813,435.10156,238.42813,429.5735,238.85703,425.33203C238.99788,423.81796,239.1127,422.93475,239.28801,422.93475 Z M343.0283,376.7724C343.14706,376.7724,343.26016,376.79156,343.36786,376.83014C345.0881,377.49933,350.188,386.48337,354.6884,396.09357L354.68484,396.09357C354.09558,396.1599,354.4713,398.27502,356.1867,404.125C356.90155,406.60315,357.807,409.9867,358.14063,411.60706C358.7125,414.3711,358.66486,414.80005,357.66406,417.46875C357.10284,419.01202,356.5417,420.23413,356.43082,420.23413C356.4287,420.23413,356.42676,420.23367,356.425,420.2328C356.37732,420.1375,356.6156,418.61255,356.9969,416.80157C357.5047,414.28918,357.51785,413.00595,357.09518,413.00235L357.0916,413.00235C356.75995,413.00516,356.16306,413.78702,355.32892,415.3719C354.58984,416.80896,354.1603,417.58276,354.00983,417.58276C353.811,417.58276,354.0994,416.2318,354.8047,413.27502C355.82462,409.0254,355.96872,406.76315,355.3772,406.7586L355.37366,406.7586C354.96933,406.76166,354.22488,407.80936,353.1844,409.9867C349.94373,416.65857,346.65546,428.33435,345.98828,435.57813C345.425,441.7272,345.4165,441.77344,343.59488,441.77344L341.79453,441.77344L342.1281,439.4383C342.7,435.2445,345.65466,424.0453,348.51404,415.32422C352.03778,404.70544,352.2785,403.65012,351.28055,403.64844L351.27704,403.64844C350.37042,403.6518,347.60776,407.79633,345.5594,412.13123C344.65018,414.07092,344.01077,415.0469,343.66574,415.0469C343.46823,415.0469,343.3672,414.7271,343.3672,414.0852C343.3672,412.87396,342.62115,411.46637,342.05573,411.46637C341.99823,411.46637,341.94263,411.48093,341.88983,411.51172C341.65155,411.7024,341.46094,413.03674,341.46094,414.51404C341.46094,415.99146,341.03204,419.04138,340.55548,421.28125C339.60236,425.42737,335.5992,437.818,334.97968,438.3899C334.94662,438.41467,334.91934,438.42654,334.89774,438.42654C334.7948,438.42654,334.8221,438.15604,334.97968,437.72266C336.07578,434.67267,338.64923,425.61798,339.4117,422.18677C340.84705,415.28775,340.34805,405.19482,338.57025,405.19482C338.51825,405.19482,338.46512,405.20346,338.41095,405.22107C338.125,405.3164,337.74374,407.12732,337.60077,409.41486C337.45782,411.60706,337.0289,414.7047,336.64764,416.27734L336.02814,419.13672L335.69452,415.80078C335.31647,412.07413,334.61703,410.04605,334.02115,410.04605C333.56546,410.04605,333.17032,411.2321,333.02576,413.7516C332.78748,417.80237,331.6914,423.04456,330.0711,428.1914C329.28424,430.66437,328.9448,431.69568,328.78894,431.69568C328.6805,431.69568,328.66098,431.19635,328.64142,430.33594C328.40314,421.09064,324.87656,407.60388,320.63513,399.97888C320.45648,399.6537,320.28534,399.35004,320.1214,399.06763L320.11823,399.06763C328.35483,391.84464,332.64386,387.73892,335.11594,384.81693C336.76462,382.87415,339.10046,380.1678,340.19946,378.8496C341.37915,377.47928,342.30743,376.7724,343.0283,376.7724 Z M359.5119,423.37537C359.68985,423.37537,359.86243,426.8467,359.95154,431.52734C359.9992,436.48364,359.95154,440.8203,359.85626,441.15393C359.71326,441.48755,358.95078,441.77344,358.14063,441.77344C356.80624,441.77344,356.71094,441.6781,356.71094,439.96252C356.71094,437.43677,358.66486,425.8086,359.47498,423.42578C359.4873,423.3919,359.4996,423.37537,359.5119,423.37537 Z M420.2273,435.44205L420.2273,435.44205C420.20566,439.07162,419.91855,441.77344,419.3789,441.77344C419.14044,441.77344,418.97357,441.04565,418.8425,439.0826L418.8383,439.0826C419.53247,437.74863,420.0539,436.40842,420.22308,435.44205 Z M479.8078,430.71582C479.79468,431.24377,479.78043,431.78574,479.7651,432.33752L479.5745,441.77344L477.7159,441.77344C475.9212,441.77344,475.8583,441.72668,475.8573,440.19513L475.85254,440.19513C476.11157,439.70978,476.3798,439.16788,476.68198,438.56314C477.59286,436.73334,478.6629,434.0109,479.803,430.71582 Z M629.7286,423.37537C629.9065,423.37537,630.0791,426.8467,630.1682,431.52734C630.2159,436.48364,630.1682,440.8203,630.07294,441.15393C629.92993,441.48755,629.1675,441.77344,628.3573,441.77344C627.02295,441.77344,626.9276,441.6781,626.9276,439.96252C626.9276,437.43677,628.88153,425.8086,629.69165,423.42578C629.704,423.3919,629.7163,423.37537,629.7286,423.37537 Z M659.33386,423.42578L660.287,426.52344C660.8112,428.23907,661.669,431.6703,662.19324,434.24377C662.71747,436.76953,663.14636,439.48596,663.14636,440.29614C663.14636,441.6781,663.0034,441.77344,661.4784,441.77344L659.8104,441.77344L659.8104,437.818C659.8104,435.67346,659.6675,431.52734,659.57214,428.66797L659.33386,423.42578 Z M678.06274,435.33984L678.9206,437.72266C679.39716,439.0094,679.7784,440.4867,679.7784,440.91565C679.82605,441.43982,679.49243,441.77344,678.9206,441.77344C677.77686,441.77344,677.2526,439.72424,677.7292,437.15076L678.06274,435.33984 Z M571.33716,418.06302C571.4865,418.06302,571.7842,418.408,572.4089,419.13672C573.07605,419.89923,574.2198,421.7578,574.9823,423.1875C576.7932,426.76172,578.1753,431.62268,578.7948,436.53125C579.3994,441.5411,579.5344,441.77594,577.9228,441.77594C577.7561,441.77594,577.5707,441.77344,577.3651,441.77344C575.88776,441.77344,575.45886,441.58282,575.45886,440.91565C575.3635,436.15002,574.07684,428.47736,572.5995,423.99768C571.7893,421.7102,571.1698,419.3274,571.1698,418.7555C571.1914,418.30127,571.2131,418.06302,571.33716,418.06302 Z M322.1952,420.73337C322.24408,420.73914,322.31268,421.00507,322.39844,421.51953C322.58905,422.80627,322.82733,427.66724,322.82733,432.2422C322.8701,438.73743,322.56796,441.89914,321.98972,441.89914C321.92307,441.89914,321.85278,441.85715,321.7789,441.77344C321.63593,441.6305,321.7789,439.15234,321.96954,436.29297C322.20782,433.386,322.3031,428.38208,322.20782,425.09375C322.07562,422.1525,322.08093,420.7467,322.19196,420.73337 Z M592.4132,420.73358L592.4132,420.73358C592.46204,420.74408,592.53015,421.00983,592.6151,421.51953C592.8057,422.80627,593.044,427.66724,593.044,432.2422C593.0868,438.73743,592.78467,441.89914,592.2064,441.89914C592.1398,441.89914,592.06946,441.85715,591.9956,441.77344C591.8526,441.6305,591.9956,439.15234,592.1862,436.29297C592.4245,433.386,592.5198,428.38208,592.4245,425.09375C592.29285,422.16428,592.29755,420.75797,592.4073,420.73358 Z M449.53192,126.470825C449.47507,126.470825,449.4182,126.4713,449.36145,126.47225C444.08078,126.53198,439.95718,127.551094,437.70303,129.34785C435.6514,130.98805,434.78488,133.45164,432.62244,143.8589C431.96274,147.02306,431.2809,150.0749,431.0931,150.65419C430.72934,151.83797,429.30588,153.18262,425.1198,156.2871C421.18646,159.21129,419.02698,161.2091,418.00537,162.8864C417.16577,164.23267,416.42773,167.03471,415.50018,172.04326C414.77246,175.97592,413.36334,179.8302,411.90137,181.74536C410.735,183.24525,410.55762,183.39006,408.04492,184.572C405.5323,185.75394,405.19525,185.82042,400.7481,186.34727C396.6127,186.81952,395.78793,187.02339,393.4039,188.02203C390.3428,189.27782,388.6608,190.52934,386.60165,193.0016C382.88968,197.57074,380.04623,206.33443,379.03354,216.4463C378.23117,224.52608,378.56744,229.15504,380.30905,234.22755C382.4436,240.5269,382.34875,242.41277,379.6391,246.11159C376.97147,249.71039,376.40607,251.26459,377.16052,256.70233L377.16052,256.70233C369.43005,254.18935,367.1832,253.83542,361.34454,253.61319C360.31528,253.5664,359.33484,253.54211,358.3929,253.54211C351.8085,253.54211,347.10672,254.72932,340.7745,257.72263C327.60904,264.1445,312.00763,280.94284,299.12537,302.70255C288.84714,320.0964,284.75494,330.89554,283.36963,344.16867C281.5855,360.62222,279.39502,364.77878,269.40344,370.28677C257.48206,376.77158,255.76907,379.6821,249.8667,401.68362C249.57542,402.77588,249.29683,403.82632,249.0309,404.83737L249.0309,404.83737C249.0231,404.82248,249.01541,404.80743,249.00781,404.79224C248.60522,404.06757,248.05148,403.67545,247.64453,403.67545C247.3289,403.67545,247.10156,403.91135,247.10156,404.41095C247.10156,404.65436,247.51595,406.12558,248.15312,408.2237L248.15063,408.2237C247.7261,409.8804,247.34256,411.4186,247.0001,412.852L247.0001,412.852C246.19115,410.82477,245.38051,409.12393,244.62344,407.9375L243.52734,406.26953L243.38437,407.84216C243.2414,409.1289,244.24219,415.03833,245.00468,417.8977C245.02982,417.97308,245.03433,418.00873,245.02081,418.00873C244.95743,418.00873,244.49777,417.22577,243.9086,416.08673C242.95198,414.20084,242.16779,413.2084,241.75381,413.2084C241.44598,413.2084,241.34286,413.75717,241.52579,414.89532C242.05922,418.26437,242.29494,419.5494,242.16472,419.5494C242.0739,419.5494,241.80508,418.92435,241.33514,417.9453C239.95313,415.03833,240.0961,413.7516,242.57422,404.36328C243.71796,399.93127,244.57578,396.2141,244.48047,396.11877C244.37729,396.0156,244.25832,395.96594,244.12541,395.96594C242.23265,395.96594,237.51553,406.03397,235.37811,414.89532C234.71094,417.7547,233.47186,421.3766,232.70938,422.94922C231.92082,424.5001,231.5672,425.19556,231.44861,425.19556C231.35219,425.19556,231.41112,424.73584,231.51797,423.90234C232.23282,419.0891,232.42343,416.51563,232.1375,415.70544C231.99884,415.38855,231.89311,415.21982,231.769,415.21982C231.5945,415.21982,231.38362,415.5533,230.99374,416.27734C230.56485,417.03986,229.75468,418.99377,229.1828,420.5664L228.08672,423.42578L228.08672,419.85156C228.03906,414.75232,225.79922,407.0797,223.94061,405.50708C223.65018,405.26505,223.42427,405.13672,223.26213,405.13614L223.25989,405.13614C222.78595,405.13785,222.86057,406.23938,223.46405,408.7953C224.60782,413.9422,224.89374,418.42188,224.27422,423.28284C223.76038,427.3507,222.32317,433.68857,221.9676,433.68857C221.92744,433.68857,221.90108,433.6077,221.8914,433.4336C220.93828,415.32422,220.27109,408.7953,219.27031,407.22266C218.93672,406.6985,218.50781,405.07813,218.31718,403.64844C218.00491,401.18927,217.56474,399.88107,217.02286,399.88107C216.90318,399.88107,216.77853,399.9449,216.64922,400.07422C215.98203,400.74146,215.26718,405.74536,214.83829,412.70313L214.50468,418.66016L213.98047,413.65625C213.26563,407.318,212.88437,405.5547,212.07422,405.5547C211.31172,405.5547,210.97812,406.84143,210.59688,411.03516C210.35985,413.84976,210.15967,415.154,209.88182,415.154C209.71274,415.154,209.51491,414.67105,209.2625,413.7516C208.97656,412.6078,208.54765,411.65466,208.26172,411.60706C208.25772,411.60638,208.25372,411.60605,208.24971,411.60605C207.96649,411.60605,207.63953,413.25665,207.45157,415.32422C207.08134,419.3041,205.76741,425.39615,205.29893,425.39615C205.28499,425.39615,205.27177,425.39072,205.25937,425.3797C205.11641,425.2367,205.30704,423.23517,205.64063,420.94763C206.78438,413.37036,206.16484,405.07813,204.49687,405.07813C204.02031,405.07813,203.78203,406.07892,203.63907,408.7C203.54375,410.74927,203.25781,412.41724,202.92422,412.6078C202.59062,412.79846,202.16171,413.5133,201.87578,414.1328L201.39922,415.32422L201.39922,414.03748C201.35156,412.3695,200.39844,410.3203,199.6836,410.3203C198.73047,410.3203,198.44453,402.55237,199.20703,398.16797C199.54062,396.0711,200.20781,391.2578,200.68437,387.4453C201.39922,381.2024,201.6375,380.29688,202.97188,378.2953C204.11563,376.53204,205.02109,375.76953,207.11797,374.86407C208.69063,374.1969,210.3586,373.0055,211.2164,371.95703C214.45703,368.0492,220.41406,354.61017,219.74687,352.7992C219.64734,352.55038,219.47961,352.42172,219.22842,352.42172C218.51738,352.42172,217.1376,353.45248,214.74297,355.7063C209.45313,360.7102,203.73438,369.00232,203.73438,371.71875C203.73438,372.4336,203.30547,373.38672,202.78125,373.86328C202.5858,374.04843,202.43031,374.1892,202.30713,374.1892C201.85965,374.1892,201.83841,372.3318,201.87578,363.9984C201.87578,358.13672,201.6375,350.41638,201.35156,346.8899C200.82735,340.88513,200.875,340.1703,201.87578,335.97656C204.11563,326.2547,207.64218,317.67657,212.45547,309.86096C214.50468,306.62036,215.12422,305.95313,216.125,305.95313C217.07813,305.95313,218.98438,304.33282,224.36954,298.90002C230.80313,292.41876,231.375,291.70392,231.375,290.13123C231.375,288.70154,231.70859,288.1297,233.37656,286.7C234.52031,285.79456,235.2828,284.93677,235.13983,284.79376C235.13165,284.7815,235.1161,284.77554,235.0938,284.77554C234.85608,284.77554,233.85028,285.45148,232.80469,286.36646C231.53394,287.46066,230.86453,287.90128,230.3317,287.90128C230.14516,287.90128,229.97534,287.8473,229.80234,287.7484C229.4462,287.58652,228.9361,287.49066,228.48123,287.49066C228.26654,287.49066,228.06418,287.51202,227.89609,287.55786C227.32422,287.7008,223.79765,291.03674,220.08047,294.94458C213.36093,301.95,212.4078,303.47498,213.74219,304.8094C214.02812,305.09534,213.21797,306.62036,211.55,309.00317C207.88046,314.3883,204.63985,320.96484,202.35234,327.63672L200.39844,333.35547L200.39844,330.2578C200.39844,316.48517,204.11563,300.04376,209.6914,289.03516C211.71094,285.03818,212.09608,284.38422,213.10963,284.38422C213.24411,284.38422,213.38966,284.39572,213.55156,284.41248C213.62949,284.41736,213.70988,284.41974,213.79193,284.41974C214.51263,284.41974,215.35867,284.23544,215.74374,283.9359C216.17265,283.60236,219.69922,279.21802,223.51172,274.26172C229.99297,265.82654,230.46953,265.1117,230.23125,263.53906C229.99297,262.10938,230.1836,261.6328,231.70859,260.1078L232.06053,259.74634L231.07552,259.74634L230.85077,259.96484C229.8055,261.0101,229.29518,261.3931,228.70522,261.3931C228.48824,261.3931,228.26048,261.34128,227.9914,261.2516C227.6104,261.11078,227.25961,261.02612,226.9068,261.02612C225.22961,261.02612,223.50621,262.93936,218.26953,269.8297C210.025,280.59998,210.12032,280.45703,210.7875,282.22034C211.26407,283.45935,211.1211,283.8883,209.92969,285.8899C207.83281,289.27344,204.44922,296.66016,203.01953,300.85388C201.58984,305.19067,199.44531,314.3883,199.44531,316.2469C199.44531,316.85443,199.34204,317.28986,199.22327,317.28986C199.20229,317.28986,199.18083,317.27628,199.15938,317.24768C199.10576,317.19406,198.97841,317.16727,198.8075,317.16727C198.52267,317.16727,198.11687,317.2417,197.72969,317.39063C197.34332,317.5487,197.0864,317.64203,196.9303,317.64203C196.66278,317.64203,196.6913,317.36795,196.87187,316.67578C197.06734,315.91565,197.08464,315.54153,196.93733,315.5399L196.93536,315.5399C196.75833,315.54184,196.34833,316.07108,195.72812,317.10474C194.84056,318.56918,189.9032,321.9759,188.76627,321.9759C188.68228,321.9759,188.61902,321.9573,188.57968,321.91797C188.00781,321.34607,195.29922,307.76404,199.58829,301.28284C202.46663,297.0089,203.89049,294.54425,203.62178,294.5381L203.61975,294.5381C203.4433,294.542,202.58063,295.543,200.9703,297.70862C189.15157,313.7688,182.81328,329.40002,182.76563,342.60083C182.73003,344.73703,182.66782,345.59647,182.4598,345.59647C182.38936,345.59647,182.30223,345.498,182.19376,345.3172C181.9078,344.84064,181.66953,343.50623,181.62187,342.36255C181.62187,341.21875,181.28828,340.02734,181.00235,339.69373C180.66875,339.40784,180.38281,338.693,180.38281,338.21643C180.38281,337.6922,180.09688,336.0719,179.71562,334.59454C179.33438,333.1172,178.7625,329.40002,178.47656,326.34998C178.0,321.3938,178.04765,320.63123,178.71484,319.58282C179.14375,318.91565,180.00156,318.2484,180.52579,318.05786C182.28906,317.53357,183.28984,316.34216,185.24374,312.48206C186.48282,309.9563,187.5789,308.47888,188.48438,307.9547C189.29453,307.52576,189.91406,307.0016,189.91406,306.7633C189.91406,306.5514,189.85176,306.4407,189.69254,306.4407C189.45787,306.4407,189.01266,306.68112,188.2461,307.1922C187.76793,307.511,187.48967,307.6965,187.35907,307.6965C187.1773,307.6965,187.28166,307.33707,187.53125,306.47736C187.80344,305.502,187.78413,305.03406,187.60695,305.03244L187.60507,305.03244C187.4094,305.03424,187.02408,305.59753,186.62578,306.66797C186.29219,307.5735,185.24374,308.95544,184.33829,309.6703C183.38516,310.38513,181.66953,311.7672,180.52579,312.81567L178.47656,314.6742L178.47656,313.33984C178.47656,312.625,178.90547,309.86096,179.42969,307.23987L180.38281,302.3789L183.09921,299.85315C184.79314,298.29807,185.50002,297.4064,185.21985,297.40448L185.218,297.40448C185.0149,297.40585,184.30862,297.86102,183.09921,298.85236C182.221,299.59882,181.46417,300.1026,181.35063,300.1026C181.34094,300.1026,181.33594,300.09894,181.33594,300.09143C181.33594,299.9961,181.66953,298.99536,182.05078,297.89923C182.43137,296.85266,182.52701,295.9485,182.33772,295.9453L182.33589,295.9453C181.90453,295.95407,179.33371,302.8105,178.28593,306.90625C177.93658,308.2499,177.75392,308.8662,177.66104,308.8662C177.58922,308.8662,177.57109,308.4976,177.57109,307.81177C177.52344,306.7633,176.9039,305.09534,175.76016,303.28442C174.80704,301.7594,173.75859,299.28125,173.425,297.85156C173.14862,296.55255,173.00047,295.95883,172.91547,295.95883C172.85391,295.95883,172.82549,296.2703,172.80547,296.85083L172.75781,298.47107L171.5664,297.375C170.9893,296.8351,170.63037,296.57886,170.48958,296.57782L170.48788,296.57782C170.27164,296.57944,170.58348,297.19855,171.42343,298.32813C172.2336,299.4242,172.51953,300.71094,172.75781,304.04688C173.04375,308.00232,173.18672,308.47888,174.52109,309.90857C176.8086,312.3391,176.99922,312.95862,176.52266,316.91406C176.33203,318.86798,176.28438,322.72815,176.42734,325.4922C176.62906,328.74835,176.72623,330.01825,176.23422,330.01825C175.91255,330.01825,175.339,329.47537,174.37813,328.58984C173.61563,327.8274,172.28125,325.2063,172.28125,324.34845C172.28125,323.96716,172.04297,323.4906,171.70938,323.30005C171.63254,323.252,171.56923,323.22723,171.5187,323.22723C171.31859,323.22723,171.3189,323.61627,171.4711,324.49146C171.65894,325.39926,171.70282,325.7519,171.46765,325.7519C171.34482,325.7519,171.14587,325.6557,170.85156,325.4922C170.375,325.2539,169.80313,324.77734,169.66016,324.53906C169.52853,324.34167,169.35149,324.2351,169.17604,324.2351C169.0974,324.2351,169.01907,324.25653,168.94531,324.30078C168.70703,324.44373,169.37422,325.34924,170.42265,326.34998C171.85234,327.6844,172.47188,328.78052,173.04375,330.97266C174.04453,335.02344,175.3789,337.5492,176.95157,338.50232C177.95235,339.07422,178.42891,339.78906,178.61954,341.0758C178.90547,342.60083,182.33672,354.08594,183.52812,357.1836C183.5661,357.28802,183.56436,357.33762,183.52779,357.33762C183.3808,357.33762,182.67123,356.53665,181.7172,355.27734C178.95313,351.6078,175.61719,348.51013,173.0914,347.41406L171.08984,346.5086L170.94687,347.7C170.75626,349.2727,171.85234,352.46564,173.47266,355.03906C175.56953,358.3274,182.76563,365.47583,185.14844,366.6195C187.05469,367.57263,187.38828,367.95392,188.15079,370.28906C189.00859,372.86255,191.43906,382.29846,192.0586,385.53906L192.39218,387.20703L190.86719,385.0625C186.19687,378.67657,171.42343,366.42896,166.51485,364.99927C166.03229,364.85303,165.66191,364.76065,165.27841,364.76065C164.4121,364.76065,163.47885,365.23212,161.03438,366.6195C157.36484,368.66876,157.26953,368.81177,157.12656,370.71802C157.03125,371.76642,157.03125,372.67188,157.12656,372.67188C157.88907,372.67188,165.56172,371.6234,166.13359,371.43286C166.17378,371.42282,166.2149,371.4177,166.25711,371.4177C166.81569,371.4177,167.56508,372.3118,168.85,374.4828C173.0914,381.63123,180.95468,391.01953,184.4336,393.11646C185.19609,393.64063,187.10234,394.30786,188.675,394.64142C191.05782,395.16565,191.67734,395.49927,192.82109,397.1195C194.58438,399.55005,194.63203,401.64685,192.96407,408.60474L191.67734,413.84692L190.34297,409.7484C188.11174,402.8777,184.24864,396.08585,183.13521,396.08212L183.13338,396.08212C182.75021,396.0834,182.69472,396.8933,183.14688,398.78748C183.43282,400.0266,183.81406,401.55157,184.00468,402.21875C184.02518,402.31436,184.0261,402.36008,184.00911,402.36008C183.90764,402.36008,183.16676,400.7266,182.14609,398.35864C180.09688,393.40234,176.99922,387.77893,176.0461,387.15942C175.85799,387.04657,175.69958,386.98953,175.57031,386.98926L175.56856,386.98926C174.88106,386.99063,175.02098,388.60446,175.90312,391.97266C178.58409,401.99283,179.63902,406.21573,179.34961,406.21573C179.22746,406.21573,178.86584,405.4635,178.28593,404.0774C176.85625,400.69373,173.99687,395.21326,172.75781,393.64063C172.31898,393.06674,171.9758,392.77982,171.69438,392.77982C171.57849,392.77982,171.47308,392.82846,171.37578,392.92578C171.04219,393.2594,171.4711,395.59454,172.75781,400.21716C175.61719,410.79688,177.52344,421.47192,177.52344,427.0C177.5041,427.6381,177.48477,427.99374,177.38266,427.99374C177.23312,427.99374,176.90605,427.23083,176.1414,425.47498C173.23438,418.66016,168.13516,413.27502,162.6547,411.22583C161.27266,410.70154,159.41406,409.55786,158.55624,408.74768L157.03125,407.27032L157.03125,409.7484C157.03125,411.79767,157.31718,412.6078,158.65157,414.46643C159.50937,415.75317,160.74844,417.70703,161.32031,418.89844C162.46407,421.09064,164.275,426.09454,164.03671,426.33282C164.0353,426.33566,164.03316,426.33707,164.03032,426.33707C163.93788,426.33707,163.10149,424.84784,162.13046,423.04456C161.17734,421.1383,159.60469,418.7555,158.69922,417.70703L157.0789,415.80078L157.03125,419.04138C157.03125,421.61487,157.26953,422.7586,158.27031,424.71252C159.7,427.52423,161.51094,434.4344,161.9875,438.77112L162.32109,441.77344L157.50781,441.77344L157.50781,444.6328L157.50781,447.4922L713.1854,447.4922L713.1854,444.6328L713.1854,441.77344L705.70337,441.77344L705.36975,437.43677C705.1792,435.00623,704.75024,431.3844,704.4166,429.3828C703.7971,425.90393,703.8448,425.3797,704.8932,420.5188C705.51276,417.65942,706.037,414.84766,706.037,414.22815C706.037,413.53015,705.9092,413.19635,705.68164,413.19635C705.28784,413.19635,704.5952,414.1965,703.7495,416.03906C703.03467,417.5641,702.3198,418.85083,702.1768,418.89844C702.0338,418.89844,701.605,417.99298,701.27136,416.84924C700.5103,414.18546,698.9895,411.28427,698.41516,411.27347L698.4082,411.27347C697.7451,411.2841,697.8417,414.0952,698.65027,419.375C699.5557,425.2367,699.5557,427.38123,698.55493,431.90857L697.74475,435.67346L696.88696,431.6703C696.4104,429.47815,695.8385,423.95,695.6002,419.23206C695.1714,411.1781,694.5518,407.46094,693.64636,407.46094C693.12213,407.46094,692.4073,410.08203,691.9784,413.5133C691.7877,414.89532,691.45416,416.03906,691.2159,416.03906C690.9776,416.03906,690.787,416.37268,690.787,416.7539C690.787,417.04932,690.6153,417.23032,690.3606,417.23032C690.2866,417.23032,690.20557,417.21503,690.11975,417.18286C689.9927,417.1352,689.8656,417.11398,689.7473,417.11398C689.5108,417.11398,689.30963,417.1987,689.21436,417.3258C689.07135,417.5641,689.30963,420.66174,689.7862,424.1883C690.7393,431.575,690.64404,441.77344,689.5956,441.77344C689.119,441.77344,688.92834,438.86646,688.7378,429.0016C688.5948,421.9961,688.30884,415.5149,688.07056,414.60938C687.781,413.45114,687.33154,412.85995,686.8104,412.85995C686.3881,412.85995,685.9188,413.2482,685.44946,414.03748C684.544,415.5625,683.162,425.1891,683.1143,430.33594C683.1143,431.82724,683.0397,432.58844,682.8627,432.58844C682.61536,432.58844,682.16846,431.10342,681.44635,428.04846L680.7315,424.9984L683.4956,416.7539C684.9729,412.17896,686.069,408.31873,685.926,408.12817C685.78357,407.99463,685.6345,407.9243,685.4716,407.9243C684.7626,407.9243,683.792,409.25723,681.9706,412.5125L679.58777,416.7539L679.4448,413.03674C679.3495,410.98755,679.6831,407.3656,680.112,404.93518C680.5409,402.5047,681.01746,399.97888,681.1128,399.21643C681.2727,398.31696,681.13074,397.89536,680.8207,397.89536C680.3915,397.89536,679.63995,398.70316,678.9206,400.16956C675.82294,406.5078,674.6792,413.5133,675.4893,420.99536C675.9182,424.47424,675.8706,425.85626,675.39404,427.28595C675.10864,428.06277,674.89185,428.50208,674.70496,428.50208C674.3302,428.50208,674.0759,426.7343,673.63074,422.37732C673.1542,417.99298,673.20184,416.46802,673.9167,412.22656C675.1081,404.6969,675.20337,403.60083,674.6792,403.07654C674.59717,402.99454,674.5047,402.95532,674.4033,402.95532C672.97314,402.95532,669.76776,410.75912,669.0557,416.27734L668.6745,419.13672L667.7214,416.03906C667.1495,414.3235,666.52997,412.6078,666.244,412.22656C666.00574,411.84534,665.00494,409.89142,664.0518,407.8899C661.9573,403.51044,658.4838,397.94223,657.8586,397.9297L657.852,397.9297C656.9055,397.9386,657.57556,400.75705,660.76355,410.60626C662.62213,416.22974,664.0995,421.32892,664.0995,421.90076C664.0995,421.97354,664.08325,422.00848,664.0526,422.00848C663.8425,422.00848,662.9531,420.3637,661.95496,417.99298C660.76355,415.22888,659.57214,412.7508,659.33386,412.46484C659.0956,412.17896,658.71436,410.60626,658.4284,408.89063C658.01434,406.4064,657.55035,405.1462,657.0364,405.1462C656.84045,405.1462,656.63727,405.32935,656.4268,405.69763C656.20447,406.08685,656.01447,406.2815,655.7907,406.2815C655.63086,406.2815,655.45386,406.1822,655.2354,405.98364C655.0338,405.82236,654.8578,405.74847,654.7119,405.74847C654.16797,405.74847,654.0422,406.77533,654.56824,408.12817C655.14014,409.7008,655.2354,415.41956,654.6636,415.75317C654.6571,415.75705,654.6506,415.75894,654.64404,415.75894C654.40735,415.75894,654.08655,413.28397,653.90106,410.17737C653.56744,404.36328,653.0432,400.55078,652.4714,399.97888C652.37195,399.87952,652.27136,399.8304,652.17053,399.8304C651.6427,399.8304,651.10815,401.17535,650.70807,403.6961C650.3745,405.36407,649.94556,406.98438,649.7073,407.318C649.0401,408.17578,647.94403,417.9453,647.51514,426.76172L647.13385,434.86328L646.0378,430.33594C644.1792,422.85388,644.1792,414.51404,645.94244,407.318C646.2857,405.91223,646.19727,405.3026,645.86365,405.3026C645.2246,405.3026,643.68604,407.53925,642.55884,410.70154C642.03467,412.17896,641.36743,415.41956,641.0339,417.80237L640.50964,422.23438L639.4136,419.1844C638.50836,416.63348,637.53217,415.11264,636.91425,415.11264C636.8164,415.11264,636.72766,415.15076,636.6495,415.22888C636.3635,415.46716,636.9831,421.04297,637.69794,424.85547C637.8101,425.46442,637.80774,425.73254,637.72015,425.73254C637.2866,425.73254,634.76514,419.16885,633.6948,414.84766C631.5026,406.1266,627.1659,396.78595,625.06903,396.11877C625.0201,396.10147,624.97516,396.0924,624.93427,396.09195L624.928,396.09195C624.3015,396.09882,624.66284,398.18945,626.4034,404.125C627.1182,406.60315,628.0237,409.9867,628.3573,411.60706C628.9292,414.3711,628.88153,414.80005,627.88074,417.46875C627.3195,419.01202,626.75836,420.23413,626.64746,420.23413C626.6454,420.23413,626.64343,420.23367,626.64166,420.2328C626.594,420.1375,626.8323,418.61255,627.21356,416.80157C627.7208,414.2918,627.7345,413.00864,627.31323,413.00238L627.30695,413.00238C626.97504,413.00726,626.37866,413.78915,625.5456,415.3719C624.8065,416.80896,624.37695,417.58276,624.2265,417.58276C624.0277,417.58276,624.31604,416.2318,625.02136,413.27502C626.04047,409.0286,626.1852,406.76657,625.5952,406.7586L625.589,406.7586C625.1844,406.764,624.44037,407.8118,623.40106,409.9867C620.1604,416.65857,616.87213,428.33435,616.20496,435.57813C615.64166,441.7272,615.6332,441.77344,613.8115,441.77344L612.0112,441.77344L612.3448,439.4383C612.9167,435.2445,615.87134,424.0453,618.7307,415.32422C622.25226,404.7121,622.4949,403.65146,621.4991,403.64844L621.49286,403.64844C620.5853,403.65442,617.8238,407.7977,615.77606,412.13123C614.8668,414.07092,614.2274,415.0469,613.88245,415.0469C613.68494,415.0469,613.58386,414.7271,613.58386,414.0852C613.58386,412.87396,612.8378,411.46637,612.2724,411.46637C612.2149,411.46637,612.1593,411.48093,612.1065,411.51172C611.8682,411.7024,611.6776,413.03674,611.6776,414.51404C611.6776,415.99146,611.2487,419.04138,610.77216,421.28125C609.81903,425.42737,605.8159,437.818,605.19635,438.3899C605.1633,438.41467,605.136,438.42654,605.1144,438.42654C605.0115,438.42654,605.0388,438.15604,605.19635,437.72266C606.2925,434.67267,608.8659,425.61798,609.6284,422.18677C611.0637,415.28775,610.5647,405.19482,608.7869,405.19482C608.7349,405.19482,608.68176,405.20346,608.6276,405.22107C608.3417,405.3164,607.96045,407.12732,607.81744,409.41486C607.6745,411.60706,607.2456,414.7047,606.8643,416.27734L606.2448,419.13672L605.9112,415.80078C605.53314,412.07413,604.83374,410.04605,604.2378,410.04605C603.7821,410.04605,603.38696,411.2321,603.24243,413.7516C603.00415,417.80237,601.9081,423.04456,600.2878,428.1914C599.5009,430.66437,599.1615,431.69568,599.0056,431.69568C598.8972,431.69568,598.8777,431.19635,598.8581,430.33594C598.6198,421.09064,595.09326,407.60388,590.8518,399.97888C589.41455,397.3624,588.4618,396.14224,587.86127,396.14224C587.6852,396.14224,587.5394,396.2471,587.4206,396.4524C587.3746,396.52603,587.3214,396.56232,587.26154,396.56232C587.0113,396.56232,586.64294,395.92877,586.1815,394.7367C583.7043,388.1626,578.51263,379.35025,577.08075,379.34375L577.075,379.34375C576.12634,379.34543,576.22437,379.92596,578.27057,387.01642C580.46277,394.40314,582.13074,400.8844,582.13074,401.83752C582.13074,401.86917,582.1222,401.88452,582.1057,401.88452C581.94824,401.88452,581.06915,400.48584,580.0339,398.5016C577.794,394.21252,576.6026,392.6875,575.6018,392.6875C575.5246,392.6875,575.4539,392.6836,575.39105,392.68347L575.38525,392.68347C574.79504,392.6846,574.9116,393.04492,576.88855,400.2649C579.7479,410.8922,581.6065,420.94763,581.6542,426.23755C581.6542,426.92346,581.6398,427.32813,581.5043,427.32813C581.29156,427.32813,580.7803,426.32977,579.5573,423.85474C577.5557,419.89923,572.50415,413.27502,571.4081,413.22736C571.28265,413.20227,570.8666,413.0451,570.313,412.8045L570.30725,412.8045C569.9918,406.82083,568.95074,398.27673,567.20654,384.7043C563.8987,358.5337,561.9948,350.80438,555.9242,338.81177C554.1099,335.22778,552.2211,330.5387,551.7963,328.46796C550.8763,324.0504,549.5516,307.6814,549.514,300.0811C549.48193,293.61182,549.9909,292.6211,555.94934,292.6211C556.5456,292.6211,557.19635,292.631,557.9066,292.64636C558.6361,292.6622,559.2821,292.6716,559.8613,292.6716C563.39685,292.6716,564.4436,292.3212,566.8115,290.9439C568.46497,289.9684,573.6237,285.24445,578.16064,280.52344C589.22864,269.13705,591.3497,264.9117,587.7377,261.06033C586.6264,259.89117,585.9265,258.09814,585.6375,255.54309C585.2086,252.64319,584.4393,250.78137,582.3525,247.95886C580.2653,245.06717,579.6356,243.48114,579.62537,241.40834C579.6093,238.1609,577.661,235.40675,574.4071,234.11006C571.6376,232.9492,570.52313,231.15813,570.4366,227.63478C570.3569,225.49318,570.767,224.59285,573.17365,222.2318C575.64874,219.73204,576.0592,218.90092,576.04724,216.48264C576.02844,212.6825,574.7734,210.40848,569.4245,204.63104C563.3812,198.16592,560.8675,192.858,560.0001,185.12367C559.63727,181.60161,558.8608,178.2889,558.23413,177.3246C557.53845,176.3608,554.90393,174.57726,552.134,173.3473C542.91254,169.1914,534.6425,167.03673,528.14404,167.03673C526.1999,167.03673,524.4143,167.22957,522.80927,167.61937C516.4602,169.17094,511.92294,173.82283,496.13602,195.04407C494.39374,197.3828,492.66037,199.68515,491.10938,201.72296L491.10938,201.72296C490.95273,201.47421,490.79276,201.22032,490.6293,200.96109C484.994,191.98174,482.9918,189.48663,478.74915,186.1428C477.48138,185.14354,475.99915,183.75404,475.49384,183.07117C474.41077,181.61668,471.1573,175.87437,469.85712,173.11038C468.6397,170.52232,468.78308,170.24007,471.65796,168.97989C473.5661,168.14369,473.8824,167.90285,474.6156,166.85214C475.05322,166.21669,476.13403,163.62163,476.98865,161.13292C479.0957,155.10919,479.15375,153.21005,477.18524,152.4176C476.58228,152.17952,476.02368,151.64442,475.4859,150.76201C474.83868,149.77757,474.24316,149.22917,473.00476,148.55356C471.75458,147.8528,471.2566,147.38129,470.90204,146.62749C470.37564,145.50832,469.2917,144.84436,467.98352,144.84436C467.91122,144.84436,467.83826,144.84639,467.76465,144.85048C467.7114,144.8525,467.6591,144.85352,467.60773,144.85352C466.49615,144.85352,465.8215,144.37578,465.22137,143.16225C464.82983,142.39513,464.82697,141.99754,465.30463,140.7296C465.7837,139.39949,465.7926,139.02708,465.3789,138.14763C464.72888,136.76567,463.88654,136.1492,460.95892,134.94865C457.66187,133.615,455.84723,132.10571,454.22192,129.43335C453.49356,128.21095,452.6498,127.1349,452.25815,126.88948C451.86087,126.66682,450.69507,126.470825,449.53192,126.470825 Z"/> </g> </g> </svg>