<?xml version="1.0" encoding="UTF-8"?>
<svg viewBox="0 0 1051 819.75586" xmlns="http://www.w3.org/2000/svg" xmlns:xlink="http://www.w3.org/1999/xlink">
 <defs>
  <filter id="b">
   <feGaussianBlur stdDeviation=".27029"/>
  </filter>
  <filter id="k" x="-.09475" y="-.16359" width="1.1895" height="1.3272">
   <feGaussianBlur stdDeviation="3.60294"/>
  </filter>
  <filter id="an" x="-.03104" y="-.11853" width="1.0621" height="1.2371">
   <feGaussianBlur stdDeviation="1.03219"/>
  </filter>
  <filter id="j" x="-.20489" y="-.12154" width="1.4098" height="1.2431">
   <feGaussianBlur stdDeviation="1.15104"/>
  </filter>
  <filter id="am" x="-.09613" y="-.15964" width="1.1923" height="1.3193">
   <feGaussianBlur stdDeviation=".83111"/>
  </filter>
  <filter id="i" x="-.1168" y="-.12338" width="1.2336" height="1.2468">
   <feGaussianBlur stdDeviation=".4832"/>
  </filter>
  <linearGradient id="c">
   <stop stop-color="#f2f2f2" offset="0"/>
   <stop stop-color="#bababa" stop-opacity="0" offset="1"/>
  </linearGradient>
  <linearGradient id="d">
   <stop stop-color="#bababa" stop-opacity=".94774" offset="0"/>
   <stop stop-color="#bababa" stop-opacity="0" offset="1"/>
  </linearGradient>
  <linearGradient id="a">
   <stop stop-color="#fff9f9" offset="0"/>
   <stop offset="1"/>
  </linearGradient>
  <linearGradient id="e">
   <stop offset="0"/>
   <stop stop-color="#fff" offset="1"/>
  </linearGradient>
  <linearGradient id="f">
   <stop stop-color="#534242" offset="0"/>
   <stop stop-color="#534242" stop-opacity="0" offset="1"/>
  </linearGradient>
  <linearGradient id="g">
   <stop stop-color="#e2c5c5" offset="0"/>
   <stop stop-color="#eaaeae" stop-opacity=".49804" offset=".5"/>
   <stop stop-color="#f29898" stop-opacity="0" offset="1"/>
  </linearGradient>
  <linearGradient id="h">
   <stop stop-color="#748437" offset="0"/>
   <stop stop-color="#252b11" offset="1"/>
  </linearGradient>
  <linearGradient id="al" x1="761.37" x2="982.99" y1="608.04" y2="265.31" gradientUnits="userSpaceOnUse">
   <stop stop-color="#9bb639" offset="0"/>
   <stop stop-color="#eaff9e" offset="1"/>
  </linearGradient>
  <linearGradient id="aj" x1="608.81" x2="713.9" y1="359.71" y2="318.28" gradientUnits="userSpaceOnUse">
   <stop stop-color="#eb3030" offset="0"/>
   <stop stop-color="#c33c3c" offset=".21151"/>
   <stop stop-color="#fb2020" offset=".45638"/>
   <stop stop-color="#f34f4f" offset="1"/>
  </linearGradient>
  <linearGradient id="ai" x1="449.74" x2="511.88" y1="458.36" y2="430.5" gradientUnits="userSpaceOnUse">
   <stop stop-color="#eb3030" offset="0"/>
   <stop stop-color="#c33c3c" offset=".44971"/>
   <stop stop-color="#fb2020" offset=".7283"/>
   <stop stop-color="#f34f4f" offset="1"/>
  </linearGradient>
  <linearGradient id="ag" x1="680.18" x2="697.08" y1="29.229" y2="47.158" gradientUnits="userSpaceOnUse">
   <stop stop-color="#fffcfc" offset="0"/>
   <stop stop-opacity=".99652" offset="1"/>
  </linearGradient>
  <linearGradient id="af" x1="793.47" x2="757.61" y1="607.14" y2="513.7" gradientUnits="userSpaceOnUse">
   <stop stop-color="#fff9f9" offset="0"/>
   <stop stop-color="#fff9f9" stop-opacity="0" offset="1"/>
  </linearGradient>
  <linearGradient id="ak" x1="1734.5" x2="1839.8" y1="437.79" y2="387.28" gradientUnits="userSpaceOnUse" xlink:href="#h"/>
  <linearGradient id="ah" x1="534.96" x2="562.65" y1="113.17" y2="76.018" gradientUnits="userSpaceOnUse" xlink:href="#e"/>
  <linearGradient id="ae" x1="746.66" x2="752.59" y1="212.78" y2="227.78" gradientUnits="userSpaceOnUse" xlink:href="#e"/>
  <linearGradient id="ad" x1="1292.4" x2="280.63" y1="306.68" y2="547.1" gradientUnits="userSpaceOnUse" xlink:href="#h"/>
  <radialGradient id="aa" cx="600.59" cy="151.72" r="46.734" gradientTransform="matrix(1.4074 -.39969 .1265 .44544 -260.84 331.18)" gradientUnits="userSpaceOnUse">
   <stop stop-color="#540a0a" offset="0"/>
   <stop stop-color="#ce2626" offset="1"/>
  </radialGradient>
  <radialGradient id="p" cx="611.62" cy="121.01" r="36.139" gradientTransform="matrix(.45212 .074944 -.030496 .18398 335.51 61.56)" gradientUnits="userSpaceOnUse">
   <stop stop-color="#bababa" offset="0"/>
   <stop stop-opacity=".99652" offset="1"/>
  </radialGradient>
  <radialGradient id="ac" cx="796.52" cy="156.95" r="87.175" gradientTransform="matrix(1.3872 3.0105 -.27098 .12487 -671.25 -2070.1)" gradientUnits="userSpaceOnUse" xlink:href="#g"/>
  <radialGradient id="ab" cx="784.42" cy="242.64" r="87.175" gradientTransform="matrix(-.96774 -2.0515 .32775 -.15461 1058.2 2031.3)" gradientUnits="userSpaceOnUse" xlink:href="#g"/>
  <radialGradient id="z" cx="738.46" cy="545.3" r="50.084" gradientTransform="matrix(1.5332 -.4118 .11558 .43032 -727.91 720.09)" gradientUnits="userSpaceOnUse" xlink:href="#f"/>
  <radialGradient id="y" cx="741.19" cy="555.33" r="50.084" gradientTransform="matrix(1.3719 -.57238 .28763 .56011 -704.94 766.17)" gradientUnits="userSpaceOnUse" xlink:href="#f"/>
  <radialGradient id="x" cx="633.96" cy="184.17" r="10.284" gradientTransform="matrix(.58557 .11767 -.093025 .46292 281.36 24.845)" gradientUnits="userSpaceOnUse" xlink:href="#a"/>
  <radialGradient id="w" cx="624.23" cy="175.3" r="10.854" gradientTransform="matrix(.53934 -3.3648e-6 1.8967e-6 .30402 284.2 126.91)" gradientUnits="userSpaceOnUse" xlink:href="#a"/>
  <radialGradient id="v" cx="633.99" cy="172.97" r="7.3954" gradientTransform="matrix(.51763 2.2788e-6 -9.5528e-7 .21671 305.81 139.23)" gradientUnits="userSpaceOnUse" xlink:href="#a"/>
  <radialGradient id="u" cx="400.37" cy="276.85" r="20.132" gradientTransform="matrix(.21701 -.24664 .14766 .12993 274.84 333.37)" gradientUnits="userSpaceOnUse" xlink:href="#a"/>
  <radialGradient id="t" cx="746.79" cy="150.3" r="49.633" gradientTransform="matrix(-.0063426 -.051719 .12185 -.014944 704.73 204.15)" gradientUnits="userSpaceOnUse" xlink:href="#a"/>
  <radialGradient id="s" cx="283.57" cy="329.34" r="68.586" gradientTransform="matrix(.17207 -.049678 .01649 .057114 205.91 344.87)" gradientUnits="userSpaceOnUse" xlink:href="#a"/>
  <radialGradient id="r" cx="261.2" cy="315.01" r="43.693" gradientTransform="matrix(.29068 .02601 -.0071246 .079621 185.08 281.53)" gradientUnits="userSpaceOnUse" xlink:href="#a"/>
  <radialGradient id="q" cx="332.87" cy="592.02" r="39.915" gradientTransform="matrix(.097557 .044427 -.14224 .31234 376.92 341.96)" gradientUnits="userSpaceOnUse" xlink:href="#a"/>
  <radialGradient id="o" cx="292.18" cy="305.52" r="6.7413" gradientTransform="matrix(2.2575 .60201 -.59939 2.2477 -184.3 -555.55)" gradientUnits="userSpaceOnUse" xlink:href="#d"/>
  <radialGradient id="n" cx="373.39" cy="285.47" r="3.3302" gradientTransform="matrix(1.455 3.5875e-7 -5.9829e-7 2.4265 -169.89 -407.22)" gradientUnits="userSpaceOnUse" xlink:href="#d"/>
  <radialGradient id="m" cx="774.55" cy="576" r="4.9643" gradientTransform="matrix(.673 -.24757 .43026 1.1696 -271.56 219.91)" gradientUnits="userSpaceOnUse" xlink:href="#c"/>
  <radialGradient id="l" cx="774.55" cy="576" r="4.9643" gradientTransform="matrix(.673 -.24757 .43026 1.1696 -281.15 206.83)" gradientUnits="userSpaceOnUse" xlink:href="#c"/>
 </defs>
 <g transform="translate(149.71 -142.53)">
  <path d="m371.15 282.06c8.2084-5.0144 20.26-8.9309 24.244-15.152 4.5957-6.1084 7.8247-4.0166 11.112-2.2728 6.0142 5.0838 4.2681 9.1329 0.25254 12.879-0.48768 1.8409 0.35178 1.5585-9.849 18.94-5.9998 1.2006-12.531-2.9091-17.93 4.2932l-3.5355 3.283c1.2533-3.8536 3.735-7.4 2.5254-11.869-0.75712-4.3145-0.87299-9.0298-6.8185-10.102z" fill="url(#u)" fill-rule="evenodd" stroke="#000"/>
  <path transform="translate(-276.36 125.79)" d="m135.71 473.14c69.65-7.4576 127.98-21.603 237.14-5.7143 21.202 3.1099 23.262 47.694 34.286 72.857 11.237 40.451 40.984 70.805 72.857 100 6.4328 2.3554 11.848 10.817 20 2.8572 13.809 9.0494 21.72 29.894 41.429 27.143 12.289 7.88 23.165 27.063 37.143 21.429 13.107 3.6068 27.577 11.303 37.143 4.2857 50.145 26.803 100.67 56.488 147.14 55.714 13.731-6.942 32.809 4.8308 50 10 22.511 12.5 27.732 15.783 29.286 10.714-1.874-5.768 10.106-3.6361-12.143-17.857-29.178-12.418-42.471-23.925-64.286-31.429-6.1464-8.8431-82.009-77.35-124.29-117.14 43.808 35.716 83.743 77.242 131.43 107.14 26.667 21.091 53.333 36.619 80 54.286 12.425 5.4799 31.159 16.368 31.429 11.429 19.193 5.0163 44.847 21.34 57.143 14.286 15.816 4.7678 54.063 30.565 42.857 10 23.1 10.777 29.645 9.1385 30 2.8571 23.137 26.949 81.484 7.1573 105.71 30 12.66-16.539-129.95-49.783-205.71-114.29 63.624 32.987 108.65 74.18 191.43 77.143 18.283-3.7226 36.444-7.8096 52.857-17.143 1.2844-13.81-50.449-27.619-75.714-41.429 20.908-4.1911 45.23 18.672 80-22.857-4.3223-3.8095 8.3837-7.619 14.286-11.429-2.4113-9.3279-6.5521-18.8-31.429-30l5.7143-11.429c-9.5244-6.2587 2.7169-6.2986-42.857-22.857-16.866-8.2801-44.831-9.1604-72.857-10 11.503-11.683 13.485 1.6261 38.571-45.714l7.1429-8.5714c-9.4724-10.219-17.361-20.89-65.714-20l4.2857-2.8571c1.6222-2.7414 2.3367-5.2812-12.857-4.2857-30.922 0.05846-58.748-3.5976-98.571 7.1429-9.4857-0.43809-21.64-3.5452-32.857-5.7143 46.086-37.299 101.69-104.98 147.14-162.86-3.0834-6.1905-13.915-12.381-26.429-18.571-28.386-13.608-45.959-5.7632-65.714 0.71428-1.1905-5.3274-2.381-12.545-3.5714-23.571-22.509 1.2702-26.697-4.0029-72.857 5.7143-16.19 6.3701-37.381 9.4863-53.571 22.857-23.479 2.4428-32.332 11.303-50.714 17.143-18.476 0.0248-20.472 8.0261-35.144-5.2661 35.051-39.978 51.424-57.592 91.572-111.16 6.9941-12.558 16.78-31.916 20-50-3.1361-0.39455-5.2137-6.4773-12.143 0.71429 19.447-17.064 23.205-31.886 30-47.143-13.333-15.863-26.667-10.166-40-10-1.4286-5.0701-2.8571-8.5644-4.2857-17.143-46.848 13.482-51.779 2.0781-80 22.857-9.1176 0.41509 10.6-30.064-72.857 50-25.103-1.5641-17.801-35.532-24.286-55.714-19.048 2.1477-38.095 13.579-57.143 26.429-11.845 11.749 19.965-39.832-71.429 96.429-32.226 41.486-55.853 83.754-67.143 127.14-15.446 23.529-40.396 23.297-67.143 18.571-147.3-1.6986-166.44 10.236-232.86 17.143l8.5714 17.143z" fill="url(#al)" fill-rule="evenodd" stroke="url(#ad)"/>
  <path transform="translate(-276.36 125.79)" d="m689.18 176.72c5.359 2.9291 10.283 7.3079 13.637 16.92l20.961-19.951c-0.4209 18.014-0.84179 46.363-1.2627 54.043-0.57167 13.149 3.0545 15.279 7.8287 14.395l3.5355-2.5254 4.7982-3.0305c3.994-1.1919 11.997 1.1796 10.607-4.7982 5.0217-1.7119 11.977-2.9403 9.3439-6.566 9.284-2.1558 29.907-13.168 9.3439-10.859l10.607-4.7982c2.0768-1.2617 4.6005-1.1825 5.8084-5.0508 1.506 1.1387 1.3846 2.6843 1.0102 4.2932 1.0707-0.6904 2.2525-1.1032 2.0203-5.0508-2.0266-0.98071-3.1833-1.2976-3.6401-4.0406-2.4878-3.7187-5.2661-1.2212-7.9766-2.0203 3.6325 0.3724 6.436 1.1593 6.0609 3.5355-9.3643 2.9654-13.48 14.064-14.003 8.7913 5.8308-9.4456-5.1064-13.349-12.514 8.3813-4.6412-2.3797-4.8234 4.1586-7.0711 6.566-3.8722 1.7521-7.7445 0.79343-11.617 5.5558h-3.0304c-1.7617-21.364-1.5914-63.98-5.3033-63.892-3.9976-9.4413-12.118-7.5442-21.466-2.2728-5.6062 2.9792-11.401 6.7136-17.678 12.374z" fill="url(#t)" fill-rule="evenodd" stroke="#000"/>
  <path transform="translate(-276.36 125.79)" d="m739.43 268.9c58.322-28.478 78.156-82.927 102.03-89.904" fill="none" stroke="#b4fb48" stroke-linecap="round" stroke-linejoin="round" stroke-width="2.1"/>
  <g fill="none" stroke="#b4fb48" stroke-linecap="round" stroke-linejoin="round" stroke-width="2.1">
   <path transform="translate(-276.36 125.79)" d="m132.86 464.57c77.972-10.546 156.01-20.919 241.43-12.857 96.945 3.5395 199.66 70.523 300 111.43 108.94 42.367 281.79 116.26 320 121.43 172.65 23.352 178.74 19.6 178 20.571"/>
   <path transform="translate(-276.36 125.79)" d="m411.43 456c82.845-19.768 149.05-47.854 201.43-82.857"/>
   <path transform="translate(-276.36 125.79)" d="m550 408.86c-2.2591-38.334 18.586-85.91 34.286-131.43"/>
   <path transform="translate(-276.36 125.79)" d="m524.29 493.14c36.207-15.216 70.057-33.574 117.14-34.286"/>
   <path transform="translate(-276.36 125.79)" d="m432.86 461.14c262.36 286.36 309.56 261.35 407.14 307.71"/>
   <path transform="translate(-276.36 125.79)" d="m648.57 553.14c142.84 160.65 307.86 202.28 468.57 277.14"/>
   <path transform="translate(-276.36 125.79)" d="m1155.7 777.43c-93.749-14.355-185.27-48.776-271.43-131.43 38.13-34.486 115.04-51.346 194.29-67.143"/>
   <path transform="translate(-276.36 125.79)" d="m927.14 348.86c-34.401 38.404-72.398 83.068-70 114.11"/>
   <path transform="translate(-276.36 125.79)" d="m645.71 551.71c212.92-62.92 320.63-169.44 372.86-165.71"/>
   <path transform="translate(-276.36 125.79)" d="m438.57 449.43c38.161-34.926 51.108-88.509 71.429-130.57"/>
  </g>
  <path transform="translate(-276.36 125.79)" d="m569.22 188.09c4.4792 3.3672 8.8691 6.7344 8.0812 10.102 18.777 0.25461 94.685 13.852 77.782-23.739-0.67343-1.3469-0.67344-4.0406 0-8.0812 0.49112 0.55517-22.767 4.5031-39.901 7.5761-15.153 5.8852-29.592 16.772-45.962 14.142z" fill="#c10c0c" fill-rule="evenodd"/>
  <path d="m365.51 305.6c5.8926 1.189 11.785-3.5973 17.678-7.5761 0.55021-3.1762 5.7516-4.0269 11.617-4.5457 6.7344-0.45444 13.469 6.0476 20.203 12.122 12.464 9.7649 18.463 34.207 27.274 52.528 12.627 22.56 16.364 42.299 37.881 67.68 95.926 149.41 40.819 210.5 31.315 217.18-20.734 16.584-18.748-37.013-29.294-53.538-37.1-88.698-77.217-178.15-119.7-268.2 5.1638-0.02707 2.7592-9.5147 3.0305-15.657z" fill="#e83f20" fill-rule="evenodd" stroke="#000"/>
  <path d="m366.1 304.79c5.8926 1.189 11.785-3.5973 17.678-7.5761 0.55021-3.1762 5.7516-4.0269 11.617-4.5457 6.7344-0.45444 13.469 6.0476 20.203 12.122 12.464 9.7649 18.463 34.207 27.274 52.528 12.627 22.56 16.364 42.299 37.881 67.68 95.926 149.41 40.819 210.5 31.315 217.18-20.734 16.584-18.748-37.013-29.294-53.538-37.1-88.698-77.217-178.15-119.7-268.2 5.1638-0.02707 2.7592-9.5147 3.0305-15.657z" fill="url(#ai)" fill-rule="evenodd" filter="url(#b)" stroke="#000"/>
  <g fill-rule="evenodd" opacity=".6446">
   <path transform="translate(-1547.1 103.57)" d="m1822.3 233.04c-18.014 27.274-37.69 45.375-54.043 81.822 4.335 7.7832 13.759-0.18863 8.0813 9.0914-13.123 5.2191-16.683 8.4179-20.203 15.657 0.9413 3.0339-28.08 19.572-20.37 24.117 11.156 6.577 6.4057-2.8045 14.786-1.1364 16.192 3.2232 13.72 16.569 15.936 23.612 3.7437 11.899 14.841 36.431 16.417 43.815 1.5291 10.335 10.768 25.81 20.203 41.416 5.0489 9.0914 8.7023 18.183 7.0711 27.274-11.464 18.832-25.015 38.657-9.0914 44.447 6.8367 4.8528 12.686 6.7424 18.183 7.5761 4.6393 0.41148 10.73-0.62884 16.668-1.5152 8.5299 7.2962 15.336 18.901 26.264 20.203-0.7878 1.0504 23.465 20.931 25.254 19.193 1.5553-1.5109 86.789 49.447 91.924 52.528 6.8257 0.44482 25.453 7.3604 24.749-14.142 0.6855-8.0451-8.2317-18.011-13.637-27.274-0.3088-10.41-1.6216-21.825-8.5863-38.891l0.5051-8.0812 13.132 7.5761c-1.1359 5.5772-4.9017 9.8394 1.5152 19.193h7.0711l27.274 26.264 6.0609 15.152 15.152 12.122 5.5558 7.0711-5.0508-12.122-9.5964-14.647-11.112-18.183-11.617-10.102-7.0711-5.5558c-143.53-141.43-120.85-215.78-163.64-340.93-8.1425-1.852-18.443-3.7039-27.779-5.5558z" fill="url(#ak)"/>
   <path transform="translate(-1547.1 103.57)" d="m1819.8 532.55c-2.8705 5.724-7.0882 3.8888-10.102 10.102 13.786 0.67343 13.897 1.3469 19.193 2.0203-6.6312-4.9408-7.6811-8.4863-9.0914-12.122z" fill="#748437"/>
  </g>
  <path d="m362.79 320.53c-0.72932 0.77333-1.1111 1.7397-13.637-4.0406-5.8657-2.9841-22.052-4.0358-35.86-0.50508-12.039-2.4554-16.495 12.42-19.193 31.315 12.282 49.67 24.958 99.143 39.901 147.48 12.417 21.668 38.314 176.04 136.62 159.35 24.071-5.9587 23.477-31.63 15.405-60.357-40.91-91.167-79.941-183.27-123.24-273.25z" fill="#e83f20" fill-rule="evenodd" stroke="#000"/>
  <path d="m365.51 304.24c5.8926 1.189 11.785-3.5973 17.678-7.5761 0.55021-3.1762 5.7516-4.0269 11.617-4.5457 6.7344-0.45444 13.469 6.0476 20.203 12.122 12.464 9.7649 18.463 34.207 27.274 52.528 12.627 22.56 16.364 42.299 37.881 67.68 95.926 149.41 40.819 210.5 31.315 217.18-20.734 16.584-18.748-37.013-29.294-53.538-37.1-88.698-77.217-178.15-119.7-268.2 5.1638-0.02707 2.7592-9.5147 3.0305-15.657z" fill="url(#ac)" fill-rule="evenodd" filter="url(#b)" opacity=".44948"/>
  <path d="m296.15 351.51c0.16047 8.1349 1.7771 15.687 5.3033 22.476-17.063-3.5013-34.958-5.3394-49.497-13.89-11.519 5.9289-4.5059 61.276-7.3236 90.409l-2.7779-2.2728c-0.08654 1.597-0.59139 2.7758-2.0203 3.0305-1.7956-0.78605-3.6065-1.5416-6.0609-1.0102l-1.0102 3.5355c-14.487 1.8771-26.994 15.683-22.728 1.5152-6.4716 3.4242-18.005 15.073-14.647 2.5254l-5.3033 1.5152c-5.3326 3.0048-15.675 16.029-15.91 8.8388l-2.0203 5.0508c8.5922 3.5572 8.4958 5.029 0.25253 4.5457-2.2348 6.763 3.3481 4.5916 5.3033 6.566-3.5347-0.91472-6.7157 3.1234-10.859-6.3134-3.4203-1.696-0.1723-6.0593-0.25254-9.0914 6.7488-6.4867 14.446-16.055 18.688-14.395-0.67614-2.7372 3.461-3.0677 10.859-1.7678 2.3879-1.3594-5.2377-3.0419 16.162-3.7881 3.0143-3.1075 11.426-2.9763 17.425-4.2932l6.8185-65.407c4.1746-25.644 11.833-47.105 59.599-27.779z" fill="url(#s)" fill-rule="evenodd" stroke="#000"/>
  <path d="m339.34 505.48 7.8572 25.714c-5.6105 13.749-12.37 22.901-20 28.571 17.728 24.467 48.635 43.496 62.5 53.214 4.5198 1.3218 0.70127 8.2118-3.3189 13.86-4.9854 11.822-13.225 51.032-14.895 34.712-2.1429 5.5821-4.2857 25.839-6.4286 14.643-2.6405 5.1397-5.1167 9.2107-6.4286 5.7143-0.83333 6.0176-1.6667 6.9913-2.5 10 0.0341-3.2143 1.9963-6.4286-0.35715-9.6429-3.959 0.76244-8.6345-0.14712-10.714 5 0.06451-3.9484 2.6608-5.8714 6.0714-7.1429-15.196-9.6026 2.7612-8.5102 6.0714-12.143 3.5358-4.4526 4.8306-4.4232 6.4286-5-0.74799-6.752 9.9731-24.973 15-37.5-19.245-19.793-37.409-30.937-57.857-60.357 0.96739-2.0517-3.5976-4.7949-7.8571-7.5 4.3621-35.665 16.411-39.729 26.429-52.143z" fill="url(#q)" fill-rule="evenodd" stroke="#000"/>
  <path transform="translate(-276.36 125.79)" d="m639.43 195.66c-0.72932 0.77333-1.1111 1.7397-13.637-4.0406-5.8657-2.9841-22.052-4.0358-35.86-0.50508-12.039-2.4554-16.495 12.42-19.193 31.315 12.282 49.67 24.958 99.143 39.901 147.48 12.417 21.668 38.314 176.04 136.62 159.35 24.071-5.9587 23.477-31.63 15.405-60.357-40.91-91.167-79.941-183.27-123.24-273.25z" fill="url(#aj)" fill-rule="evenodd" filter="url(#b)" stroke="#000"/>
  <path d="m362.93 321.54c-0.72932 0.77333-1.1111 1.7397-13.637-4.0406-5.8657-2.9841-22.052-4.0358-35.86-0.50508-12.039-2.4554-16.495 12.42-19.193 31.315 12.282 49.67 24.958 99.143 39.901 147.48 12.417 21.668 38.314 176.04 136.62 159.35 24.071-5.9587 23.477-31.63 15.405-60.357-40.91-91.167-79.941-183.27-123.24-273.25z" fill="url(#ab)" fill-rule="evenodd" filter="url(#b)" opacity=".44948"/>
  <path transform="translate(-276.36 125.79)" d="m611.43 122.07c7.0794-11.899 15.935-17.851 17.5-15.714 3.1808-3.1733 5.1768-9.1112 9.6429-9.2857 4.1666-4.5239 7.3269-14.583 12.5-13.571 3.7576-4.7941 6.8268-14.751 11.429-13.214 3.4665-5.603 5.5994-13.683 12.143-13.571 3.6066-4.5347 5.7018-12.697 11.429-12.143 3.8748-3.867 7.0668-11.49 11.786-10.714 4.3685-3.0386 7.9987-9.7683 13.214-8.5714 4.5457-1.6447 7.2673-5.1136 13.929-4.6429 3.6161-1.9898 6.755-4.5249 13.571-2.8571 19.916-3.2258 22.297 8.9736 21.429 10-3.0785 2.6277-15.9-9.1194-22.143-5.7143 16.482 17.61-3.4256 1.4673-11.429 1.7857-3.6779 2.3904 9.8747 4.8166-0.88327 6.7032-3.1256 0.54811-6.4981-2.3015-9.1167-2.4175 0.76387 7.8387-8.8241 3.0255-13.571 8.9286-5.5907 8.4341-8.8898 7.7021-13.214 11.071-2.2691 7.9006-7.8078 8.4442-11.786 12.5-3.3842 7.7232-7.2212 10.012-11.071 12.143-0.44655 6.3789-6.2555 9.7787-10.714 13.929-0.51874 6.0416-5.1113 7.3304-8.2143 10.357-1.3375 1.3095-3.6678 2.619-6.4286 3.9286-1.5964 7.1828-5.0749 4.1637-8.9286 10.357 0.0106 4.2856-10.145 6.0645-16.071 12.857-1.2139-0.56335-2.395-1.1158-5-2.1428z" fill="url(#ag)" fill-rule="evenodd" stroke="#000"/>
  <path transform="translate(-276.36 125.79)" d="m563.93 131c-5.6631-3.5547-12.819-4.1244-16.786-11.071-4.892-2.3782-7.8461-5.2409-8.9286-8.5714-7.7426-3.1528-14.425-6.7693-14.643-13.214-9.442-3.0585-8.3991-7.515-11.429-11.429-5.5439-0.05634-6.9793-5.6758-9.2857-10.357-4.8899-2.7565-8.1456-6.2079-10.714-10.357-7.1042-1.878-10.008-5.1562-11.429-8.9286-4.1118-1.0818-9.3538-0.54899-10.357-6.0714-7.6614 1.1805-9.8825 5.8928-11.35 3.4871-0.56538-0.9266 1.226-3.5548 0.99324-5.8085-3.9139-0.34451-8.3206 4.3412-11.786 8.0357-8.6694 5.0611 3.1564-9.1629-1.0714-7.8571-8.121 0.89134-8.4686 7.0237-13.929 11.25-5.1701-1.4545-1.4423-16.374 15-15.179 3.107-2.3792 7.255-2.85 13.214 0 3.2122-0.54304 6.5612-0.60738 10.714 2.1429 4.1902 0.15168 8.1177 1.2667 10.893 6.6071 5.7498-1.1501 9.2357 2.9852 11.607 8.75 7.7804-1.4555 7.5381 6.7162 11.071 10.357 7.4792-0.33807 7.4476 6.2087 9.6428 10.714 8.3358-0.59767 9.1051 6.3711 11.071 12.143 9.5683 0.32377 9.7872 7.6596 14.286 11.786 5.5485-0.34655 7.9028 4.0982 10.714 7.8571 3.1684-3.3993 11.078 9.1067 16.786 13.75-1.2211 0.53739-2.59 0.47768-4.2857 1.9643z" fill="url(#ah)" fill-rule="evenodd" stroke="#000"/>
  <path transform="translate(-276.36 125.79)" d="m569.64 160.29c-1.5243 1.0981 2.8819 2.4566-12.143-5.3571-0.6905-3.5612-3.7274-6.452 1.7857-11.786 0.28884-3.9286 0.82874-7.8572 3.9286-11.786 12.92-8.8623 31.077-8.3001 48.571-8.9286 4.6986 2.2619 7.6815 4.5238 8.5714 6.7857 4.5924 6.2735 8.4097 11.993 6.4286 13.571-40.939-6.1072-46.236 7.2262-57.143 17.5z" fill="url(#p)" fill-rule="evenodd" stroke="#000"/>
  <path d="m300.95 324.23c-18.55-9.7764-36.921-16.513-54.801-14.9-3.8016 3.4469-6.5524 7.244-8.3338 11.364-0.70747 4.9098 7.6661 24.955 12.374 38.891-19.759 9.683-21.055 18.231-24.749 21.718-4.9466-0.29522-15.526 11.099-8.5863 13.385 0.99656 6.3929 3.897 7.5502 7.5762 6.566-2.4817-1.3959-5.3604-2.5649-3.283-6.566 1.705-0.31525 3.1645-0.87607 3.5355-2.5254l0.50508 2.5254c4.9524-3.3322 7.273-7.9803 9.5964-12.627 6.6629-6.0685 12.936-14.475 20.203-16.92l5.3033-0.75762c-1.3411-10.377-4.284-22.089-13.637-39.143 1.0631-0.92384 29.197 13.103 47.982 16.92 1.1797-6.9016 2.4922-13.67 6.3134-17.93z" fill="url(#r)" fill-rule="evenodd" stroke="#000"/>
  <path transform="translate(-276.36 125.79)" d="m768.74 601.12c36.831-16.716 78.839-25.939 105.54-49.408" fill="none" stroke="#b4fb48" stroke-linecap="round" stroke-linejoin="round" stroke-width="2.1"/>
  <path d="m469.64 680.31c9.3716 0.49052 12.33-0.77086 14.395-2.2728 0.91835 2.1026 1.4878 4.1179-0.25254 5.5558 3.7329 1.8268 7.7566 3.1204 7.5762 12.122 5.6158 0.17548 11.816 8.7492 11.869 11.869 13.512 15.883 14.694 13.67 17.93 19.951 2.9432 12.461-0.78947 10.375-1.7678 3.5355 0 0-1.5152-1.0102-1.7678 0-0.25254 6.8271-7.8287 9.625-7.8287 7.8287 1.6014-0.85772 3.2898-2.4113 5.5558-8.5863-1.9185-1.2314-3.7011-2.8704-4.2932-8.0812 1.463 0.91679-3.5736-4.139-4.7982-2.0203 0.49603 9.7746-11.255 1.7012-9.3439-10.102-5.4291 11.389-5.6823-13.044-8.8388-14.395-8.1044 10.348-3.8503-6.5452-18.435-15.405z" fill-rule="evenodd" stroke="#000"/>
  <path transform="translate(-276.36 125.79)" d="m606.6 185.31c8.8147 4.5575 15.247 1.9663 20.708-3.5355-1.1359-6.6513-6.5811-4.6839-11.617-3.5355-4.3772 1.8183-8.0544 3.9167-9.0914 7.0711z" fill="url(#w)" fill-rule="evenodd" stroke="#000"/>
  <path transform="translate(-276.36 125.79)" d="m627.3 177.23c5.1343-4.7956 8.1842-1.2539 12.122-1.2627 2.8887 2.7214 1.4032 4.3493-3.7881 5.0508-4.1315 0.86106-9.7098 2.6851-8.3338-3.7881z" fill="url(#v)" fill-rule="evenodd" stroke="#000"/>
  <path transform="translate(-276.36 125.79)" d="m621.75 186.82c6.1455 3.6628 13.494 10.333 17.173 7.8287 2.6869-1.9065 2.6696-5.4356 2.0203-9.3439-2.5564-7.7694-19.733-3.9373-19.193 1.5152z" fill="url(#x)" fill-rule="evenodd" stroke="#000"/>
  <path transform="matrix(1.1148 0 0 1.6857 -66.148 -441.35)" d="m404.36 630.36c51.696 25.622 84.586-9.3683 84.286-22.143 0 0 9.2857 33.571 6.4286 38.571s-26.429 14.286-26.429 14.286c-31.082-3.4956-58.176-13.824-64.286-30.714z" fill="url(#z)" fill-rule="evenodd" filter="url(#k)"/>
  <path transform="matrix(.58026 0 0 1.5384 241.53 -356.4)" d="m404.36 630.36c51.696 25.622 84.586-9.3683 84.286-22.143 0 0 12.363 16.856 9.506 21.856s-51.663 35.644-51.663 35.644c-31.082-3.4956-36.019-18.467-42.128-35.357z" fill="url(#y)" fill-rule="evenodd" filter="url(#k)"/>
  <path transform="translate(-276.36 125.79)" d="m801.56 499.21c-4.0823 11.953-8.3263 23.907-11.112 35.86-4.409 7.1061-10.246 13.26-18.688 17.678-6.7344-1.3586-13.469 1.9611-20.203 3.0304-12.568 0.25067-32.99-17.826-49.497-26.769-2.357 2.5261-4.714-1.6009-7.0711-7.0711-7.2394-0.13442-14.479-13.408-21.718-20.708 24.973 15.101 49.254 37.118 76.772 26.769 20.459-9.5452 16.237-24.027 17.678-37.376 4.3036 8.1796 5.1654 20.948 13.132 24.244 7.7443 4.8803 14.29-4.6284 20.708-15.657z" fill-rule="evenodd" stroke="#000"/>
  <path transform="translate(-276.36 125.79)" d="m568.72 161.57c-8.9047 11.845-5.3181 18.694-1.0102 25.254 12.325 9.8442 20.675 4.8025 29.8-0.50508 10.136-6.4296 21.022-11.735 33.84-14.142 7.572-1.1066 15.867-0.04569 22.223-4.7982 2.498-6.5452 4.2946-12.827-3.7881-15.405-9.1147-6.7188-55.21-26.421-81.065 9.5964z" fill="url(#aa)" fill-rule="evenodd" stroke="#000"/>
  <path transform="translate(-276.36 125.79)" d="m713.67 531.03c20.664 13.56 44.498 17.587 50.003 3.5355 21.584 5.8339 17.951 2.3216 29.8-12.122-7.7161 4.9486-13.53 10.04-32.293 8.552-12.353 9.2385-31.11 6.9832-47.509 0.03431z" fill="url(#af)" fill-rule="evenodd" filter="url(#an)"/>
  <path d="m292.36 291.91c-3.796 10.132-6.6487 16.906 10.607 22.728-8.516-12.768-10.166-9.8718-10.607-22.728z" fill="url(#o)" fill-rule="evenodd" filter="url(#j)"/>
  <path d="m372.33 293.55c7.0897-8.1734 5.0538-9.2353-2.2713-16.161 6.0472 11.414 1.6325 6.659 2.2713 16.161z" fill="url(#n)" fill-rule="evenodd" filter="url(#j)"/>
  <path transform="translate(-276.36 125.79)" d="m738.93 228.86c1.8439-1.2767 2.655-0.61437 10.165-3.9513 2.5285-6.3989 3.9802-5.6803 8.5848-6.763 4.2356 0.4428-4.2443 3.2938-7.1928 7.6616-10.195 5.3831-14.317 6.0692-11.557 3.0527z" fill="url(#ae)" fill-rule="evenodd" filter="url(#am)"/>
  <path d="m492.19 698.47c0.8861 2.6275 3.2729 4.4219 5.3609 6.4465 1.8745 1.248 2.1513 1.6106 3.5677 0.3392-7.301-12.331-7.0812-5.6891-8.9286-6.7857z" fill="url(#m)" fill-rule="evenodd" filter="url(#i)"/>
  <path d="m482.6 685.39c0.8861 2.6275 3.2729 4.4219 5.3609 6.4465 1.8745 1.248 2.1513 1.6106 3.5677 0.3392-7.301-12.331-7.0812-5.6891-8.9286-6.7857z" fill="url(#l)" fill-rule="evenodd" filter="url(#i)"/>
 </g>
</svg>
