<?xml version="1.0" encoding="UTF-8"?>
<svg viewBox="0 0 641.58423 874.53784" xmlns="http://www.w3.org/2000/svg">
 <path transform="translate(-60.532 -92.367)" d="m238.79 92.367-11.786 0.85197c-23.052 2.9777-51.648 17.035-76.677 24.352-43.458 6.5712-63.131 35.013-79.943 66.099l9.7267 6.5318c40.133 11.716 101.32-1.5728 103.44 72.985 3.1049 108.86-52.542 177.21-84.345 262.9-57.74 172.48-47.843 317 113.6 425.2 73.47 19.831 128.34 19.366 182.18 6.4608 72.265-17.322 98.871-71.216 128.58-116.86 33.709-51.798 38.683-98.05 43.024-144.41 29.666 3.7943 32.921-32.028 39.759-62.478 2.0427-37.917 20.86-63.557 38.268-95.634 51.085-94.134 68.033-234.64 46.219-324.96-23.158-95.884-134.8-167.34-209.09-75.186l-29.18-5.2538c-73.998-4.6514-144.03-22.139-213.77-40.611zm0 7.7387c95.301 30.822 168.78 36.47 240.97 41.392-20.242 49.001-32.914 86.863-38.978 125.74-12.199 78.21 50.825 190.93 89.244 285.62l8.9457 46.29 6.5318 35.641 12.922 60.916c-18.627 57.734-30.823 174.28-203.64 218.27 30.37-2.7457 66.219-7.852 104.46-10.173-55.611 59.404-217.3 43.814-284.56 1.207 0 0 138.74 17.861 147.66 11.37-184.01-20.742-260.98-129.25-240.98-278.32 15.285-90.272 74.139-187.09 98.139-279.09 26.229-141.13 13.85-169.44-101.38-174.44 21.822-41.954 40.778-54.508 82.712-63.33l77.955-21.086zm326.45 25.701c136.84-0.708 115.83 288.39 42.598 391.62-7.3195 10.318-11.164 28.091-29.18 33.866-11.094-4.3854-22.397-6.6747-35.002 4.0469-36.852-112.46-119.13-216.85-78.594-343.13l18.317-9.1587c7.1897-23.336 17.249-51.672 43.663-70.572 13.928-4.5125 26.6-6.6138 38.197-6.6738z" fill="#dbd7d7"/>
 <path transform="translate(-60.532 -92.367)" d="m236.64 119.18c-20.374 0.53186-30.235 2.5657-40.162 4.59 3.9429-3.06-2.8661-6.12 23.524-9.18 7.6947-0.11791 18.632-1.8573 17.786 2.295l-1.1475 2.295z" fill="#b1b1b1"/>
 <path d="m143.49 839.97c21.763 25.621 78.661 35.857 131.51 36.195 57.559 0.36865 110.31-11.404 107.62-38.053-6.7556-31.978-70.668-34.215-91.29-31.581 25.199 3.2938 73.995 10.163 76.017 34.065 1.0208 12.069-22.667 16.368-39.581 20.652-16.581 4.1989-18.895 1.955-52.605 4.9468-33.421 2.9661-66.122-2.5789-86.549-9.62-15.261-5.2603-30.512-11.262-29.675-18.324 2.4343-20.545 85.471-30.868 85.471-30.868s-58.213 2.3028-80.458 9.7713-24.008 18.63-20.452 22.816z" fill="#4c4c4c"/>
 <path transform="translate(-60.532 -92.367)" d="m198.93 931.46c61.899 33.242 276.64 27.579 228.83-22.435-8.361-3.0387-40.989-13.122-19.041 1.6616-13.114 49.396-209.74 19.794-164.69-1.0206 8.3214-9.5806-15.469-2.695-30.065 3.205s-22.139 14.784-15.032 18.589z" fill="#666"/>
 <path transform="translate(-60.532 -92.367)" d="m101.85 840.34c-56.807-89.864-51.046-206.98-6.9992-300.81 39.032-92.766 96.864-185.84 86.482-290.57-0.49221-14.979-3.125-30.659-1.6148-28.621 3.4673 4.6787 12.88 52.357 9.7486 64.665-37.325 222.85-250.25 428.15 1.7598 604.63 23.662 1.5272 63.711 14.81 21.357 23.137-11.094 13.834 48.018 9.742 5.3924 18.891l-6.282 1.1675c-55.131-5.5019-81.268-50.842-109.84-92.494zm309.52 91.348c8.8578-24.117 46.318-20.118 8.0952-25.745-18.422-11.999 41.602-12.959 49.755-37.617 53.033-47.861 89.396-117.32 87.961-189.77 4.0355-34.531 6.3732-16.749 17.648 2.6901-5.4924-28.215 16.842-22.563 26.808-47.33-18.417-9.198 18.752-45.367 20.863-67.696 17.907-46.269 44.993-88.651 55.374-137.77 12.57-46.958 18.978-95.53 19.417-144.13-6.1481 82.555-20.448 166.59-59.981 240.31 40.213-103.03 73.215-219.27 36.93-328.38-12.891-46.608-52.486-86.542-102.51-88.061-23.745-8.4769-68.075 29.086-69.014 20.661 9.3725-13.242 27.535-26.986 4.3814-10.101-14.742 20.204-22.695 12.094-5.2236-3.6149 11.316-17.391 71.452-21.925 60.094-15.167-19.433-1.4198-74.418 37.132-29.222 11.632 44.41-20.221 98.314-1.3389 125.74 37.717 57.036 70.532 46.652 167.89 32.543 251.27-10.242 63.288-34.405 123.58-68.875 177.46-20.886 37.038-10.379 82.845-40.535 115.67-28.807 37.616-19.206 87.359-44.487 126.58-22.283 43.024-53.216 85.304-96.104 108.92-12.759 3.5758-16.555 4.5671-29.658 2.4589zm179.3-280.27c-7.5605 1.8926 1.1425 12.446 0 0zm92.539-447.6c-12.268-22.327 9.4012 26.656 0 0zm-132.46 466.97c-7.7738-33.801 8.8255 11.59 0.48522 3.7103l-0.27947-2.137-0.20584-1.5733h9e-5zm-3.5666-37.865c-15.542-30.36-4.4647-65.634-18.684-95.347-36.252-87.255-94.211-173.3-84.443-272.01-3.8967-32.706 19.799-97.79 26.357-102.94-2.968 14.473-9.7281 60.443 6.6107 25.104 4.8111-15.987 17.389-44.613 9.2577-10.182-6.4633 33.793-39.597 55.126-33.831 92.028-4.9454 71.68 23.676 139.1 55.949 201.62 15.564 31.985 25.917 66.139 40.246 98.622 6.2541-8.6983 35.108 16.524 31.488 6.4414-32.3-36.401-41.35 25.04-23.312 45.19-0.6991 5.5095-5.308 8.9203-9.638 11.481zm24.79-74.964s11.907 3.8546 13.311 9.9538c1.1577 1.585-13.311-9.9538-13.311-9.9538zm21.764 31.04c-2.7275-3.3108-2.9843-10.679-1.2755-7.655 0.72194 1.2776 5.1764 19.363 1.2755 7.655zm29.176-101.72c20.545-49.666 31.426-102.63 40.016-155.48-2.6668 54.265-18.004 107.08-38.2 157.24l-1.5492-1.4982-7.7e-4 -7.5e-4 -1.6e-4 -1.6e-4 -0.26536-0.25664zm-550.73-297.79c-5.516-20.894 49.355-65.662 14.352-27.926-5.7954 8.7432-10.503 18.177-14.352 27.926zm8.7592-3.723c64.985 0.46414 88.99 12.515 96.972 29.72-3.1486 6.9806-10.971-24.746-72.628-25.047-3.0864-0.0159-6.312 4.2192-18.396 0.13586l-3.8428-1.3401-2.105-3.4692zm394.01-36.291c-25.529-8.298 10.237-14.079 0 0zm-48.562-5.9492c-53.575-5.9184-108.35-13.395-157.18-37.644 58.752 20.399 120.32 31.151 181.89 38.775-8.2347 1.9878-16.466-0.91949-24.703-1.1309zm85.197-8.1969c12.728-20.452 94.346-18.006 39.62-9.1235-13.214 3.0098-26.264 6.7558-39.62 9.1235zm-354.42-10.967c15.494-8.925 55.517-21.114 77.8-23.354 10.52-1.0576 13.964 1.8857 14.764 5.1473-32.052-1.11-60.703 17.817-92.564 18.207zm122.68-23.014c-16.877-1.692-31.193-12.294-6.09-4.4138 12.648 3.0209 21.215 10.479 6.09 4.4138z"/>
</svg>
