<?xml version="1.0" encoding="UTF-8"?>
<svg viewBox="0 0 341 271" xmlns="http://www.w3.org/2000/svg" xmlns:xlink="http://www.w3.org/1999/xlink">
 <defs>
  <filter id="r">
   <feGaussianBlur stdDeviation="7.7201"/>
  </filter>
  <filter id="q">
   <feGaussianBlur stdDeviation="5.01942"/>
  </filter>
  <filter id="f">
   <feGaussianBlur stdDeviation="1.63486"/>
  </filter>
  <filter id="p">
   <feGaussianBlur stdDeviation="1.01264"/>
  </filter>
  <filter id="w">
   <feGaussianBlur stdDeviation=".34836"/>
  </filter>
  <filter id="u" x="-.06065" y="-.17961" width="1.1213" height="1.3592">
   <feGaussianBlur stdDeviation="4.06487"/>
  </filter>
  <filter id="t" x="-.05936" y="-.33188" width="1.1187" height="1.6638">
   <feGaussianBlur stdDeviation="4.23707"/>
  </filter>
  <filter id="s" x="-.13986" y="-.07308" width="1.2797" height="1.1462">
   <feGaussianBlur stdDeviation="4.82052"/>
  </filter>
  <filter id="e" x="-.13113" y="-.23373" width="1.2622" height="1.4674">
   <feGaussianBlur stdDeviation="3.42419"/>
  </filter>
  <filter id="d" x="-.15166" y="-.09928" width="1.3033" height="1.1986">
   <feGaussianBlur stdDeviation="1.21395"/>
  </filter>
  <filter id="v" x="-.66631" y="-.63219" width="2.3326" height="2.2644">
   <feGaussianBlur stdDeviation="15.59516"/>
  </filter>
  <linearGradient id="c">
   <stop stop-color="#8b673a" offset="0"/>
   <stop stop-color="#8b573a" offset="1"/>
  </linearGradient>
  <linearGradient id="b">
   <stop offset="0"/>
   <stop stop-opacity="0" offset="1"/>
  </linearGradient>
  <linearGradient id="n" x1="474.2" x2="670.73" gradientUnits="userSpaceOnUse" xlink:href="#c"/>
  <linearGradient id="m" x1="561.94" x2="625.84" y1="347.18" y2="163.34" gradientUnits="userSpaceOnUse" xlink:href="#b"/>
  <linearGradient id="o" x1="581.98" x2="525.77" y1="371.72" y2="225.48" gradientUnits="userSpaceOnUse" xlink:href="#b"/>
  <radialGradient id="h" cx="-34.457" cy="-158.47" r="66.007" gradientTransform="matrix(1.5079 -.01235 .01529 1.8671 513.32 552.56)" gradientUnits="userSpaceOnUse">
   <stop stop-color="#abd738" offset="0"/>
   <stop stop-color="#b7e344" offset=".41188"/>
   <stop stop-color="#a3ce29" offset=".47699"/>
   <stop stop-color="#8bb110" offset="1"/>
  </radialGradient>
  <radialGradient id="a" cx="-547.55" cy="-250.56" r="40.712" gradientTransform="matrix(2.35 -.83268 .98497 1.98 986.59 -199.42)" gradientUnits="userSpaceOnUse">
   <stop stop-color="#6c940d" offset="0"/>
   <stop stop-color="#2a800d" offset="1"/>
  </radialGradient>
  <radialGradient id="i" cx="-321.79" cy="-193.58" r="22.988" gradientTransform="matrix(.78795 9.8974e-8 -9.9749e-8 .79412 709.56 410.03)" gradientUnits="userSpaceOnUse">
   <stop stop-color="#fffff5" offset="0"/>
   <stop stop-color="#f3fba6" offset="1"/>
  </radialGradient>
  <radialGradient id="k" cx="-45.807" cy="-185.04" r="63.854" gradientTransform="matrix(1.1461 -.1432 .11386 .91127 523.4 381.58)" gradientUnits="userSpaceOnUse">
   <stop stop-color="#fff" stop-opacity=".56122" offset="0"/>
   <stop stop-color="#fff" stop-opacity="0" offset="1"/>
  </radialGradient>
  <radialGradient id="g" cx="-217.66" cy="-131.41" r="16.625" gradientTransform="matrix(1 0 0 1.4088 0 58.304)" gradientUnits="userSpaceOnUse">
   <stop stop-color="#241c1c" offset="0"/>
   <stop stop-color="#392c09" stop-opacity=".9949" offset="1"/>
  </radialGradient>
  <radialGradient id="l" cx="-209.08" cy="-144.35" r="14.875" gradientTransform="matrix(1 0 0 1.3419 850.88 415.7)" gradientUnits="userSpaceOnUse">
   <stop stop-color="#a05a2c" offset="0"/>
   <stop stop-color="#704d21" offset="1"/>
  </radialGradient>
  <radialGradient id="j" cx="16.246" cy="-156.4" r="45.348" gradientTransform="matrix(.64635 -.03028 .0712 1.5198 510.27 497.96)" gradientUnits="userSpaceOnUse" xlink:href="#c"/>
 </defs>
 <g transform="translate(-378.57 -76.812)">
  <path d="m649.87 255.83c-27.326 40.291-89.275 41.041-132.81 6.52s-55.905-90.7-19.28-137.1c23.16-29.343 82.789-40.096 129.4-1.5464 36.203 29.942 58.657 59.848 39.792 103.57-3.2195 7.4606-11.432 20.208-17.1 28.566z" filter="url(#r)" opacity=".65214"/>
  <path transform="matrix(1.0216 0 0 1.3205 -44.42 -108.77)" d="m604.45 310.03c0 14.999-36.01 27.158-80.43 27.158s-80.43-12.159-80.43-27.158 36.01-27.158 80.43-27.158 80.43 12.159 80.43 27.158z" filter="url(#u)" opacity=".52508"/>
  <path transform="matrix(1.0864 0 0 1.2727 -58.628 -67.968)" d="m704.72 269.64c0 8.4611-38.348 15.32-85.653 15.32s-85.653-6.859-85.653-15.32 38.348-15.32 85.653-15.32 85.653 6.859 85.653 15.32z" filter="url(#t)" opacity=".52508"/>
  <path d="m647.87 249.83c-27.326 40.291-89.275 41.041-132.81 6.52s-55.905-90.7-19.28-137.1c23.16-29.343 82.789-40.096 129.4-1.5464 36.203 29.942 58.657 59.848 39.792 103.57-3.2195 7.4606-11.432 20.208-17.1 28.566z" fill="url(#n)"/>
  <path d="m647.87 249.83c-27.326 40.291-89.275 41.041-132.81 6.52s-55.905-90.7-19.28-137.1c23.16-29.343 82.789-40.096 129.4-1.5464 36.203 29.942 58.657 59.848 39.792 103.57-3.2195 7.4606-11.432 20.208-17.1 28.566z" fill="url(#m)"/>
  <path d="m468.38 175.59c-37.84 0-79.942 34.858-79.062 80.594 0.4788 24.903 7.3799 44.853 18.688 58.906s27.037 22.147 44.719 23.375a2.25 2.25 0 0 0 0.21875 0c0.22721-8e-3 1.6666-0.15162 2.3125-0.1875a2.25 2.25 0 0 0 1.125 0.34375c0.29733 5e-3 0.67945 0.0312 1.1562 0.0312 0.60587 0 1.1761-0.0136 1.75-0.0312a2.25 2.25 0 0 0 1.75 -0.90625c10.609-1.4605 29.02-5.9042 40.188-19.688 15.764-19.456 26.418-50.575 16.344-102.78-1.7449-9.0425-7.5016-14.371-10.719-18.812-2.0186-2.7866-3.9161-5.0951-5.7188-7.125a2.25 2.25 0 0 0 0.71875 -3.9688c-3.6898-2.7161-7.7818-4.8734-12.25-6.4375a2.25 2.25 0 0 0 -0.59375 -0.125l-0.0625-0.0312a2.25 2.25 0 0 0 -0.40625 -0.15625c-6.0866-1.9869-12.798-3-20.156-3z" filter="url(#q)" opacity=".70903"/>
  <path d="m473.91 177.15s3.087-0.40591 19.862 10.198c4.9394 3.1223 13.95 11.111 15.797 13.384 33.237 40.914 27.336 77.293 19.333 100.31s-37.555 34.409-37.555 34.409 78.959-21.5 63.202-89.802-80.64-68.503-80.64-68.503z" filter="url(#s)" opacity=".6388"/>
  <path d="m524.91 256.14c-0.80566 44.32-29.541 80.262-65.982 80.262s-64.998-29.041-65.982-80.262c-0.85212-44.319 40.374-78.293 76.815-78.293s56.134 24.117 55.15 78.293z" fill="url(#h)"/>
  <path transform="matrix(1.2121 0 0 1.4362 1111.3 625.23)" d="m-527.32-218.1c-4.3118 1.3531-7.6067-27.424-12.143-27.302s-6.3846 29.531-10.771 28.357 8.5037-27.877 4.6319-30.235-21.013 21.208-24.088 17.884 21.851-18.225 19.852-22.288-29.489 6.5197-30.204 2.0563 28.53-4.1675 29.04-8.6592-28.268-10.575-26.467-14.732 26.15 12.576 29.081 9.1028-18.337-24.156-14.623-26.735 15.633 24.445 19.946 23.027-1.8813-29.952 2.635-30.054-0.38812 28.446 3.9873 29.575 13.907-26.232 17.787-23.912-15.873 24.476-12.841 27.844 26.369-14.921 28.362-10.867-26.082 11.732-25.375 16.197 29.915 2.4416 29.346 6.9402-28.04-4.529-29.832-0.37937 23.574 18.262 20.737 21.795-21.175-19.629-24.952-17.129 10.202 28.161 5.8906 29.514z" fill="url(#a)" filter="url(#f)" opacity=".73244"/>
  <path transform="matrix(.97118 .28563 -.33844 1.1508 891.82 702.76)" d="m-527.32-218.1c-4.3118 1.3531-7.6067-27.424-12.143-27.302s-6.3846 29.531-10.771 28.357 8.5037-27.877 4.6319-30.235-21.013 21.208-24.088 17.884 21.851-18.225 19.852-22.288-29.489 6.5197-30.204 2.0563 28.53-4.1675 29.04-8.6592-28.268-10.575-26.467-14.732 26.15 12.576 29.081 9.1028-18.337-24.156-14.623-26.735 15.633 24.445 19.946 23.027-1.8813-29.952 2.635-30.054-0.38812 28.446 3.9873 29.575 13.907-26.232 17.787-23.912-15.873 24.476-12.841 27.844 26.369-14.921 28.362-10.867-26.082 11.732-25.375 16.197 29.915 2.4416 29.346 6.9402-28.04-4.529-29.832-0.37937 23.574 18.262 20.737 21.795-21.175-19.629-24.952-17.129 10.202 28.161 5.8906 29.514z" fill="url(#a)" filter="url(#f)" opacity=".78261"/>
  <path d="m438.58 256.95c6.0199-8.2506-3.3848-11.263 1.9696-14.28s6.0914 1.609 11.325 0.98482 4.101-8.293 9.3557-7.8785 2.7903 5.134 6.4013 8.8633 9.3825 5.5664 12.064 7.6323 3.7776 4.4481-1.1127 4.1662c-3.1803-0.18328 2.5e-4 7.8054-0.8569 9.8674s-13.417 0.75367-18.465 3.693-2.3478 7.8859-6.4013 6.6475-2.5401-4.8371-4.9241-8.3709-15.376-3.0748-9.3557-11.325z" fill="url(#i)"/>
  <path transform="matrix(.04886 -.19721 .29312 .07262 273.57 273.2)" d="m298.98 478.79c11.48-1.4362 7.7582 16.109 19.572 20.554s31.2 1.0253 40.901 9.1129 6.0461 33.156 11.848 43.973 36.452 4.0558 39.375 16.185-23.765 18.482-25.696 30.176 13.774 36.878 6.1265 46.842-37.665-6.2361-46.477 2.1408-3.8772 36.848-15.442 41.821-17.776-25.945-30.091-25.714-20.112 36.503-31.721 33.315-15.956-46.821-24.511-54.674-32.483 12.997-37.463 1.4363 20.449-36.297 17.847-48.617-38.068-12.413-37.236-25.011 25.195-26.079 30.384-36.725 7.5216-25.066 16.519-33.162 13.541 16.323 24.547 11.922 30.037-32.138 41.517-33.574z" fill="none" stroke="#000" stroke-dasharray="9.55396257, 57.3237754" stroke-linecap="round" stroke-width="13.449"/>
  <path transform="matrix(.08881 .33977 .40683 -.02967 192.38 172.99)" d="m298.64 477.91c12.542-1.297 21.416 35.813 33.347 40.522s18.7-20.138 29.109-11.45-7.7709 27.213-1.7445 39.408 47.741 8.7371 50.746 21.816-38.99 17.946-41.677 31.216 31.158 34.645 23.185 45.534-28.932-2.305-39.188 6.0575-9.7038 33.596-22.177 38.814-18.824-19.939-31.634-20.715-20.212 30.633-32.726 27.008-1.8334-39.586-12.595-47.887-43.217 7.6422-48.814-4.6651 16.943-36.551 15.609-49.302-35.097-11.136-33.951-24.641 37.439-19.091 42.844-31.408-7.1998-29.176 2.5802-37.872 21.089 12.689 33.044 7.7484 21.499-28.887 34.041-30.184z" fill="none" stroke="#000" stroke-dasharray="6.3053476, 37.83208576" stroke-linecap="round" stroke-width="8.8762"/>
  <path transform="matrix(.22801 .2671 .35323 -.20401 182.13 297.13)" d="m298.64 477.91c12.542-1.297 21.416 35.813 33.347 40.522s18.7-20.138 29.109-11.45-7.7709 27.213-1.7445 39.408 47.741 8.7371 50.746 21.816-38.99 17.946-41.677 31.216 31.158 34.645 23.185 45.534-28.932-2.305-39.188 6.0575-9.7038 33.596-22.177 38.814-18.824-19.939-31.634-20.715-20.212 30.633-32.726 27.008-1.8334-39.586-12.595-47.887-43.217 7.6422-48.814-4.6651 16.943-36.551 15.609-49.302-35.097-11.136-33.951-24.641 37.439-19.091 42.844-31.408-7.1998-29.176 2.5802-37.872 21.089 12.689 33.044 7.7484 21.499-28.887 34.041-30.184z" fill="none" stroke="#000" stroke-dasharray="6.3053476, 37.83208576" stroke-linecap="round" stroke-width="8.8762"/>
  <path d="m491.19 181.41s3.0415 0.66625 15.22 16.336c3.586 4.6138 9.3495 15.188 10.315 17.952 17.373 49.768-0.52869 81.982-15.872 100.92s-47.007 19.615-47.007 19.615 81.568 6.5836 89.936-63.011-52.593-91.811-52.593-91.811z" fill="url(#j)"/>
  <path d="m469.77 177.84c-36.441 0-77.665 33.993-76.812 78.312 0.94253 49.022 27.119 77.688 61.312 80.062 2.2979-0.0763 31.848-1.3939 46.594-19.594 15.343-18.937 25.862-49.179 15.875-100.94-1.6018-8.3008-6.8844-13.205-10.312-17.938-8.4625-11.682-15.217-15.944-17.188-17.031-5.8338-1.9043-12.314-2.875-19.469-2.875zm20.469 3.1875c2.1497 0.91039 6.3315 2.8521 11.656 6.125-3.5092-2.5831-7.3921-4.6324-11.656-6.125zm-32.438 155.34c0.37441 6e-3 0.74889 0.0312 1.125 0.0312 0.56939 0 1.122-0.0138 1.6875-0.0312-1.0302 0.01-1.9988 0.0129-2.8125 0z" fill="url(#k)"/>
  <path d="m411.92 221.45s4.1018-16.723 34.818-32.729 49.442 18.106 49.442 18.106-31.681-13.452-43.871-8.3564c-9.2971 3.8865-40.389 22.98-40.389 22.98z" fill="#fff" filter="url(#e)" opacity=".35786"/>
  <path transform="matrix(1 0 0 -1 843.95 150.9)" d="m-438.96-144.9s4.1018-16.723 34.818-32.729 49.442 18.106 49.442 18.106-31.681-13.452-43.871-8.3564c-9.2971 3.8865-40.389 22.98-40.389 22.98z" fill="#668000" filter="url(#e)" opacity=".35786"/>
  <path transform="matrix(.93796 .34675 -.34675 .93796 786.22 430.31)" d="m-210.12-166.03c-6.2994 0-10.732 4.3508-13.125 8.6562s-3.5 9.332-3.5 14.781 1.1344 10.48 3.5312 14.781 6.8123 8.625 13.094 8.625 10.697-4.324 13.094-8.625 3.5312-9.332 3.5312-14.781-1.1075-10.476-3.5-14.781-6.8256-8.6562-13.125-8.6562z" fill="url(#g)" filter="url(#p)" opacity=".47157"/>
  <path d="m645.5 202.04c-3.3887-0.0307-6.576 1.6106-9.0312 3.7188-3.2737 2.8109-5.8831 6.7571-7.625 11.469s-2.3188 9.4274-1.6562 13.688 2.864 8.7039 7.4688 10.406 9.1631-0.22657 12.438-3.0312 5.9144-6.7571 7.6562-11.469 2.3143-9.4231 1.6562-13.688-2.853-8.7624-7.4688-10.469c-1.1539-0.4266-2.3079-0.61478-3.4375-0.625zm1.9688 6c0.59163 1e-3 1.1664 0.077 1.7188 0.28125 4.419 1.6336 5.6214 9.4076 2.6875 17.344s-8.8935 13.04-13.312 11.406-5.6214-9.3764-2.6875-17.312c2.5672-6.9441 7.4524-11.727 11.594-11.719z" fill="url(#l)" filter="url(#w)" opacity=".56522"/>
  <path transform="matrix(.93796 .34675 -.34675 .93796 791.53 429.32)" d="m-201.6-142.61c0 8.461-3.8192 15.32-8.5305 15.32s-8.5305-6.859-8.5305-15.32 3.8192-15.32 8.5305-15.32 8.5305 6.859 8.5305 15.32z" fill="#502d16" filter="url(#d)" opacity=".782"/>
  <path transform="matrix(.89167 .45269 -.36387 .71672 745.96 452.02)" d="m-285.86-198.31c0 15.191-13.172 27.507-29.422 27.507s-29.422-12.315-29.422-27.507 13.172-27.507 29.422-27.507 29.422 12.315 29.422 27.507z" fill="#fff" filter="url(#v)" opacity=".38462"/>
  <path transform="matrix(1.1338 .30461 -.41914 .82396 820.39 409.46)" d="m-210.12-152.28c0.4004 0-0.14289-0.11736-1.0938 1.5938s-1.7812 4.715-1.7812 8.0938 0.83338 6.3616 1.7812 8.0625 1.4816 1.5938 1.0938 1.5938 0.14588 0.10717 1.0938-1.5938 1.7812-4.6837 1.7812-8.0625-0.83039-6.3826-1.7812-8.0938-1.4942-1.5938-1.0938-1.5938z" fill="#520" filter="url(#d)" opacity=".69565"/>
  <path d="m491.19 181.41s3.0415 0.66625 15.22 16.336c3.586 4.6138 9.3495 15.188 10.315 17.952 17.373 49.768-0.52869 81.982-15.872 100.92s-47.007 19.615-47.007 19.615 81.568 6.5836 89.936-63.011-52.593-91.811-52.593-91.811z" fill="url(#o)"/>
 </g>
</svg>
