<?xml version="1.0" encoding="UTF-8"?>
<svg width="31.868mm" height="32.046mm" version="1.1" viewBox="0 0 112.91895 113.54758" xmlns="http://www.w3.org/2000/svg" xmlns:xlink="http://www.w3.org/1999/xlink">
 <defs>
  <linearGradient id="u">
   <stop stop-color="#6c0200" offset="0"/>
   <stop stop-color="#6c0200" offset=".14307"/>
   <stop stop-color="#6c0200" offset=".42689"/>
   <stop stop-color="#6c0200" offset=".64764"/>
   <stop stop-color="#3f0100" offset="1"/>
  </linearGradient>
  <linearGradient id="t">
   <stop stop-color="#502800" offset="0"/>
   <stop stop-color="#994f08" offset=".26626"/>
   <stop stop-color="#bf7c38" offset=".44311"/>
   <stop stop-color="#ffce53" offset="1"/>
  </linearGradient>
  <radialGradient id="ad" cx="51.544" cy="976.14" r="4.8644" gradientTransform="matrix(1 0 0 .59762 0 393.44)" gradientUnits="userSpaceOnUse">
   <stop stop-color="#a1a1d3" offset="0"/>
   <stop stop-color="#2121b1" offset=".2374"/>
   <stop stop-color="#0e0e70" offset=".52813"/>
   <stop stop-color="#000035" offset="1"/>
  </radialGradient>
  <radialGradient id="ae" cx="33.559" cy="965.36" r="2.8389" gradientTransform="matrix(-1.1986 -.7961 .62993 -.94841 -534.33 1907.5)" gradientUnits="userSpaceOnUse" xlink:href="#t"/>
  <radialGradient id="af" cx="54.698" cy="962.77" r="2.7815" gradientTransform="matrix(-1.9496 1.4058 -.61028 -.84637 748.88 1699.8)" gradientUnits="userSpaceOnUse" xlink:href="#t"/>
  <radialGradient id="ag" cx="46.169" cy="974.53" r="16.253" gradientTransform="matrix(.82861 .078988 -.07667 .8043 82.729 185.68)" gradientUnits="userSpaceOnUse">
   <stop stop-color="#ffce53" offset="0"/>
   <stop stop-color="#ffd875" offset=".28153"/>
   <stop stop-color="#ffce53" offset=".49906"/>
   <stop stop-color="#ffce53" offset=".93404"/>
   <stop stop-color="#cda02f" offset="1"/>
  </radialGradient>
  <pattern id="aa" xlink:href="#w" patternTransform="matrix(.85 0 0 1 -8.4853 927.72)"/>
  <pattern id="w" width="10" height="10" patternTransform="translate(0) scale(10)" patternUnits="userSpaceOnUse">
   <circle cx="2.567" cy=".81" r=".45"/>
   <circle cx="3.048" cy="2.33" r=".45"/>
   <circle cx="4.418" cy="2.415" r=".45"/>
   <circle cx="1.844" cy="3.029" r=".45"/>
   <circle cx="6.08" cy="1.363" r=".45"/>
   <circle cx="5.819" cy="4.413" r=".45"/>
   <circle cx="4.305" cy="4.048" r=".45"/>
   <circle cx="5.541" cy="3.045" r=".45"/>
   <circle cx="4.785" cy="5.527" r=".45"/>
   <circle cx="2.667" cy="5.184" r=".45"/>
   <circle cx="7.965" cy="1.448" r=".45"/>
   <circle cx="7.047" cy="5.049" r=".45"/>
   <circle cx="4.34" cy=".895" r=".45"/>
   <circle cx="7.125" cy=".34" r=".45"/>
   <circle cx="9.553" cy="1.049" r=".45"/>
   <circle cx="7.006" cy="2.689" r=".45"/>
   <circle cx="8.909" cy="2.689" r=".45"/>
   <circle cx="9.315" cy="4.407" r=".45"/>
   <circle cx="7.82" cy="3.87" r=".45"/>
   <circle cx="8.27" cy="5.948" r=".45"/>
   <circle cx="7.973" cy="7.428" r=".45"/>
   <circle cx="9.342" cy="8.072" r=".45"/>
   <circle cx="8.206" cy="9.315" r=".45"/>
   <circle cx="9.682" cy="9.475" r=".45"/>
   <circle cx="9.688" cy="6.186" r=".45"/>
   <circle cx="3.379" cy="6.296" r=".45"/>
   <circle cx="2.871" cy="8.204" r=".45"/>
   <circle cx="4.59" cy="8.719" r=".45"/>
   <circle cx="3.181" cy="9.671" r=".45"/>
   <circle cx="5.734" cy="7.315" r=".45"/>
   <circle cx="6.707" cy="6.513" r=".45"/>
   <circle cx="5.73" cy="9.67" r=".45"/>
   <circle cx="6.535" cy="8.373" r=".45"/>
   <circle cx="4.37" cy="7.154" r=".45"/>
   <circle cx=".622" cy="7.25" r=".45"/>
   <circle cx=".831" cy="5.679" r=".45"/>
   <circle cx="1.257" cy="8.519" r=".45"/>
   <circle cx="1.989" cy="6.877" r=".45"/>
   <circle cx=".374" cy="3.181" r=".45"/>
   <circle cx="1.166" cy="1.664" r=".45"/>
   <circle cx="1.151" cy=".093" r=".45"/>
   <circle cx="1.151" cy="10.093" r=".45"/>
   <circle cx="1.302" cy="4.451" r=".45"/>
   <circle cx="3.047" cy="3.763" r=".45"/>
  </pattern>
  <radialGradient id="ah" cx="37.06" cy="980.76" r="33.634" gradientTransform="matrix(1 0 0 1.0371 4.2033e-6 -36.402)" gradientUnits="userSpaceOnUse" xlink:href="#u"/>
  <linearGradient id="y" x1="44.614" x2="44.116" y1="958.49" y2="986.87" gradientUnits="userSpaceOnUse">
   <stop offset="0"/>
   <stop stop-color="#441e0c" offset=".041784"/>
   <stop stop-color="#441e0c" offset=".11229"/>
   <stop stop-color="#441e0c" offset=".47356"/>
   <stop stop-color="#441e0c" offset=".84801"/>
   <stop stop-color="#441e0c" offset=".9646"/>
   <stop offset="1"/>
  </linearGradient>
  <pattern id="ab" xlink:href="#v" patternTransform="matrix(1.0021 0 0 .7369 5.6569 939.04)"/>
  <pattern id="v" width="10" height="10" patternTransform="translate(0) scale(10)" patternUnits="userSpaceOnUse">
   <circle cx="2.567" cy=".81" r=".45"/>
   <circle cx="3.048" cy="2.33" r=".45"/>
   <circle cx="4.418" cy="2.415" r=".45"/>
   <circle cx="1.844" cy="3.029" r=".45"/>
   <circle cx="6.08" cy="1.363" r=".45"/>
   <circle cx="5.819" cy="4.413" r=".45"/>
   <circle cx="4.305" cy="4.048" r=".45"/>
   <circle cx="5.541" cy="3.045" r=".45"/>
   <circle cx="4.785" cy="5.527" r=".45"/>
   <circle cx="2.667" cy="5.184" r=".45"/>
   <circle cx="7.965" cy="1.448" r=".45"/>
   <circle cx="7.047" cy="5.049" r=".45"/>
   <circle cx="4.34" cy=".895" r=".45"/>
   <circle cx="7.125" cy=".34" r=".45"/>
   <circle cx="9.553" cy="1.049" r=".45"/>
   <circle cx="7.006" cy="2.689" r=".45"/>
   <circle cx="8.909" cy="2.689" r=".45"/>
   <circle cx="9.315" cy="4.407" r=".45"/>
   <circle cx="7.82" cy="3.87" r=".45"/>
   <circle cx="8.27" cy="5.948" r=".45"/>
   <circle cx="7.973" cy="7.428" r=".45"/>
   <circle cx="9.342" cy="8.072" r=".45"/>
   <circle cx="8.206" cy="9.315" r=".45"/>
   <circle cx="9.682" cy="9.475" r=".45"/>
   <circle cx="9.688" cy="6.186" r=".45"/>
   <circle cx="3.379" cy="6.296" r=".45"/>
   <circle cx="2.871" cy="8.204" r=".45"/>
   <circle cx="4.59" cy="8.719" r=".45"/>
   <circle cx="3.181" cy="9.671" r=".45"/>
   <circle cx="5.734" cy="7.315" r=".45"/>
   <circle cx="6.707" cy="6.513" r=".45"/>
   <circle cx="5.73" cy="9.67" r=".45"/>
   <circle cx="6.535" cy="8.373" r=".45"/>
   <circle cx="4.37" cy="7.154" r=".45"/>
   <circle cx=".622" cy="7.25" r=".45"/>
   <circle cx=".831" cy="5.679" r=".45"/>
   <circle cx="1.257" cy="8.519" r=".45"/>
   <circle cx="1.989" cy="6.877" r=".45"/>
   <circle cx=".374" cy="3.181" r=".45"/>
   <circle cx="1.166" cy="1.664" r=".45"/>
   <circle cx="1.151" cy=".093" r=".45"/>
   <circle cx="1.151" cy="10.093" r=".45"/>
   <circle cx="1.302" cy="4.451" r=".45"/>
   <circle cx="3.047" cy="3.763" r=".45"/>
  </pattern>
  <radialGradient id="ai" cx="96.813" cy="956.43" r="7.6287" gradientTransform="matrix(.89772 -.44057 .18024 .36726 -162.49 647.27)" gradientUnits="userSpaceOnUse" xlink:href="#u"/>
  <pattern id="ac" xlink:href="#x" patternTransform="matrix(.31858 .51911 1.3394 -.82198 .70711 947.17)"/>
  <pattern id="x" width="2" height="1" patternTransform="translate(0) scale(10)" patternUnits="userSpaceOnUse">
   <rect y="-.5" width="1" height="2"/>
  </pattern>
  <radialGradient id="aj" cx="64.693" cy="1013.4" r="8.3125" gradientTransform="matrix(2.1316 .4797 -.12433 .55247 52.906 421.55)" gradientUnits="userSpaceOnUse">
   <stop stop-color="#ffce53" offset="0"/>
   <stop stop-color="#ca9c26" offset=".65865"/>
   <stop stop-color="#ca9c26" offset=".77161"/>
   <stop stop-color="#ca9c26" offset="1"/>
  </radialGradient>
  <radialGradient id="ak" cx="31.61" cy="1037.3" r="25.344" gradientTransform="matrix(1.3403 .014797 -.0031838 .2884 -6.7842 720.53)" gradientUnits="userSpaceOnUse">
   <stop stop-color="#ffce53" offset="0"/>
   <stop stop-color="#ca9c26" offset=".66358"/>
   <stop stop-color="#ca9c26" offset=".77161"/>
   <stop stop-color="#ca9c26" offset="1"/>
  </radialGradient>
  <linearGradient id="z" x1="82.369" x2="96.093" y1="970.91" y2="955.7" gradientUnits="userSpaceOnUse">
   <stop stop-color="#845500" offset="0"/>
   <stop stop-color="#845500" offset=".57255"/>
   <stop offset=".78181"/>
   <stop offset="1"/>
  </linearGradient>
  <radialGradient id="al" cx="49.402" cy="993.48" r="5.9033" gradientTransform="matrix(2.1962 .01757 -.0086396 1.0799 -50.31 -81.966)" gradientUnits="userSpaceOnUse">
   <stop stop-color="#4d0100" offset="0"/>
   <stop stop-color="#721a15" offset=".46843"/>
   <stop stop-color="#6d2517" offset=".59302"/>
   <stop stop-color="#7a3927" offset=".68145"/>
   <stop stop-color="#cda02f" offset="1"/>
  </radialGradient>
 </defs>
 <g transform="translate(3.7367 -942.76)" fill-rule="evenodd">
  <path transform="translate(0 946.06)" d="m34.547 0.73438c-0.55029-0.021259-1.1151 0.030103-1.6719 0.18945-2.4964 0.13677-2.939 1.0437-4.25 1.625 1.3552 0.1657 2.928 0.1137 4.4375 0.125 0.81692 0.19065 1.6558 0.29336 2.3125 1.125l0.25 2.125c-2.1355-1.0059-4.3441-1.9281-7.625-1.625l-5.375 2.625-7-1.375-1.8125 0.6875 1.125 0.75c0.4061 0.47917 0.61447 0.95833 0.6875 1.4375l-0.25 3.5c-4.5988 1.4563-8.5233 2.2956-11.75 6.125 2.8735-0.92693 4.1883-1.6168 6.875 0.125-3.9979 2.8735-6.5161 5.3636-8.625 10l5.5-2.25c-3.2463 4.3622-5.6281 8.1741-6.5 13.75l3.0625-1.4375-1.0625 6.0625c-0.044955 3.0056 0.5033 4.9944 1.625 6l2.625-3.875c0.9731 4.3625-0.68474 6.1993 4 14.125l0.375-5.5c1.8614 3.1662 3.4466 6.7467 6.25 8.5 0.27155-1.4376 0.70144-2.8978 2.125-4.5l2 3.625c1.0892 2.7007 1.4912 5.5978 3.625 8 1.25 2.1323 2.5 3.9418 3.75 7.5 0.6501 1.517 1.7693 4.3238 3.75 9.5 0.1215 1.8181 0.74799 2.2223 0.125 6.125l-1.5 0.875-3.5-0.875c-2.2935 0.5067-3.4943 1.9968-4.125 4-0.08333 1.5417 0.54167 2.875 2.125 3.75 1.6035 0.5472 3.2318 0.8956 5 0.125 1.3333 0.6122 2.6667 1.1922 4 0.5 1.2862-0.3422 2.8137-2.132 4.25-3.375-0.60201 1.699-1.5755 3.2122-1.25 5.375 0.75809 0.6161 1.1575 1.6267 3.5 0.5 1.234 0.4357 2.2657 1.3775 4.125 0.25 1.3081 0.7358 2.4015 0.9582 3.875-0.125 1.2743 0.49 2.4177 1.7029 4 0.5 0.5-1.0011 1-0.1927 1.5-3.875-0.97029-3.1315-1.6775-3.3692-2.5-4.875l0.875-1.875v-5l2.125-8 0.375-7.625c0.2768-2.4766-0.4725-3.3408 0.875-7.5l2.625 1.375 3.375 6.75 4.75 4.5 1.25 2.875c0.08313 2.4943 1.0808 3.9433 0.125 7.625-0.22004 1.3425-1.2823 1.8427-2.125 2.5625-1.7917-0.3335-3.7917-0.6458-6.25-0.3125-0.68158 1.2885-1.4462 2.0371-1.8125 5.375 0.46781 0.7737 0.03631 1.7722 1.6875 2.25l2.25-0.625 1.75 0.875 1.875-0.5 3.375 1.125c1.2141-0.0437 2.1214-1.0383 2.875-1.875 2.159 1.443 3.8289 1.9078 5.5 2.375l7.5 0.125c0.90832-0.6528 1.7712-1.457 2.1875-3.75l-2.4375-4.5 0.8125-3.0625-0.5625-5.6875 1.375-7-2.375-3c1.1667-2.3333 1.8333-4.1667 2-5.5l1.375-8.625-1-12c1.5157-0.01108 2.9567 0.42655 4.625-0.5 1.9167-1.0947 3.8333-0.90002 5.75-4.75 0.5211-1.916 1.4819-2.7768 1.25-6.5-0.17819-2.2423-1.2095-3.9159-2.375-5.5-2.403-2.193-5.0107-4.3041-6.625-6.8125-0.63241-0.63471-1.1524-1.4381-1.125-3.0625l1-2.375c0.78309-1.5601 2.0524-2.3415 2.6875-4.9375l4.8125 0.6875c0.84034-0.61834 1.486-0.26333 2.625-2.375 0.97133-1.1286 0.92689-1.4758 3.875-4.125 0.99274-1.8333 2.0411-3.6667 1.25-5.5-1.1721 2.7457-2.5456 2.2709-3.875 2.5-2.125 0.69282-4.25 1.9235-6.375 1.875-1.238 0.04105-2.4745 0.07129-3.875 1.25-1.2711 1.5833-0.9764 3.1667-0.4375 4.75-2.0633 0.92348-2.9478 2.0434-4.0625 3.125-2.1113 2.6034-2.5807 4.842-3.25 7.125 0.4307 1.6647 1.4028 3.252 3 4.75l5 5.75 1.375 6c-0.95848 1.2559-0.46129 3.1356-3.5 3.5-1.2597-0.32608-2.6286-0.57019-3.25-1.375l-4.5-6-7.75-4.125c-2.8865 0.22021-5.8311-0.02417-8.5625 1.4375l-3.1875-6.0625 2.25-0.5 3 2.5c-0.54808-3.0677-1.6076-6.3627-5.125-10.75 1.75-0.45571 3.5 0.40608 5.25 1.25-0.70971-2.0953-3.8216-4.8824-8.25-7.125l5.875-0.5c-0.72673-1.2602-3.2991-2.7049-5.625-4.125-3.0138-0.50482-5.8901-1.3764-9.375-0.625 1.0423-0.69988 1.8051-1.4556 3.625-2 2.0613-1.0353 4.3566-1.2517 6.75-1.125l-4-1.4375c-1.9347-0.17289-4.2184-0.61931-5.5 0.1875l-6.375 3.5-5.5-4c-0.78196-0.40908-2.3023-1.1257-3.9531-1.1895zm6.3281 67.689c2.0332 2.9105 2.9189 6.7385 3.625 10.312-0.35453 4.0084-0.68823 6.8189-1.375 9 0.25382 3.0468 0.46386 6.7505 0.875 7.4375-0.27932 1.3287-0.91998 1.0109-1.6875 0.875-1.6535-5.5892-1.3454-5.6005-1.0625-6.1875-0.50692-4.301-1.1219-8.2059-2.125-10.688 0.6043-3.4183 1.2558-6.8438-0.25-9.9375 0.82833-0.2421 1.812-0.2502 2-0.8125zm36.25 8.875c1.805 3.971 2.0364 7.1874 2.625 12.188l-1.75 3.6875c-2.8894-0.0848-3.0714 0.764-4.1875 1.375 0.9642-2.6016 2.2527-5.2896 0.8125-7.25 0.44983-3.3881 0.91041-6.7747 2.5-10z" fill="#ffce53" stroke="#f00" stroke-width=".35433"/>
  <path d="m19.887 1005.3-2.1213 4.2427c-3.0802-2.1476-4.5538-5.2769-6.1872-8.3086l-0.7955 5.215c-3.2905-4.9118-3.188-9.889-3.9248-14.242-1.716 2.1298-2.1119 4.0511-2.2624 5.9337-1.5028-3.9921-1.6241-8.8131-0.7955-13.888l-3.0936 1.7785c1.3609-4.9057 2.7446-9.8063 6.6291-14.142l-5.3917 2.4749c1.6916-3.6061 3.4716-7.1902 8.7504-9.8995-0.73212-1.0486-1.6796-1.5373-2.8284-1.5026l-3.8891 1.0607c2.323-3.705 6.7071-5.1771 11.844-5.8336l-0.17678-3.8891c-0.25934-1.1254-1.3712-1.3983-2.2981-1.8562 0.8245-0.38919 1.1807-1.0593 3.0936-0.7955l5.5685 1.2374 5.4801-2.2097c2.3367-0.39121 4.9997-0.021 8.0433 1.2374l-0.35355-2.2097-2.49-0.9303-4.1605-5e-3c1.4458-0.62106 1.0216-1.5784 5.9435-1.9812 4.4838 0.52483 6.6832 3.3341 9.5459 5.4801 2.3495-2.0859 4.9342-3.5671 7.8666-4.1542 3.3056-0.0124 5.9826 0.52518 7.955 1.6794-2.8551 0.0878-5.0189 0.47796-6.5407 1.149-1.8854 0.6678-2.9962 1.2711-3.8891 1.8562 3.1636-0.2396 6.0974 0.21041 9.0156 0.70711 2.6284 1.0405 4.7766 2.2731 5.7452 3.9775-1.654 0.63574-3.6948 0.71274-6.0988 0.26517 4.0217 2.0403 6.9133 4.6456 9.104 7.6014-2.0516-0.81656-4.107-1.6467-5.8336-1.3258 2.8318 3.4781 5.5094 6.965 5.4801 10.607l-3.182-2.3865-2.2981 0.44194c1.7374 2.0058 2.1997 3.9054 3.0052 5.8336 0.95231 3.0167 1.6858 5.969 1.2374 8.5737l-3.2704-5.3917c-0.18376 2.2911-0.41937 4.5304-1.5026 5.922l1.7678 3.0936c1.8605 2.5582 1.3381 4.9165 0.88388 6.5407l-2.2517 4.5909-2.1677-4.856c-1.7287 5.3447-4.7455 10.822-7.1595 13.7-0.04098-1.7505 0.05667-3.7089-0.61872-4.5078-1.8862 5.0271-4.2678 6.7097-6.4524 9.7228l-0.35355-2.7133c-0.96716-1.0421-1.6373-0.6106-2.1213-0.2036-1.2486 0.9956-2.7361 2.4009-3.4471 2.4749-2.5794-0.2671-4.6218-1.2054-6.5407-2.298-1.7463-1.0178-2.7869-2.5649-3.8891-4.066 0.19333 2.1364-0.06189 3.7121 0.72319 6.5881-4.3034-2.3518-5.9098-4.2888-6.9988-6.1461z" fill="url(#ah)" stroke="#f00" stroke-width=".35433"/>
  <path d="m44.258 986.48-0.61872 2.8284c0.63568 1.4041 1.6621 1.9487 2.5427 2.7811 0.50969-0.86218 1.0009-1.7797 1.3464-3.1346 0.21184 0.90283 0.5228 1.6894 1.2374 2.74 0.59129 0.39342 1.2213 1.0192 1.7365 0.95618 0.54075-1.3217 1.0815-3.0417 1.6222-3.9614l1.3258 1.9445 0.46783 2.0222c0.69282-0.71486 0.9526-1.8583 1.4972-2.8695 0.09387-0.99109-0.04612-1.6704-0.1973-2.3347l-0.35355-0.53033c-1.4168-0.33966-2.8925-1.0326-4.1543-0.44194-1.7362-0.52141-2.2016-0.0897-3.0052 0.0884-1.149-0.61819-2.2981-0.26193-3.4471-0.0884z" fill="url(#al)"/>
  <path d="m19.887 1005.3-2.1213 4.2427c-3.0802-2.1476-4.5538-5.2769-6.1872-8.3086l-0.7955 5.215c-3.2905-4.9118-3.188-9.889-3.9248-14.242-1.716 2.1298-2.1119 4.0511-2.2624 5.9337-1.5028-3.9921-1.6242-8.8131-0.7955-13.888l-3.0936 1.7785c1.3609-4.9057 2.7446-9.8063 6.6291-14.142l-5.3917 2.4749c1.6916-3.6061 3.4716-7.1902 8.7504-9.8995-0.73213-1.0486-1.6796-1.5373-2.8284-1.5026l-3.8891 1.0607c2.323-3.705 6.7071-5.1771 11.844-5.8336l-0.17678-3.8891c-0.25933-1.1254-1.3712-1.3983-2.2981-1.8562 0.8245-0.38919 1.1807-1.0593 3.0936-0.7955l5.5685 1.2374 5.4801-2.2097c2.3367-0.39121 4.9997-0.021 8.0433 1.2374l-0.35355-2.2097-2.49-0.9303-4.1605-5e-3c1.4458-0.62106 1.0216-1.5784 5.9435-1.9812 4.4838 0.52483 6.6832 3.3341 9.5459 5.4801 2.3495-2.0859 4.9342-3.5671 7.8666-4.1542 3.3056-0.0124 5.9826 0.52518 7.955 1.6794-2.8551 0.0878-5.0189 0.47796-6.5407 1.149-1.8854 0.6678-2.9962 1.2711-3.8891 1.8562 3.1636-0.2396 6.0974 0.21041 9.0156 0.70711 2.6284 1.0405 4.7766 2.2731 5.7452 3.9775-1.654 0.63574-3.6948 0.71274-6.0988 0.26517 4.0217 2.0403 6.9133 4.6456 9.104 7.6014-2.0516-0.81656-4.107-1.6467-5.8336-1.3258 2.8318 3.4781 5.5094 6.965 5.4801 10.607l-3.182-2.3865-2.2981 0.44194c1.7374 2.0058 2.1997 3.9054 3.0052 5.8336 0.9523 3.0167 1.6858 5.969 1.2374 8.5737l-3.2704-5.3917c-0.18375 2.2911-0.41937 4.5304-1.5026 5.922l1.7678 3.0936c1.8605 2.5582 1.3381 4.9165 0.88388 6.5407l-2.2517 4.5909-2.1677-4.856c-1.7287 5.3448-4.7455 10.822-7.1594 13.7-0.041-1.7505 0.0567-3.7089-0.61872-4.5078-1.8862 5.0271-4.2678 6.7097-6.4524 9.7228l-0.35355-2.7133c-0.96716-1.0421-1.6373-0.6106-2.1213-0.2036-1.2486 0.9956-2.7361 2.4009-3.4472 2.4749-2.5794-0.2671-4.6218-1.2054-6.5407-2.298-1.7463-1.0178-2.7869-2.5649-3.8891-4.066 0.19334 2.1364-0.0619 3.7121 0.7232 6.5881-4.3034-2.3518-5.9098-4.2888-6.9988-6.1461z" fill="url(#aa)" opacity=".199" stroke="#f00" stroke-width=".35433"/>
  <path d="m41.688 960.05c-1.9914-0.4058-2.7628-0.11443-3.625 0.125-1.368 0.48712-1.289 1.3877-1.5625 2.1875-0.25984-1.4442-0.85323-2.0544-1.4375-2.6875-1.5-1.2737-3-1.202-4.5-1-1.9917 0.78608-3.9161 1.6767-4.4375 4.75 0.0866 2.3196 0.90111 3.4886 2.25 4.4375-0.18551 0.86089 0.0067 1.6798 1.3125 2.375 1.2019 0.95146 1.5117 1.7755 3.75 2.875l-1.3125 3.9375 1.875 3.5625 3.5625 1.5625 1.25 2.8125c1.6291 1.1197 5.2123 4.2645 5.3125 1.5 1.7608 0.81849 2.4505 0.45047 3.498 0.14315 0.97839 0.95674 2.1423 0.33591 3.0645-0.20565 3.19 1.5088 3.4311 0.85501 4.25 0.625 0.21065-1.2423 0.28686-2.5294 0-3.9375l1.25-0.5625c1.1132-1.2359 2.2377-2.4635 1.5625-5-0.0617-1.36-0.52735-2.0107-1.375-2.5625-0.15411-1.0459 0.62492-2.7707 0.5625-5.1875l-1.625-3.3125c1.1566-0.63308 2.4613-0.22925 3.3125-3 0.03612-1.7652-0.01353-3.5232-1.9375-5.125-1.2069-0.36457-2.372-0.82637-4.0625-0.0625l-1.875 2.0625c-1.808-0.87052-2.7272-0.78965-3.75-0.875-1.9781-0.43423-3.8315-0.49445-5.3125 0.5625z" fill="url(#ag)"/>
  <path d="m50.932 970.44c0.11271-0.48271 0.28848-1.0075 0.7513-1.7236l1.591-0.26516 1.5468 0.57452c0.01957 0.52549-0.44626 1.5364-0.88388 2.5191-0.59021 0.54363-1.3872 0.77704-2.2097 0.97227-0.4446-0.33351-0.70444-1.0365-0.7955-2.0771z" fill="#fff" stroke="#0ff" stroke-width=".35433"/>
  <path d="m51.664 968.79c-0.32614 0.29959-0.91234 1.127-0.70822 2.2968 0.20413 1.1697 1.4097 1.2259 1.655 1.6626 0.73836-0.37262 1.059-0.41023 1.5715-1.136 0.25222-0.35723 0.88273-2.2703 0.92112-2.6999-0.31018-0.28651-0.55573-0.50247-0.92295-0.60515-0.39554-0.11059-0.80659-0.25497-1.4625-0.17579-0.6559 0.0792-0.78198 0.44818-1.0539 0.65751zm2.367 1.8464c-0.14936 0.30759-0.68104 0.91288-1.1152 1.1347-0.21611 0.1104-1.1901 0.57962-1.4297-0.45227-0.19538-1.6064 0.03263-2.26 1.2351-2.4835 0.29746-0.0553 1.5705 0.17127 1.7852 0.41382-0.29348 0.65341-0.3667 1.1633-0.47546 1.3873z" color="#000000" color-rendering="auto" image-rendering="auto" shape-rendering="auto" solid-color="#000000" style="block-progression:tb;isolation:auto;mix-blend-mode:normal;text-decoration-color:#000000;text-decoration-line:none;text-decoration-style:solid;text-indent:0;text-transform:none;white-space:normal"/>
  <path d="m39.132 969.38c1.3479-0.50816 2.7782-1.4284 4.0217-1.4142 1.4601 0.64613 2.0261 1.404 2.5633 2.1655-0.01904 0.95413-0.38874 1.0316-0.61872 1.4584-0.94281 0.38272-1.8856 0.29708-2.8284 0.35355-0.74302-0.37935-1.4844-0.75217-2.3423-1.591z" fill="#fff" stroke="#0ff" stroke-width=".35433"/>
  <path d="m40.289 971.22c0.81261 0.68786 2.0902 1.5174 4.6789 0.64705 1.5105-0.49905 0.44202-1.2419 0.51296-2.1604-0.72279-0.91544-1.7676-1.8657-2.5287-1.8997-0.75659-0.0338-1.6647 0.18256-2.3225 0.46248-0.44289 0.18846-1.2152 0.8135-2.1703 0.5108 0.10829 0.90886 0.89789 1.651 1.8297 2.4398zm4.8763-0.89055c0.14417 0.59422-1.1097 1.4541-2.5146 1.2276s-2.1449-1.1623-2.8052-1.8537c1.2132-0.64568 1.5584-1.1619 2.852-1.1203 0.85974 0.0276 2.3236 1.1521 2.4678 1.7463z" color="#000000" color-rendering="auto" image-rendering="auto" shape-rendering="auto" solid-color="#000000" style="block-progression:tb;isolation:auto;mix-blend-mode:normal;text-decoration-color:#000000;text-decoration-line:none;text-decoration-style:solid;text-indent:0;text-transform:none;white-space:normal"/>
  <path d="m56.625 1013.3s5.7932-2.5276 8.6875-2.0065c3.054 0.5493 7.9375 4.757 7.9375 4.757-0.43884-2.094-1.1522-4.1034-2.75-7.6875 0 0-2.4207-2.3728-3.9375-2.5-2.9766-0.2497-8.375 2.9375-8.375 2.9375z" fill="url(#aj)"/>
  <path d="m25 1016.2c2.0989 3.6381 7.5162 4.8551 10.062 3.9375 2.7757-1.0003 4.5-1.6875 4.5-1.6875l-0.5-3.0625c-3.7404-0.7676-7.5301-1.1773-10.625-6.625l0.75 6.8125c-2.9317-1.2469-4.6331-3.314-6.625-5.1875z" fill="url(#ak)"/>
  <path transform="translate(0 946.06)" d="m71.188 30.492c-2.048 0.03059-4.7725 0.45398-6.3758 1.5822-0.0039 0.25043 0.03298 0.48199 0.14342 0.85144 2.5095-0.48205 4.8848-0.74954 7.9004-0.26562 4.0895 0.65624 6.2484 2.994 9.4737 6.0493 2.6694 2.5286 4.0957 7.533 4.003 10.353-0.13521 4.1134 0.97653 7.1524 0.80564 11.214-0.17999 4.278-1.1416 7.556-2.2236 11.659-0.21502 0.81538-0.67056 1.4874-1.1544 2.0938 0.72092 0.71649 1.629 1.4366 1.8789 2.6289 0.10223 0.48771-0.1887 1.8465-0.33398 2.5488-0.6963 3.3659-0.4134 7.4379 0.23633 10.834-0.57835 0.61775-0.86049 1.1835-0.95101 1.721-0.1444 0.85761 0.19884 1.6437 0.60504 2.4553 0.47494 0.94896 1.8528 2.1241 1.7542 3.2944-0.11124 1.3206-1.2357 1.8903-1.6557 2.1845-0.41367 0.2898-0.93597 0.12324-1.5494-0.42476 0.1298-0.65112 0.14522-1.5242 0.03711-2.0078-0.17336-0.77554-0.29569-1.4212-0.76367-2.1309-0.27843 0.41076 0.06853 0.85968 0.11222 1.7023 0.04229 0.81566 0.18109 1.7367-0.05753 2.4052-0.54813 0.74566-0.9788 0.76332-1.7676 0.82422-0.35754 0.0276-0.78228-0.11611-1.2305-0.48438 0.0707-0.22488-0.30804-1.3069-0.26563-1.8438 0.09194-1.1637 0.50669-1.7848 0.0098-2.8301-0.13927 0.55786-0.33319 1.0845-0.46842 1.8628-0.16872 0.971-0.2461 1.9932-0.01205 2.7661-0.65995 0.54533-1.1752 0.6953-1.834 0.50391-0.48656-0.14135-0.89568-0.43776-1.1934-0.79688-0.09295-0.83463-0.21562-0.99684-0.07813-2.166 0.10096-0.85848 0.8191-1.8474 0.88477-2.2559-0.58474 0.27419-1.0208 0.89729-1.2316 1.5138-0.29538 0.86388-0.39387 1.8988-0.2567 2.6425-0.62822 0.56178-1.4135-0.21173-1.6211-0.43359-0.50715-0.54211-0.58294-1.3019-0.43555-2.1426 0.42312-2.4134 2.867-3.5184 4.5176-2.4824 1.7685-1.8542 2.6012-3.9477 2.2715-6.623-0.46498-3.773-0.73467-6.9473-2.1855-10.203 0.41995-0.70922 0.89608-2.0559 0.71289-2.5996-0.42452-1.2599-2.6473-1.9855-3.6191-3.3379-0.89822-1.25-1.5101-2.524-2.043-3.7363-0.97724-2.2232-1.314-4.5918-3.0391-6.4492-0.37391-0.40259-1.8342-1.1397-2.2832-1.3359 0.96317-0.47411 1.6498-0.83108 2.625-1.8652 1.096-1.1622 1.3518-4.3324 1.1309-4.5332-1.3133 3.4654-2.7665 4.3187-4.7969 5.0254-0.52313 0.18208-1.0651 0.47963-1.6934 0.53516-1.5909 0.1406-3.1986 0.67427-4.584 1.6016-0.71154 0.47628-1.3663 1.0213-1.9336 1.582 0.0229-0.24241 0.03527-0.47932 0.02539-0.70117-0.03953-0.8872-0.0333-1.4573-0.23828-1.9805-0.52466-1.3392-1.2122-1.7114-2.1562-2.3672 0 0 0.86152 1.428 1.1992 2.2871 0.33773 0.85919 0.25575 1.5265 0.13477 2.1094-0.1578 0.76025-0.54604 1.6959-0.83203 2.6641-0.22735 0.76968-0.4374 1.2417-0.53516 1.7188-0.30858 1.506-0.94794 4.4922-0.87695 7.0664 0.15486 5.6157-1.4298 11.167-2.9277 16.518 0.07715 1.4758 0.2877 3.4173 0.52148 4.7637-0.15448 0.6433-0.60617 1.0109-0.69922 1.9434-0.83345-0.5917-1.7708-1.0035-2.7305-0.98438-1.0846 0.022-2.5004 0.4059-3.8398 1.0957 1.0028-0.194 2.7114-0.09389 3.7129 0.03711 0.77429 0.1006 1.6748 0.45373 2.6953 1.2363 1.17 0.8972 1.9743 2.862 1.9473 4.5391-0.01971 1.2208-0.50577 2.1451-1.4688 2.5586-0.7299 0.31344-1.6693 0.37971-2.5566-0.49023-0.31469-0.86012-0.36859-1.6673-0.37695-2.7539-0.0046-0.59439-0.07875-1.2304-0.39844-1.8145-0.28798 0.38944-0.13605 1.2051-0.22394 1.9216-0.10576 0.86211 0.06398 1.7131 0.27277 2.3694-0.2875 0.79694-0.73865 1.207-1.4707 1.2695-0.56069 0.0479-1.388-0.25866-1.9453-0.71094-0.42022-0.64002-0.3469-1.4355-0.41016-2.1426-0.04428-0.4949 0.01527-1.5119-0.02148-2.4414-0.36612 0.61131-0.60554 1.6107-0.6302 2.5772-0.01594 0.62499-0.06707 1.4549 0.12043 1.9385-0.41028 0.52795-0.72935 0.64984-1.2402 0.5664-0.82792-0.13523-1.3304-0.37432-1.7617-0.70703-0.19345-0.77614-0.28887-1.1619-0.37109-1.8047-0.06976-0.54533 0.35804-2.0274 0.76367-2.959-0.7284 0.54914-1.2212 1.7189-1.3227 2.6559-0.07328 0.67608-0.04051 1.3611 0.12155 1.9222-0.1233 0.25346-0.06386 0.767-0.77148 0.71875-1.507-0.10276-1.5103-1.1732-1.5742-2.0606-0.14215-1.9742 2.4088-4.7632 4.0723-5.7168 0.97821-0.097 1.4634-0.49023 1.6797-1.0488 0.30524-0.7884-0.41217-1.8172-0.55469-2.8965-0.22533-1.6526-0.15518-3.3738 0.0078-5.002 1.0123-2.7832 1.4217-6.081 1.0469-9.1992-0.4744-3.9469-1.7923-7.6999-3.791-11.088-1.465 1.4345-0.82312 1.9052-2.7793 1.6289 0.48616 3.3409 1.2676 6.8061 0.02539 10.098 1.7732 3.2416 0.96008 7.1506 2.2852 10.543-1.4896 2.2943 2.5033 5.1171-0.45898 6.8203-1.2441 1.7799-3.3232 3.8746-5.3861 4.6775-1.2815 0.49878-2.6042 0.55317-3.6218-0.38455-0.57738-0.53208-1.1962-1.835-1.082-2.8047 0.09408-0.79944 0.73717-1.6498 1.0996-2.2773-1.2661 0.46441-1.8082 1.7954-1.7291 3.0957 0.05396 0.88719 0.39706 1.7601 0.99664 2.334-1.3279 0.50607-2.9724 0.24258-4.1055-0.5586-0.25499-0.8532-0.13917-2.0357 0.29687-2.8945 0.51149-1.0074 1.1589-1.4675 1.9082-2.1543-1.1045 0.24199-1.8701 0.83199-2.3286 1.5627-0.47388 0.75531-0.90509 1.6625-0.65818 3.0307-0.72876-0.0925-1.0754-1.1906-0.86562-2.3155 0.15992-0.8576 0.75299-1.8246 1.2528-2.2798 1.1874-1.0816 3.5445-1.2525 5.0898-0.45312 0.90922 0.0634 1.1969-0.2173 1.5742-0.28125 0.89194-0.02788 1.7697 0.40328 2.6435 0.55139 0.83369 0.14131 1.8513 0.37474 2.8116-0.01819 0.7779-0.31829 1.4365-1.3345 1-2.0879-0.1843 0.70699-0.60772 1.1554-1.151 1.3888-0.64052 0.27514-1.4476 0.25134-2.2259-1.23e-4 -0.51085-0.16505-1.2665-0.80525-2.1973-0.87109 0.75938-1.6115 0.30644-4.3064 0.13086-5.8711-0.49445-4.4065-3.5916-7.9124-4.7285-12.201-0.96341-3.6342-4.2735-6.1467-5.2773-9.8516-1.0092-0.9519-1.6414-1.716-2.5273-2.8945 1.5641 3.7368 2.7122 7.5642 5.2852 10.779 1.9138 2.3915 1.8223 5.7057 3.3086 8.3672 1.1122 1.9916 2.4487 4.0653 2.7715 6.3223 0.12815 0.896 0.28955 2.2056 0.08203 3.2676-0.15808 0.809-0.66013 1.3805-0.79297 2.0605-1.1451-0.2762-2.6342-0.72454-3.7891-0.58594-2.4051 0.2886-4.245 1.9507-4.7031 4.7832-0.43255 2.6741 1.8708 4.3578 4.2969 4.6875 1.2364 0.1681 2.5367-0.27739 3.457-0.58399 1.3248 1.0746 2.1862 1.4587 3.582 1.2734 1.2232-0.1624 2.4645-1.439 3.3516-2.6894-1.0211 2.6675-0.30828 3.9789-0.11719 4.1621 0.43443 0.4165 0.81515 0.9044 1.5332 1.1309 0.48528 0.15304 1.6208 0.0913 2.5273-0.57813 0.31745 0.5647 0.74611 0.92544 1.3203 0.92578 1.1127 6.6e-4 1.3161-0.0458 2.4395-1.1328 0.47504 0.9232 1.3596 1.2906 2.4238 1.3867 0.65599 0.0593 1.2959-0.28871 1.7949-0.9707 0.94251 0.8645 2.4561 0.99412 3.3906 0.66992 1.9314-0.67 2.7511-3.2416 2.5703-5.3184-0.21789-2.503-3.3601-3.9328-1.7637-6.457-0.40334-3.7942 0.78601-7.366 1.916-11.072 1.4814-4.8589 0.97366-10.159 0.89062-15.209-0.0079-0.4783 0.48296-0.58379 0.74805-0.56055 0.28583 0.02506 0.58622 0.26904 0.88867 0.64453 1.0159 1.2612 2.187 3.9542 2.6719 5.0566 0.83892 1.9074 2.6163 3.2004 4.1211 4.6348 1.3862 1.3213 2.4198 2.7633 2.5176 4.9121 0.09164 2.0145 1.3999 4.8605 0.26562 6.6191-0.27296 0.42319-0.6419 1.3824-1.3281 1.709-0.7149 0.34018-1.7578-0.3389-2.5781-0.48047-1.5094-0.26049-3.8644 0.24804-4.7188 1.2754-1.3026 1.5664-2.3896 5.3703-0.95312 7.0605 0.35976 0.42333 1.2858 1.0513 2.1925 1.0842 0.85914 0.0312 1.6945-0.51014 2.2391-0.91621 0.45126 0.78888 1.2383 1.3634 1.9453 1.3906 0.65857 0.0254 1.7052-0.14634 2.166-0.85353 0.41262 0.38082 1.869 1.2468 2.4238 1.3047 0.67086 0.07 2.4556-0.39665 3.1328-2.0527-0.0028 0.42446 0.23609 1.2716 0.8873 1.7172 0.46761 0.32 1.4807 0.69072 2.1283 5e-3 0.69191 1.5309 2.8153 2.2145 4.0195 0.96875 1.079 0.8626 2.5488 1.4552 3.7129-0.12695 1.2419 0.57045 2.262 0.42331 3.0671-0.11251 1.0669-0.71014 1.7561-2.103 2.0833-3.4129 0.72772-2.9133-2.5414-4.7498-1.9141-7.5508 0.62362-1.8922-0.29414-5.1249-0.02734-8.3516 0.1682-2.0343 0.91611-4.1045 1.332-5.3105-0.86246-1.5578-1.6779-2.1797-2.8105-2.9785 1.5702-2.8088 3.0888-7.6296 3.5781-11.117 0.69982-4.9881-0.56151-9.2901-0.95897-14.309-0.25968-3.2789-0.93057-5.731-1.7656-7.4258-0.73549-1.4922-1.8787-3.4835-3.3477-5.0972-1.8024-1.9801-3.8446-3.1102-5.5566-4.1797-1.3922-0.86972-3.6578-1.4255-5.9902-1.3906zm-5.1738 29.76c0.90648 0.0204 1.6866 0.29648 2.3594 0.75195 2.1244 1.4383 3.131 4.6758 3.709 7.2949 0.43372 1.9653 2.0843 3.5916 3.3867 5.1328 0.45934 0.54356 1.2173 1.0415 1.3301 1.7441 0.13152 0.8191-0.44512 1.8837-0.80273 3.1055-0.87902 3.0032-1.8641 6.306-1.7695 9.3359 0.72604 1.9875 0.54158 3.8632-0.5293 5.3066-1.0688 1.4407-1.9131 2.4594-1.834 4.3711 0.07107 1.7175-1.4576 2.5259-2.8066 2.1836-0.94226-0.23907-1.7639-0.48266-2.2676-1.1328-0.34854-0.4499-0.52162-1.1528-0.48633-1.7422 0.01926-0.32156 0.14954-1.2405 0.28125-2.0391-0.48673 0.37684-0.83554 1.1284-0.92871 1.7659-0.12121 0.82936 0.11403 1.6422 0.48145 2.2478-0.35674 0.27398-0.9899 0.30557-1.3672 0.26172-0.6943-0.0807-1.5627-0.32454-1.7363-1.9531-0.11729-1.1002 0.21486-1.634 0.48047-2.6699-0.74174 0.59802-0.99863 1.3056-1.1094 1.9473-0.15295 0.88626-0.06408 1.4583 0.08398 2.2207-0.53768 0.55991-2.0526 0.52771-2.4062 0.27148-1.5073-1.0922-0.13278-3.9571 0.56836-4.9102 1.2481-1.6964 3.2003-1.3806 4.5609-1.126 0.75532 0.14135 1.641 0.46568 2.1995 0.06485 0.63285-0.45425 1.3715-0.39469 2.1178-0.28569 0.61578 0.08994 1.6843 0.72679 2.282 0.99329-0.23792-0.68464-0.87711-1.1287-1.5332-1.5449-0.25222-0.16001-1.1666-0.23318-1.3906-0.30078 0.32602-0.74714 0.88809-1.8979 1.0391-2.9375 0.34325-2.3637-0.15447-4.9529-0.41016-7.2305-0.2444-2.177-1.796-3.5839-3.3027-4.9668-1.478-1.3566-3.0329-2.6732-3.7461-4.6074-0.51048-1.3845-1.0259-2.9122-1.9297-3.8535-0.78151-0.81397-1.9009-1.079-2.9863-1.7656 0.11013-0.31855 0.43014-1.275 0.56641-1.7363 0.08836-0.29914 0.16196-0.62811 0.24219-0.94922 0.43989-0.35841 0.97562-0.66001 1.2461-0.80664 1.4134-0.76628 2.6712-1.3256 4.4238-1.998 0.41608-0.15963 1.7331-0.44901 1.9844-0.44337zm-25.77 8.6211c1.8002 2.9859 3.3511 6.717 3.5215 10.248 0.14198 2.943-0.53772 5.9305-1.166 8.7207 0.24845 1.4846 0.17677 3.7724 0.71094 6.7012 0.06399 0.3509-0.0018 0.94422-0.60938 0.79102-0.45915-0.9724-1.4843-3.7482-0.74219-5.4375-0.76555-1.5807-0.37407-5.259-0.80078-7.1211-0.5094-2.223-1.2277-2.4314-1.3984-3.5684 1.1313-2.9722 1.56-5.0742 0.22656-8.5391l-0.11914-1.2949zm37.094 9.9395c0.02932 1.5174 0.85492 4.6311 1.0488 6.5293 0.27212 2.6639 0.97215 5.2087-0.9043 7.3379-0.8268-0.21928-1.8512 0.21445-2.4648 0.36133 0.75071-1.4063 1.5631-5.009 0.45117-6.1621 0.7634-1.8055 0.71687-6.4806 1.8691-8.0664z" color="#000000" color-rendering="auto" fill="#845500" image-rendering="auto" shape-rendering="auto" solid-color="#000000" style="block-progression:tb;isolation:auto;mix-blend-mode:normal;text-decoration-color:#000000;text-decoration-line:none;text-decoration-style:solid;text-indent:0;text-transform:none;white-space:normal"/>
  <path d="m90.156 958.36c0.17345 1.1113 0.79934 1.5691 2.0329 1.149 2.9014 0.45195 5.2305 0.64635 5.7894 0.0442 0.38784 2e-3 1.6775-1.2584 4.4194-4.552 0.84978-1.2513 1.9388-1.7849 2.4749-3.9775 0.39022-1.368 0.0754-1.8546 0.0442-2.6958-0.33576 1.213-1.5675 1.6793-2.5633 2.3423-2.0182-0.0944-4.0364 1.1309-6.0546 1.7678-1.9671 0.22513-3.6602 0.61461-5.0381 1.1932-1.1495 1.0248-1.9394 2.3034-1.1049 4.7288z" fill="url(#ai)"/>
  <path d="m30.823 966.06c0.52047 0.25298 0.52966 1.983 0.61872 3.3146 1.3878-0.67432 2.0915-2.3924 3.1378-3.9775-0.28439-2.7733-0.9188-2.3963-1.4142-3.2704-1.0607-0.5527-2.1213-0.72693-3.182-0.22097-1.0813 1.2643-0.6302 2.0688-0.61872 3.0052 0.47742 0.69114 0.96725 1.1787 1.4584 1.149z" fill="url(#ae)"/>
  <path d="m55.881 962.31c-0.57931-0.52554-1.0506-1.1591-2.0771-1.2374-1.1611-0.0643-1.7375 0.5397-2.0771 1.4142 0.12149 1.0754-0.12103 2.1508 1.1049 3.2262 1.3111 0.54867 2.6222 0.6295 3.9333 0.35355-0.97454-1.043-1.4375-2.2433-0.88388-3.7565z" fill="url(#af)"/>
  <path d="m35.641 954.72c-0.49469 0.0254-2.1407 0.0752-2.0356 0.36081 1.9105 0.90045 2.9738 1.3013 4.9714 2.7718 0.80753 0.59447 1.4357 1.0015 1.8936 1.6232-0.6128-0.0583-1.5426-0.13094-2.3509 0.16358-0.73805 0.26893-1.3747 0.89598-1.5761 1.0708-0.88277-2.183-3.6085-2.9853-5.6897-2.7178-3.4568 0.44424-5.5576 3.4847-5.1995 6.7001 0.12563 1.1281 1.6001 3.7018 3.4222 3.4076-1.2819-0.87192-2.0415-2.3716-2.0271-3.927 0.02313-2.5016 1.575-4.5953 4.3136-4.7682 1.876-0.11847 3.9713 0.48146 4.5493 2.479 0.16212 0.56023 0.48058 1.6096 0.70286 1.8243 0.33989-1.0819 0.7379-2.8576 2.1381-3.1368 1.2215-0.2436 2.726 0.0423 3.656 0.0795-0.34659-1.7932-4.7261-4.1593-6.3704-5.0198 1.472 0.0421 2.7777 0.34155 3.4146 0.55437 1.1991 0.40067 3.9915 1.4198 5.722 2.4367-1.1592-1.2324-2.9967-2.3131-3.9317-2.8126-1.677-0.89593-3.6813-1.1881-5.6026-1.0895zm14.922 5.3248c-0.95027-1.0099-3.6982-1.1241-4.5904-0.96419 0.57467 0.71825 1.243 1.7108 1.6296 2.5572 0.43388 0.94997 0.01521 1.8045-0.51662 2.9932 0.83712-0.56162 1.4763-1.9016 1.4493-2.4773-0.05929-1.2656-0.42956-1.2426-1.0588-2.1546 1.151-0.0161 2.2872 0.18204 3.2854 0.90284 1.224-0.90609 1.6406-2.2418 3.3883-2.2854 1.1457-0.0286 3.104 0.34747 3.7783 2.3016 0.34125 0.98897-0.04715 2.3373-0.40858 3.182-0.48423 1.1317-3.0653 2.4465-4.4745 0.97565-0.71704-0.74841-0.86651-1.6576-0.66197-2.3859 0.17272-0.61501 0.73003-1.2354 2.0107-1.0218 0.56437 0.0941 1.0786 0.15798 1.4685 1.3214 0.56534-1.0974-0.41469-1.932-0.80373-2.108-1.1587-0.52429-2.4002-0.17615-2.9937 0.32348-0.76267 0.64208-1.163 1.9977-0.80797 2.9958 0.54125 1.5216 2.0148 2.5284 3.3264 3.1254 0.97414 0.44343 1.7595 1.7277 1.8087 2.5544 0.04417 0.7418 0.13698 3.4336-0.54256 4.4071 0.38907 0.50021 0.15209 2.0637 0.59111 2.5 0.78094 0.77601 1.4882 2.9052-0.7164 4.9823-0.61608 0.58046-1.2265 0.60682-1.8626 0.18944-0.25647-0.16828-0.2392-1.0437-0.15592-1.385 0.22776-0.67434 0.12354-0.77624-0.81275-0.71685-0.38553-0.0491-0.92622-0.10402-0.99186 0.46425-0.03799 0.32891-0.19675 1.5761-0.35523 1.6964-2.8015 1.1792-4.4689 1.3552-7.0383 0.96279-1.0936-0.16704-2.2886-0.67322-3.2851-1.5012-0.5663-0.47052-1.0924-1.1206-0.99046-1.9202 0.11883-0.93168 2.6676-1.6681 2.5562-2.2225-0.51736 0.0592-1.4871 0.0657-1.7529-0.21291-0.46709-0.48949-1.1021-1.4386-1.4289-2.013-0.20021 0.51515-0.17659 0.98757 0.0352 1.6537 0.09706 0.30527 0.33728 0.74666 0.29937 1.0116-0.03528 0.24659-0.25227 0.33713-0.51689 0.58746-0.58137 0.54997-0.72958 1.1935-0.60216 1.8219 0.20573 1.0145 0.77637 2.2989 1.7562 2.7769 2.2419 1.0938 5.0177 2.1354 7.5668 1.8871 1.6796-0.16362 3.3156-1.4824 4.5309-1.8357 0.18815 0.51306 1.139 1.3094 1.8084 0.93777 0.26297 0.33929 0.50378 2.5998-0.26776 3.092 1.6404 1.9388 0.67628 3.3873-0.15393 4.7622 0.01278-1.3491-0.80461-1.8131-1.5243-3.1141-0.58755-1.0621-1.2766-1.9322-1.8343-2.3231 0.0068 0.70002 0.26421 0.90499 0.51255 1.4851 0.17555 0.41005 0.22686 0.75332 0.24083 1.1551 0.01242 0.35713-0.33056 1.1741-0.5825 1.8479-0.12747 0.34091-0.29563 0.74118-0.51141 1.2198-0.94557-0.31319-1.6271-1.057-2.1968-2.0509-0.74213-1.2946-0.14193-2.9595-0.46813-3.7154-0.1794 0.757 0.06251 1.2842-0.69324 2.3556-0.10045 1.5177-0.65665 2.0479-1.0857 2.8537-0.65966-0.44929-1.1909-1.4172-1.4073-2.2948-0.13107-0.53154-0.1487-1.0311-0.22379-1.479-0.02449-0.14609 0.2077-0.61315 0.20802-1.0376 3.4e-4 -0.44821-0.07776-0.83183 0.17484-1.2244-0.47347 0.34656-0.60425 0.76642-0.78975 1.0969-0.13774 0.24538-0.49006 0.34316-0.58773 0.33003-1.398-0.188-3.0846-1.1775-3.7033-2.0845-0.3546-0.51977-0.90114-2.4749-1.535-3.0504-0.24424-0.22176-1.5547-1.7555-1.6928-2.9108-0.18788 0.36964-0.52226 1.3899 0.38917 2.2126-1.4164-0.5492-3.1724-1.3793-3.6825-2.9842-0.17634-0.55487-0.30757-1.7843-0.30442-2.4459 0.0045-0.94045 0.96254-2.1921 0.90988-2.8636-0.72804 0.42311-1.7686 1.376-1.9494 2.7633-0.26164 2.0082-0.08152 3.2792 0.86432 4.159 1.2876 1.1978 3.2337 2.4809 4.9361 2.9216 0.52635 1.048 0.30522 2.2168 1.6738 3.2635 1.0546 0.80657 3.2396 1.7885 3.999 2.1993-0.02694 0.84981-0.60323 2.1856 1.0601 3.1583 0.60033 0.35903 1.6457 1.9914 2.183 1.5296l1.1472-2.2926c0.51878 1.4059 1.7345 2.4283 3.1738 2.7812 0.43627-1.0288 0.8575-3.2804 1.354-3.646 1.3222 1.1516 1.4839 2.5893 1.4995 4.1597 0.67702-0.80729 1.3037-1.6129 1.7332-2.5914 0.29221-0.66575 1.0048-2.9108 0.05164-4.0751 0.28371-1.3527 0.70034-1.923 0.25844-3.3749 0.99313-0.2119 2.6386-2.1899 2.8767-4.1063 0.26361-2.122-0.94567-3.605-1.8702-5.3845 0.48633-1.0369 0.78317-2.6896 0.63709-4.2224-0.11692-1.2268-0.57316-2.353-1.0307-3.202 1.7407-0.53775 2.6469-1.9436 2.8251-3.0106 0.23472-1.4052 0.47654-4.0696-1.8407-5.5198-1.446-0.90499-2.7989-1.1285-4.0075-0.72746-1.2086 0.401-2.1498 1.1208-2.6865 2.4778zm-21.637 4.7095c0.32898 1.0121 1.7728 2.0343 2.3081 1.163-1.1274-0.16217-1.5239-1.1944-1.3607-2.1425 0.14706-0.85471 0.75481-1.7668 1.6799-1.6602 1.7351 0.19993 2.713 2.7207 1.9015 4.3105-0.53714 1.0523-2.2574 2.8244-4.0684 3.9004 1.9314-0.0555 4.0414-1.7101 4.6094-2.541 0.97103-1.4206 1.212-2.3067 1.1526-2.9996-0.16653-1.943-1.3596-3.5031-3.4745-3.6829-2.1149-0.17984-3.4568 1.4716-2.748 3.6523zm12.48 3.0321c1.9203 0.71883 3.486 0.42837 3.7848 2.7962 0.14742 1.1685-1.167 0.85878-0.50412 1.9006-0.83505 0.0368-1.673 0.49751-3.1114 0.36234-0.9213-0.0866-3.3918-1.1789-3.6185-1.9363-0.45214 0.82775 2.2901 2.8939 3.5027 2.8837 0.94608-8e-3 2.246 0.0897 3.1673-0.0459 0.74144-0.10908 1.668-0.31022 1.8512-0.58449 0.29562-0.75511-0.50543-0.57856-0.9017-1.004 8.02e-4 -0.40617 0.67688-1.3026 0.7174-1.9259 0.06047-0.93033-0.69722-1.5252-1.4874-2.282-1.2613-1.2081-4.942-1.4647-6.2896-1.577 0.27744 0.70027 2.4095 1.2329 2.8893 1.4125zm11.383-0.0195c-0.79412 0.32096-1.5972 0.82028-1.9044 1.555-0.41872 1.0015-0.40922 2.5615 0.41429 3.3595 0.66963 0.64885 1.6444 1.1716 2.9266 1.4166-0.81699-0.63558-1.1246-0.97638-1.859-1.7277-0.58993-0.60357-0.88423-1.3024-0.85778-2.0415 0.04951-1.3833 0.81388-1.7452 1.2802-2.5619z" color="#000000" color-rendering="auto" fill="url(#y)" image-rendering="auto" shape-rendering="auto" solid-color="#000000" style="block-progression:tb;isolation:auto;mix-blend-mode:normal;text-decoration-color:#000000;text-decoration-line:none;text-decoration-style:solid;text-indent:0;text-transform:none;white-space:normal"/>
  <path d="m53.225 975.66c-1.2143 0.0357-2.8009-0.97595-3.9123-0.48549-0.54512 0.24057-0.95635 0.85118-1.0625 1.4375-0.08106 0.44773 0.06885 0.9759 0.375 1.3125 0.69242 0.7613 2.0649 0.49035 2.875 1.125 0.34126 0.26735 0.38494 0.8287 0.75 1.0625 0.48174 0.30852 1.1448 0.49352 1.6875 0.3125 0.67135-0.22394 0.86677-1.144 1.4375-1.5625 0.59376-0.43537 1.4061-0.36033 1.8011-0.98169 0.40234-0.63295 0.60491-1.5752 0.19887-2.2058-0.27257-0.4233-0.61078-0.49225-1.1098-0.55871-1.0253-0.13654-2.0065 0.51381-3.0404 0.5442z" fill="url(#ad)" stroke="#f00" stroke-width=".35433"/>
  <path d="m53.223 975.35c-0.47512 4e-3 -1.642-0.47255-2.1041-0.5828-1.0289-0.24544-1.7603-0.0488-2.658 0.46067-0.5236 0.29715-0.70661 0.87438-0.79109 1.5355-0.07183 0.56219 0.20314 1.0943 0.65343 1.4287 0.60737 0.45107 1.9437 0.76435 2.6511 0.98815 0.47685 0.15086 0.46224 1.0197 0.84337 1.3175 0.79558 0.62155 1.3824 0.69864 2.3386 0.35408 0.48095-0.1733 0.88643-1.174 1.3036-1.4523 0.73603-0.49109 1.6397-0.59794 2.1174-1.3541 0.45526-0.72059 0.50184-1.7456 0.12983-2.5251-0.33494-0.70176-1.1675-1.0007-1.9793-0.84226-0.81178 0.15847-1.6752 0.66562-2.5048 0.672zm3.5227 0.4542c0.43107 0.31854 0.41285 1.1191 0.22028 1.4927-0.37651 0.73052-1.7406 0.92455-2.1201 1.2441-0.32474 0.27351-1.0374 1.1105-1.5078 1.1392-0.47184 0.0287-1.0682-0.45034-1.3325-0.79871-0.48415-0.63804-1.508-0.40225-2.2121-0.76275-0.55581-0.2846-1.0742-1.2098-0.86005-1.6951 0.3359-0.76135 2.2218-0.74597 2.7741-0.55423 0.96182 0.33393 1.9526 0.20437 3.0339-0.21851 0.47748-0.18672 1.4146-0.28239 2.0042 0.15331z" color="#000000" color-rendering="auto" fill="#000625" image-rendering="auto" shape-rendering="auto" solid-color="#000000" style="block-progression:tb;isolation:auto;mix-blend-mode:normal;text-decoration-color:#000000;text-decoration-line:none;text-decoration-style:solid;text-indent:0;text-transform:none;white-space:normal"/>
  <path d="m44.033 970.06c2e-6 0.62583-0.41372 1.1763-1.0149 1.3503s-1.2449-0.0704-1.5792-0.5994c-0.3343-0.52905-0.27859-1.2154 0.13665-1.6836 0.41524-0.46822 1.09-0.60555 1.6552-0.33688-0.40472 0.38003-0.7038 0.74179-0.89958 1.5445 0.29165-0.24037 0.63359-0.68425 1.7018-0.27494z" color="#000000" fill="#004512"/>
  <path d="m54.062 970.32c-0.14062 0.68833-0.69432 1.2726-1.0149 1.3503-0.43513 0.10542-1.0731 0.0389-1.4073-0.49002-0.18054-0.45592-0.14982-1.1487 0.02727-1.7305 0.41524-0.46822 1.0275-0.66805 1.5927-0.39938-0.40472 0.38003-0.49286 0.44491-0.68864 1.2477 0.29165-0.24037 0.42266-0.38737 1.4909 0.0219z" color="#000000" fill="#004512"/>
  <path d="m98.828 953.32c-0.70991 0.5954-2.1347 1.031-2.9747 1.1316-0.83997 0.10064-1.799 0.15557-2.7324 0.72461-0.56454 0.34415-0.96323 0.9532-1.293 1.4863-0.32974 0.53313-0.79776 1.7513-0.79776 1.7513 0.74565-0.7323 0.79007-1.1699 1.3822-1.7562 0.45993-0.45541 0.86064-0.85917 1.0974-1.0035 0.6956-0.42405 1.4977-0.5156 2.3502-0.74062 1.3485-0.35593 2.4885-0.26168 2.968-1.5935z" color="#000000" color-rendering="auto" image-rendering="auto" shape-rendering="auto" solid-color="#000000" style="block-progression:tb;isolation:auto;mix-blend-mode:normal;text-decoration-color:#000000;text-decoration-line:none;text-decoration-style:solid;text-indent:0;text-transform:none;white-space:normal"/>
  <path d="m100.51 953.75c-0.86173 0.43895-1.0559 0.24215-1.8223 0.83188-0.9476 0.7291-1.3735 2.1429-2.3711 2.8019-1.3011 0.85951-3.0722 0.097-4.84 1.2681 0.7513-0.0663 1.4377-0.24129 2.0463-0.31093 0.56191-0.0643 2.3193 0.25993 3.2261-0.21342 1.1148-0.58186 1.18-2.4242 2.3154-2.9646 1.3791-0.65642 3.6379-2.4339 3.3924-2.8127 0 0-1.4579 1.1507-1.9468 1.3998z" color="#000000" color-rendering="auto" image-rendering="auto" shape-rendering="auto" solid-color="#000000" style="block-progression:tb;isolation:auto;mix-blend-mode:normal;text-decoration-color:#000000;text-decoration-line:none;text-decoration-style:solid;text-indent:0;text-transform:none;white-space:normal"/>
  <path transform="translate(0 946.06)" d="m34.225 0.24249c-2.9911 0.12279-4.8365 1.3406-6.7039 2.8181 1.9618 0.038131 5.4307-0.48146 7.0481 0.69016 0.37622 0.27252 0.578 0.76155 0.02416 1.1204-1.8588-0.82074-4.0945-1.2507-6.9023-0.92578-1.1674 0.13508-4.9626 2.107-6.2578 2.1289-1.5553 0.02625-3.5644-0.89817-5.4023-0.94141-1.4031-0.033007-2.7332 0.66998-3.5293 1.3867 0.50606 0.39897 1.5846 0.47308 2.082 0.70508 0.54786 0.25554 0.64778 1.0064 0.63477 1.3262-0.03451 0.84813-0.6062 2.486-0.38281 2.8594-1.5631 0.15073-1.5669 0.29213-2.6445 0.43359-2.6595 0.34912-5.0625 1.8211-6.9043 3.709-0.83668 0.85762-2.8322 2.8119-3.3867 3.9062 1.9703-0.79937 3.1724-1.4884 3.8164-1.6582 2.0244-0.53364 3.3511-0.04463 3.6934 0.50977-0.25836 0.17121-2.1013 1.4097-2.3457 1.5957-1.3546 1.0311-2.4956 2.2831-3.4395 3.6758-1.2223 1.8035-2.1139 3.8442-2.709 5.9492 1.4616-0.78175 2.9232-2.0523 4.3848-2.207-2.2349 2.9348-3.8369 6.325-4.7539 9.8926-0.31161 1.2123-0.58882 3.5505-0.74023 4.793 1.5246-1.8185 2.261-2.3379 3.5508-3.0215-0.21407 0.85757-0.91605 3.4381-0.9707 4.2949-0.25284 3.9641 1.066 7.89 2.7148 11.49 0.45404-1.9512 0.087144-4.6393 1.4062-6.418-0.20577 2.246 0.30629 4.8084 1.2148 7.2246 0.90952 2.4188 2.2171 4.6901 3.5996 6.3535 0.32906-0.9912 0.64764-3.2067 0.69141-4.7402 0.75295 1.1711 1.0632 2.3752 2.3555 4.1953 1.0516 1.4812 2.3151 2.6102 4.2305 3.3398 0.02125-0.86906 0.19876-2.3295 1.123-4.2812 1.9038 4.0017 5.8416 8.1027 9.9805 9.7598-0.61025-1.9668-0.64392-3.6654-0.78125-5.9941 0.83125 1.7249 3.0396 3.3833 5.0684 4.2891 1.9511 0.87106 4.1032 1.3319 5.7793 1.3184 0.90193-1.2735 2.4817-2.8834 3.4922-2.8496 0.62291 0.02082 0.99224 0.35437 0.97266 2.0918-0.01099 0.97484-0.09757 1.6387-0.44922 2.6094 0.68493-0.80269 2.0212-2.2053 2.5293-2.8945 1.8503-2.5102 3.9305-4.4538 4.9609-7.4355 0.594 1.8868-0.2055 3.3533-0.36914 5.2598 3.4725-3.9912 6.6756-9.4137 8.293-14.498-0.07278 1.8309 1.7493 3.1303 1.957 4.8887 0.30525-0.36972 1.5897-3.0986 1.8223-3.498 1.3008-2.2337 1.7115-4.9115 1.0176-7.498-0.4271-1.5919-1.4925-3.2024-2.375-4.4922 0.53176-0.87398 1.1715-1.8476 1.3926-3.7734 0.98423 1.3561 1.8475 3.065 3.0488 5.2559 0.96458-4.807-1.0276-11.937-3.7949-15.812 0.64254-0.25964 1.5903-0.20821 2.248 0.16406 1.292 0.73121 2.2218 2.3191 2.8223 2.5547 0.27181-2.1995-0.13845-4.1193-0.97656-5.8301-0.69616-1.421-2.7928-4.5104-3.9355-5.6836 1.8351 0.31834 4.267 0.91636 5.7305 2.0664 0.12051-1.0357-1.6149-3.6779-2.7324-4.5117-1.3918-1.0384-3.2378-2.5729-4.9666-3.4841 1.5659 0.17019 4.271-0.06104 5.2498-0.3948-1.9562-2.5314-4.2026-4.2745-7.1882-5.3846-1.0043-0.37339-4.7923-0.90532-7.686-0.3849 1.2285-0.24607 3.3339-1.6076 5.6549-1.8773 2.4788-0.28808 4.5158-0.098733 6.2448 0.23076-1.7541-1.0392-3.6485-1.9957-5.6178-2.587-2.283-0.68543-4.7144-0.79566-7.0501-0.13956-2.2162 0.62251-4.9803 2.8241-5.7729 2.9253-0.80963 0.10342-2.9722-1.9112-4.5381-2.8305-1.5654-0.91901-3.8809-1.8321-5.5281-1.7644zm-0.8894 1.3083c1.0218-0.029466 1.9312 0.057324 2.1094 0.083984 1.9708 0.29493 3.584 1.2717 5.0703 2.48 1.2173 0.98968 2.3496 2.1347 3.5235 3.1879 1.4054-1.2623 4.6404-3.4279 6.4108-4.1568 2.2193-0.91379 4.7254-0.35292 7.1201 0.34529-1.6982 0.13439-4.8696 0.82272-6.3234 1.567-1.2601 0.64509-2.4914 1.465-3.8033 2.3657 2.5163-0.48232 3.4944-0.38929 4.1474-0.40188 1.4226-0.027438 2.3808 0.11165 4.5978 0.6925 2.6924 0.70537 5.3228 1.9559 7.0753 3.3821-2.1989 0.40495-6.3095 0.03427-8.0412-0.72346 2.9627 2.0725 4.0478 2.9079 6.1634 4.4329 1.1693 0.84282 3.2018 2.1811 4.1088 3.2444-2.5846-0.90608-4.1636-0.98615-5.2937-0.60302 0.54053 1.0357 1.9167 3.1262 2.9492 4.6582 1.11 1.6469 2.4039 3.2206 2.4746 4.7969-2.871-2.7589-3.2418-1.0217-3.7871-1.1914-1.1355-0.35341-1.732-0.61381-3.375-1.3789 0.86993 1.0833 1.5814 1.5771 2.7051 3.002 0.96842 1.3684 1.7738 2.8446 2.3965 4.4043 0.85278 2.1361 1.7354 5.2394 1.8418 7.6191-1.0175-1.4821-2.1576-3.6394-2.9512-4.7344-1.0196-1.4068-2.0854-2.4001-3.7852-2.7383 0.51789 0.69476 1.4866 1.2104 2.1094 2.2207 0.5048 0.81885 0.72163 2.0537 0.77148 3.248 0.05604 1.3426-0.4355 2.2598-0.91211 2.957-0.50777-0.19282-1.1427-0.37217-1.541-0.84766-0.21587-0.25769-1.1213-1.2729-1.6328-1.793-0.21749 0.46695 0.66079 1.9113 1.0977 2.4473 0.53431 0.65548 1.1339 0.7695 1.1113 1.4824-0.01112 0.35116-0.49948 1.095-0.71875 1.3945-0.75779 1.0353-1.2308 1.7091-1.709 2.1602-0.23718-1.0144 0.14861-3.1431-0.24609-3.8945-0.30976-0.58975-0.30622-0.78875-1.4414-1.9453 0.40111 1.1341 0.79412 2.2634 0.87305 2.8926 0.21866 1.7431-0.34584 4.4652 0.07227 4.543 0.4898 0.09111 1.6501-1.1686 2.3555-2.0195 0.75013-0.90501 1.5785-1.6138 1.8789-1.7812 1.3464 2.0598 2.8723 3.845 2.4961 6.252-0.17358 1.1106-1.3169 4.6107-2.0723 5.5742-0.12295-1.4672-0.99941-3.0879-1.3333-4.0222-0.70483-1.9719-1.0611-2.6304-1.5104-3.1165 0.05855 0.94674 0.34576 1.5411 0.14062 2.4551-0.32522 1.4491-1.1965 3.1691-1.6914 4.3203-0.71864 1.6717-1.5251 3.6737-2.2461 5.166-0.30548 0.63225-1.3028 2.8512-2.1465 3.6875-0.05072-1.0602-0.65742-3.57-0.79492-4.2012-0.39155-1.7973 0.65215-3.6862 0.38477-5.5449-0.15219-1.0579-1.0986-1.5183-1.8066-2.6953-0.98464-1.6368-0.76302-2.1996-0.80787-3.5468-0.72715 1.6605-0.57517 1.9707-0.23901 3.1639 0.35564 1.2623 0.93261 1.4134 1.4316 2.6543 0.45145 1.1226 0.73149 2.2686 0.42188 3.498-0.98917 1.3601-0.71324 1.172-0.49805 3.1504-0.26055 0.29269-0.34216 1.6672-1.0332 2.9238-0.66264 1.205-1.9807 2.4669-2.2324 2.8691-0.45061 0.71992-1.2523 1.8361-2.0039 2.7715-0.20377-1.2815-0.09315-1.7216-1.123-2.2832 0.27074-0.96017 1.3622-2.8818 1.9863-4.0938 0.89561-1.7392 1.6268-3.7044 0.27344-5.5078-1.2426-1.6558-2.1495-3.5811-2.4512-5.5879-0.17969-1.1954 0.13994-2.5907-0.05273-3.5039-0.56521 1.1142-1.0355 2.0118-0.81445 3.5332 0.26776 1.8429 1.0963 3.888 1.9004 5.0391 1.9124 2.7378-0.069 7.395-1.9336 9.2637-1.1576 1.1602-2.1618 3.3617-3.4727 3.3457-0.46539-0.0057-0.87379-1.2162-1.5566-2.1914-0.63748-0.91044-2.043-2.011-2.4668-2.8457-0.47981-0.94507-0.68508-1.9504-0.58594-3.0078 0.12809-1.3662 0.13973-2.2441 0.63281-3.6758 0.74251-2.1559 2.046-2.7391 1.4785-4.625-0.18094 1.656-1.5612 2.8932-2.1836 4.5469-0.54972 1.4606-0.90283 2.5464-1.0742 3.5977-0.1468 0.90037 0.2439 1.9981 0.72266 3.0703 0.54238 1.2147 1.5112 2.3564 2.6367 3.3574 0.3295 0.4532 1.1766 1.744 1.0527 1.9922-0.38734-0.18816-3.6398-1.0068-4.0781-1.2207-1.8907-0.92265-3.9629-2.9615-4.6172-4.7578-0.2645-0.72615 0.11334-1.3896 0.37109-2.3594 0.37741-1.4199 1.08-3.5653 1.4238-4.752-0.64734 0.82327-1.9184 3.0496-2.3184 3.9102-0.50083 1.0776-1.0868 2.4735-1.125 3.6562-0.03951 1.2248 0.55807 4.005 0.81055 5.2832-1.4762-0.1559-3.7736-2.3012-5.4609-4.7891-0.98272-1.449-1.6419-3.1607-2.1172-4.2793-1.0579-2.4899-1.231-4.7227-0.98047-7.4277 0.20063-2.1661 1.0015-4.9646 0.9707-6.6523-0.98042 1.5123-1.7384 3.7795-2.1621 6.1289-0.44808 2.4846-0.21349 5.9444 0.2168 7.8184-0.55452 0.81347-0.98426 1.1185-1.9746 2.9512-2.8855-2.5478-4.4005-6.9529-4.9355-10.006-0.37621-2.1466-0.47075-4.5871 0.21875-6.7363 0.4283-1.3351 1.2053-2.5063 2.3125-3.5273 1.7198-1.5859 3.2457-4.7363 3.127-7.4102-0.98186 2.2557-2.2563 5.5072-4.584 7.4395-0.98423 0.81702-1.5054 1.9532-1.9199 3.0605-0.8019 2.1422-0.87028 4.5407-0.8418 6.7832 0.01134 0.89298 0.54639 5.3444 0.19922 6.3496-0.62923-0.53029-1.6455-3.1892-1.9375-4.7812-0.44287-2.4142-0.91913-8.3679-0.66406-9.9238 0.31469-1.9196 0.38072-3.987 1.3398-5.793 0.61376-1.1557 1.4735-2.0962 2.127-3.2363-1.4996 1.1784-2.6093 2.0953-3.2871 3.6523-0.71429 1.6407-1.3341 3.4861-1.5312 4.9297-0.22638 1.6573-0.27481 2.5086-0.91602 3.4336-0.47977 0.6921-0.7535 0.99179-1.4141 1.9277-0.75721-3.2517-0.32404-8.0345 0.26562-11.654-1.2843 1.0045-1.6302 1.5844-2.7266 1.75 0.11975-0.39539 1.0485-3.2253 1.1953-3.625 0.75325-2.0512 1.8482-4.1379 3.1348-6.0547 1.0773-1.6051 2.2896-3.0912 3.5488-4.3359-1.2147-0.09465-5.7567 2.0259-6.9492 2.9219 1.2275-1.6366 1.6974-2.6834 2.6426-3.793 1.9291-2.2645 3.5372-3.8408 5.8984-5.0762 0.87829-0.4595 2.3109-1.2242 3.2793-1.1055 0.02004-0.56164 0.79745-1.3281 1.3789-1.7754 1.4843-1.1417 3.552-1.6648 5.5176-2.1953 1.7815-0.48085 3.5878-0.74938 5.1074-0.87891-1.1914-0.29431-3.7492-0.1197-5.8516 0.24609-3.2995 0.57408-5.335 1.6066-7.0324 3.4922-1.099 0.18522-2.0212 0.56091-2.8133 1.1992-1.2902-1.4052-2.5779-1.3564-5.1641-0.76562 2.5059-2.6814 10.67-4.2578 10.67-4.2578s-0.45757-1.4796-0.24609-2.7227c0.16954-0.99657-0.51582-2.7381-1.6562-3.3516 0.28816-0.039911 1.8875-0.37248 2.9082-0.074219 1.6626 0.48581 2.6023 0.96648 3.7344 1.2266 1.0325 0.23719 2.0885 0.39033 3.0273 0.50781 1.6091 0.20134 3.1349 0.59719 4.2012 0.76758 0.9925 0.1586 1.9059 0.60286 2.6152 1.1523-1.2853-0.11706-2.5795-0.075802-3.8574 0.21094-0.32263 0.07239-1.8088 0.51184-2.2168 1.1914 2.3461-0.61906 4.5857-0.56365 6.3027-0.51562 0.71366 0.01996 3.0661 0.70805 4.3613 1.3203 0.33935 0.16041 1.45 0.58863 2.3906 0.93945-1.21-1.2884-3.6678-2.6878-4.7266-3.002-1.2179-0.91519-2.2347-1.6826-3.6562-2.2363-1.6814-0.65487-3.4536-0.95756-5.2539-1.1426 0.2637-0.25836 2.3173-1.2886 2.75-1.4121 3.8732-1.1053 5.2085-0.029411 8.8223 1.4336 0.91494 0.37041 4.7146 2.5543 5.7383 1.793-1.2965-0.29324-3.1667-1.4606-4.0176-1.9824-0.87504-0.53665-1.4673-1.0593-1.6797-2.5586-0.29353-0.93521-1.8159-1.68-3.3216-1.8307-0.76064-0.076097-2.0288 0.25895-2.8737 0.14317 0.62814-0.43985 2.4489-0.77327 3.4707-0.80273zm17.835 6.7942c-1.8754 0.11183-2.6725 0.097692-4.358 0.95577-1.5674 0.79796-1.5221 1.767-1.407 2.2012 0.51019-1.338 2.6237-2.0532 3.6064-2.3265 1.6071-0.44704 2.3615-0.20884 4.0119-0.39446 2.8149-0.31658 4.3797 1.2772 6.7732 1.1659-1.7368-0.61039-3.0293-1.2221-4.8212-1.6746-0.86717-0.21896-1.8614-0.043145-3.8052 0.072763zm-26.847 7.1335c-1.095-0.02016-2.159 0.03941-3.1836 0.2207-1.8095 0.32012-3.4258 1.1058-5.0098 2.3301-1.3678 1.0572-3.4023 1.2102-4.5059 2.5391-0.50161 0.60402-1.4024 1.4795-3.043 3.0195 2.3794-1.2534 2.4757-1.7704 4.0937-2.9316 1.338-0.96029 3.0039-1.3765 4.1953-2.0234 1.729-0.93894 2.9009-1.9234 4.3047-2.0938 1.2948-0.15714 3.0493-0.33118 4.2539-1.0156-0.3715-0.02288-0.74048-0.0382-1.1055-0.04492zm-3.3652 4.7949c-1.0043 0.42967-3.7328 2.4885-4.5586 3.2109-1.1524 1.0081-2.2124 2.1671-3.4141 3.0977-0.99954 0.77403-2.1042 1.3545-3.4238 1.6328-1.3326 0.28106-2.2493 1.3538-3.1484 2.3906-1.158 1.3353-1.3317 3.522-1.5312 4.9883 0.84633-1.8415 1.5662-3.308 2.6562-4.6309 0.86609-1.0511 1.702-1.5429 2.3984-1.709 2.4304-0.57972 4.2475-2.0627 5.9004-3.7734 1.3604-1.4081 3.5674-3.6622 5.1211-5.207zm4.7227 0.0625c-1.5419 0.42613-2.3062 1.2849-2.8535 2.2734-0.84989 1.5352-1.2437 3.2693-3.0898 4.4082-1.2528 0.77288-2.902 1.4083-4.0098 2.3789-1.2892 1.1296-2.0168 2.6184-3.2109 3.8418 2.8306-0.78003 3.5235-3.1743 4.5469-3.5547 1.3684-0.50864 3.4776-1.6983 4.3242-2.6758 1.2877-1.4868 0.94116-1.9831 2.0234-3.7246 0.63756-1.0259 1.4771-1.9058 2.2695-2.9473zm1.8516 3.0645c-1.58 1.4413-3.0943 2.6917-4.2598 4.1992-0.88495 1.1446-1.7084 2.413-1.9258 4.0723-0.30489 2.3272 1.7648 3.6515 2.6309 5.6914 0.37301 0.8786 0.3794 2.2505 0.11328 3.2969-0.29905 1.1759-1.0923 3.0008-1.168 4.6309 0.35064-1.0474 2.1072-2.8672 2.2617-3.9844 0.14966-1.082 0.27448-2.1679 0.04492-3.207-0.24237-1.0971-0.86411-2.1419-1.6777-3.0703-2.442-2.7866-0.28037-6.3084 1.7285-8.5801 1.0033-1.1345 1.3633-1.5902 2.252-3.0488zm4.4141 2.5371c-1.7072 1.0547-2.7479 2.7377-3.4199 3.7578-0.88203 1.339-1.1925 3.8061-0.80664 5.4707 0.54641 2.357 1.6481 4.3331 2.8555 6.2598 0.81997 1.3084 1.5039 2.1915 2.0625 3.7422 0.36386 1.01 0.60683 1.9193 0.45508 3.0977-0.43233 3.3573-0.83622 4.2197-1.5078 6.0547 1.5842-0.48198 2.8479-2.358 3.6699-4.2656 0.66671-1.5472 1.0414-3.1014 1.0625-4.0684 0.09467-4.348-1.8575-6.6617-2.6914-10.557 0.23889 0.0582 1.0621 0.97762 2.0195 2.3242 1.6348 2.2993 2.0803 3.5295 2.8711 5.6738 0.51105 1.3858 1.2127 3.683 1.1074 6.0371-0.10161 2.2726-0.40528 5.5228-0.44141 7.4141 0.89506-1.8564 1.5842-6.0198 1.4551-8.3867-0.13302-2.4382-0.42627-4.1414-1.1152-5.9082-0.78075-2.0022-2.5685-5.7445-4.2383-7.2754-1.2073-0.45496-2.7662-1.5095-3.3848-3.0703-0.78971 4.2859 1.0898 6.0775 2.6152 9.5332 0.20613 0.46697 0.85347 2.0593 0.86719 3.584 0.01 1.1108-0.34056 3.5097-0.58203 4.0449-0.63073 1.3981-1.3371 2.5817-2.2676 3.7188 0.20759-0.9308 0.95838-2.4137 1.2773-4.0684 0.27317-1.417 0.14726-3.041 0.01758-3.627-0.3637-1.6432-1.5766-3.1639-2.584-4.752-0.81481-1.2844-1.5859-2.5892-1.9766-3.9551-0.80242-2.8054-0.63477-4.5022 0.16602-6.3066 0.76981-1.7347 1.2772-2.7859 2.5137-4.4727zm-4.625 16.551c-0.01319 1.6726 0.61571 5.2903-1.5742 7.1211-0.87677 0.73296-1.4132 1.9541-1.7012 3.0039-0.45193 1.6477-0.31938 3.1686 0.22656 4.25 0.62688 1.2417 0.93386 1.8796 2.1504 3.6426-0.47736-1.2266-0.69997-1.7855-1.0879-3.1738-0.54078-1.9354-0.77182-2.5967-0.34766-4.4492 0.2575-1.1246 1.2532-2.2092 1.9395-3.2266 1.2276-1.8199 2.0663-4.5898 0.39453-7.168z" color="#000000" color-rendering="auto" image-rendering="auto" shape-rendering="auto" solid-color="#000000" style="block-progression:tb;isolation:auto;mix-blend-mode:normal;text-decoration-color:#000000;text-decoration-line:none;text-decoration-style:solid;text-indent:0;text-transform:none;white-space:normal"/>
  <path d="m90.156 958.36c0.17345 1.1113 0.79934 1.5691 2.0329 1.149 2.9014 0.45195 5.2305 0.64635 5.7894 0.0442 0.38784 2e-3 1.6775-1.2584 4.4194-4.552 0.84978-1.2513 1.9388-1.7849 2.4749-3.9775 0.39022-1.368 0.0754-1.8546 0.0442-2.6958-0.33576 1.213-1.5675 1.6793-2.5633 2.3423-2.0182-0.0944-4.0364 1.1309-6.0546 1.7678-1.9671 0.22513-3.6602 0.61461-5.0381 1.1932-1.1495 1.0248-1.9394 2.3034-1.1048 4.7288z" fill="url(#ab)" opacity=".251"/>
  <path d="m102.36 950.09c-1.2197-0.14245-3.8383 0.8977-5.0824 1.5149-1.6176 0.80247-3.4939 0.27283-5.1628 0.88126-1.8368 0.66964-4.1676 3.2893-2.3808 5.8472-1.8637 0.68519-3.322 2.1754-4.2609 3.4358-1.5423 2.0705-3.3718 4.6243-3.0734 7.2941 0.19579 1.7518 1.4749 3.8508 2.8777 5.0518 2.003 1.7148 3.411 3.8661 4.7251 6.2562 1.105 2.0098 1.5439 3.3641 0.5773 5.671-0.37964 0.90606-0.93886 1.8696-2.2082 1.7971-0.89508-0.0511-1.5933 2e-3 -2.5271-1.0136 0.44685 0.81116 0.58589 1.4126 0.81772 1.8937 1.2214 1.3819 1.8591 2.1925 3.6481 1.0382 2.1287-1.3735 3.144-3.552 2.5987-6.0181-0.42725-1.9321-0.58854-2.7227-1.4556-4.5021-0.70236-1.4414-1.6389-2.9362-2.8025-4.0253-1.1235-1.0516-3.0338-3.3246-3.8868-4.581-1.0456-1.5401-0.45982-3.8144 0.47977-5.4913 1.3184-2.3529 3.0876-5.5557 5.0738-6.0298 0.91424-0.52209-0.61072-2.9656 0.42871-4.0767 1.8267-1.9527 4.0006-1.9024 5.1946-1.8701 1.6693 0.0452 2.2062-1.2474 4.6607-1.5304 1.2484-0.14393 2.7195-0.11084 3.8891-1.7621-0.5457 1.8522-1.7466 4.2784-2.5982 4.7289-1.3735 0.72658-2.4133 2.0252-3.0126 3.477-0.58116 1.408-3.135 1.0994-4.5553 1.106-1.2221 6e-3 -2.3322-0.61364-2.9217 0.75934-1.1233 2.9188-1.9871 3.7129-2.9404 5.5211-1.0371 1.967-0.09139 3.6778 1.2127 5.4064 2.0584 2.7284 4.6647 4.2147 6.3617 7.2432 1.3021 2.3236 1.9411 5.1189 1.3531 7.7647-0.64955 2.9231-2.6688 5.1397-5.2611 6.5657-1.4328 0.78818-3.1219 0.57965-4.4773 0.9304 0.01838 0.52485 0.10756 0.91299 0.18961 1.1973 1.1207 0.34974 2.3803 0.27259 3.606-0.0705 1.1341-0.31742 2.2392-0.86249 3.1782-1.5077 2.229-1.5316 3.7211-3.8785 4.3809-6.4528 0.68729-2.6815 0.47161-5.6099-0.7548-8.1207-1.2386-2.5358-3.3035-4.4456-5.5298-6.0864-1.5051-1.1093-3.209-2.5568-3.4683-4.415-0.24851-1.7808 1.0748-3.4944 2.0468-4.9883 0.89456-1.3749 0.93276-1.8875 1.1002-2.8872 1.1392-0.32464 2.9971 1.1939 4.409 0.88781 1.989-0.43125 3.4174-2.3365 4.5993-3.9863 1.0004-1.3965 1.9779-1.7969 3.0974-3.7167 0.4795-0.64659 0.98129-1.6162 1.0784-2.7462 0.0839-0.97584 0.1891-2.8093-0.73299-3.4567-0.1096 0.97761-1.297 2.3187-2.4917 3.0659z" color="#000000" color-rendering="auto" fill="url(#z)" image-rendering="auto" shape-rendering="auto" solid-color="#000000" style="block-progression:tb;isolation:auto;mix-blend-mode:normal;text-decoration-color:#000000;text-decoration-line:none;text-decoration-style:solid;text-indent:0;text-transform:none;white-space:normal"/>
  <g fill="url(#ac)" opacity=".126">
   <path d="m56.625 1013.3s5.7932-2.5276 8.6875-2.0065c3.054 0.5493 7.9375 4.757 7.9375 4.757-0.43884-2.094-1.1522-4.1034-2.75-7.6875 0 0-2.4207-2.3728-3.9375-2.5-2.9766-0.2497-8.375 2.9375-8.375 2.9375z"/>
   <path d="m25 1016.2c2.0989 3.6381 7.5162 4.8551 10.062 3.9375 2.7757-1.0003 4.5-1.6875 4.5-1.6875l-0.5-3.0625c-3.7404-0.7676-7.5301-1.1773-10.625-6.625l0.75 6.8125c-2.9317-1.2469-4.6331-3.314-6.625-5.1875z"/>
  </g>
 </g>
</svg>
