<?xml version="1.0" encoding="UTF-8"?>
<svg width="778.43mm" height="677.28mm" version="1.1" viewBox="0 0 2758.2121 2399.7945" xmlns="http://www.w3.org/2000/svg" xmlns:xlink="http://www.w3.org/1999/xlink">
 <defs>
  <filter id="bk" x="-.11969" y="-.17606" width="1.2394" height="1.3521" color-interpolation-filters="sRGB">
   <feGaussianBlur stdDeviation="117.67633"/>
  </filter>
  <filter id="bl" x="-.12839" y="-.17733" width="1.2568" height="1.3547" color-interpolation-filters="sRGB">
   <feGaussianBlur stdDeviation="117.67633"/>
  </filter>
  <filter id="bm" x="-.11969" y="-.17606" width="1.2394" height="1.3521" color-interpolation-filters="sRGB">
   <feGaussianBlur stdDeviation="117.67633"/>
  </filter>
  <clipPath id="bi">
   <path d="m4113.3 2330.7c0 212.18-124.31 415.68-345.57 565.71-221.27 150.04-521.37 234.33-834.29 234.33s-613.02-84.29-834.29-234.33-345.57-434.34-345.57-646.53 140.47-456.08 361.73-606.12c221.27-150.04 505.21-113.11 818.12-113.11s645.34 140.86 866.61 290.9 313.25 296.96 313.25 509.15z" fill="#b0fc00"/>
  </clipPath>
  <clipPath id="bj">
   <path d="m4113.3 2330.7c0 212.18-124.31 415.68-345.57 565.71-221.27 150.04-521.37 234.33-834.29 234.33s-613.02-84.29-834.29-234.33-345.57-434.34-345.57-646.53 140.47-456.08 361.73-606.12c221.27-150.04 505.21-113.11 818.12-113.11s645.34 140.86 866.61 290.9 313.25 296.96 313.25 509.15z" fill="#b0fc00"/>
  </clipPath>
  <linearGradient id="av" x1="3848.3" x2="2079" y1="2614.4" y2="2100.1" gradientUnits="userSpaceOnUse">
   <stop stop-color="#c4fc00" offset="0"/>
   <stop stop-color="#c4fc00" stop-opacity="0" offset="1"/>
  </linearGradient>
  <filter id="bn" x="-.093098" y="-.12858" width="1.1862" height="1.2572" color-interpolation-filters="sRGB">
   <feGaussianBlur stdDeviation="85.328726"/>
  </filter>
  <linearGradient id="aw" x1="176.42" x2="2203.7" y1="3856.4" y2="2199.2" gradientTransform="translate(218.19 3519.5)" gradientUnits="userSpaceOnUse">
   <stop stop-color="#fff" offset="0"/>
   <stop stop-color="#fff" stop-opacity="0" offset="1"/>
  </linearGradient>
  <radialGradient id="bf" cx="3309.3" cy="2119.1" r="319.72" gradientTransform="matrix(1 0 0 .81045 218.19 3989.7)" gradientUnits="userSpaceOnUse">
   <stop stop-color="#fff" offset="0"/>
   <stop stop-color="#fff" stop-opacity="0" offset="1"/>
  </radialGradient>
  <radialGradient id="bg" cx="1947.6" cy="1883.7" r="363.65" gradientTransform="matrix(2.252 1.3433 -.75556 1.2667 -796.95 470.56)" gradientUnits="userSpaceOnUse">
   <stop stop-color="#fff" offset="0"/>
   <stop stop-color="#fff" stop-opacity="0" offset="1"/>
  </radialGradient>
  <filter id="bo" x="-.24933" y="-.2805" width="1.4987" height="1.561" color-interpolation-filters="sRGB">
   <feGaussianBlur stdDeviation="75.559407"/>
  </filter>
  <filter id="bp" x="-.17377" y="-.2145" width="1.3475" height="1.429" color-interpolation-filters="sRGB">
   <feGaussianBlur stdDeviation="46.22458"/>
  </filter>
  <filter id="bq" x="-.17492" y="-.18539" width="1.3498" height="1.3708" color-interpolation-filters="sRGB">
   <feGaussianBlur stdDeviation="88.640887"/>
  </filter>
  <linearGradient id="ax" x1="1860.1" x2="2762.4" y1="1812" y2="2026.1" gradientTransform="translate(218.19 3588.1)" gradientUnits="userSpaceOnUse">
   <stop offset="0"/>
   <stop stop-opacity="0" offset="1"/>
  </linearGradient>
  <linearGradient id="ay" x1="1860.1" x2="2762.4" y1="1812" y2="2026.1" gradientTransform="translate(218.19 3588.1)" gradientUnits="userSpaceOnUse">
   <stop stop-color="#f60" offset="0"/>
   <stop stop-color="#f60" stop-opacity="0" offset="1"/>
  </linearGradient>
  <linearGradient id="az" x1="2651.7" x2="2673.1" y1="1130.8" y2="1862.7" gradientTransform="translate(148.57 68.571)" gradientUnits="userSpaceOnUse">
   <stop stop-color="#808080" offset="0"/>
   <stop stop-color="#808080" stop-opacity="0" offset="1"/>
  </linearGradient>
  <filter id="aj" x="-.084784" y="-.20526" width="1.1696" height="1.4105" color-interpolation-filters="sRGB">
   <feGaussianBlur stdDeviation="73.030038"/>
  </filter>
  <filter id="ak" x="-.588" y="-.588" width="2.176" height="2.176" color-interpolation-filters="sRGB">
   <feGaussianBlur stdDeviation="23.800001"/>
  </filter>
  <filter id="al" x="-.66" y="-.66" width="2.32" height="2.32" color-interpolation-filters="sRGB">
   <feGaussianBlur stdDeviation="26.714287"/>
  </filter>
  <linearGradient id="ba" x1="2912.2" x2="1926" y1="579.71" y2="1561.6" gradientTransform="translate(218.19 3588.1)" gradientUnits="userSpaceOnUse">
   <stop stop-color="#004c00" offset="0"/>
   <stop stop-color="#006000" offset="1"/>
  </linearGradient>
  <filter id="am" x="-.040273" y="-.032547" width="1.0805" height="1.0651" color-interpolation-filters="sRGB">
   <feGaussianBlur stdDeviation="18.849447"/>
  </filter>
  <radialGradient id="bh" cx="2260.4" cy="1200.5" r="497" gradientTransform="matrix(.42817 .28438 -.56594 .85211 2148 3176.7)" gradientUnits="userSpaceOnUse">
   <stop stop-color="#fff" stop-opacity=".549" offset="0"/>
   <stop stop-color="#fff" stop-opacity="0" offset="1"/>
  </radialGradient>
  <filter id="an" x="-.30088" y="-.27618" width="1.6018" height="1.5524" color-interpolation-filters="sRGB">
   <feGaussianBlur stdDeviation="124.61242"/>
  </filter>
  <filter id="ao" x="-.21488" y="-.043245" width="1.4298" height="1.0865" color-interpolation-filters="sRGB">
   <feGaussianBlur stdDeviation="8.185713"/>
  </filter>
  <filter id="ap" x="-.03781" y="-.065709" width="1.0756" height="1.1314" color-interpolation-filters="sRGB">
   <feGaussianBlur stdDeviation="8.0571428"/>
  </filter>
  <filter id="aq" x="-.23519" y="-.035972" width="1.4704" height="1.0719" color-interpolation-filters="sRGB">
   <feGaussianBlur stdDeviation="8.7834402"/>
  </filter>
  <linearGradient id="bb" x1="2120.3" x2="2207.2" y1="5619.8" y2="5619.8" gradientUnits="userSpaceOnUse">
   <stop stop-color="#704438" offset="0"/>
   <stop stop-color="#704438" stop-opacity="0" offset="1"/>
  </linearGradient>
  <filter id="ar" x="-.13721" y="-.060527" width="1.2744" height="1.1211" color-interpolation-filters="sRGB">
   <feGaussianBlur stdDeviation="4.967776"/>
  </filter>
  <linearGradient id="bc" x1="2103.6" x2="2199.8" y1="5621.4" y2="5595.7" gradientUnits="userSpaceOnUse">
   <stop stop-color="#785034" offset="0"/>
   <stop stop-color="#785034" stop-opacity="0" offset="1"/>
  </linearGradient>
  <filter id="as" x="-.073636" y="-.050625" width="1.1473" height="1.1013" color-interpolation-filters="sRGB">
   <feGaussianBlur stdDeviation="4.0911175"/>
  </filter>
  <linearGradient id="bd" x1="2076.9" x2="2230.4" y1="5682.9" y2="5792" gradientUnits="userSpaceOnUse">
   <stop stop-color="#fff" offset="0"/>
   <stop stop-color="#fff" stop-opacity="0" offset="1"/>
  </linearGradient>
  <filter id="at" x="-.098577" y="-.093554" width="1.1972" height="1.1871" color-interpolation-filters="sRGB">
   <feGaussianBlur stdDeviation="24.728534"/>
  </filter>
  <filter id="au" x="-.23191" y="-.47657" width="1.4638" height="1.9531" color-interpolation-filters="sRGB">
   <feGaussianBlur stdDeviation="103.25714"/>
  </filter>
  <linearGradient id="be" x1="2315.8" x2="5240.4" y1="6508.6" y2="6508.6" gradientUnits="userSpaceOnUse">
   <stop offset="0"/>
   <stop stop-opacity="0" offset="1"/>
  </linearGradient>
 </defs>
 <g transform="translate(-1682.8 -4574.3)">
  <g transform="matrix(.80089 0 0 .80089 335.06 1388.6)">
   <path d="m2797 5069c-195.03-0.086-371.98 16.321-520.65 117.13-221.27 150.04-361.73 393.94-361.73 606.12s124.31 496.49 345.57 646.53c221.27 150.04 521.37 234.33 834.29 234.33s613.02-84.29 834.29-234.33 345.57-353.53 345.57-565.71-91.982-359.11-313.25-509.15c-221.27-150.04-553.69-290.89-866.61-290.89-102.68 0-202.23-3.9753-297.48-4.0175z" fill="#b0fc00"/>
   <path transform="matrix(1.0524 0 0 .57538 -388.49 2605.2)" d="m4958 6510.6c0 212.18-124.31 415.68-345.57 565.71-221.27 150.04-521.37 234.33-834.29 234.33s-613.02-84.29-834.29-234.33-345.57-434.34-345.57-646.53 140.47-456.08 361.73-606.12c221.27-150.04 505.21-113.11 818.12-113.11s645.34 140.86 866.61 290.9 313.25 296.96 313.25 509.15z" fill="url(#be)" filter="url(#bm)" opacity=".713"/>
   <path transform="translate(218.19 3588.1)" d="m4147.6 2450.7c0 210.67-115.88 412.72-322.14 561.68-206.26 148.97-486.02 232.66-777.72 232.66s-571.45-83.689-777.72-232.66c-206.26-148.97-322.14-431.25-322.14-641.92s130.94-452.83 337.21-601.8 470.95-112.3 762.65-112.3 601.59 139.85 807.85 288.82 292.01 294.85 292.01 505.52z" clip-path="url(#bj)" fill="#e8fc00" filter="url(#bl)"/>
   <path d="m2782.9 5080.4c-181.8-0.086-346.76 16.205-485.34 116.29-206.26 148.97-337.21 391.13-337.21 601.8s115.88 492.95 322.14 641.92 486.02 232.66 777.72 232.66 571.45-83.69 777.72-232.66c206.26-148.97 322.14-351.01 322.14-561.68s-85.744-356.55-292.01-505.52-516.15-288.82-807.85-288.82c-95.714 0-188.52-3.9483-277.31-3.9902z" fill="#f90" filter="url(#bn)"/>
   <path transform="translate(218.19 3588.1)" d="m4559 2479.3c0 212.18-124.31 415.68-345.57 565.71-221.27 150.04-521.37 234.33-834.29 234.33s-613.02-84.29-834.29-234.33-345.57-434.34-345.57-646.53 140.47-456.08 361.73-606.12c221.27-150.04 505.21-113.11 818.12-113.11s645.34 140.86 866.61 290.9 313.25 296.96 313.25 509.15z" clip-path="url(#bi)" fill="url(#av)" filter="url(#bk)"/>
   <path transform="matrix(.9937 .11204 -.11204 .9937 515.18 3280.4)" d="m2773.1 1538.1c-195.03-0.086-371.98 16.319-520.64 117.12-24.084 16.331-47.208 33.777-69.301 52.17l147.93 102.41 581.85-113.14 686.9 202.03 331.33 121.22 299.01 274.76 17.971 97.34c1.5233-16.552 2.293-33.18 2.293-49.861 0-212.18-91.98-359.11-313.25-509.15s-553.69-290.89-866.61-290.89c-102.68 0-202.23-3.9754-297.48-4.0176z" fill="url(#az)" filter="url(#aj)"/>
   <path d="m2030 5472.9c-52.197 97.544-81.078 200.27-81.078 296.48 0 212.18 124.31 496.49 345.57 646.53 221.27 150.04 521.37 234.33 834.29 234.33s613.02-84.29 834.29-234.33c24.633-16.704 48.058-34.074 70.25-52.041l-683.68-89.176s-528.81-24.555-742.86-160c-174.49-110.42-228.92-347.67-377.14-491.43-48.126-46.678-134.42-107.08-199.64-150.37z" fill="url(#aw)"/>
   <path d="m3644.6 5448.5-282.84 24.242-145.46 121.22-8.0821 137.38 210.11 234.36 371.74-40.406 56.568-129.3-40.406-210.11-161.62-137.38z" fill="url(#bf)" fill-rule="evenodd" filter="url(#bp)" opacity=".756"/>
   <path d="m2392 5157.6-169.71 88.893-145.46 153.54-64.648 177.79 121.22 177.79 177.79 48.486-16.162-121.22 387.9-274.76-266.68-8.082 323.25-234.36-347.49-8.0801z" fill="url(#bg)" fill-rule="evenodd" filter="url(#bo)" opacity=".795"/>
   <path d="m2517.3 5088.9-84.854 88.895 145.46 60.607-222.23 48.488 210.11 88.893-16.162 113.14-68.69 52.529-109.1 40.406-20.203 113.14-117.18-32.324-193.95-36.367 32.324 113.14-28.283 185.87 101.02 141.42 222.23 161.62 88.894 8.08-153.54-133.34h84.852l197.99 84.854s16.162-72.731-20.203-96.975c-36.366-24.244-60.609-52.529-60.609-52.529l387.9-4.041-185.87-105.05s-56.568-56.568-36.365-56.568 258.6-44.447 258.6-44.447l129.3-117.18-266.68-28.283 165.66-121.22 299.01-141.42-149.5-88.893-145.46 16.162 76.772-222.23-250.52 161.62-36.365-157.58 177.79-40.406h-412.14z" fill="url(#ay)" fill-rule="evenodd" filter="url(#bq)" stroke="url(#ax)" stroke-width="1px"/>
   <path d="m2771.4 5069.5-382.86 114.29-251.43 211.43 5.7148 125.71-28.572 68.572 142.86-62.858 394.29-62.857 411.43-240 120-142.86-411.43-11.428z" fill-rule="evenodd" filter="url(#au)" opacity=".457"/>
   <path d="m3254.5 4131.2s-922.44 131.44-1155.6 476.79c-182.4 270.14-8.0801 929.34-8.0801 977.83l88.893-80.812s409.4-274.33 565.69-460.63c223.98-267 509.12-913.18 509.12-913.18z" fill="url(#ba)" fill-rule="evenodd"/>
   <circle transform="matrix(.77022 0 0 .77022 696.14 4125.3)" cx="2185.7" cy="2232.4" r="48.571" fill="#fc0" fill-opacity=".93725" filter="url(#ak)" opacity=".38636"/>
   <circle id="a" transform="matrix(.24308 0 0 .24308 1792.6 5357.8)" cx="2185.7" cy="2232.4" r="48.571" fill="#fc0" fill-opacity=".93725" filter="url(#al)" opacity=".227"/>
   <use transform="translate(79.12 -361.69)" width="100%" height="100%" xlink:href="#a"/>
   <use transform="translate(200.49 665.28)" width="100%" height="100%" xlink:href="#a"/>
   <use transform="translate(437.55 437.58)" width="100%" height="100%" xlink:href="#a"/>
   <use transform="translate(496.5 515.68)" width="100%" height="100%" xlink:href="#a"/>
   <use transform="translate(540.49 558.9)" width="100%" height="100%" xlink:href="#a"/>
   <use transform="matrix(.65363 0 0 .65363 965.89 1971)" width="100%" height="100%" xlink:href="#a"/>
   <use transform="translate(610.76 -434.43)" width="100%" height="100%" xlink:href="#a"/>
   <use transform="translate(240.61 286.89)" width="100%" height="100%" xlink:href="#a"/>
   <use transform="translate(274.54 -43.523)" width="100%" height="100%" xlink:href="#a"/>
   <use transform="translate(-326.27 314.27)" width="100%" height="100%" xlink:href="#a"/>
   <use transform="translate(-613.74 -61.638)" width="100%" height="100%" xlink:href="#a"/>
   <use transform="translate(-243.03 390.27)" width="100%" height="100%" xlink:href="#a"/>
   <use transform="translate(-296.87 668.03)" width="100%" height="100%" xlink:href="#a"/>
   <use transform="translate(66.771 272.33)" width="100%" height="100%" xlink:href="#a"/>
   <use transform="translate(-18.379 670.37)" width="100%" height="100%" xlink:href="#a"/>
   <use transform="translate(371.93 607.5)" width="100%" height="100%" xlink:href="#a"/>
   <use transform="translate(218.53 694.87)" width="100%" height="100%" xlink:href="#a"/>
   <use transform="translate(271.55 767.27)" width="100%" height="100%" xlink:href="#a"/>
   <use transform="translate(1526.5 -63.748)" width="100%" height="100%" xlink:href="#a"/>
   <use transform="translate(1592.9 168.63)" width="100%" height="100%" xlink:href="#a"/>
   <use transform="translate(1282.1 -535.58)" width="100%" height="100%" xlink:href="#a"/>
   <use transform="translate(924.56 -571.98)" width="100%" height="100%" xlink:href="#a"/>
   <use transform="translate(319.09 -536.16)" width="100%" height="100%" xlink:href="#a"/>
   <use transform="translate(318.14 -478.37)" width="100%" height="100%" xlink:href="#a"/>
   <use transform="translate(80.619 -215.51)" width="100%" height="100%" xlink:href="#a"/>
   <use transform="translate(-205.62 -31.831)" width="100%" height="100%" xlink:href="#a"/>
   <path d="m3240.6 4139.4-153.54 56.568-303.04 133.34-56.568 40.406-101.02 56.568-96.975 52.527s-20.203 20.204-60.609 72.732-141.42 161.62-141.42 161.62l-80.81 145.46-48.488 101.02s-16.162 129.3-16.162 149.5c0 20.203-16.162 96.975-16.162 96.975l-44.447 133.34-4.041 189.91 189.91-404.06 101.02-258.6 145.46-169.71 105.05-125.26 44.447-64.65 206.07-137.38 331.33-230.31z" fill="#006c00" fill-rule="evenodd" filter="url(#am)"/>
   <path transform="matrix(-.39416 -.91904 -.91904 .39416 4112.7 6390.1)" d="m2075.7 1013.9 157.14-60 185.71-54.286 114.29-122.86-85.714 134.29-80 28.572-217.14 71.428-128.57 60z" fill="#004000" fill-rule="evenodd" filter="url(#aq)" opacity=".659"/>
   <path d="m3256.7 4127.3s-461.9 198.97-650.54 359.62c-114.67 97.65-208.06 222.61-278.8 355.57-113.03 212.46-222.23 686.9-222.23 686.9l206.07-557.6 117.18-214.15s142-184.27 230.31-258.6c179.57-151.15 598.01-371.74 598.01-371.74z" fill="#009400" fill-rule="evenodd"/>
   <path d="m2186.8 5203.3-57.143-165.71-34.286-288.57 5.7142 191.43v105.71l62.857 154.29z" fill="#004000" fill-rule="evenodd" filter="url(#ao)" opacity=".688"/>
   <path d="m2435.3 4791.9 157.14-60 185.71-54.286 114.29-122.86-85.714 134.29-80 28.572-217.14 71.428-128.57 60z" fill="#004000" fill-rule="evenodd" filter="url(#ap)" opacity=".656"/>
   <path d="m2136.8 5582.2 36.365-60.609 32.325 44.447v84.853l-28.284 64.65-92.934-40.406-12.122-60.609z" fill="url(#bc)" fill-rule="evenodd" filter="url(#as)"/>
   <path d="m2796.1 4276.8-270.72 96.975-242.44 88.893s-121.22 129.3-169.71 177.79-52.527 230.31-52.527 230.31l20.203 428.3 60.609 60.609 153.54-60.609 246.48-181.83 238.4-299.01 230.31-250.52 44.447-193.95-440.43 157.58 20.203-101.02 161.62-153.54z" fill="url(#bh)" fill-rule="evenodd" filter="url(#an)" opacity=".756"/>
   <path d="m2123.4 5452.6 4.3785 34.053-16.918 115.48 6.7456-2.0132-36.666 12.12 6.0609-56.582z" fill="#049604" fill-rule="evenodd"/>
   <path d="m2076.9 5622.8 12.122-12.613 14.142 28.83-2.0203 27.028-12.122 10.812z" fill="#906c2c" fill-rule="evenodd"/>
   <path d="m2135.5 5581.9 21.213-5.0507 23.234 29.294v27.274l-11.112 24.244-29.294 9.0913 17.173 16.162s-37.376-14.142-36.366-9.0914c1.0101 5.0508 57.579 44.447 57.579 44.447l29.294-70.711-2.0203-84.853-32.325-41.416z" fill="url(#bb)" fill-rule="evenodd" filter="url(#ar)"/>
   <path d="m2127.4 5470.8-15.152 77.782-12.122 26.264v30.304l11.112-3.0304 16.162-101.02z" fill-rule="evenodd" opacity=".358"/>
   <path d="m2206.2 5638.5-56.569 68.69-60.609 84.853 40.406 202.03 129.3 189.91 117.18 40.406 266.68-319.21 48.487-315.17h-214.15z" fill="url(#bd)" fill-rule="evenodd" filter="url(#at)"/>
  </g>
 </g>
</svg>
