<?xml version="1.0" encoding="utf-8"?>
<!-- Generator: Adobe Illustrator 24.0.2, SVG Export Plug-In . SVG Version: 6.00 Build 0)  -->
<svg version="1.1" id="Warstwa_2" xmlns="http://www.w3.org/2000/svg" xmlns:xlink="http://www.w3.org/1999/xlink" x="0px" y="0px"
	 viewBox="0 0 3840 2160" style="enable-background:new 0 0 3840 2160;" xml:space="preserve">
<style type="text/css">
	.st0{fill:#5ECCFC;stroke:#1D1D1B;stroke-width:4.5587044;stroke-linejoin:round;stroke-miterlimit:10;}
	.st1{fill:#64B2DD;stroke:#1D1D1B;stroke-width:4.5905533;stroke-linejoin:round;stroke-miterlimit:10;}
	.st2{fill:none;stroke:#1D1D1B;stroke-width:4.5587044;stroke-linejoin:round;stroke-miterlimit:10;}
	.st3{fill:#FFFFFF;stroke:#1D1D1B;stroke-width:4.6951838;stroke-linejoin:round;stroke-miterlimit:10;}
	.st4{opacity:0.3;stroke:#1D1D1B;stroke-width:4.6951838;stroke-linejoin:round;stroke-miterlimit:10;}
	.st5{fill:#64B2DD;stroke:#1D1D1B;stroke-width:4.5587044;stroke-linejoin:round;stroke-miterlimit:10;}
	.st6{fill:#E6C4A8;stroke:#1D1D1B;stroke-width:4.6951838;stroke-linejoin:round;stroke-miterlimit:10;}
</style>
<g>
	<rect class="st0" width="3840" height="1658.0667725"/>
	<rect y="1651.0289307" class="st1" width="3840" height="508.9710388"/>
	<g>
		<path class="st2" d="M255.5652466,1810.8850098h249.1600647c0,0,76.4090881-63.1206055,149.4960632,19.9327393h126.2410889"/>
		<path class="st2" d="M1224.6890869,1909.0334473h78.0616455c0,0,44.3531494-74.2548828,122.4147949,0h78.0616455"/>
		<path class="st2" d="M1646.9316406,1775.715332h108.2218018c0,0,35.4848633-67.4169922,118.8676758-15.9671631
			l131.2844238-1.692749"/>
		<path class="st2" d="M2045.9556885,2040.59729h108.4881592c0,0,72.0021973-58.8935547,153.7880859,18.5980225h103.4836426"/>
		<path class="st2" d="M2616.2932129,1909.0334473l86.7905273-48.2164307c0,0,61.9931641-84.2589111,133.2854004,15.2142334
			h99.189209"/>
		<path class="st2" d="M3465.6003418,1827.4998779c0,0,154.9829102-87.5697021,210.7768555-16.2774658l74.3918457-5.8381348"/>
	</g>
	<g>
		<path class="st3" d="M543.3064575,586.472168c0,0-20.7940674,246.6069336,142.9204102,526.6447754l168.0227051-208.9512939
			L543.3064575,586.472168z"/>
		<path class="st4" d="M859.0664673,881.9262085L670.1373901,688.8956909
			c5.9386597,75.0854492,25.1752319,192.088623,83.0134888,324.7460938L859.0664673,881.9262085z"/>
	</g>
	<g>
		<path class="st3" d="M979.6341553,377.3466187c0,0-32.7566528,184.3111572,72.7960205,345.87146l189.5640869-90.4737549
			L979.6341553,377.3466187z"/>
		<path class="st4" d="M1115.7828369,653.4616699l106.2199707-50.6959229l-159.9063721-155.6627197
			C1065.1501465,504.4259033,1077.8170166,579.5429688,1115.7828369,653.4616699z"/>
	</g>
	<g>
		<path class="st3" d="M1413.7165527,157.5146179c0,0-41.5373535,236.1204224,0,436.4552307
			c0,0,144.7833252,33.4233398,147.369751,35.6928711c2.5863037,2.2695313,197.647583-154.1273499,197.647583-154.1273499
			l-99.3338623-133.5201721c-42.3227539-56.8883057-96.5645752-103.8419495-158.930542-137.5758209L1413.7165527,157.5146179z"/>
		<path class="st4" d="M1568.3214111,302.9009399c-4.4223633,82.2196045-3.4599609,185.5986328,16.2965088,280.8838501
			c0,0,13.5247803,3.1223145,32.3695068,7.5203247c53.043335-41.8309937,110.7186279-88.0739746,110.7186279-88.0739746
			l-99.3338623-133.5202026C1610.4083252,345.5646973,1590.2897949,323.2163696,1568.3214111,302.9009399z"/>
	</g>
	<path class="st5" d="M1218.9713135,611.0222778c-129.7783203,31.375-156.8748779,129.7782593-156.8748779,129.7782593
		l459.9284668,561.184082l75.5852051-75.5852051L1218.9713135,611.0222778z"/>
	<path class="st5" d="M1758.7338867,489.3728333c-92.2736816-12.1014709-221.1928711,153.7779846-221.1928711,153.7779846
		l384.4671631,717.000061l76.0771484-8.4530029l-66.4165039-350.196167L1758.7338867,489.3728333z"/>
	<g>
		<path class="st3" d="M2185.092041,811.4733887l-73.4892578,17.5599976l-127.7402344,524.244812l671.1162109,6.8726807
			C2654.9787598,1360.1508789,2414.4680176,884.9627686,2185.092041,811.4733887z"/>
		<path class="st3" d="M2143.2558594,821.4699707c0,0,325.7827148,203.3701172,482.9294434,525.5205078h53.4296875
			c0,0,89.5734863-180.7185059,97.4309082-531.1552124C2777.0458984,815.8352661,2525.7424316,565.2161255,2143.2558594,821.4699707
			z"/>
		<path class="st5" d="M2030.2857666,1344.8861084l93.9039307-147.8988037
			c4.9492188-7.7947998,14.7912598-10.8948975,23.314209-7.34375l123.583252,51.493042
			c0,0,81.9748535,24.3363037,117.8388672-24.3363037c27.9797363-37.9726563,88.7028809-18.2546387,114.0488281-7.7501221
			c7.2380371,2.9996338,13.2275391,8.3800049,16.9980469,15.2479248l66.2050781,120.5880127H2030.2857666z"/>
	</g>
	<g>
		<path class="st3" d="M3116.3276367,1128.0793457c0,0,129.4245605-80.2431641,437.454834-56.9467773
			c0,0-23.2963867,245.9064941-121.6591797,370.1540527l-302.8530273-90.597168L3116.3276367,1128.0793457z"/>
		<g>
			<g>
				<path class="st3" d="M2787.5895996,1060.7786865c0,0,25.3669434,204.6550293,83.8288574,250.5894775l121.1992188-108.8395996
					l-104.3964844-123.8837891L2787.5895996,1060.7786865z"/>
				<path class="st4" d="M2806.0070801,1066.5620117c3.3435059,24.9060059,26.5068359,185.4526367,74.6503906,239.0228271
					l111.9602051-100.5427246l-104.3964844-123.8837891L2806.0070801,1066.5620117z"/>
			</g>
			<path class="st5" d="M2852.0305176,1337.5479736c0,0,32.0148926-104.3964844,132.2355957-133.6274414
				c0,0,62.6376953,36.1907959,90.4768066,133.6274414H2852.0305176z"/>
			<path class="st3" d="M2787.5895996,1060.7786865c0,0,414.1582031-41.4158325,383.0964355,279.5567627h-93.185791
				C3077.5002441,1340.3354492,3012.7880859,1161.7297363,2787.5895996,1060.7786865z"/>
		</g>
	</g>
	<g>
		<g>
			<path class="st5" d="M637.5835571,1230.7025146c0,0,95.8659668-285.6483154,229.4442749-334.22229l250.7999268,334.22229
				H637.5835571z"/>
			<path class="st3" d="M1505.4136963,1296.9938965c0-143.7631836-210.1153564-420.2307739-210.1153564-420.2307739
				C1021.5953979,547.7667236,543.3064575,586.472168,543.3064575,586.472168s425.7600708,428.5247803,566.758606,677.3455811
				L1505.4136963,1296.9938965z"/>
		</g>
		<path class="st5" d="M1118.3150635,1211.6768799l17.9320068-140.8944092c0,0,217.7458496,15.3703613,263.8566895,48.6726074
			c46.1108398,33.3023682,71.7280273,130.6474609,71.7280273,130.6474609L1118.3150635,1211.6768799z"/>
	</g>
	<path class="st3" d="M1921.3592529,1342.9733887c-4.7802734-310.7214355-241.4066162-597.5413208-241.4066162-597.5413208
		C1297.526123,334.3236694,979.6341553,377.3466187,979.6341553,377.3466187s443.5834961,379.7202148,575.0426025,912.7271118
		L1921.3592529,1342.9733887z"/>
	<polygon class="st5" points="1569.177002,1283.4049072 1592.2324219,1147.6339111 1850.9656982,1215.5194092 
		1874.0211182,1334.6391602 	"/>
	<path class="st3" d="M1413.7165527,157.5146179c0,0,441.1551514,38.6413422,676.2233887,479.7965393
		c0,0,196.4267578,373.5328369-125.5844727,724.5249023
		C1964.3554688,1361.8360596,1893.5130615,511.7268066,1413.7165527,157.5146179z"/>
	<g>
		<rect x="104.2763138" y="1547.3095703" class="st6" width="3677.3242188" height="103.7193985"/>
		<polygon class="st6" points="435.65448,1206.7277832 435.65448,1547.3095703 3532.0705566,1547.3095703 
			3532.0705566,1475.3557129 3227.4658203,1336.244751 1886.7247314,1336.244751 1308.6950684,1206.7277832 		"/>
		<g>
			<rect x="322.3848572" y="1328.3477783" class="st6" width="442.217041" height="218.9618378"/>
			<polygon class="st6" points="764.6019287,1547.3095703 1395.0397949,1547.3095703 764.6019287,1328.3477783 			"/>
		</g>
	</g>
</g>
</svg>
