<?xml version="1.0" encoding="UTF-8"?>
<svg viewBox="0 0 1052.362179 744.09447" xmlns="http://www.w3.org/2000/svg">
 <defs>
  <linearGradient id="e" x1="675.01" x2="600" y1="219.83" y2="219.09" gradientUnits="userSpaceOnUse">
   <stop stop-color="#b4c0ac" offset="0"/>
   <stop stop-color="#b4c0ac" stop-opacity="0" offset="1"/>
  </linearGradient>
  <linearGradient id="d" x1="552.11" x2="760" y1="287.63" y2="264.09" gradientUnits="userSpaceOnUse">
   <stop stop-color="#dccc90" offset="0"/>
   <stop stop-color="#dccc90" stop-opacity="0" offset="1"/>
  </linearGradient>
  <linearGradient id="c" x1="470" x2="500" y1="234.09" y2="229.09" gradientUnits="userSpaceOnUse">
   <stop stop-color="#909890" offset="0"/>
   <stop stop-color="#90b4bc" offset="1"/>
  </linearGradient>
  <linearGradient id="b" x1="362.04" x2="363.45" y1="-58.201" y2="-243.46" gradientUnits="userSpaceOnUse">
   <stop stop-color="#909894" offset="0"/>
   <stop stop-color="#90b8c0" offset="1"/>
  </linearGradient>
  <linearGradient id="a" x1="367.7" x2="364.87" y1="496.61" y2="331.14" gradientUnits="userSpaceOnUse">
   <stop stop-color="#90b4c0" offset="0"/>
   <stop stop-color="#989454" offset="1"/>
  </linearGradient>
 </defs>
 <path transform="scale(1,-1)" d="m28.284-331.14h982.88v287.09h-982.88z" fill="url(#b)"/>
 <path d="m795 234.09-5-40c-21.679 19.326-30.476 46.381-45 70l5 5c14.903-12.006 27.211-33.095 45-35z" fill="#908474" stroke="#000"/>
 <path d="m40 284.09v-60h5v64.188l-5-4.1879z" fill="#908878" stroke="#000"/>
 <path d="m45 224.09h20l0.8376 70.025-20.838-5.0254" fill="#909c94" stroke="#000"/>
 <path d="m65 294.09v-65l5-5v70h-5z" fill="none" stroke="#000"/>
 <path d="m70 294.09v-70h40v80l-40-10z" fill="#908474" stroke="#000"/>
 <path d="m115 304.09-5-85 5-5v90z" fill="#908878" stroke="#000"/>
 <path d="m115 304.09v-90h35v90h-35z" fill="#909890" stroke="#000"/>
 <path d="m155 304.09v-90h5v-5l5-5h10l5 5v95h-25z" fill="#b4c0a8" stroke="#000"/>
 <path d="m180 304.09v-100l10-5 10 5v45c0 5-15 15-15 15v40h-5z" fill="#b4a864" stroke="#000"/>
 <path d="m185 204.09v-25l5-10h-15l5 10v25h5z" fill="#90a098" stroke="#000"/>
 <path d="m175 169.09v-10h15v10h-15z" fill="none" stroke="#000"/>
 <path d="m180 159.09v-10h5v10h-5z" fill="#909890" stroke="#000"/>
 <path d="m200 249.09v-100l20-5v150l-18.325 5.0254-1.6751-50.025z" fill="#b0a864" stroke="#000"/>
 <path d="m205.23 147.18 4.7739-8.0888h10v-10h5v-10h5v15h5v10h5v150h-20v-150l-14.774 3.0888z" fill="#747c40" stroke="#000"/>
 <path d="m230 294.09v-120s15-15 20-15h15l-6.6751 18.376-28.325 1.6243 25-5v115l-25 5z" fill="#a4a05c" stroke="#000"/>
 <path d="m265 159.09-5 15-30 5 25-3.3249v113.32h10l-5-115 5-15z" fill="#b4a864" stroke="#000"/>
 <path d="m265 289.09z" fill="none" stroke="#000"/>
 <path d="m260 289.09v-115l5-15v-15l10-5v150h-15z" fill="#a0bcb8" stroke="#000"/>
 <path d="m280.29 287.63-0.294-103.54h10v105l-9.706-1.4615z" fill="#dcc890" stroke="#000"/>
 <path d="m290 184.09h15v105h-15v-105z" fill="#90b0b8" stroke="#000"/>
 <path d="m300.27 288.84-0.2718-94.749 15-5 5 100-19.728-0.2508z" fill="#908874" stroke="#000"/>
 <path d="m313.3 283.26 1.7006-149.16 25-5v160h-20l-6.7006-5.8376z" fill="#909890" stroke="#000"/>
 <path d="m340 129.09 25 5 5 150-30 5v-160z" fill="#909894" stroke="#000"/>
 <path d="m320 134.09v-15h5v-5l35-5v10h5v15l-25-5-20 5z" fill="#908474" stroke="#000"/>
 <path d="m370 289.09-5-150 20-5v155h-15z" fill="#aca460" stroke="#000"/>
 <path d="m385 134.09 30 5v150h-25l-5-155z" fill="#d4bc78" stroke="#000"/>
 <path d="m395 289.09v-35h25v30l-25 5z" fill="#909890" stroke="#000"/>
 <path d="m405 254.09v-25s15-5 15 0v25h-15z" fill="#b0a464" stroke="#000"/>
 <path d="m405 229.09h30l-15-5-15 5z" fill="#b0a460" stroke="#000"/>
 <path d="m420 229.09v60h15v-60h-15z" fill="none" stroke="#000"/>
 <path d="m420 289.09v-70h20v70h-20z" fill="#90a0a0" stroke="#000"/>
 <path d="m440.12 219.83 39.884-0.7352v65l-40 5 0.1161-69.265z" fill="#909c98" stroke="#000"/>
 <path d="m435 219.09 5-10h20v5l15 5h-40z" fill="#908474" stroke="#000"/>
 <path d="m470 284.09v-95h35v95h-35z" fill="url(#c)" stroke="#000"/>
 <path d="m505 284.09v-55l35-5v60h-35z" fill="#909894" stroke="#000"/>
 <path d="m540 284.09v-110l25-5v110l-25 5z" fill="#90a098" stroke="#000"/>
 <path d="m565 169.09h35v110h-35v-110z" fill="#90b0b4" stroke="#000"/>
 <path d="m540 314.09 5-45h80v40h-35l-50 10 85-10v-130s-5-10 25-5l30 5v130l-55 5v-5" fill="url(#d)" stroke="#000"/>
 <path d="m630 314.09v-125l55-5-5 130-50 5v-5z" fill="url(#e)" stroke="#000"/>
 <path d="m656.84 308.22c8.1555-44.122 19.48-79.934 48.156-104.12l15 25c-30.251 17.174-45.13 49.722-63.156 79.122z" fill="#dcc890" stroke="#000"/>
 <path d="m664.05 296.33c5.9331-32.729 14.172-59.294 35.034-77.236l10.913 18.545c-22.008 12.74-32.832 36.883-45.946 58.691z" stroke="#000" stroke-width=".7346"/>
 <path d="m660 309.09c13.461-35.386 32.039-63.948 60-80l15 20c-26.176 3.5404-50.337 35.288-75 60z" fill="#dccc8c" stroke="#000"/>
 <path d="m670 301.24c9.8711-27.49 23.496-49.678 44-62.148l11 15c-19.196 2.7504-36.914 27.95-55 47.148z" stroke="#000" stroke-width=".7548"/>
 <path d="m660 314.09c22.351-33.176 47.986-57.592 80-65-1.7793 11.667 11.338 23.333 20 35l-65 5-35 25z" fill="#d8bc78" stroke="#000"/>
 <path d="m695 289.09c10.801-17.997 26.293-24.268 40-35 8.297 10 19.273 25.657 21.414 35.657l-61.414-0.6569z" stroke="#000"/>
 <path d="m730 244.09c13.627-25.771 35.114-40.313 60-50-20.32 21.2-35.973 45.734-45 75l-15-25z" fill="#dccc90" stroke="#000"/>
 <path d="m746.44 268.39c7.343-21.377 15.046-42.293 29.706-54.294l3.8521 21.154c-12.639 7.6799-18.968 19.793-26.965 33.846l-6.5935-0.7056z" stroke="#000" stroke-width=".8074"/>
 <path d="m751.89 271.89c30.286-46.667 46.55-39.582 68.11-52.798-20.296 21.075-40.968 41.397-55 75l-13.11-22.202z" fill="#c0c4a0" stroke="#000"/>
 <path d="m765 299.09c9.8399-37.587 34.751-55.796 55-80l5 25c-29.555 10.902-44.588 33.098-60 55z" fill="#f0e68c" stroke="#000"/>
 <path d="m765 299.09c9.0199-34.17 31.855-50.724 50.417-72.727l4.5833 17.727c-27.092 9.9105-40.872 35.089-55 55z" stroke="#000" stroke-width=".9129"/>
 <path d="m770 304.09c13.56-51.026 54.747-59.798 95-70-6.8561 22.22-15.772 43.204-15 70h-80z" fill="#eccc84" stroke="#000"/>
 <path d="m791.24 305.79c19.903-30.664 45.833-50.479 73.76-66.7-5.4687 20.12-16.958 28.639-15 65l-58.76 1.7001z" stroke="#000"/>
 <path d="m180 149.09v-15h5v15h-5z" fill="#908470" stroke="#000"/>
 <path d="m30 284.09 44.417 10 44.417 10 74.85-1.6852 13.984-8.3148c25.581-2.4044 53.337-3.3411 78.963-5 21.002-1.3595 38.225 0.9447 59.222 0 9.0285-0.4062 20.571-4.6512 29.611-5 15.292-0.59 34.055 5.4029 49.352 5 18.393-0.4844 35.943-4.6422 54.287-5 22.2-0.433 41.065-12.957 59.222 0 96.844 69.108 314.29 1.8017 468.84 0v50h-977.17v-50z" fill="#50682c"/>
 <path d="m680 329.09s-5-35 0-35h20v30l-20 5z" fill="#c17d11" stroke="#000"/>
 <path d="m701.04 324.56-1.0377-30.467 70-5v10h-65l5 5 65-5v20l-73.962 5.4671z" fill="#8f5902" stroke="#000"/>
 <path d="m774.89 320.93 0.1051-26.835h105v5h-55v5h60v10h-55v5h65v15l-120-5-0.1051-8.1653z" fill="#8f5902" stroke="#000"/>
 <path d="m775 319.09h-85l5 10h80v-10z" fill="#c17d11" stroke="#000"/>
 <path d="m28.284 331.14h982.88v171.12h-982.88z" fill="url(#a)"/>
</svg>
