<?xml version="1.0" encoding="UTF-8"?>
<svg viewBox="0 0 875.5 609.5" xmlns="http://www.w3.org/2000/svg">
 <g fill-rule="evenodd" stroke="#000" stroke-width="7">
  <path d="m380.25 49l5.75-9 0.25 0.5 0.25 0.5-0.5 3.5q-0.5 3.5-0.75 3.75t-3.5 6.5-4.5 10.75l-1.25 4.5h-1l-1.5-2.5-1.5-2.5-1.5-0.25q-1.5-0.25-25.5 11.25t-30.5 15-45 25-45.75 25.25-15 7.25l-7.75 3.5-9.5 6.75q-9.5 6.75-12 9l-2.5 2.25 2.5 0.75q2.5 0.75 4 1.5l1.5 0.75-3 0.75q-3 0.75-7.5 0l-4.5-0.75v7l-1.5 0.25-1.5 0.25-1 0.25q-1 0.25-2-3.75l-1-4-7-1.25q-7-1.25-9-2.25t-13.5-2.5-19-2.5-25.5-2.75-18-2.75-20.5-4l-20.5-3-3.5-1.5q-3.5-1.5-3.25-3.5t-0.5-2.5l-0.75-0.5v-1l20-12.75q20-12.75 29.5-18.75t41-24 56-30 57.5-24.5 61-3 57.75 18.75 35.5 0.25zm-243.25 65.5q2 0 8.5 1.5t8.25 2.75l1.75 1.25-0.75 2.25q-0.75 2.25-2.25 3.25t-4.5 2-12.5 0.5-12.75-2.25-4-3l-0.75-1.25 3-2.5q3-2.5 8.5-3.5t7.5-1zm130.5-62q4.5 0 8.75 1.75t5.25 2.75 1 3.5v2.5l-1.25 1.75q-1.25 1.75-5.25 3.25t-10.5 1-9.25-2.25-3.25-2.75-0.5-3v-2l1.25-1.75q1.25-1.75 5.25-3.25t8.5-1.5z" fill="#65a848"/>
  <path d="m17.75 147.5l4.25-4.5v1l0.75 0.5q0.75 0.5 0.5 2.5t3.25 3.5l3.5 1.5 20.5 3q20.5 3 20.5 4t18 2.75 25.5 2.75 19 2.5 13.5 2.5 9 2.25l7 1.25 1 4q1 4 2 3.75l1-0.25 1.5-0.25 1.5-0.25-0.25 3.5q-0.25 3.5 0.5 30.5l0.75 27 2-0.5q2-0.5 2-1.5t2-1h2l-1.25 2.5q-1.25 2.5-4.75 6.5t-4.75 6.5-2.25 2.5-2.75 3.5-3.75 6.5-6.75 10.75-7 11-4 6.75-2.75 3.5-1.5 2l-0.5 2-3.5 1-3.5 1 0.25-0.5 0.25-0.5 1.5-2.5q1.5-2.5-35.75-11.75t-51.75-13.75l-14.5-4.5-1-1q-1-1-5.75-15.25t-7.25-57.75-2.5-44 4.25-5z" fill="#5c9c41"/>
  <path d="m373.5 67.5l1.5 2.5-0.25 2.5q-0.25 2.5 0.25 17.5t3.5 23 4.75 11l1.75 3v2l-1.25 2.5q-1.25 2.5-1.5 2.75t-16.25 9.75-20.5 12.5-14.5 9.5-15.5 10.5-12.5 9-11.25 9.25-5.75 4.25-3.25 2l-1.75 2-3.5-0.75q-3.5-0.75-3.75-1t-4.5-1l-4.25-0.75-0.5 0.25-0.5 0.25 1.5-2.75q1.5-2.75 4-6t9.5-9 19.5-14.75 24.75-17.75 14.75-9.75 16-11 16-14.5l2.5-4.5-5.75 1.25q-5.75 1.25-8.25 4l-2.5 2.75-5.5 2.75q-5.5 2.75-8.75 3l-3.25 0.25-5.25 3.5-5.25 3.5-5 3.75q-5 3.75-12.5 7l-7.5 3.25-2 2.75q-2 2.75-7.5 5.25t-9.25 5.25l-3.75 2.75-0.75-1.5-0.75-1.5v-1l-9.5-0.75q-9.5-0.75-12.5 0.25t-5.25 2.75l-2.25 1.75v2.5q0 2.5 0.5 3t3.75 2 3.25 2v0.5l-0.75 3.5q-0.75 3.5-0.5 3.75l0.25 0.25-2 0.25q-2 0.25-2 1.25t-3.5 3.75-8 5.75l-4.5 3-3 0.25-3 0.25 1-1.25 1-1.25-2-1q-2-1-6.5-2.5t-8.5-3-5.25-2.25-7.5-2.5-10.75-3-4.5-2.25v-1h-2l-1.5-0.75q-1.5-0.75-4-1.5l-2.5-0.75 2.5-2.25q2.5-2.25 12-9l9.5-6.75 7.75-3.5q7.75-3.5 15-7.25t45.75-25.25 45-25 30.5-15 25.5-11.25l1.5 0.25 1.5 2.5z" fill="#e0d422"/>
  <g fill="#ded123">
   <path d="m182 173.75l3-0.75h2v1q0 1 4.5 2.25t10.75 3 7.5 2.5 5.25 2.25 8.5 3 6.5 2.5l2 1-1 1.25-1 1.25h-1v1q0 1-1 1.25t-0.75 0.5-2.5 4-6.25 6.25-5.75 3.75-4.5 2.25-2.5 2.5-2 2.75-4.25 3.75-5 4.5-3 3.25-2 2-4 2.75-3 3.25-2 1.25h-3.5q-2 0-2 1t-2 1.5l-2 0.5-0.75-27q-0.75-27-0.5-30.5l0.25-3.5v-7l4.5 0.75q4.5 0.75 7.5 0z"/>
   <path d="m277.5 202.25l3.5 0.75 1.5 0.5 1.5 0.5-1.75 38q-1.75 38-3.5 58.5l-1.75 20.5-10 1-10 1-4.5-0.75q-4.5-0.75-32-9.25t-28.5-8.25l-1 0.25-0.25-3q-0.25-3 2-4.25l2.25-1.25-0.25-3.25q-0.25-3.25 1.75-6.25t9.5-15 8.75-14 3.75-5.25 4-4.5 3-4.75l1.5-3.5 2.5-1.75q2.5-1.75 4.75-5.5t8.25-11.25 8.25-9.5 4.5-4.5 5.5-5l3.25-2.5 0.5-0.25 0.5-0.25 4.25 0.75q4.25 0.75 4.5 1t3.75 1z"/>
  </g>
  <path d="m518.75 68l-0.75-10 0.75 1 0.75 1 2 7q2 7 2.5 10t-0.5 16-3.75 21.5l-2.75 8.5 10.5 3.75q10.5 3.75 12.25 4t3 0 9.25 2.5l8 2.75v1l-9-0.25-9-0.25-14.25 11.75q-14.25 11.75-21.5 17.5t-22.5 18.5-22.5 18.5-23 19-18.5 16.25l-2.75 3 3.75 1.5 3.75 1.5 0.25 0.5 0.25 0.5-2.5 0.25q-2.5 0.25-2.75 0.5t-1.75-0.25l-1.5-0.5-0.25 0.5-0.25 0.5-2-1.25q-2-1.25-4.25-3.5l-2.25-2.25-11.25-1.25q-11.25-1.25-14.25-3.25l-3-2h-11l-1.5-0.5q-1.5-0.5-8-3t-8-3.25-10.5-3l-9-2.25-4.5-3-4.5-3h-4.5q-4.5 0-7-1t-4-2.25l-1.5-1.25-8-1.5q-8-1.5-10.5-3l-2.5-1.5-1.5-0.5-1.5-0.5 1.75-2q1.75-2 3.25-2t5.75-4.25 11.25-9.25 12.5-9 15.5-10.5 14.5-9.5 20.5-12.5 16.25-9.75 1.5-2.75l1.25-2.5v-2l1.25 1.5q1.25 1.5 6.5 7.25t13.25 11.25 17 8.5 25.5 2.5 28-5.5 20.25-13.25 14.75-20.25 7-26.5 0.25-24.5zm-150.75 111.5q5 0 9 2t5.25 3.75l1.25 1.75-0.75 3.5q-0.75 3.5-4.75 5.25t-11.5 1.25-10.25-2.25-3.25-2.75l-0.5-1 0.75-4q0.75-4 5.25-5.75t9.5-1.75z" fill="#cc1f30"/>
  <path d="m282.25 242l1.75-38 2.5 1.5q2.5 1.5 10.5 3l8 1.5 1.5 1.25q1.5 1.25 4 2.25t7 1h4.5l4.5 3 4.5 3 9 2.25q9 2.25 10.5 3t8 3.25 8 3l1.5 0.5h11l3 2q3 2 14.25 3.25l11.25 1.25 2.25 2.25q2.25 2.25 4.25 3.5l2 1.25-6.75 41.5q-6.75 41.5-7 50.25t1 9.5 0.5 2.75l-0.75 2-2.75-1.5q-2.75-1.5-13-4.25t-41.75-7.75-45-8-28.5-4.75-15-2.25v-0.5l10-1 10-1 1.75-20.5q1.75-20.5 3.5-58.5z" fill="#bf2130"/>
  <path d="m560 136.5v-0.5l6 2.25q6 2.25 36.5 13.25t30.75 11.25 0 2.75 1.25 2.5h1.5v1l-2 1.75q-2 1.75-6.5 4.75t-16 10.5-17.5 11.5-18.5 12-18.5 12-17.5 11.5-17.25 11.25-10 6.25l-4.25 2.5v1l-2 1.25q-2 1.25-8 5l-6 3.75-0.5-0.25q-0.5-0.25-4.5-1.25t-8.5-2.5-7.25-3.25l-2.75-1.75-0.25 0.25q-0.25 0.25-6.75 0l-6.5-0.25v-1q0-1-1-1.25t-8.5-2.25-11-3-6.5-1.75l-3-0.75-0.25-0.5-0.25-0.5-3.75-1.5-3.75-1.5 2.75-3q2.75-3 18.5-16.25t23-19 22.5-18.5 22.5-18.5 21.5-17.5l14.25-11.75 9 0.25 9 0.25v-0.5zm4.5 20q4.5 0 8 1.5t4.75 2.25 1.75 1.75 0.5 3.5v2.5l-1.25 1.75q-1.25 1.75-4.75 3.25t-10.5 1-9.75-2.25-3.25-2.75l-0.5-1 0.75-3.25q0.75-3.25 3.75-5.25t4.5-2.5 6-0.5z" fill="#150da3"/>
  <path d="m422.5 245.25l2.5-0.25 3 0.75q3 0.75 6.5 1.75t11 3 8.5 2.25 1 1.25v1l6.5 0.25q6.5 0.25 6.75 0l0.25-0.25 2.75 1.75q2.75 1.75 7.25 3.25t8.5 2.5 4.5 1.25l0.5 0.25 2.75 37.5q2.75 37.5 4.5 55.25t3 19.5 1 2.75l-0.25 1-2-0.75q-2-0.75-3.5-1.75t-27-7-38.5-9.5-21-5.75l-8-2.25v-1l0.75-2q0.75-2-0.5-2.75t-1-9.5 7-50.25l6.75-41.5 0.25-0.5 0.25-0.5 1.5 0.5q1.5 0.5 1.75 0.25t2.75-0.5z" fill="#1008a3"/>
  <path d="m634 170.75l2-1.75 6 1.75q6 1.75 34.5 10.75t36 11.75l7.5 2.75-0.5 2-0.5 2-1.5 0.25-1.5 0.25-9.5 7.5q-9.5 7.5-15.5 12t-14.5 11-11.5 8.25-13 10.5-16 13.25-16.5 13l-10.5 8.5-0.5 0.25-0.5 0.25-1.5-0.75q-1.5-0.75-4 0.25t-9 2l-6.5 1-3-1q-3-1-7-3t-9.5-3.75-11-3.25l-5.5-1.5-2-2.25q-2-2.25-3-3.5l-1-1.25-3 0.25q-3 0.25-9-2.25t-6-3.5v-1l-6-1q-6-1-9.5-2.75t-3.5-2.75v-2l4.25-2.5q4.25-2.5 10-6.25t17.25-11.25 17.5-11.5 18.5-12 18.5-12 17.5-11.5 16-10.5 6.5-4.75zm-60.5 70.25q5.5-0.5 11 1t7.25 2.75 2.5 3l0.75 1.75-1.5 2q-1.5 2-5 3.5t-9 2-11.25-1.25-7.25-3.25l-1.5-1.5 0.25-3q0.25-3 4.25-4.75t9.5-2.25zm75.5-48.5q4 0 8 2t5.25 4.25l1.25 2.25-0.5 2q-0.5 2-1.25 3.25t-3.75 2.75-10.75 0.75-9.75-2.75-2.5-4l-0.5-2 1.5-2.5q1.5-2.5 3.75-3.75t3.75-1.75 5.5-0.5z" fill="#fa9025"/>
  <path d="m506 255.25l2-1.25v1q0 1 3.5 2.75t9.5 2.75l6 1v1q0 1 6 3.5t9 2.25l3-0.25 1 1.25q1 1.25 3 3.5l2 2.25 5.5 1.5q5.5 1.5 11 3.25t9.5 3.75 7 3l3 1 6.5-1q6.5-1 9-2t4-0.25l1.5 0.75v0.5q0 0.5-1 0.5t-1 1v1l5 1.25 5 1.25 1 0.25 1 0.25-1 1.75q-1 1.75-3.5 1.25t-6.5-1.25l-4-0.75-0.25 6q-0.25 6-0.25 19t0.25 28l0.25 15-0.5-1-0.5-1h-1q-1 0-1 3t-1 3-2.25 7.5l-1.25 7.5-6.75 3.25q-6.75 3.25-12.25 5.75t-7.25 3.25l-1.75 0.75-3.25-0.75q-3.25-0.75-7.25-0.25t-4.5 0.75l-0.5 0.25-16.5-3.75q-16.5-3.75-24.5-6l-8-2.25 0.25-1q0.25-1-1-2.75t-3-19.5-4.5-55.25l-2.75-37.5 6-3.75q6-3.75 8-5z" fill="#fa8d20"/>
  <path d="m717.5 200.25l1.5-0.25 1 0.75q1 0.75 9 2.5t9 3.5 2.5 2.25l1.5 0.5 6 0.25 6 0.25 0.5 0.75q0.5 0.75 2.75 1.5t3.5 3 2.25 2.75l1 0.5 4-0.75q4-0.75 4 0.25t6 2.5 6.75 3.5l0.75 2 1.25-0.75q1.25-0.75 10.75 2.75t10.75 4.75 2.5 6.75l1.25 5.5-1-0.25q-1-0.25-2-2.25l-1-2-5.5 1q-5.5 1-10.75 4.75t-13 8-9.75 7l-2 2.75-3 0.75q-3 0.75-9.5 5.75l-6.5 5-5 1.5q-5 1.5-7.75 4.75l-2.75 3.25-2.75 0.75q-2.75 0.75-5.25 2.75t-6 4-3.5 3-2.5 2-4.75 1.75l-2.25 0.75-0.75 0.75q-0.75 0.75-5.25 4.75l-4.5 4h-1.5q-1.5 0-2.75-0.25l-1.25-0.25-0.25 0.5-0.25 0.5-3-0.25-3-0.25-2 0.25q-2 0.25-2 0.75v0.5l-2.5-0.25-2.5-0.25-2-0.5q-2-0.5-4.5-2t-5-2-5-1-4.5-1-2.5-0.5-4.5-2-5.25-2.75l-1.25-0.75-4.75 0.25q-4.75 0.25-6.25-0.25l-1.5-0.5-2-1.25q-2-1.25-2.5-2.5l-0.5-1.25-2-0.75-2-0.75-1-0.25-1-0.25-5-1.25-5-1.25v-1q0-1 1-1t1-0.5v-0.5l0.5-0.25 0.5-0.25 10.5-8.5q10.5-8.5 16.5-13t16-13.25 13-10.5 11.5-8.25 14.5-11 15.5-12l9.5-7.5 1.5-0.25zm-44 71.25q5.5 0 9.5 2t4.75 3.25l0.75 1.25-0.75 3.25q-0.75 3.25-2.75 4.75t-3.5 2-9.75-0.25-10.25-2.75-2.75-3.25l-0.75-1.25 0.75-1.75q0.75-1.75 1-2.75t4.25-2.75 9.5-1.75zm75.5-44q5 0 9.75 2.25t5.75 5.75l1 3.5-2 2.5q-2 2.5-4.25 3.75t-7.25 1.75-9.5-1-6.25-2.75-2.25-2.25l-0.5-1 0.75-3.75q0.75-3.75 3.75-5.75t4.5-2.5 6.5-0.5z" fill="#629481"/>
  <g fill="#518a74">
   <path d="m811 244.75l1 0.25 1.25 16q1.25 16 4 32.75t0.5 18-1.75 3.75 0.75 3.5l0.25 1-7.5 2q-7.5 2-8.5 2.75t-1.5 0.75-1.5 0.75l-1 0.75-7.5 4.25-7.5 4.25-7.5-1q-7.5-1-31-2t-37.5 2-15.75 3.75l-1.75 0.75-0.5-12q-0.5-12 0.25-14.5l0.75-2.5 0.25-0.5 0.25-0.5 1.25 0.25q1.25 0.25 2.75 0.25h1.5l4.5-4q4.5-4 5.25-4.75l0.75-0.75 2.25-0.75q2.25-0.75 4.75-1.75t2.5-2 3.5-3 6-4 5.25-2.75l2.75-0.75 2.75-3.25q2.75-3.25 7.75-4.75l5-1.5 6.5-5q6.5-5 9.5-5.75l3-0.75 2-2.75q2-2.75 9.75-7t13-8 10.75-4.75l5.5-1 1 2q1 2 2 2.25z"/>
   <path d="m714.25 419.5l-1.25 5.5-1.25 2.5q-1.25 2.5-5 9l-3.75 6.5-1-0.25q-1-0.25-2.75-8.5t-3-19.25l-1.25-11 12.5 0.5 12.5 0.5-2.25 4.5q-2.25 4.5-3.5 10z"/>
  </g>
  <g fill="#4e8771">
   <path d="m617 292.75l1-1.75 2 0.75 2 0.75 0.5 1.25q0.5 1.25 2.5 2.5l2 1.25 1.5 0.5q1.5 0.5 6.25 0.25l4.75-0.25 1.25 0.75q1.25 0.75 5.25 2.75t4.5 2 2.5 0.5 4.5 1 5 1 5 2 4.5 2l2 0.5 2.5 0.25 2.5 0.25 2 1 2 1-0.25 13.5-0.25 13.5-6.75 2.75q-6.75 2.75-33.75 14.75t-33 14.75l-6 2.75v-15l-0.25-15q-0.25-15-0.25-28t0.25-19l0.25-6 4 0.75q4 0.75 6.5 1.25t3.5-1.25z"/>
   <path d="m692.75 441l0.25 1-3-1q-3-1-3.25-2t-0.5-0.75-5.75-1.75-17-6.5-20.5-8.25l-9-3.75-1-2.25q-1-2.25-6.5-5.5l-5.5-3.25 16.5-2.25q16.5-2.25 34.5-2l18 0.25 2 17.25q2 17.25 1.25 18.5t-0.5 2.25z"/>
  </g>
  <g fill="#edd5a4">
   <path d="m137 114.5q2 0 8.5 1.5t8.25 2.75l1.75 1.25-0.75 2.25q-0.75 2.25-2.25 3.25t-4.5 2-12.5 0.5-12.75-2.25-4-3l-0.75-1.25 3-2.5q3-2.5 8.5-3.5t7.5-1z"/>
   <path d="m279 157.5v0.5l-2.5 1.75q-2.5 1.75-8 5.25t-8.5 4.75l-3 1.25v-0.5q0-0.5-3.25-2t-3.75-2-0.5-3v-2.5l2.25-1.75q2.25-1.75 5.25-2.75t12.5-0.25l9.5 0.75v0.5z"/>
   <path d="m267.5 52.5q4.5 0 8.75 1.75t5.25 2.75 1 3.5v2.5l-1.25 1.75q-1.25 1.75-5.25 3.25t-10.5 1-9.25-2.25-3.25-2.75-0.5-3v-2l1.25-1.75q1.25-1.75 5.25-3.25t8.5-1.5z"/>
   <path d="m368 179.5q5 0 9 2t5.25 3.75l1.25 1.75-0.75 3.5q-0.75 3.5-4.75 5.25t-11.5 1.25-10.25-2.25-3.25-2.75l-0.5-1 0.75-4q0.75-4 5.25-5.75t9.5-1.75z"/>
   <path d="m564.5 156.5q4.5 0 8 1.5t4.75 2.25 1.75 1.75 0.5 3.5v2.5l-1.25 1.75q-1.25 1.75-4.75 3.25t-10.5 1-9.75-2.25-3.25-2.75l-0.5-1 0.75-3.25q0.75-3.25 3.75-5.25t4.5-2.5 6-0.5z"/>
   <path d="m573.5 241q5.5-0.5 11 1t7.25 2.75 2.5 3l0.75 1.75-1.5 2q-1.5 2-5 3.5t-9 2-11.25-1.25-7.25-3.25l-1.5-1.5 0.25-3q0.25-3 4.25-4.75t9.5-2.25z"/>
   <path d="m649 192.5q4 0 8 2t5.25 4.25l1.25 2.25-0.5 2q-0.5 2-1.25 3.25t-3.75 2.75-10.75 0.75-9.75-2.75-2.5-4l-0.5-2 1.5-2.5q1.5-2.5 3.75-3.75t3.75-1.75 5.5-0.5z"/>
   <path d="m673.5 271.5q5.5 0 9.5 2t4.75 3.25l0.75 1.25-0.75 3.25q-0.75 3.25-2.75 4.75t-3.5 2-9.75-0.25-10.25-2.75-2.75-3.25l-0.75-1.25 0.75-1.75q0.75-1.75 1-2.75t4.25-2.75 9.5-1.75z"/>
   <path d="m749 227.5q5 0 9.75 2.25t5.75 5.75l1 3.5-2 2.5q-2 2.5-4.25 3.75t-7.25 1.75-9.5-1-6.25-2.75-2.25-2.25l-0.5-1 0.75-3.75q0.75-3.75 3.75-5.75t4.5-2.5 6.5-0.5z"/>
  </g>
  <g fill="#c22b3f">
   <path d="m444.5 432.25l0.5 0.75-0.25 0.5q-0.25 0.5 0.25 3t5 11 6 13 2.5 9.5 1.75 19l0.75 14-1.75 6q-1.75 6-11.25 18.5t-21.25 19.75-31.25 9.75-31.5-0.5-20.75-8.25-17.5-15-13.5-21.5-2.25-30.75 1.75-23.25l-0.75-4.25 0.75-1.25q0.75-1.25 7-11t20.75-19.75 36-12.5 32.5 1 23.5 12.5l12.5 9 0.5 0.75z"/>
   <path d="m517.75 56.5l0.25 1.5 0.75 10q0.75 10-0.25 24.5t-7 26.5-14.75 20.25-20.25 13.25-28 5.5-25.5-2.5-17-8.5-13.25-11.25-6.5-7.25l-1.25-1.5-1.75-3q-1.75-3-4.75-11t-3.5-23-0.25-17.5l0.25-2.5h1l1.25-4.5q1.25-4.5 4.5-10.75t3.5-6.5 0.5-4.25l0.25-4 0.25-0.5 0.25-0.5 11.25-9.25q11.25-9.25 22.75-13.25t22-4.5 23 2.5 19.5 7 12.5 8.5 11.75 12.75 7.25 10.25l1 2 0.25 1.5z"/>
  </g>
  <g fill="#3d6e5a">
   <path d="m265.5 197.25l-1.5 2.75-3.25 2.5q-3.25 2.5-5.5 5t-4.5 4.5-8.25 9.5-8.25 11.25-4.75 5.5l-2.5 1.75-1.5 3.5q-1.5 3.5-3 4.75t-4 4.5-3.75 5.25-8.75 14-9.5 15-1.75 6.25l0.25 3.25-2.25 1.25q-2.25 1.25-2 4.25l0.25 3-1.25 2.5q-1.25 2.5-8.25 16t-13 21.5-13.75 13.75-17.25 7.25-13 0l-3.5-1.5-3.25-4.25q-3.25-4.25-4.75-13.25t1-15.5 9.25-17l6.75-10.5 3.5-1 3.5-1 0.5-2q0.5-2 1.5-2t2.75-3.5 4-6.75 7-11 6.75-10.75 3.75-6.5 2.75-3.5 2.25-2.5 4.75-6.5 4.75-6.5l1.25-2.5h1.5q1.5 0 2-1.25t3-3.25 4-2.75 2-2 3-3.25 5-4.5 4.25-3.75 2-2.75 2.5-2.5 4.5-2.25 5.75-3.75 6.25-6.25 2.5-4 0.75-0.5 1-1.25v-1h1l3-0.25 3-0.25 4.5-3q4.5-3 8-5.75t3.5-3.75 2-1.25l2-0.25-0.25-0.25q-0.25-0.25 0.5-3.75l0.75-3.5 3-1.25q3-1.25 8.5-4.75t8-5.25l2.5-1.75 0.75 1.5 0.75 1.5 3.75-2.75q3.75-2.75 9.25-5.25t7.5-5.25l2-2.75 7.5-3.25q7.5-3.25 12.5-7l5-3.75 5.25-3.5 5.25-3.5 3.25-0.25q3.25-0.25 8.75-3l5.5-2.75 2.5-2.75q2.5-2.75 8.25-4l5.75-1.25-2.5 4.5q-2.5 4.5-16 14.5t-16 11-14.75 9.75-24.75 17.75-19.5 14.75-9.5 9-4 6z"/>
   <path d="m686 309.75l3 0.25-0.75 2.5q-0.75 2.5-0.25 14.5l0.5 12 1.75-0.75q1.75-0.75 15.75-3.75t37.5-2 31 2l7.5 1 7.5-4.25 7.5-4.25h1l-3 3.75q-3 3.75-1 6.25t11.5 7 14.25 10.25l4.75 5.75 0.5 7.5q0.5 7.5-3.5 14t-16.25 12.75-45.75 9.25-37.25 8.75-6.5 9.25l-2.75 3.5 1.25-5.5q1.25-5.5 3.5-10l2.25-4.5-12.5-0.5-12.5-0.5 1.25 11q1.25 11 3 19.25t2.75 8.5l1 0.25-0.25 0.5q-0.25 0.5-2 1.25t-3 0l-1.25-0.75-1.75-1-1.75-1-0.25-1q-0.25-1 0.5-2.25t-1.25-18.5l-2-17.25-18-0.25q-18-0.25-34.5 2l-16.5 2.25 5.5 3.25q5.5 3.25 6.5 5.5l1 2.25-10-3.25q-10-3.25-43 8.25t-62.5 24-42 17.75l-12.5 5.25-0.25 12.5q-0.25 12.5-0.75 14.5t-1.25 4l-0.75 2-0.75-14q-0.75-14-1.75-19t-2.5-9.5-6-13-5-11-0.25-3l0.25-0.5 2.25 2q2.25 2 4 3.75t18.75-5.25 32.5-13.5 35.75-15.75 18.5-10-3.25-1.5l-1.5-0.75 0.5-0.25q0.5-0.25 4.5-0.75t7.25 0.25l3.25 0.75 1.75-0.75q1.75-0.75 7.25-3.25t12.25-5.75l6.75-3.25 1.25-7.5q1.25-7.5 2.25-7.5t1-3 1-3h1l0.5 1 0.5 1v15l6-2.75q6-2.75 33-14.75t33.75-14.75l6.75-2.75 0.25-13.5 0.25-13.5-2-1-2-1v-0.5q0-0.5 2-0.75l2-0.25 3 0.25z"/>
  </g>
 </g>
</svg>
