<?xml version="1.0" encoding="UTF-8"?>
<svg enable-background="new 0 0 1408 1408" version="1.1" viewBox="0 0 1408 1408" xml:space="preserve" xmlns="http://www.w3.org/2000/svg"><defs><filter id="g" x="-.18981" y="-.74333" width="1.3796" height="2.4867" color-interpolation-filters="sRGB"><feGaussianBlur stdDeviation="52.039175"/></filter><filter id="h" x="-.43305" y="-.068038" width="1.8661" height="1.1361" color-interpolation-filters="sRGB"><feGaussianBlur stdDeviation="12.50205"/></filter><filter id="i" x="-.14627" y="-.23395" width="1.2925" height="1.4679" color-interpolation-filters="sRGB"><feGaussianBlur stdDeviation="34.868766"/></filter><filter id="j" color-interpolation-filters="sRGB"><feMorphology in="SourceAlpha" operator="dilate" radius="3.6" result="result1"/><feGaussianBlur in="result1" result="result0" stdDeviation="3.6"/><feDiffuseLighting surfaceScale="-5"><feDistantLight azimuth="225" elevation="45"/></feDiffuseLighting><feComposite in2="result0" operator="in" result="result91"/><feComposite in="SourceGraphic" in2="result91"/></filter><filter id="a" color-interpolation-filters="sRGB"><feGaussianBlur in="SourceAlpha" result="result1" stdDeviation="2.2"/><feSpecularLighting result="result0" specularConstant="2" specularExponent="18.1" surfaceScale="5"><feDistantLight azimuth="225" elevation="24"/></feSpecularLighting><feComposite in2="SourceAlpha" operator="in" result="result6"/><feMorphology operator="dilate" radius="5.7"/><feGaussianBlur result="result11" stdDeviation="5.7"/><feDiffuseLighting diffuseConstant="2" in="result1" result="result3" surfaceScale="5"><feDistantLight azimuth="225" elevation="25"/></feDiffuseLighting><feBlend in="result3" in2="SourceGraphic" mode="multiply" result="result7"/><feComposite in="result7" in2="SourceAlpha" operator="in" result="result91"/><feBlend in="result6" in2="result91" mode="lighten" result="result9"/><feComposite in="result11" in2="result9"/></filter><filter id="k" color-interpolation-filters="sRGB"><feGaussianBlur in="SourceGraphic" result="result0" stdDeviation="6"/><feDiffuseLighting lighting-color="rgb(255,255,255)" result="result5" surfaceScale="4"><feDistantLight azimuth="235" elevation="45"/></feDiffuseLighting><feComposite in="result5" in2="SourceGraphic" k1="1.4" operator="arithmetic" result="fbSourceGraphic"/><feGaussianBlur in="fbSourceGraphic" result="result0" stdDeviation="6"/><feSpecularLighting lighting-color="rgb(255,255,255)" in="result0" result="result1" specularExponent="25" surfaceScale="4"><feDistantLight azimuth="193" elevation="125"/></feSpecularLighting><feComposite in="fbSourceGraphic" in2="result1" k2="1" k3="1" operator="arithmetic" result="result4"/><feComposite in="result4" in2="SourceGraphic" operator="in" result="result2"/></filter></defs><g fill="#ffd801"><circle cx="704" cy="704" r="672"/><circle transform="matrix(-.1028 -.9947 .9947 -.1028 76.104 1476.6)" cx="704" cy="704" r="672" filter="url(#j)"/></g><path d="m1164.3 839.42s-0.1945 1.1802-0.5713 3.467c-0.1885 1.1434-0.4224 2.5634-0.7004 4.2509-0.2893 1.6877-0.6721 3.6351-1.0925 5.8497-0.8461 4.4311-1.9696 9.8657-3.4896 16.235-0.7332 3.194-1.6073 6.603-2.5424 10.252-1.0048 3.6197-2.0289 7.4977-3.2487 11.553-4.7538 16.269-11.624 35.829-21.6 57.628-1.2489 2.723-2.571 5.4651-3.9144 8.2564-0.692 1.3851-1.3892 2.7808-2.0914 4.1868-0.3521 0.704-0.7054 1.4106-1.0601 2.1198l-0.2665 0.5327-0.1334 0.2667c-0.028 0.066-0.2318 0.3882-0.2081 0.3726l-0.5278 1.0242c-1.4277 2.7513-2.774 5.4542-4.4307 8.4459-0.7998 1.4688-1.6051 2.9474-2.4156 4.436-0.8154 1.4538-1.6362 2.9172-2.4623 4.39-1.626 2.9697-3.519 5.8068-5.5421 8.5993-2.0923 2.7397-4.3257 5.4254-6.6508 8.0841-4.6241 5.3369-9.0996 10.992-13.9 16.583-4.8079 5.5829-9.812 11.199-15.045 16.802-5.2537 5.5828-10.696 11.188-16.388 16.735-2.8629 2.7561-5.7319 5.5551-8.7103 8.2874l-2.2263 2.0656-1.1167 1.0356-1.1965 1.0789c-1.4574 1.3109-2.9205 2.627-4.3893 3.9481-1.5735 1.3771-3.153 2.7593-4.7383 4.1467-1.5767 1.3459-3.1593 2.6969-4.7476 4.0526-1.5785 1.3573-3.1987 2.6771-4.8148 4.0131-1.6124 1.3403-3.2423 2.6711-4.8969 3.9833-26.321 21.158-56.276 40.872-89.293 57.395-32.981 16.534-68.943 29.877-106.57 38.99-9.4031 2.2776-18.905 4.2958-28.483 6.0482-4.7786 0.8755-9.6194 1.6877-14.397 2.4272-4.9347 0.7574-9.8195 1.4207-14.844 1.9753-2.5042 0.276-5.026 0.5221-7.5636 0.7325l-3.8181 0.2886-3.6748 0.2288c-4.2981 0.2507-8.7566 0.6685-13.501 1.0973-4.7279 0.4298-9.7341 0.8678-14.972 1.1195-2.5676 0.1372-5.4838 0.1787-7.6917 0.2124l-3.5405 0.059c-1.16 0.024-2.473 0.013-3.7021 0.02-39.477 0.1829-78.475-4.0212-116.57-12.679-2.2628-0.5316-4.5232-1.0629-6.7814-1.5934-2.3922-0.6027-4.7817-1.2047-7.1687-1.8062-4.6958-1.2358-9.3202-2.4875-13.934-3.8396-9.2183-2.6842-18.311-5.6199-27.259-8.7877-17.904-6.3175-35.192-13.651-51.779-21.702-4.1498-2.0083-8.2393-4.0941-12.303-6.1852-1.9868-1.0547-3.9694-2.1071-5.9473-3.157l-1.4508-0.7732-1.5181-0.8364-3.03-1.6714c-2.0374-1.1101-4.0043-2.2295-5.946-3.3499-1.9503-1.1226-3.9081-2.2205-5.8256-3.3779-1.9234-1.147-3.8419-2.291-5.7554-3.4321-1.897-1.1692-3.7891-2.3353-5.676-3.4983-7.5138-4.7095-14.834-9.5547-21.954-14.515-7.1034-4.9863-13.995-10.102-20.681-15.309-6.6784-5.2181-13.11-10.581-19.341-15.998-3.0947-2.7352-6.1627-5.4532-9.1367-8.2369l-2.2393-2.0667-2.1953-2.0847c-1.4019-1.3398-2.7981-2.6742-4.1884-4.0029-5.8052-5.6066-11.195-11.058-16.505-16.572-5.2736-5.5134-10.341-11.038-15.223-16.53-4.8808-5.5001-9.4479-11.066-14.116-16.36-2.3595-2.6234-4.6747-5.2455-6.7614-7.9901-2.0571-2.7728-3.8884-5.6609-5.5578-8.6131-0.8509-1.4608-1.6964-2.9121-2.5363-4.3539-0.8179-1.4547-1.6304-2.8998-2.4375-4.3352-1.6279-2.8552-3.144-5.7321-4.6647-8.5387-0.7673-1.3982-1.4792-2.8215-2.208-4.2155-0.7429-1.4299-1.4803-2.8492-2.2122-4.258-0.6588-1.3415-1.3126-2.6728-1.9614-3.9938-0.6473-1.3487-1.2896-2.6869-1.9268-4.0144-2.6248-5.5098-5.0035-10.724-7.2083-15.839-1.1105-2.5493-2.1859-5.0552-3.1959-7.5347-1.0273-2.4695-1.994-4.9088-2.9135-7.3094-3.7145-9.5815-6.8476-18.447-9.3831-26.536-5.1093-16.163-8.1328-29.055-9.9617-37.862-0.4432-2.2028-0.8347-4.1486-1.1726-5.8282-0.3018-1.686-0.5557-3.1049-0.7603-4.2473-0.4051-2.2794-0.6141-3.4559-0.6141-3.4559s0.5615 1.0551 1.6494 3.0992c0.5438 1.0187 1.2191 2.2839 2.0215 3.7873 0.8191 1.4911 1.768 3.2184 2.8423 5.174 2.1584 3.8976 4.8872 8.6586 8.1353 14.191 3.3293 5.4986 7.1394 11.786 11.633 18.654 4.5266 6.851 9.5855 14.353 15.388 22.27 1.433 1.9887 2.9379 3.989 4.4724 6.0224 1.5071 2.0485 3.0838 4.1077 4.6983 6.1932 3.2053 4.1775 6.6481 8.4637 10.156 12.693 1.8386 2.2111 3.7067 4.4576 5.6036 6.7387 1.8636 2.1418 3.7556 4.316 5.675 6.5218 1.9807 2.2056 3.9506 4.459 6.0337 6.6795 1.0313 1.1146 2.0695 2.2367 3.1147 3.3663 1.063 1.1133 2.1331 2.2339 3.21 3.3619 1.0754 1.1251 2.1577 2.2574 3.2468 3.3969 1.0732 1.1504 2.1006 2.3462 3.0943 3.5803 1.0149 1.2186 1.9676 2.4991 2.9294 3.7852 0.936 1.3063 1.8805 2.6195 2.8593 3.9206 0.9818 1.2977 1.9556 2.6155 2.993 3.8929 1.0327 1.2827 2.1135 2.5386 3.1864 3.8123 2.1315 2.5582 4.3828 5.0712 6.6124 7.6453 4.5295 5.0935 9.2371 10.228 14.15 15.364 4.9111 5.1021 10.082 10.325 15.261 15.329 1.3697 1.3091 2.7452 2.6238 4.1264 3.9438l2.0004 1.9004 2.0315 1.8727c2.6925 2.5231 5.4833 4.9918 8.2955 7.4797 5.6713 4.9272 11.536 9.8223 17.648 14.597 6.1207 4.764 12.441 9.4579 18.969 14.042 6.5465 4.5588 13.287 9.0204 20.213 13.363 6.9047 4.3281 14.118 8.5438 21.311 12.547l2.6868 1.4844 1.3455 0.7441 1.439 0.7668c1.8805 0.9988 3.7654 1.9998 5.6544 3.0031 3.7416 1.9231 7.5049 3.8445 11.325 5.6923 15.268 7.4083 31.176 14.16 47.643 19.968 8.2296 2.9131 16.59 5.6122 25.062 8.0795 4.2272 1.2402 8.5189 2.3995 12.774 3.5212 2.1007 0.5308 4.2037 1.0621 6.3091 1.594 2.2572 0.5304 4.5168 1.0613 6.7787 1.5928 34.419 7.8372 71.012 11.816 107.08 11.621 1.1317-0.01 2.1798 0.01 3.3801-0.016l3.5406-0.059c2.5126-0.04 4.3181-0.061 6.4651-0.1731 4.1929-0.2008 8.593-0.5754 13.26-1.0015 4.6506-0.4189 9.5819-0.8864 14.691-1.1873l3.3771-0.2096 3.2245-0.2437c2.1537-0.1786 4.3156-0.3893 6.4862-0.6285 4.3251-0.4758 8.7542-1.0769 13.096-1.7434 4.4976-0.6963 8.9023-1.436 13.331-2.2469 8.837-1.6169 17.6-3.4783 26.266-5.5773 34.657-8.3947 67.742-20.674 98.07-35.877 30.335-15.181 57.898-33.314 82.163-52.82 1.5255-1.2085 3.0277-2.4354 4.5137-3.6716 1.4896-1.2317 2.9843-2.4468 4.4388-3.6993 1.455-1.2418 2.9048-2.4791 4.3491-3.7118 1.4044-1.2277 2.8037-2.4508 4.1976-3.6693 1.4623-1.3153 2.9191-2.6257 4.3702-3.931l0.9811-0.8833 1.0278-0.9542 2.0498-1.9023c2.7435-2.5138 5.3849-5.0958 8.0239-7.6334 5.2452-5.1119 10.262-10.282 15.109-15.429 4.826-5.1677 9.442-10.35 13.879-15.499 2.183-2.6044 4.3881-5.1451 6.4734-7.7371 1.0513-1.2888 2.0996-2.5687 3.1027-3.8725 0.9781-1.3236 1.9525-2.6379 2.897-3.9629 0.9552-1.3166 1.8801-2.6436 2.792-3.9676 0.9388-1.3033 1.8662-2.6025 2.8358-3.8575 1.8971-2.5405 3.9885-4.8896 6.0909-7.1903 1.0583-1.1476 2.1097-2.2879 3.1543-3.4207 1.0117-1.1247 2.0167-2.2419 3.015-3.3517 1.9701-2.1444 4.0404-4.6181 6.0365-6.9323l0.7501-0.8745c0.1296-0.1739 0.034-8e-3 0.1083-0.1026l0.1771-0.2117 0.3539-0.4228c0.4718-0.5636 0.9419-1.1252 1.4102-1.6848 0.9385-1.121 1.87-2.2337 2.7946-3.3381 1.8191-2.2408 3.6105-4.4476 5.3737-6.6196 14.015-17.505 25.174-33.898 33.936-47.778 8.7886-13.877 15.117-25.29 19.428-33.091 1.0676-1.9606 2.0106-3.6926 2.8246-5.1876 0.8027-1.5101 1.4783-2.7809 2.0222-3.8041 1.0874-2.0464 1.6488-3.1026 1.6488-3.1026z" filter="url(#k)"/><path transform="matrix(1.0106 0 0 .9413 -7.4659 -1.1558)" d="m1033 222c0 58.542-147.3 0-329 0s-329 58.542-329 0 148.05-142 329.75-142 328.25 83.458 328.25 142z" fill="#fff" filter="url(#g)"/><path d="m1289 425c4.5527-0.1665 111 177.67 51 441 0 0-3.4994-168.65-10-224.91-6.2394-53.996-41-216.09-41-216.09z" fill="#fff" filter="url(#h)"/><path d="m166.96 1007.1c32.438 69.947 13.532 137.38 182.91 249.91 127.26 84.545 316.32 121.61 389.22 103.15-278.49-35.016-516.34-199.71-572.13-353.06z" fill-rule="evenodd" filter="url(#i)" opacity=".327"/><circle transform="matrix(-.0056063 .99998 -.99998 -.0056063 1551.6 -425.74)" cx="987.49" cy="558.6" r="82.496" filter="url(#a)"/><circle transform="matrix(-.017392 .99985 -.99985 -.017392 986.34 147.86)" cx="420.51" cy="558.6" r="82.496" filter="url(#a)"/></svg>
