<?xml version="1.0" encoding="UTF-8"?>
<!DOCTYPE svg  PUBLIC '-//W3C//DTD SVG 1.1//EN'  'http://www.w3.org/Graphics/SVG/1.1/DTD/svg11.dtd'>
<svg enable-background="new 0 0 67.5 31.7" version="1.1" viewBox="0 0 67.5 31.7" xml:space="preserve" xmlns="http://www.w3.org/2000/svg" xmlns:xlink="http://www.w3.org/1999/xlink">
<symbol id="a" viewBox="-0.006 -25.335 32.298 25.341">
		<g clip-rule="evenodd" fill-rule="evenodd">
			<path d="m27.455-5.895c1.41-1.62 2.385-2.985 2.925-4.095 0.51-0.99 0.885-1.905 1.125-2.745 0.24-0.72 0.435-1.71 0.585-2.97 0.18-1.14 0.24-2.49 0.18-4.05-0.03-1.26-0.12-2.205-0.27-2.835-0.15-0.66-0.465-1.23-0.945-1.71-0.66-0.63-1.485-0.93-2.475-0.9-0.601 0-1.036 0.015-1.305 0.045l-0.225 0.09-10.575 21.735 1.125 0.99c1.11 0.54 2.475 0.57 4.095 0.09 2.16-0.63 4.08-1.845 5.76-3.645z" fill="#D6A11B"/>
			<path d="m20.345-2.025l2.475-1.035c1.83-0.93 3.18-2.025 4.05-3.285 0.69-1.02 1.455-2.085 2.295-3.195 0.6-0.84 1.035-1.8 1.305-2.88 0.3-1.2 0.555-2.925 0.765-5.175 0.15-2.1 0.18-3.405 0.09-3.915-0.24-1.35-0.6-2.16-1.08-2.43-0.3-0.15-1.08-0.165-2.34-0.045-15.75 7.2-22.635 11.655-20.655 13.365 0.93 0.78 1.545 0.99 1.845 0.63 0.15-0.21 0.195-0.48 0.135-0.81 0.72 1.11 1.515 2.265 2.385 3.465 1.8 2.37 3.165 3.795 4.095 4.275 1.11 0.6 2.01 0.975 2.7 1.125 0.6 0.12 1.245 0.09 1.935-0.09z" fill="#A37500"/>
			<path d="m28.669-10.935c0.06-0.24 0.105-0.6 0.135-1.08 0.06-0.39 0.165-0.629 0.315-0.72 0.21-0.15 0.405-0.375 0.585-0.675 0.18-0.36 0.27-0.675 0.27-0.945v-0.81l0.226-0.495c0.18-0.39 0.285-0.72 0.315-0.99 0.09-0.54 0.06-1.185-0.09-1.935-0.03-0.27 0-0.51 0.09-0.72 0.12-0.27 0.18-0.465 0.18-0.585 0.03-0.33-0.209-0.885-0.72-1.665-0.24-0.36-0.69-0.66-1.35-0.9-0.78-0.27-1.425-0.27-1.935 0-0.75 0.36-4.545 5.7-11.385 16.02l4.455 4.275c0.27-0.24 0.99-0.541 2.16-0.9 0.36-0.21 0.811-0.645 1.35-1.305l0.27 0.045c0.21-0.03 0.345-0.15 0.404-0.36 0.241-0.69 0.541-1.14 0.9-1.35 0.54-0.3 1.095-0.884 1.665-1.754 0.21-0.33 0.54-0.555 0.99-0.675 0.061-0.09 0.061-0.285 0-0.585-0.06-0.33-0.075-0.51-0.044-0.54 0.03-0.06 0.24-0.225 0.629-0.495 0.36-0.271 0.556-0.556 0.585-0.856z" fill="#946300"/>
			<path d="m18.5-3.87c0.9 0.03 1.35-0.195 1.35-0.675l0.36 0.045c0.33-0.03 0.705-0.165 1.125-0.405 0.66-0.36 1.335-1.214 2.025-2.564l0.675-0.135 0.36-0.27c0.271-0.18 0.615-0.69 1.035-1.53l0.765-0.27c0.541-0.24 0.945-0.465 1.215-0.675 0.39-0.33 0.63-1.14 0.72-2.43l0.765-0.629c0.3-0.24 0.36-0.795 0.18-1.665l0.855-1.26c0.36-0.66 0.225-1.5-0.405-2.52l0.27-0.36c0.15-0.3 0.18-0.615 0.09-0.945-0.15-0.48-0.375-0.825-0.675-1.035-0.06-0.27-0.33-0.6-0.81-0.99-0.48-0.36-1.11-0.45-1.89-0.271l-1.125-0.225c-0.48-0.089-0.99 0.016-1.53 0.315l-0.675 0.494c-1.8 0.39-3.6 0.78-5.4 1.17-3.63 0.81-5.505 1.275-5.625 1.395-0.15 0.15-0.66 0.975-1.53 2.475s-1.32 2.325-1.35 2.475l-1.215 8.1 2.295 2.655 0.9 0.045c0.45 0.03 1.29-0.06 2.52-0.27l0.54 0.135c0.39 0.09 0.72 0.12 0.99 0.09 0.419-0.03 0.9-0.255 1.439-0.675l0.36 0.18c0.361 0.12 0.826 0.195 1.396 0.225z" fill="#9C5B13"/>
			<path d="m28.58-19.035c0.36 0.18 0.54 0.645 0.54 1.395s-0.345 0.975-1.035 0.675c-0.12-0.03-0.135-0.405-0.045-1.125s0.27-1.035 0.54-0.945zm-1.125 4.05c0.479-1.11 0.839-1.335 1.08-0.675 0.15 0.39 0.165 0.84 0.045 1.35-0.12 0.45-0.241 0.735-0.36 0.855l-0.18 0.18c-0.689-0.51-1.095-0.705-1.215-0.585l0.63-1.125zm-0.945-3.24c-0.09-0.57 0-0.855 0.27-0.855 0.45 0 0.66 0.271 0.63 0.811-0.03 0.51-0.195 0.78-0.495 0.81-0.21 0.059-0.345-0.196-0.405-0.766zm0.36-2.25c0.03-0.27 0.15-0.525 0.36-0.765 0.24-0.24 0.48-0.3 0.72-0.18 0.33 0.15 0.42 0.45 0.27 0.9-0.12 0.479-0.39 0.66-0.81 0.54-0.27-0.06-0.435-0.105-0.495-0.135-0.061-0.03-0.075-0.15-0.045-0.36zm-0.09 3.96c0.27 0.84 0.225 1.365-0.135 1.575-0.27 0.18-0.585 0.165-0.945-0.045l-0.45-0.315 0.585-1.485c0.33-0.66 0.645-0.57 0.945 0.27zm-8.236 9.945c0.33-0.69 0.75-1.095 1.261-1.215 0.78-0.24 1.395-0.33 1.845-0.271l-0.18-0.494c-0.06-0.39 0.09-0.75 0.45-1.08 0.57-0.57 1.036-0.84 1.396-0.81l-0.18-0.495c-0.09-0.39-0.12-0.765-0.09-1.125 0.271-1.59 0.811-2.34 1.621-2.25l1.169 0.18c0.18 0.45 0.21 0.75 0.09 0.9-0.09 0.09-0.18 0.3-0.27 0.63l-0.135 0.495 0.36-0.36c0.3-0.21 0.645-0.315 1.035-0.315 0.45 0 0.675 0.315 0.675 0.945-0.03 0.63-0.315 1.26-0.855 1.89l0.675-0.405c0.39-0.33 0.63-1.14 0.72-2.43l0.765-0.629c0.3-0.24 0.36-0.795 0.18-1.665l0.855-1.26c0.36-0.66 0.225-1.5-0.405-2.52l0.27-0.36c0.15-0.3 0.18-0.615 0.09-0.945-0.15-0.48-0.375-0.825-0.675-1.035-0.06-0.27-0.33-0.6-0.81-0.99-0.48-0.36-1.11-0.45-1.89-0.271l-1.125-0.225c-0.48-0.089-0.99 0.016-1.53 0.315l-0.676 0.495-1.935 0.405c-1.53 3.24-2.685 5.67-3.465 7.29-1.35 2.85-2.16 4.38-2.43 4.59l-3.15 3.375c-1.44 0.81-2.325 1.38-2.656 1.71l0.811 0.9 0.9 0.045c0.45 0.03 1.29-0.06 2.52-0.27l0.63 0.135c0.09-0.24 0.33-0.465 0.72-0.675l1.035-0.495 0.271-0.36c0.27-0.21 0.584-0.315 0.945-0.315l0.81-0.045 0.358-0.99z" fill="#7A480F"/>
			<path d="m26.285-11.34c0.27-0.15 0.495-0.315 0.675-0.495 0.24-0.24 0.285-0.435 0.135-0.585-0.12-0.18-0.345-0.195-0.675-0.045-0.27 0.12-0.524 0.315-0.765 0.585-0.18 0.24-0.195 0.42-0.045 0.54s0.375 0.12 0.675 0z" fill="#C47217"/>
			<path d="m27.86-14.22c0.33-0.45 0.39-0.78 0.18-0.99s-0.405-0.135-0.584 0.225c-0.18 0.3-0.195 0.555-0.045 0.765 0.119 0.24 0.269 0.24 0.449 0z" fill="#C47217"/>
			<path d="m25.834-15.48c0.33-0.36 0.42-0.66 0.271-0.9-0.12-0.24-0.285-0.18-0.495 0.18-0.15 0.3-0.18 0.525-0.09 0.675s0.195 0.165 0.314 0.045z" fill="#C47217"/>
			<path d="m26.645-17.955c0.18 0.18 0.3 0.135 0.36-0.135 0.09-0.24 0.03-0.45-0.18-0.63-0.21-0.15-0.315-0.09-0.315 0.18-0.03 0.27 0.014 0.465 0.135 0.585z" fill="#C47217"/>
			<path d="m28.535-17.46c0.18-0.51 0.15-0.855-0.09-1.035-0.209-0.18-0.33-0.06-0.36 0.36-0.03 0.36 0.015 0.615 0.135 0.765 0.15 0.15 0.255 0.12 0.315-0.09z" fill="#C47217"/>
			<path d="m27.455-20.385c0.39-0.48 0.465-0.765 0.225-0.855-0.27-0.09-0.48 0.03-0.63 0.36-0.12 0.24-0.12 0.435 0 0.585s0.255 0.12 0.405-0.09z" fill="#C47217"/>
			<path d="m21.65-10.17l1.755 0.54c1.23 0.33 2.01 0.405 2.34 0.225 0.36-0.209 0.585-0.375 0.675-0.495s0.135-0.315 0.135-0.585c0-0.18 0.015-0.36 0.045-0.54 0-0.09-0.105-0.195-0.315-0.315s-0.375-0.12-0.495 0l-0.135 0.18-0.405-0.18c-0.27-0.12-0.195-0.585 0.225-1.395 0.18-0.36 0.27-0.735 0.27-1.125-0.03-0.45-0.225-0.75-0.585-0.9-0.63-0.3-1.155-0.015-1.575 0.854l-0.854 1.35-1.081 2.386z" fill="#7A480F"/>
			<path d="m23.09-4.32l-0.09-0.855c-0.03-0.24 0.03-0.42 0.18-0.54 0.09-0.09 0.27-0.21 0.54-0.36 0.3-0.24 0.75-0.75 1.35-1.53 0.241-0.39 0.57-0.33 0.99 0.18l0.45-0.18c0.21-0.09 0.345-0.21 0.405-0.36-0.061-0.6-0.18-0.99-0.36-1.17l-0.495-0.36 0.36-0.54c0.03-0.12-0.089-0.285-0.36-0.496-0.15-0.12-0.3-0.209-0.45-0.27h-0.18c0.06 0.21-0.06 0.285-0.36 0.225-0.209-0.061-0.33-0.27-0.36-0.63-0.03-0.18-0.03-0.345 0-0.495l0.405-0.45c0.33-0.33 0.555-0.615 0.675-0.855 0.18-0.39 0.195-0.705 0.044-0.945-0.36-0.27-0.675-0.39-0.945-0.36-0.18 0-0.36 0.075-0.54 0.225l-0.225 0.225c0 0.33-0.27 0.72-0.81 1.17-0.39 0.36-0.87 0.645-1.44 0.855s-0.765 0.165-0.584-0.135c0.24-0.39 0.915-0.96 2.025-1.71-0.061-0.81-0.375-1.23-0.945-1.26-0.33-0.03-0.69 0.21-1.08 0.72l-0.496 0.765c-2.549 0.09-4.275 0.06-5.175-0.09-0.66-0.12-1.56 0.015-2.7 0.405-1.02 0.36-1.95 0.81-2.79 1.35-0.96 0.6-1.44 3.135-1.44 7.605 0 0.27 0.15 0.646 0.45 1.125 0.12 0.24 0.255 0.45 0.404 0.63 0.061 0.33 0.15 0.63 0.271 0.9 0.12 0.271 0.405 0.42 0.854 0.45l0.315-0.54c0.15-0.21 0.3-0.15 0.45 0.18l0.315 0.315c0.15 0.12 0.345 0.15 0.585 0.09l0.09 0.36c0.09 0.21 0.525 0.315 1.305 0.315l0.18-0.271c0.15-0.18 0.315-0.314 0.495-0.404 0.24-0.15 0.435-0.18 0.585-0.09l-0.133 0.316-0.18 0.585 0.225 0.135c0.21 0.06 0.42 0.045 0.63-0.045 0.36-0.15 0.645-0.735 0.855-1.755l0.18 0.315c0.09 0.18 0.33 0.27 0.72 0.27l0.135-0.405c0.03-0.18 0.345-0.24 0.945-0.18l0.9 0.54c0.24 0.21 0.51 0.255 0.81 0.135 0.27-0.24 0.33-0.45 0.18-0.63-0.15-0.12-0.24-0.195-0.27-0.225-0.06-0.06-0.03-0.195 0.09-0.405 0.09-0.18 0.375-0.405 0.855-0.675 0.48-0.3 0.75-0.48 0.81-0.54 0.18-0.21 0.315-0.33 0.405-0.36h0.495c0.15-0.03 0.299-0.12 0.45-0.27z" fill="#FF9D00"/>
			<path d="m23.9-7.29c0.15 0.21 0 0.54-0.45 0.99-0.12 0.09-0.255 0.09-0.405 0-0.15-0.12-0.24-0.255-0.27-0.405 0-0.42 0.12-0.645 0.36-0.675 0.12-0.03 0.285-0.06 0.495-0.09 0.15 0 0.24 0.06 0.27 0.18zm-0.81 2.97l-0.09-0.855c-0.03-0.24 0.03-0.42 0.18-0.54 0.09-0.09 0.27-0.21 0.54-0.36 0.3-0.24 0.75-0.75 1.35-1.53l0.136-0.135c-0.15-0.12-0.465-0.24-0.945-0.36-0.51-0.12-0.945-0.165-1.305-0.135-0.331 0.06-0.556 0.255-0.676 0.585-0.06 0.39-0.12 0.645-0.18 0.765-0.03 0.06-0.03 0.42 0 1.08 0 0.66-0.045 1.08-0.135 1.26l0.315 0.045c0.45 0 0.675 0.06 0.675 0.18 0 0.15-0.285 0.225-0.855 0.225-0.36 0-0.6-0.06-0.72-0.18-0.3 0.42-0.72 0.765-1.26 1.035-0.09 0.061-0.45 0.15-1.08 0.271-0.51 0.089-0.66 0.15-0.45 0.18 0.42 0.09 0.705 0.225 0.855 0.405 0.06 0.06 0.105 0.21 0.135 0.45 0.03 0.09 0.105 0.165 0.225 0.225 0.149 0.06 0.285 0.18 0.404 0.36 0.15-0.21 0.166-0.375 0.045-0.495-0.15-0.12-0.24-0.195-0.27-0.225-0.06-0.06-0.03-0.195 0.09-0.405 0.09-0.18 0.375-0.405 0.855-0.675 0.48-0.3 0.75-0.48 0.81-0.54 0.18-0.21 0.315-0.33 0.405-0.36h0.495c0.151-0.031 0.3-0.121 0.451-0.271z" fill="#ED8600"/>
			<path d="m14.584-3.375c0.061 0.24-0.09 0.36-0.45 0.36h-0.495c-0.12 0-0.15-0.06-0.09-0.18 0.18-0.39 0.39-0.54 0.63-0.45 0.211 0.03 0.346 0.12 0.405 0.27zm4.006-1.8l-0.046 0.045 0.496-0.36c0.21-0.21 0.345-0.57 0.405-1.08 0.06-0.12 0.135-0.39 0.225-0.81 0.12-0.42 0.271-0.66 0.45-0.72 0.27-0.12 0.69-0.39 1.26-0.81 0.63-0.45 0.99-0.78 1.08-0.99 0.12-0.3 0.345-0.72 0.675-1.26 0.06-0.15-0.12-0.496-0.54-1.035-0.39 0.24-0.735 0.39-1.035 0.45s-0.39-0.016-0.27-0.225c0.24-0.39 0.915-0.96 2.025-1.71-0.061-0.81-0.375-1.23-0.945-1.26-0.33-0.03-0.69 0.21-1.08 0.72l-0.496 0.765c-1.859 0.06-3.345 0.06-4.455 0-4.92 6.24-7.185 9.48-6.795 9.72 0.181 0.12 0.406 0.315 0.676 0.585 0.27 0.24 0.495 0.405 0.675 0.495 0.241 0.09 0.496 0.105 0.765 0.045 0.48-0.12 0.75-0.18 0.81-0.18 0.84-0.06 1.335-0.045 1.485 0.045 0.3 0.209 0.615 0.24 0.945 0.089 0.06-0.06 0.075-0.314 0.045-0.765 0.15-0.27 0.345-0.495 0.585-0.675 0.42-0.3 0.96-0.495 1.62-0.585-0.18-0.12-0.21-0.3-0.09-0.54 0.24-0.54 0.525-0.735 0.855-0.585 0.54 0.181 0.765 0.391 0.675 0.631z" fill="#ED8600"/>
			<path d="m24.8-9.585c-0.06-0.03-0.09-0.105-0.09-0.225 0.03-0.12 0.12-0.225 0.271-0.315 0.18-0.12 0.314-0.165 0.405-0.135 0.12 0 0.135 0.105 0.045 0.315-0.06 0.18-0.165 0.3-0.315 0.36-0.181 0.03-0.286 0.03-0.316 0zm1.305 2.16c0.12 0 0.255-0.061 0.405-0.18 0.21-0.09 0.345-0.21 0.405-0.36-0.061-0.6-0.18-0.99-0.36-1.17l-0.495-0.36 0.36-0.54c0.03-0.12-0.089-0.285-0.36-0.496-0.15-0.12-0.3-0.209-0.45-0.27h-0.18c0.06 0.21-0.06 0.285-0.36 0.225-0.209-0.061-0.33-0.27-0.36-0.63-0.03-0.18-0.03-0.345 0-0.495l0.405-0.45c0.33-0.33 0.555-0.615 0.675-0.855 0.18-0.39 0.195-0.705 0.044-0.945-0.36-0.27-0.675-0.39-0.945-0.36-0.15 0-0.345 0.09-0.585 0.27 0.18 0 0.435 0.12 0.765 0.36s0.225 0.765-0.314 1.575c-0.3 0.42-0.615 1.02-0.945 1.8-0.18 0.48-0.285 0.795-0.315 0.945-0.03 0.27 0.075 0.42 0.315 0.45 0.63 0 1.095-0.09 1.396-0.271 0.15-0.089 0.27-0.089 0.36 0 0.03 0.06 0.135 0.225 0.315 0.495 0.299 0.332 0.374 0.752 0.224 1.262z" fill="#ED8600"/>
			<path d="m13.73-0.36l0.045-0.09-0.18-0.36c-0.209-0.54-0.45-0.84-0.72-0.9-0.18-0.03-0.33 0-0.45 0.09l-0.135 0.135c-0.03-0.09-0.12-0.21-0.271-0.36l-0.54-0.271c-0.15 0.03-0.3 0.09-0.45 0.18l-0.36 0.54-0.36-0.81c-0.119-0.329-0.239-0.494-0.359-0.494l-0.27-0.045c-0.12 0-0.33-0.15-0.63-0.45l0.494 0.765c0.061 0.33 0.15 0.63 0.271 0.9 0.12 0.271 0.405 0.42 0.854 0.45l0.315-0.54c0.15-0.21 0.3-0.15 0.45 0.18l0.315 0.315c0.15 0.12 0.345 0.15 0.585 0.09l0.09 0.36c0.091 0.21 0.526 0.315 1.306 0.315z" fill="#FFB82B"/>
			<path d="m15.215 0c0.21-0.03 0.36-0.09 0.45-0.18 0.06-0.06-0.061-0.165-0.36-0.314 0.12-0.3 0.18-0.646 0.18-1.036 0-0.419-0.09-0.69-0.27-0.81l-0.27 1.08c-0.03 0.27-0.12 0.615-0.27 1.035 0.12 0.18 0.3 0.255 0.54 0.225z" fill="#FFB82B"/>
			<path d="m18.41-3.51l0.135-1.621c0-0.39-0.18-0.555-0.54-0.495-0.39 0.27-0.6 0.48-0.63 0.63l0.18 1.035c-0.15-0.09-0.48-0.045-0.99 0.135-0.33 0.12-0.63 0.195-0.9 0.225h-0.36c-0.15 0.18-0.21 0.36-0.18 0.54 0.06 0.36 0.315 0.465 0.765 0.315l1.215-0.315h0.405c0.12 1e-3 0.42-0.149 0.9-0.449z" fill="#FFB82B"/>
			<path d="m18.32-2.16c-0.03 0 0.075 0.149 0.315 0.45l0.63 0.36c0.24 0.21 0.51 0.255 0.81 0.135l0.045-0.045c-0.03-0.06-0.12-0.12-0.27-0.18-0.12-0.03-0.375-0.18-0.765-0.45-0.3-0.24-0.555-0.33-0.765-0.27z" fill="#FFB82B"/>
			<path d="m22.415-4.635c-0.721 0.06-1.23 0.03-1.53-0.09l-1.44-0.405 0.45 0.45c0.36 0.21 0.69 0.33 0.99 0.36 0.33 0.03 0.75 0.12 1.26 0.27l0.225 0.044 0.225-0.044h0.045c0.12-0.03 0.255-0.12 0.405-0.27-0.06-0.15-0.27-0.255-0.63-0.315z" fill="#FFB82B"/>
			<path d="m19.895-3.51c0.18-0.09 0.24-0.21 0.18-0.36-0.06-0.18-0.24-0.285-0.54-0.315l-0.54-0.045 0.09 0.675c0 0.12 0.09 0.18 0.271 0.18 0.149 0 0.329-0.045 0.539-0.135z" fill="#FFB82B"/>
			<path d="m17.375-2.07c0.18-0.03 0.315-0.12 0.405-0.27s0.075-0.255-0.045-0.315c-0.33-0.209-0.66-0.18-0.99 0.09-0.12 0.09-0.105 0.195 0.045 0.315 0.18 0.12 0.375 0.18 0.585 0.18z" fill="#FFB82B"/>
			<path d="m14.044-1.755c0.09 0.061 0.225 0.031 0.405-0.089s0.225-0.24 0.135-0.36c-0.09-0.15-0.42-0.225-0.99-0.225-0.149-1e-3 1e-3 0.224 0.45 0.674z" fill="#FFB82B"/>
			<path d="m20.705-6.39c0.299 0.03 0.705-0.18 1.214-0.63-0.089-0.21-0.314-0.405-0.675-0.585l-0.584-0.315c-0.12-0.06-0.255-0.045-0.405 0.045-0.12 0.06-0.195 0.21-0.225 0.45 0 0.21-0.015 0.345-0.045 0.405-0.03 0.12 0.03 0.24 0.18 0.36 0.12 0.15 0.299 0.24 0.54 0.27z" fill="#FFB82B"/>
			<path d="m23.584-6.48c0.12-0.21 0.12-0.33 0-0.36-0.15-0.03-0.24 0.045-0.27 0.225-0.03 0.15 0 0.24 0.09 0.271 0.061-1e-3 0.121-0.046 0.18-0.136z" fill="#FFB82B"/>
			<path d="m25.475-7.965l-0.09 0.09v0.045c0.24 0 0.465 0.135 0.675 0.405h0.045c0.18-0.39 0.18-0.765 0-1.125-0.271-0.63-0.525-0.87-0.765-0.72l-1.53 0.36 0.72 0.09h0.54c0.15 0.03 0.271 0.15 0.36 0.36s0.105 0.375 0.045 0.495z" fill="#FFB82B"/>
			<path d="m22.685-8.505c0.21 0 0.36-0.045 0.45-0.135 0.06-0.06 0.045-0.12-0.045-0.18-0.36-0.27-0.75-0.375-1.17-0.315-0.15 0.03-0.225 0.105-0.225 0.225v0.225c-0.03 0.06 0.075 0.105 0.315 0.135 0.119 0 0.344 0.015 0.675 0.045z" fill="#FFB82B"/>
			<path d="m24.53-12.645c0.21-0.241 0.285-0.466 0.225-0.675-0.06-0.21-0.195-0.285-0.405-0.225-0.15 0.06-0.285 0.21-0.405 0.45-0.149 0.36-0.255 0.585-0.314 0.675-0.12 0.21-0.045 0.285 0.225 0.225 0.299-0.09 0.523-0.24 0.674-0.45z" fill="#FFB82B"/>
			<path d="m12.515-2.025c0.21 0 0.285-0.075 0.225-0.225-0.06-0.12-0.195-0.18-0.405-0.18s-0.27 0.06-0.18 0.18c0.06 0.15 0.18 0.225 0.36 0.225z" fill="#FFB82B"/>
			<path d="m26.105-20.34c0.36-1.08 0.675-1.89 0.945-2.43 0.39-0.72 0.93-1.155 1.62-1.305 0.36-0.09 0.675-0.09 0.945 0l-0.315-1.035c-0.3-0.12-0.705-0.18-1.215-0.18-0.99 0-1.95 0.285-2.879 0.855-1.11 0.66-4.996 3.345-11.655 8.055-3.33 2.34-6.54 4.62-9.63 6.84l3.285 5.895 1.53 0.585c1.26 0.27 2.46 0.15 3.6-0.36 1.2-0.54 2.22-1.065 3.06-1.575 0.09-0.061 0.811-0.54 2.161-1.44 0.75-0.54 1.649-1.485 2.7-2.834 0.96-1.23 1.59-2.206 1.89-2.925 0.18-0.45 0.706-1.41 1.575-2.88 0.84-1.5 1.35-2.46 1.53-2.88 0.088-0.211 0.373-1.006 0.853-2.386z" fill="#D6A11B"/>
			<path d="m23.855-17.55c0.57-1.23 1.02-2.325 1.35-3.285 0.36-1.2 0.585-1.905 0.675-2.115 0.36-0.93 1.02-1.725 1.98-2.385-2.67 0.24-7.35 1.215-14.04 2.925-4.86 1.2-8.055 2.01-9.585 2.43-2.4 0.63-3.72 1.095-3.96 1.395-0.45 1.68-0.36 3.36 0.27 5.04 0.54 1.59 0.96 2.76 1.26 3.51 0.51 1.23 1.17 2.325 1.979 3.285 1.501 1.74 2.716 2.835 3.646 3.285 1.83 0.84 3.825 0.479 5.985-1.08 1.14-0.81 2.49-1.755 4.05-2.835 1.17-0.93 2.16-2.1 2.97-3.51 0.75-1.32 1.89-3.54 3.42-6.66z" fill="#FFCD38"/>
			<path d="m1.895-18.135c0.84-0.48 2.896-1.155 6.165-2.025 1.89-0.51 4.996-1.305 9.315-2.385 3.03-0.811 4.965-1.291 5.805-1.44 0.78-0.12 1.395-0.09 1.845 0.09 0.479 0.209 0.72-0.166 0.72-1.125-3.48 0.6-7.455 1.47-11.925 2.61-4.86 1.2-8.055 2.01-9.585 2.43-2.4 0.63-3.72 1.095-3.96 1.395-0.45 1.68-0.36 3.36 0.27 5.04l0.27 0.81c0-0.69-0.045-1.725-0.135-3.105 0.09-1.08 0.495-1.845 1.215-2.295z" fill="#E0AD29"/>
			<path d="m23.99-19.935c-0.12 0.78-0.6 1.89-1.44 3.33-1.11 1.98-1.68 3-1.71 3.06-0.45 0.96-1.065 1.995-1.845 3.105-0.96 1.38-1.815 2.325-2.564 2.835-0.241 0.15-1.02 0.735-2.34 1.755-1.02 0.78-2.025 1.455-3.015 2.025-0.87 0.541-1.68 0.78-2.43 0.72 1.41 0.3 3-0.18 4.771-1.44 1.14-0.81 2.49-1.755 4.05-2.835 1.17-0.93 2.16-2.1 2.97-3.51 0.75-1.32 1.89-3.54 3.42-6.66 0.57-1.23 1.02-2.325 1.35-3.285 0.36-1.2 0.585-1.905 0.675-2.115 0.36-0.93 1.005-1.725 1.935-2.385-1.74 0.18-3.99 0.585-6.75 1.215 1.2-0.09 2.115-0.045 2.745 0.135 0.33 0.06 0.69 0.195 1.08 0.405 0.3 0.09 0.285 0.495-0.045 1.215-0.482 1.08-0.767 1.89-0.857 2.43z" fill="#FFD861"/>
			<path d="m7.925-8.055c0.3-0.24 0.405-0.675 0.315-1.305-0.12-0.63-0.315-0.87-0.585-0.72-0.33 0.15-0.465 0.6-0.405 1.35 0.06 0.78 0.285 1.005 0.675 0.675z" fill="#E0AD29"/>
			<path d="m5.9-9.045c0.21 0.06 0.315-0.135 0.315-0.585 0.03-0.45-0.09-0.675-0.36-0.675-0.3 0-0.435 0.18-0.405 0.54 0.03 0.33 0.18 0.57 0.45 0.72z" fill="#E0AD29"/>
			<path d="m20.975-17.325c0.12-0.27 0.12-0.6 0-0.99s-0.225-0.525-0.315-0.405c-0.09 0.06-0.18 0.345-0.27 0.855s-0.12 0.9-0.09 1.17c0.03 0.42 0.255 0.21 0.675-0.63z" fill="#E0AD29"/>
			<path d="m19.85-20.655c-0.33-0.12-0.615-0.089-0.855 0.09-0.27 0.21-0.36 0.54-0.27 0.99 0.09 0.479 0.15 0.765 0.18 0.855 0.06 0.06 0.165-0.015 0.315-0.225 0.24-0.27 0.45-0.585 0.63-0.945 0.18-0.42 0.18-0.675 0-0.765z" fill="#E0AD29"/>
			<path d="m18.05-18.945c0.09-0.24 0.09-0.48 0-0.72-0.09-0.27-0.255-0.33-0.495-0.18-0.271 0.12-0.286 0.375-0.045 0.765 0.24 0.39 0.42 0.435 0.54 0.135z" fill="#E0AD29"/>
			<path d="m16.61-9.18c0.15-0.12 0.18-0.465 0.09-1.035-0.09-0.6-0.24-0.915-0.45-0.945-0.18-0.03-0.345 0.15-0.495 0.54l-0.18 0.54 0.045 0.63c0.089 0.63 0.42 0.72 0.99 0.27z" fill="#E0AD29"/>
			<path d="m14.675-10.845c0.27-0.271 0.33-0.525 0.18-0.765-0.15-0.21-0.345-0.255-0.585-0.135s-0.285 0.36-0.135 0.72c0.15 0.33 0.33 0.39 0.54 0.18z" fill="#E0AD29"/>
			<path d="m8.78-4.005c0.27 0.09 0.435 0.015 0.495-0.225 0.09-0.24 0.06-0.48-0.09-0.72-0.12-0.18-0.24-0.27-0.36-0.27-0.18 0.06-0.39 0.105-0.63 0.135-0.33 0.03-0.42 0.18-0.27 0.45s0.435 0.48 0.855 0.63z" fill="#E0AD29"/>
			<path d="m2.345-15.075c0.27-0.3 0.405-0.646 0.405-1.035 0-0.39-0.135-0.645-0.405-0.765-0.209-0.09-0.39 0.061-0.54 0.45-0.12 0.3-0.18 0.63-0.18 0.99 0 0.33 0.06 0.524 0.18 0.584 0.12 0.091 0.3 0.016 0.54-0.224z" fill="#E0AD29"/>
			<path d="m1.175-16.875c0.21-0.39 0.21-0.75 0-1.08s-0.36-0.135-0.45 0.585c-0.03 0.18 0.015 0.345 0.135 0.495 0.12 0.18 0.225 0.18 0.315 0z" fill="#E0AD29"/>
			<path d="m9.68-17.325c0.15-0.09 0.24-0.315 0.27-0.675 0-0.36-0.105-0.6-0.315-0.72-0.21-0.15-0.36-0.165-0.45-0.045-0.06 0.061-0.18 0.271-0.36 0.63-0.15 0.33-0.135 0.6 0.045 0.81 0.18 0.18 0.45 0.18 0.81 0z" fill="#E0AD29"/>
			<path d="m8.645-16.425c-0.18 0.06-0.33 0.21-0.45 0.45-0.15 0.27-0.165 0.495-0.045 0.675 0.12 0.27 0.21 0.45 0.27 0.54 0.09 0.15 0.21 0.12 0.36-0.09 0.18-0.27 0.27-0.615 0.27-1.035s-0.135-0.6-0.405-0.54z" fill="#E0AD29"/>
			<path d="m8.15-17.01c0.21-0.12 0.3-0.33 0.27-0.63 0-0.299-0.089-0.495-0.27-0.585-0.15-0.09-0.3 0-0.45 0.27-0.15 0.271-0.225 0.495-0.225 0.675 0 0.45 0.225 0.54 0.675 0.27z" fill="#E0AD29"/>
			<path d="m13.01-14.535c0.27 0.18 0.405 0.03 0.405-0.45-0.03-0.45-0.15-0.645-0.36-0.585-0.21 0.03-0.315 0.195-0.315 0.495-0.03 0.27 0.06 0.45 0.27 0.54z" fill="#E0AD29"/>
			<path d="m13.685-19.395c0.24-0.18 0.3-0.391 0.18-0.63-0.09-0.24-0.21-0.255-0.36-0.045-0.12 0.15-0.12 0.3 0 0.45l0.18 0.225z" fill="#E0AD29"/>
			<path d="m5.27-19.125c0.12-0.09 0.136-0.195 0.045-0.315-0.06-0.12-0.15-0.165-0.27-0.135s-0.15 0.15-0.09 0.36c0.03 0.18 0.135 0.21 0.315 0.09z" fill="#E0AD29"/>
			<path d="m2.885-9.585c0.12 0.21 0.195 0.105 0.225-0.315s-0.03-0.63-0.18-0.63-0.225 0.105-0.225 0.315 0.06 0.42 0.18 0.63z" fill="#E0AD29"/>
			<path d="m21.875-20.52c0.21-0.12 0.33-0.405 0.36-0.855 0.03-0.479-0.045-0.765-0.225-0.855s-0.345-0.045-0.495 0.135c-0.12 0.15-0.21 0.36-0.27 0.63-0.03 0.24 0.03 0.465 0.18 0.675 0.15 0.24 0.3 0.33 0.45 0.27z" fill="#E0AD29"/>
			<path d="m21.11-22.05c0.24-0.09 0.285-0.255 0.135-0.495-0.18-0.241-0.36-0.375-0.54-0.405-0.15-0.03-0.315 0.06-0.496 0.27-0.149 0.15-0.21 0.285-0.18 0.405 0.03 0.09 0.165 0.165 0.405 0.225 0.241 0.06 0.465 0.06 0.676 0z" fill="#E0AD29"/>
			<path d="m18.725-22.275c0.12 0.03 0.18-0.06 0.18-0.27 0-0.18-0.06-0.255-0.18-0.225-0.15 0.03-0.24 0.105-0.27 0.225-0.06 0.12 0.03 0.21 0.27 0.27z" fill="#E0AD29"/>
		</g>
</symbol>
		<use transform="matrix(.7003 -.05 0 -.7003 23.9 .25)" x="-0.006" y="-25.335" width="32.298" height="25.341" xlink:href="#a"/>
		<path d="m34.65 5.8c0.267 0 0.633 0.184 1.1 0.55l-0.05 0.175c0.214-0.05 0.447-0.075 0.7-0.075 0.699 0 1.216 0.05 1.55 0.15 0.566 0.2 1.133 0.6 1.7 1.2-0.5 0.267-1.534 0.934-3.101 2-1.267 0.867-2.033 1.3-2.3 1.3-0.767 0-1.633-0.117-2.6-0.35-0.164-0.039-0.313-0.08-0.45-0.125-0.833-0.231-1.25-0.49-1.25-0.775 0.3-0.8 0.45-1.333 0.45-1.6 0.167-0.633 0.25-1.033 0.25-1.2 0-0.267-0.133-0.767-0.4-1.5-0.038-0.113-0.079-0.23-0.125-0.35-0.037-0.115-0.079-0.231-0.124-0.35l-0.6-0.7c-0.167-0.2-0.417-0.367-0.75-0.5-0.367-0.133-0.55-0.217-0.55-0.25 0.066-0.133 0.2-0.267 0.4-0.4 0.267-0.133 0.5-0.2 0.7-0.2 0.233 0 0.4 0.117 0.5 0.35 0.073 0.185 0.189 0.376 0.35 0.575 0.054 0.066 0.112 0.133 0.175 0.2 0.77 0.185 1.578 0.627 2.425 1.325 0.841 0.702 1.291 1.285 1.35 1.75l0.05-0.2-0.05-0.35c0-0.067 0.066-0.184 0.2-0.35 0.133-0.2 0.283-0.3 0.45-0.3zm-4.75-1.1h0.05c-0.02-0.033-0.037-0.066-0.05-0.1v0.1z" clip-rule="evenodd" fill-opacity=".251" fill-rule="evenodd"/>
		<use transform="matrix(-.9158 -.0014 .0014 -.9158 38.1 1.8501)" x="-0.006" y="-25.335" width="32.298" height="25.341" xlink:href="#a"/>
		<use transform="matrix(.9158 -.0028 0 -.9158 29.45 4.1499)" x="-0.006" y="-25.335" width="32.298" height="25.341" xlink:href="#a"/>
		<path d="m32 10.05c-0.211 0.145-0.478 0.336-0.8 0.575-0.806 0.607-1.956 1.515-3.45 2.725-2.3 1.9-3.767 3.183-4.4 3.85-0.9 0.967-1.883 2.1-2.95 3.399-0.833 1.034-1.35 1.7-1.55 2-0.3 0.434-0.783 0.817-1.45 1.15-0.2 0.1-0.367 0.2-0.5 0.3-0.1 0.066-0.167 0.15-0.2 0.25l-2.3 0.55c0.733-7.366 4.033-12.8 9.9-16.3 0.1-0.267 0.4-0.6 0.9-1 0.467-0.366 0.75-0.549 0.85-0.549l0.45 0.1c0.367 0 0.667-0.15 0.9-0.45 0.267-0.3 0.617-0.45 1.05-0.45 0.267 0 0.433 0.017 0.5 0.05 0.133 0.033 0.2 0.183 0.2 0.45 0.267-0.067 0.4-0.167 0.4-0.3l-0.45-0.75c0-0.133 0.183-0.2 0.55-0.2 0.225 0 0.425 0.033 0.6 0.1 0.328 0.099 0.578 0.299 0.75 0.6 0.333 0.633 0.617 1.017 0.85 1.15s0.717 0.25 1.45 0.35c0.634 0.1 1.05 0.217 1.25 0.35-0.133 0.3-0.533 0.683-1.2 1.15-0.7 0.467-1.15 0.767-1.35 0.9z" clip-rule="evenodd" fill-opacity=".251" fill-rule="evenodd"/>
		<use transform="matrix(1 0 0 -1 15.6 6.3501)" x="-0.006" y="-25.335" width="32.298" height="25.341" xlink:href="#a"/>
</svg>
