<?xml version="1.0" encoding="UTF-8"?>
<svg enable-background="new 0 0 3488 3472" version="1.1" viewBox="0 0 3488 3472" xml:space="preserve" xmlns="http://www.w3.org/2000/svg">
<path d="m1359.5 2170.2" fill="none" stroke="#951B81" stroke-miterlimit="10" stroke-width="11"/>
<linearGradient id="d" x1="191.41" x2="1063.3" y1="1859.4" y2="1859.4" gradientUnits="userSpaceOnUse">
	<stop stop-color="#fff" offset="0"/>
	<stop offset="1"/>
</linearGradient>
<path d="m1007.5 1379.3l55.7-41.8s-117.5-178.2-397.5-118.2c-172.4 36.9-250.8 169.6-285.6 266-0.5 1.3-0.8 2.5-1.3 3.7-49.4 118 41.7 289.2-71.4 368-48.3 33.7-72 26.6-81.2 20.4-0.7-0.5-1.5 0.4-1 1 12.3 15.5 54.7 56.1 134.6 7.7 21.6-13.1-4.4 100.9-44.4 166.9-34.7 41.6-78.9 66.4-124 72 0 0 21 18 57.5 0 1.7-0.9 3.4-1.9 5.1-3.1-28.6 86.1-32.3 168.6 43.2 192.9 50.2 16.2 75.9-16.1 80.2-45.5 5-34.1-40.2-73.9-54-68.3 0 0 36.1 15.9 26 52-4.9 17.4-6.1 28.3-36.6 18.9-104-32 113-246.5 113-246.5s13.1 34.5 24.4 83c0 0 24.1 117.1-42.7 140.6 0 0 39.9 16 58.9-12-0.3 49.8 31 179.3 2.2 198.6-27 18-56.5-14.1-27-48 0 0-85.5 43.5-12 87 19.8 11.7 39.7 4.9 57-11.1 7.9 18.1 27 27.6 27 27.6-13.6-16.6-4.4-49.5 3.7-70.5 7.4-14.7 13.1-30.5 16.4-45.3 9.6-42.6 14.4-29.9 28.7 1.3 5.9 12.9 13.4 28.9 23.5 45.5 12.8 28.7 23.8 63.2 11.6 79.5-17.2 22.9 25.9 3 46-15.7 54.3 37.7 104.9 20 119.9 1.5 96.2-118.4-80-164.4-80-164.4s117.6 85.9 34 102c-70.3 13.5-100.5-134.9-104.6-165.8-17.8-133.2 60.7-197.1 87.2-214.6 5.1-3.4 11.7-3.3 16.8 0 0.1 0 0.1 0.1 0.2 0.1 27.5 18.2 105.5 102.9 6.5 132.4 0 0-58-14.2-24-52.2s-74 6-28 62c17.3 21 41.5 22.3 65.1 15.8 92.1-25.6 117.2-145 44.1-206.6-8.4-7.1-18-13.9-29.2-20.6-46-27.2-52.8-81.8-42.8-140.1 0.3 0.5 0.5 1 0.8 1.5 38 66 100 0 100 0-58.2 0-70.3-54.2-71.1-101.8 25.2-63.4 153.1-20.2 113.3-256.9 0-0.1-0.1-0.2-0.1-0.3 0.2 0 0.2 0 0.1 0.3 15.7-166.2 164.8-97 155.8-98.9z" fill="url(#d)" stroke="#929282" stroke-miterlimit="10" stroke-width="11"/>
<path d="m2059.5 960.2s79 202.4-110 290c0 0-59 66-36.9 124 0 0-159.4 95.7-367.1-86 0 0-194-120-476 42s-232.7 599.5-108 706c52 44.4 28.5 203.6 4.3 314.2-13 59.6 8.7 121.3 55.8 160 18.1 14.9 33.2 32.5 37.9 51.8 12.7 52.6 127.6 187.2 109.8 367.4-3.5 35.9 7.9 71.6 31.9 98.5 6.3 7.1 12.6 14.6 18.3 22.1 0 0 13 56.5 25.2 73.4 27 37.2 175.8 66.6 201.8 10.6s-69.8-179.2-69.8-179.2l-77-200.2s-31.7-66.3-66.4-225.3c-27.6-126.5 126.2-359.2 126.2-359.2s161.1 329.3 190 404c31.5 81.5 234 280 250 376 15.4 92.6 60 102.6 63.2 103.2 0.1 0 0.2 0.1 0.1 0.2-0.8 3-10.9 43 16 71.8 28 30 197.7 58.3 204 4 6.8-58.4-76-132-76-132l-128-192-104-316 34.7-397.2s424 10 510 182 109 404.9 68.5 646.4c-0.9 5.2 0 10.1 2.1 14.7 11.8 26.3 13.8 56 3.6 82.9-6.5 17-9.3 35.8-1.8 52.2 20 44 218.1 95 217 38.7 0 0 140.7 57.1 166.7-16.9s-70-196-76-230-34-626-6-664 142-276 140-410c0 0 315-410.6 184.6-732-112-276-272.6-500-734.6-402 0 0-62-70-72-54s10.6 88 10.6 88l-28.6 14s-102-94-110-78 33.3 132 33.3 132-93.4 81.9-57.4 203.9z" fill="#99D4DB"/>
<path d="m2127.7 1028.7c-14.3 15.7-19.3 37.3-9.8 57.4 9.7 19.8 26.5 25.6 33.1 26.1 59.4 3.4 103.3-59.3 110.1-69.4-50.1-32.3-117.7-31.1-133.4-14.1z" fill="#fff"/>
<path d="m2198.3 1102.1c30.3-41.2-14-81-14-81 48.7 10.8 63.4 39.8 63.4 39.8l13.6-17.8c45.5-8.1 53-64.5 53-64.5-34.9 60.4-76.7 53.9-76.7 53.9 24.4-1.7 35.6-58.5 35.6-58.5-28.8 50.7-60.6 49.6-60.6 49.6 23.4-15.1 15-50.7 15-50.7s-4 46-50.3 43.8c-46.3-2.3-60.2 24-60.2 24-24.5 55.3 25.4 70.2 25.4 70.2 24.1 9.9 55.8-8.8 55.8-8.8z" fill="#442A19"/>
<path d="m1973.8 1338c1.3-12.6-17.5-15.3-19.6-2.9-0.6 3.3-0.5 7.2 0.3 11.8 1.1 6.2 3.2 10.6 5.8 13.6 8 8.9 21.7-1.7 15.7-12-1.7-2.9-2.7-6.3-2.2-10.5z" fill="#fff" stroke="#929282" stroke-miterlimit="10" stroke-width="11"/>
<path d="m2422 1140" fill="none" stroke="#A3195B" stroke-miterlimit="10" stroke-width="11"/>
<path d="m2059.5 960.2s74.3 190.3-93.6 281.7c-13.1 7.2-24.4 17.4-32.5 29.9-15.6 24.2-35.1 64.9-20.9 102.3 0 0-159.4 95.7-367.1-86 0 0-194-120-476 42s-232.7 599.5-108 706c52 44.4 28.5 203.6 4.3 314.2-13 59.6 8.7 121.3 55.8 160 18.1 14.9 156.5 234.8 140.7 411.6-3.5 39.2 10.5 77.8 37.9 106.1 7 7.2 13.7 14.7 19.3 22.2 0 0 10.4 58.7 25.2 73.4 42 41.7 175.8 66.6 201.8 10.6s-69.8-179.2-69.8-179.2l-90-234s-50.6-147.4-59.7-231.3c-9.8-90.3 132.4-319.4 132.4-319.4s171.8 326 190 404c11.3 48.6 234 280 250 376s63.3 103.2 63.3 103.2-12 42 16 72 197.7 58.3 204 4c6.8-58.4-76-132-76-132l-128-192-88.5-268.8c-10.2-31.1-14.1-64-11.2-96.7l30.3-347.7s424 10 510 182 110.5 424.4 68.5 646.4c-1.3 6.6 0.5 12.8 3.8 18.3 13.3 22.3 15.4 49.4 4.9 73.2-8.5 19.2-13.4 41.4-4.8 60.2 20 44 194.1 95 217 38.7 0 0 158.9 48.7 166.7-18.8 12.5-108.2-70-196-76-230-2.1-11.6-6.7-88.6-10.8-186.3-7.8-187.9-13.7-452.7 4.8-477.7 28-38 142-276 140-410 0 0 315-410.6 184.6-732-112-276-272.6-500-734.6-402 0 0-62-70-72-54-6 9.6-0.9 39.6 4.1 61.9 3.3 14.7 6.6 26.1 6.6 26.1l-28.6 14s-102-94-110-78 33.3 132 33.3 132-93.2 81.9-57.2 203.9z" fill="none" stroke="#929282" stroke-miterlimit="10" stroke-width="11"/>
<path d="m1912.6 1374.2c80.2 110.6 145.8 101.7 192.7 61.3 52.7-45.4 81.9-130.5 81.9-130.5" fill="none" stroke="#929282" stroke-miterlimit="10" stroke-width="11"/>
<path d="m2507 985c26 32.5 30.8 77.9 27.8 118.7-4.9 66.9-51.2 123.3-115.5 142.3-63 18.5-161.9 40.3-201.3 156-46 135-112.7 33.5-112.7 33.5" fill="none" stroke="#929282" stroke-miterlimit="10" stroke-width="11"/>
<path d="m1359.5 2170.2" fill="#E1669F"/>
<path d="m1359.5 2170.2" fill="#E1669F"/>
<path d="m1448.9 3092.2c-54.9 59.8-224.6-19.9-224.6-19.9s-5.8 32.9 20.5 51.3c0 0 130.5 90.8 201.8 10.6l2.3-42z" fill="#929282"/>
<polygon points="1259.5 1610.5 1241.7 1623.2 1242 1645 1224.4 1632 1203.7 1639 1210.7 1618.3 1197.6 1600.8 1219.5 1601 1232.1 1583.2 1238.6 1604" fill="#fff" stroke="#929282" stroke-miterlimit="10" stroke-width="11"/>
<polygon points="1293.1 1581.2 1219.9 1544.7 1148.3 1584.3 1160.4 1503.4 1100.6 1447.6 1181.3 1434 1215.9 1359.9 1253.7 1432.5 1334.9 1442.5 1277.6 1500.9" fill="#fff" stroke="#929282" stroke-miterlimit="10" stroke-width="11"/>
<polygon points="1116 1562.3 1078.5 1559.5 1054.9 1588.7 1046.1 1552.2 1011 1538.8 1043 1519.1 1044.9 1481.6 1073.5 1505.9 1109.8 1496.1 1095.5 1530.9" fill="#fff" stroke="#929282" stroke-miterlimit="10" stroke-width="11"/>
<linearGradient id="e" x1="2290.3" x2="3327.3" y1="1272.9" y2="1272.9" gradientUnits="userSpaceOnUse">
	<stop stop-color="#fff" offset="0"/>
	<stop offset="1"/>
</linearGradient>
<path d="m3256.4 1367.2c-3-0.6-4.1 3.7-1.2 4.6 42 13.2 35.6 61.4 8.8 79.4-113.7 76.4-153-88.9-153-88.9 3.5-14.3-5-47.1 8-42.2 106 39.9 195.4-85.8 175-73-100 63-152.9-7.1-174.6-53.1 44.3 25.5 60.7 0 60.7 0-49-7.4-85.3-72.4-86.1-73.8-9.8-27.1-20.6-51.8-29-70 19.9 16.8 51.9 34.3 87.1 12.1 61.3-38.5 14.8-114.5 12.6-117.9-0.1-0.1-0.1-0.2-0.2-0.3-23.4-29.8-51.4-41.8-73.4-30.8-28.3 14.1-19.1 58.1 16.3 77.5 2 1.1 6.1-1.5 4.2-2.7-26.2-16.9-16.4-91.4 33.6-29.8 43 53-17 105-73 43-61.4-68-60.5-94.5-119-154.5s70.3 47.9 123 28.5c57-21 70.5-49.5 94.5-33s-1.5 46.5-1.5 46.5c34.3-2.5 51-49.5 11.8-66-30.4-12.8-59.7-6.2-81.2 4.7-21.1 10.6-45.8 10.8-66.8 0-36.1-18.6-77-42.6-122.8-38.2-4 0.4 51.6-32.8 52-33 26.7-14.7 84.9-14.9 87.8 13.3 3 30-50.8 17.7-50.8 17.7 0.1 0 67.5 27.6 68.3-20.3 0.7-37.3-72.5-39.5-79.3-40.1-0.8-0.1-49.5-0.6-79.1-1-9.4-0.1-18.6-1.8-27.4-5.1l-20.5-7.6s75.5-5.9 80-61.4-39-82.5-70.5-70.5c-15.2 5.8-24.1 19.3-27.9 32.2-2.3 7.9 8.8 12.5 12.8 5.3 5.2-9.6 22-27.3 45.3-16.3 27 12.7 52.7 89.3-172.3 73.6-4-0.3-5.3-5.6-1.8-7.7 19.1-11.5 58.2-34.7 61.5-87.4 4-63.3-30.7-70-66.7-66.9-4.5 0.4-3.5 7.6 1 7.7 22.8 0.6 47.9 9.8 33.7 51.2-18.3 53.5-104.3 53.3-143.9 50.2-4.1-0.3-4.9-6-1.1-7.5 63.5-24.7 10.6-91.3 11-90.7 0 0 52 82-138 86-162.4 3.4-188.9 30.7-193.2 38.6-0.6 1.1-0.6 2.5 0 3.6 5.7 10.5 40.2 73.2 47.2 69.8 36-17.5 64.3-14.5 84-6.5 0 0 27 39.4-10 68.4s66.6 7.6 48.8-34.2c15.9 30.9 21.6 84.2-7.5 117.6-42.2 48.5-69.3 53.3-86.7 40.7-4.1-3-6.7-8.7-7.9-15.5-1.9-10.5-17.5-8.4-16.6 2.3 0 0.4 0.1 0.8 0.1 1.3 6.9 68.1 106.5 31.5 149.1-18.7 12.9-15.2 35.2-30.3 40.6-12.4 0.3 1 0.2 2.1-0.3 3-7.3 14.2-35.6 82.5 29.9 139.9 21.7 19 50.8 25.4 68.6 21.7 14.9-3.1 26.7-10.2 34.3-19.5 14.8-18.1 19.5-53.3-15.6-79.1-3.1-2.3-7.3 0.9-6 4.5 5.7 15.2 12 40.6-6.9 45.2-27.9 6.8-94.7-33.3-55.9-92.3 27.9-42.4 98.3-22.3 117.5 33.1 11.4 32.8 6.9 68.9-12.1 98-11.9 18.1-26.9 42.8-41.6 70.8-5.9 10.5-32.5 50.8-84.8 37.7 0 0 25.2 32.6 59.4 15.3-35.6 82.7-54.9 175 7.6 212.7 97.3 58.7 167.3-60 133.3-116-18.8-30.9-39.5-31.2-53.8-20.7-20.5 15.2-20.1 49.9-17.2 72.4 0.5 4.3 6.7 4.6 7.7 0.4 5.6-23.5 17.3-57.5 36.6-44.3 28.5 19.5-30.5 140.2-81 64.4-54.3-81.6 60.6-210.9 114.1-264 3.2-3.2 8.3 0.6 6.2 4.6-10.8 20.5-20.7 50.1-13.8 82.5 0 0 11.5 51 48.5 55.5 34.9 4.2 58.3-47.8 22.9-68.1-2.4-1.4-5.2 0.9-4.3 3.5 4.5 13.4 10.7 42-18.5 39-38.1-3.8-18.5-132.4 19-114.9s84 125.4 84 125.4 48 101.8-10.5 136.4-75.1-24-54-41.9c13-11 33.6 2.4 41.1 6.8 2.2 1.3 4.8-0.8 4.1-3.2-3.2-10.7-20.3-44.1-52.7-27.6-47.4 24-21 151.9 79.5 79 62.5-45.3 53.6-127 38.6-182.2-1.3-4.7 5.4-7 7.3-2.6 18.9 42.3 41 103.7 43.3 164.7-0.1 0.6-0.2 1.1-0.3 1.7 0 0-7.4 58-86.9 68.5 0 0 49.5 15 78-4.5-18.6 34.4-35.1 65.8-57.5 89.9-47.5 51.1-151 90.1-146.5 36.1 3.5-41.9 46.7-24.4 61.7-22.7 3.1 0.3-88.7-49.3-90.2 18.2-1.1 49.2 61.5 100.5 156 24 0 0-52.9 128.6-118.7 113.1-3-1.1-6.4-2.2-10.3-3.6-8-3.7-15.6-6.8-23-9.4-67.9-32.5-65.5-80.6-65.5-80.6-13.5 42 7.5 70.2 7.5 70.2-51.9 0.5-81.5 49.2-83 74.1-2.1 35.9 8.4 73.7 59 76.1 61.5 3 58.5-45 58.5-45s-22.5 40.5-55.5 24c-12.4-6.2-28.5-19.1-16.5-49.1 13.5-33.7 111-70 128.3 31.2 6.7 39.1-10.5 75.8-50.3 91.4-107.4 42.2-37.5 64.5-37.5 64.5s-32.2-34.9 64.5-49.5c37-5.6 41 18.4 41 18.4s28.2 55.3-104 64.1-131.5 79.4-103.5 100.5c81.5 61.4 73.5-40.6 73.5-40.6s3 64.6-51 22.6c0 0-39.9-57.8 67.5-56.1-2.2 10.1 9.3 16.5 15.6 19.2 1.4 0.6 2.8-0.7 2.4-2.1-3.8-11.6 8.3-14.6 20-15 6.8 0.5 13.2 0.9 19.1 1.2 37.2 1.9 58.5-0.8 78.9-26.2 46.5 47 65.7 64.1 50.5 92-11.9 21.8-41 19.4-55.1 16.8-1.3-0.2-1.9 1.5-0.7 2.1 16.7 8.3 58.4 23.8 81.8-13.9 18-29-23-78-30.8-109.8-10.3-42.2 49.6-29.4 80.5-57.4 3.8 17.8 55.2 4.2 35.2-2.8s-15.5-31.7-15.5-31.7c8.3-41.6-43.5-63.9-43.5-63.9 41.1 16.7 73.1 33.7 97.7 50.7 0.2 0.3 21.3 42.9-4.6 52.9-26 10 47 1.6 46.5-16.7 83.5 94.4-41.7 171-81.5 123.6-41.5-49.5 27.2-73.3 27.2-73.3s-79.2-15-83.7 51 93.5 92.5 150 60c109.5-63 53.6-143.8 53.6-143.8 34.8-6.4 44.8-82.4 40.8-66.4-21.5 86.2-97.9-13.9-113.9-27.9-3.5-3.1-7.1-6.1-10.9-9.2 44.7 9.3 52.8-33.3 52.8-33.3-46.5 19.5-105.6-11.5-105.6-11.5-58.7-61.5-21.3-93.4-16.4-86.1 24 36 154-18 160 22 6.2 41.4-15.5 42.1-42.9 36.3-5.3-1.1-7.4 6.4-2.4 8.3 24.6 9 53.8 10.5 68.1-23.4 35.2-83.3-82.8-85.3-82.8-85.3-98.5-21.4-20-119.2-20-119.2s129.5 142.1 225 42c62.6-65.6 16.5-113.5-41-125.6z" fill="url(#e)" stroke="#929282" stroke-miterlimit="10" stroke-width="11"/>
<linearGradient id="f" x1="1931.5" x2="2302.1" y1="802.73" y2="802.73" gradientUnits="userSpaceOnUse">
	<stop stop-color="#fff" offset="0"/>
	<stop stop-color="#DADADA" offset="1"/>
</linearGradient>
<path d="m2301.4 894c-0.9-1.9-5.1-1.6-10.2-2.1-9.6-1-18.2-9.8-19.1-19.4l-6.1-68.1c-0.1-0.9-0.3-1.9-0.6-2.7l-46.3-122.1c-2-5.3-7.9-7.9-13.2-6-27.8 10.3-108.3 43.7-140 95.5 0 0-27.3 45-62 37.7 0 0 15 20.3 42.2 0.8-15.9 25.7-40.2 55.3-69.2 57.5-30.6 2.4-28.1-7.3-28.8-22.8-0.8-16.3 28.2-10.2 25.9 6 0 0.2-0.1 0.5-0.1 0.7-4 25 24-33-18-31.9-42.1 1.1-27 68.7 23 62.9 13.5-1.6 27.1-5.4 40-10.3 0 0-9.3 12.1 1 31.6 0 0-3.8-21.6 38-50.3 25-14.4 42.1-28.5 42.1-28.5 2.7 13.8 9.9 34 25 63.5 51.1 100 146.7 14.6 98.3-29.2-46.3-41.8-48.3 28.2-48.3 28.2s6.2-44 31-17-31 73-60 10c-11-23.9-5.1-41.8 6.6-54.8-2.2 2.4 30.5 16.3 24.7 4.8-13.3-26.4 17.8-31 17.8-31 6.4-2.3 10.7-3.3 10.7-3.3 69.8-5.6 14.7 85 55.4 116.4 0.5 0.4 0.8 0.9 1.4 1.1 20.4 6.8 43.5-7.4 38.8-17.2z" fill="url(#f)" stroke="#929282" stroke-miterlimit="10" stroke-width="11"/>
<path d="m2265.5 801.6l-39-113.4s-22.7-87.8-10.6-88 98.5 63.8 126.5 163.8" fill="none" stroke="#929282" stroke-miterlimit="10" stroke-width="11"/>
<path d="m2139.9 1041.5s-17.5 0.3-14.4 18.8 9.8 2.2 9.8 2.2l4.6-21z" fill="#fff"/>
<path d="M1809.5,2092.2c-225-8.2-450,78-450,78  S1732,2060,1764,1767" fill="none" stroke="#929282" stroke-miterlimit="10" stroke-width="11"/>
<path d="m2612.3 3092.3s33.7-72.3-62.3-224.3c-43.2-68.4 142.3-669.7 142.3-669.7" fill="none" stroke="#929282" stroke-miterlimit="10" stroke-width="11"/>
<path d="m2082.9 3129.4c-22.2 67.5-193.5 3.8-204-4s-17.7-38.3-17.7-38.3 178.9 67.4 213.4 11.9c0 0 12.1 18.8 8.3 30.4z" fill="#929282"/>
<path d="m2620.4 3072.3c-47.6 76.3-228.6-27.9-228.6-27.9s-6.4 29.1 11.9 42.7 183.3 109.2 209.7 5.1l7-19.9z" fill="#929282"/>
<path d="m2776.7 3062s-39.2 45.6-159.7 10.3l-11.1 39.1s166.5 42.6 169.6-19.2c1-19.8 0.1-19.9 0.1-19.9" fill="#929282" stroke="#A3195B" stroke-miterlimit="10"/>
<path d="m2319.5 2274.2s-179.7-204.3-179.7-336.3" fill="none" stroke="#929282" stroke-miterlimit="10" stroke-width="11"/>
<g stroke="#706F6F" stroke-miterlimit="10" stroke-width="6">
	<path d="m2145.1 757.6c-19.8 1.2-37.4 22.6-40 45.2l-22.9-22.6c12.5-16.7 17.6-37.1 15.5-56.9l47.4 34.3z"/>
	<path d="m2073.7 705.8c1.2 18.1-3.5 36.3-14.4 51.8l-23-22.7c9.3-14.1 13.6-30.4 13.1-46.7l24.3 17.6z"/>
	<path d="m2097.8 723.3c2.1 19.8-3 40.2-15.5 56.9l-22.9-22.6c10.9-15.5 15.6-33.7 14.4-51.8l24 17.5z"/>
	<path d="m1951.6 617.1c-1 9.2-3.6 18.2-7.8 26.6l-23.3-22.9c3.1-6.9 5.3-14.2 6.3-21.6l24.8 17.9z"/>
	<path d="m2049.5 688.2c0.5 16.3-3.8 32.6-13.1 46.7l-23-22.7c7.9-12.8 11.8-27.2 11.9-41.7l24.2 17.7z"/>
	<path d="m1902.2 581.2c-1 5.7-2.6 11.2-4.9 16.6l-23.4-23.1c1.4-3.8 2.6-7.7 3.4-11.6l24.9 18.1z"/>
	<path d="m1877.3 563.1c-0.8 3.9-2 7.8-3.4 11.6l-51.4-50.7-6-5.1 3.2 2.3-2.8-2.8 6 5.1 54.4 39.6z"/>
	<path d="m2000.8 652.8c-0.5 12.7-4 25.3-10.6 36.6l-23.1-22.8c5.3-9.9 8.3-20.7 9.2-31.6l24.5 17.8z"/>
	<path d="m1927 599.2c-1.1 7.4-3.2 14.7-6.3 21.6l-23.3-23c2.2-5.4 3.8-11 4.9-16.6l24.7 18z"/>
	<path d="m1976.2 635c-0.8 10.9-3.9 21.7-9.2 31.6l-23.2-22.9c4.2-8.5 6.7-17.5 7.8-26.6l24.6 17.9z"/>
	<path d="m2025.2 670.6c-0.1 14.5-4 28.9-11.9 41.7l-23.1-22.8c6.5-11.4 10-23.9 10.6-36.6l24.4 17.7z"/>
</g>
</svg>
