<?xml version="1.0" encoding="UTF-8"?>
<svg viewBox="0 0 500 500" xmlns="http://www.w3.org/2000/svg">
 <defs>
  <filter id="b">
   <feGaussianBlur stdDeviation="4.46364"/>
  </filter>
  <radialGradient id="a" cx="1049.4" cy="260.33" r="151.55" gradientTransform="matrix(-.48145 -.48145 .6544 -.6544 716.8 973.82)" gradientUnits="userSpaceOnUse">
   <stop stop-color="#e8943a" offset="0"/>
   <stop stop-color="#af412a" offset="1"/>
  </radialGradient>
 </defs>
 <g transform="translate(-389.13 51.344)" fill="#3f3f3f" filter="url(#b)" opacity=".64679">
  <path d="m544.61 129.99c-26.163 19.772-43.027 41.468-20.382 71.338 15.112 21.35 38.419 22.332 36.943 38.217 13.451-9.9388 28.376-6.6095 45.223 14.013 16.757 34.179 5.1176 43.345-8.2803 49.045 18.97 3.4832 17.237 25.259 31.847 54.14 24.247 28.519 53.035 39.274 73.885 35.669 34.646-4.2896 50.262-14.292 72.611-29.936 26.978-20.434 50.777-41.377 48.408-71.975-1.8563-23.972-15.245-40.785-35.032-54.777-18.757-13.219-36.403-10.594-41.401-29.936-11.351 9.3251-25.956 12.467-54.14-10.191-30.016-28.714-9.1414-26.593-5.7325-34.395-18.246-0.91996-13.832-20.794-28.662-36.943-22.979-22.381-52.394-24.535-87.261-9.5541" fill-rule="evenodd"/>
  <path d="m547.81 132.98c-23.624 18.915-41.603 40.845-18.877 68.898 15.234 20.06 35.272 17.608 34.655 32.639 12.157-9.5108 29.527-2.03 46.357 17.327 14.218 29.629 8.1844 44.763-4.1282 50.265 17.993 3.1338 19.332 44.757 28.728 54.108 23.848 26.125 53.011 34.777 72.428 31.193 32.346-4.3478 47.808-15.211 70.597-30.191 24.358-19.548 46.065-39.708 42.709-72.273-3.2601-20.271-18.29-35.898-37.561-48.962-18.266-12.341-30.897-7.1623-36.532-25.409-10.213 8.9128-26.969 9.4585-54.55-11.728-29.596-26.898-14.338-30.163-10.239-36.295-15.915-2.627-8.9096-20.819-23.628-35.963-22.677-20.968-50.762-23.13-82.797-8.6719" fill-rule="evenodd"/>
  <path d="m617.22 203.88-136.31-142.68c-8.6893-9.3688-15.506-13.127-24.204-8.9172 16.136-11.04 29.724-11.89 40.764-2.5478l74.546 66.159 78.32 69.509c-12.057-0.96087-22.746 7.6535-33.121 18.471z" fill-rule="evenodd"/>
  <path d="m477.1 66.298-11.465 5.0956c1.4041 6.6783 0.77847 8.0936-6.3694 10.191-5.3738-0.78326-8.0429-4.2714-8.2802-10.191 4.3175-8.6142 8.3675-5.4937 12.102-5.0956l11.465-5.0955c1.8008 1.4606 4.0171 2.8174 2.5478 5.0955z" fill-rule="evenodd"/>
  <path d="m490.92 45.11 5.6298-3.3779c-1.7631-5.2258 1.1013-7.7523 6.5306-8.7825 6.1454 0.31017 8.1057 4.8054 7.6566 11.71-2.68 5.145-6.4038 6.6368-11.485 3.3779l-2.4771 0.90077 0.45039 0.45039" fill-rule="evenodd"/>
  <path d="m484.84 42.858c-1.2725-4.5003 3.5431-9.4431 11.26-6.5306" fill-rule="evenodd"/>
  <path d="m468.4 45.11-4.9542 4.9542c16.316 2.634 24.812 17.838 34.004 28.825-14.362 9.6009-19.017-18.086-29.275-5.855l-10.246-13.399c-2.1811-3.4266-6.3564-8.3652-7.9944-12.949-3.9398 2.937-7.1688-0.16763-9.9085-7.4314 1.4262-2.1349 2.8524-3.2538 4.2787-1.8016-0.31811-6.4558-4.9122-18.503 1.8015-15.764 0.86319-1.3512 0.62789-4.0206 4.2787-2.0267 4.0176-5.1301 10.004 3.5244 15.088 5.855 5.6231-1.0624 7.4325 3.1703 5.855 9.9085 2.1417 6.8995-0.37713 7.9733-2.9275 9.0077l0.2252 1.126h-0.2252" fill-rule="evenodd"/>
  <path d="m626.94 230.89c-9.3694-0.9886-7.4714 6.6348-3.1527 15.538 9.9861 10.425 25.746 25.049 23.42 40.31 0.3694 9.0211-6.0478 12.566-16.889 9.9085-3.037-2.0757-6.0538-5.2992-0.67559-9.0077 5.1641-1.3959 4.8416 2.1102 4.7291 5.4046 7.1567 3.6508 9.7365-1.414 8.107-8.5573-2.0124-8.542-8.6159-15.245-14.638-22.069-15.839-22.019-11.805-28.91-8.3322-32.878 3.453-1.6258 6.9059-3.5697 10.359-1.126 2.2607 2.3292 3.7042 4.1163 2.2519 5.855-3.1296 2.635-5.8656 0.42872-5.1794-3.3779z" fill-rule="evenodd"/>
  <path d="m732.33 229.54c3.3517 7.5365-12.609 1.7109-15.989-0.90077l-30.401-23.42c-12.788-8.8482-14.064-6.7009-20.042-5.4046-1.4485 2.0507-4.3731 3.4305 0.45038 8.3322 4.5154 2.1133 4.7463-0.05779 5.1794-2.0267l-3.6031-2.4771c2.7502-5.8325 9.424-0.8117 13.061 2.2519 11.006 9.4392 22.208 20.051 32.653 26.122 9.088 5.1014 14.701 3.8312 20.267 2.4771 3.4968-1.4503 2.8541-4.6748 2.2519-7.8818-2.7969-2.8967-5.9166-4.6638-9.9085-3.3779-3.4013 2.6966 0.24877 5.4854 6.0802 6.3054z" fill-rule="evenodd"/>
  <path d="m647.66 249.13-2.7023-14.412c13.11-18.387 27.133-23.988 41.436-25.672l-3.1527 19.367-35.581 20.718z" fill-rule="evenodd"/>
  <path d="m683.24 275.26c7.6434-7.9648 16.149-15.412 29.726-19.817 6.9059 10.793 13.812 21.217 20.718 37.832 14.431 25.635 41.781 46.599 50.894 59.451l-21.619 13.962c-14.339-19.028-9.0769-28.521-41.436-60.352-13.497-9.3779-28.155-17.207-38.283-31.077z" fill-rule="evenodd"/>
  <path d="m686.84 278.41c9.308-10.25 18.616-15.985 27.924-20.267" fill-rule="evenodd"/>
  <path d="m479.01 59.292 19.108-10.191" fill-rule="evenodd"/>
  <path d="m688.56 270.76-36.943-43.949-168.79-169.43" fill-rule="evenodd"/>
  <path d="m694.29 265.66-34.395-47.134-172.61-163.69" fill-rule="evenodd"/>
  <path d="m702.57 259.29-32.484-47.134-178.34-160.51h1.2739" fill-rule="evenodd"/>
  <path d="m710.22 255.47-30.573-45.223-182.8-160.51" fill-rule="evenodd"/>
  <g transform="translate(382.83 -32.428)">
   <path d="m134.39 224.84c-5.4772 43.949 51.283 49.682 45.223 68.79l3.8217 1.2739c24.3-22.515 45.683 15.558 45.702 28.549 10.022-13.911-13.961-75.873-51.238-51.349 1.5282-17.697-23.024-15.535-43.237-46.39" fill="#3f3f3f" fill-rule="evenodd"/>
  </g>
  <path d="m596.76 301.83c26.368 2.2344 20.043 35.039 34.68 56.298 38.097 40.657 71.569 36.701 105.84 27.023 47.21-21.457 77.916-51.865 87.048-80.972-4.1362 20.23 1.9547 33.944-44.05 73.584-45.108 34.03-63.635 32.617-84.076 33.758-33.705-2.6011-52.318-20.294-67.516-41.401-12.313-16.562-8.2274-41.56-25.478-43.949-4.1534-1.5949-2.4103-4.9831-1.2739-7.0064l-1.2739-11.465c-3.3456-0.54041-2.5862-3.5438-3.1847-5.7325" fill-rule="evenodd"/>
  <path d="m689.32 161.08c0.88494 2.4916 1.5279 4.8218-1.126 4.9542v13.962c1.826 4.1006 2.3333 7.2782-3.3779 6.418-19.883-21.966 2.2644-17.666 4.2787-26.01" fill-rule="evenodd"/>
  <path d="m485.96 48.76 11.191-5.6713c-1.7415-6.5984-1.1886-8.0436 5.8435-10.501 5.4067 0.50928 8.2494 3.8573 8.7872 9.7573-3.8744 8.8224-8.0776 5.9116-11.827 5.7037l-11.191 5.6713c-1.8727-1.3673-4.155-2.6097-2.8033-4.9595z" fill-rule="evenodd"/>
  <path d="m474.25 47.408 11.191-5.6713c-1.7415-6.5984-1.1886-8.0436 5.8435-10.501 5.4067 0.50928 8.2494 3.8573 8.7872 9.7573-3.8744 8.8224-8.0776 5.9116-11.827 5.7037l-11.191 5.6713c-1.8727-1.3673-4.155-2.6097-2.8033-4.9595z" fill-rule="evenodd"/>
  <path d="m476.65 66.749-11.465 5.0955c1.4041 6.6783 0.77847 8.0936-6.3694 10.191-5.3739-0.78326-8.0429-4.2714-8.2803-10.191 4.3175-8.6142 8.3675-5.4937 12.102-5.0955l11.465-5.0955c1.8008 1.4606 4.0171 2.8174 2.5478 5.0955z" fill-rule="evenodd"/>
  <path d="m467.19 59.542-11.465 5.0955c1.4041 6.6783 0.77846 8.0936-6.3694 10.191-5.3738-0.78326-8.0429-4.2714-8.2802-10.191 4.3175-8.6142 8.3675-5.4937 12.102-5.0955l11.465-5.0955c1.8008 1.4606 4.0171 2.8174 2.5478 5.0955z" fill-rule="evenodd"/>
 </g>
 <path d="m161.78 162.42c-26.163 19.772-43.027 41.468-20.382 71.338 15.112 21.35 38.419 22.332 36.943 38.217 13.451-9.9388 28.376-6.6095 45.223 14.013 16.757 34.179 5.1176 43.345-8.2803 49.045 18.97 3.4832 17.237 25.259 31.847 54.14 24.247 28.519 53.035 39.274 73.885 35.669 34.646-4.2896 50.262-14.292 72.611-29.936 26.978-20.434 50.777-41.377 48.408-71.975-1.8563-23.972-15.245-40.785-35.032-54.777-18.757-13.219-36.403-10.594-41.401-29.936-11.351 9.3251-25.956 12.467-54.14-10.191-30.016-28.714-9.1414-26.593-5.7325-34.395-18.246-0.91996-13.832-20.794-28.662-36.943-22.979-22.381-52.394-24.535-87.261-9.5541" fill="#a8412e" fill-rule="evenodd" stroke="#000"/>
 <path d="m164.98 165.41c-23.624 18.915-41.603 40.845-18.877 68.898 15.234 20.06 35.272 17.608 34.655 32.639 12.157-9.5108 29.527-2.03 46.357 17.327 14.218 29.629 8.1844 44.763-4.1282 50.265 17.993 3.1338 19.332 44.757 28.728 54.108 23.848 26.125 53.011 34.777 72.428 31.193 32.346-4.3478 47.808-15.211 70.597-30.191 24.358-19.548 46.065-39.708 42.709-72.273-3.2601-20.271-18.29-35.898-37.561-48.962-18.266-12.341-30.897-7.1623-36.532-25.409-10.213 8.9128-26.969 9.4585-54.55-11.728-29.596-26.898-14.338-30.163-10.239-36.295-15.915-2.627-8.9096-20.819-23.628-35.963-22.677-20.968-50.762-23.13-82.797-8.6719" fill="url(#a)" fill-rule="evenodd" stroke="#000" stroke-width=".94279"/>
 <path d="m234.39 236.31-136.31-142.68c-8.6893-9.3688-15.506-13.127-24.204-8.9172 16.136-11.04 29.724-11.89 40.764-2.5478l74.546 66.159 78.32 69.509c-12.057-0.96087-22.746 7.6535-33.121 18.471z" fill-rule="evenodd" stroke="#000"/>
 <path d="m94.268 98.726-11.465 5.0956c1.4041 6.6783 0.77846 8.0936-6.3694 10.191-5.3739-0.78326-8.0429-4.2714-8.2802-10.191 4.3175-8.6142 8.3675-5.4937 12.102-5.0956l11.465-5.0955c1.8008 1.4606 4.0171 2.8174 2.5478 5.0955z" fill="none" stroke="#000"/>
 <path d="m108.09 77.537 5.6298-3.3779c-1.7631-5.2258 1.1013-7.7523 6.5306-8.7825 6.1454 0.31017 8.1057 4.8054 7.6566 11.71-2.68 5.145-6.4038 6.6368-11.485 3.3779l-2.4771 0.90077 0.45039 0.45039" fill="none" stroke="#000"/>
 <path d="m102.01 75.286c-1.2725-4.5003 3.5431-9.4431 11.26-6.5306" fill="none" stroke="#000"/>
 <path d="m85.573 77.537-4.9542 4.9542c16.316 2.634 24.812 17.838 34.004 28.825-14.362 9.6009-19.017-18.086-29.275-5.855l-10.246-13.399c-2.1811-3.4265-6.3564-8.3652-7.9944-12.949-3.9398 2.937-7.1688-0.16763-9.9085-7.4314 1.4262-2.1349 2.8524-3.2538 4.2787-1.8016-0.31811-6.4558-4.9122-18.503 1.8016-15.764 0.86319-1.3512 0.62788-4.0206 4.2787-2.0267 4.0176-5.1301 10.004 3.5244 15.088 5.855 5.6231-1.0624 7.4325 3.1703 5.855 9.9085 2.1417 6.8995-0.37713 7.9733-2.9275 9.0077l0.22519 1.126h-0.22519" fill="#b84e2c" fill-rule="evenodd" stroke="#000"/>
 <path d="m244.11 263.32c-9.3694-0.9886-7.4714 6.6348-3.1527 15.538 9.9861 10.425 25.746 25.049 23.42 40.31 0.3694 9.0211-6.0478 12.566-16.889 9.9085-3.037-2.0757-6.0538-5.2992-0.67559-9.0077 5.1641-1.3959 4.8416 2.1102 4.7291 5.4046 7.1567 3.6508 9.7365-1.414 8.107-8.5573-2.0124-8.542-8.6159-15.245-14.638-22.069-15.839-22.019-11.805-28.91-8.3322-32.878 3.453-1.6258 6.9059-3.5697 10.359-1.126 2.2607 2.3292 3.7042 4.1163 2.2519 5.855-3.1296 2.635-5.8656 0.42872-5.1794-3.3779z" fill-rule="evenodd" stroke="#000"/>
 <path d="m349.5 261.97c3.3517 7.5365-12.609 1.7109-15.989-0.90077l-30.401-23.42c-12.788-8.8482-14.064-6.7009-20.042-5.4046-1.4485 2.0507-4.3731 3.4305 0.45038 8.3322 4.5154 2.1133 4.7463-0.05779 5.1794-2.0267l-3.6031-2.4771c2.7502-5.8325 9.424-0.8117 13.061 2.2519 11.006 9.4392 22.208 20.051 32.653 26.122 9.088 5.1014 14.701 3.8312 20.267 2.4771 3.4968-1.4503 2.8541-4.6748 2.2519-7.8818-2.7969-2.8967-5.9166-4.6638-9.9085-3.3779-3.4013 2.6966 0.24877 5.4854 6.0802 6.3054z" fill-rule="evenodd" stroke="#000"/>
 <path d="m264.83 281.56-2.7023-14.412c13.11-18.387 27.133-23.988 41.436-25.672l-3.1527 19.367-35.581 20.718z" fill="#d5b29b" fill-rule="evenodd" stroke="#000"/>
 <path d="m300.41 307.68c7.6434-7.9648 16.149-15.412 29.726-19.817 6.9059 10.793 13.812 21.217 20.718 37.832 14.431 25.635 41.781 46.599 50.894 59.451l-21.619 13.962c-14.339-19.028-9.0769-28.521-41.436-60.352-13.497-9.3779-28.155-17.207-38.283-31.077z" fill-rule="evenodd" stroke="#000"/>
 <path d="m304.01 310.84c9.308-10.25 18.616-15.985 27.924-20.267" fill="none" stroke="#000"/>
 <path d="m96.178 91.72 19.108-10.191" fill="none" stroke="#000"/>
 <path d="m305.73 303.18-36.943-43.949-168.79-169.43" fill="none" stroke="#858585"/>
 <path d="m311.46 298.09-34.395-47.134-172.61-163.69" fill="none" stroke="#858585"/>
 <path d="m319.75 291.72-32.484-47.134-178.34-160.51h1.2739" fill="none" stroke="#858585"/>
 <path d="m327.39 287.9-30.573-45.223-182.8-160.51" fill="none" stroke="#858585"/>
 <path d="m134.39 224.84c-5.4772 43.949 51.283 49.682 45.223 68.79l3.8217 1.2739c24.3-22.515 45.683 15.558 45.702 28.549 10.022-13.911-13.961-75.873-51.238-51.349 1.5282-17.697-23.024-15.535-43.237-46.39" fill="#af412a" fill-rule="evenodd" stroke="#000"/>
 <path d="m213.93 334.26c26.368 2.2344 20.043 35.039 34.68 56.298 38.097 40.657 71.569 36.701 105.84 27.023 47.21-21.457 77.916-51.865 87.048-80.972-4.1362 20.23 1.9547 33.944-44.05 73.584-45.108 34.03-63.635 32.617-84.076 33.758-33.705-2.6011-52.318-20.294-67.516-41.401-12.313-16.562-8.2274-41.56-25.478-43.949-4.1534-1.5949-2.4103-4.9831-1.2739-7.0064l-1.2739-11.465c-3.3456-0.54041-2.5862-3.5438-3.1847-5.7325" fill="#af412a" fill-rule="evenodd" stroke="#000"/>
 <path d="m306.49 193.51c0.88494 2.4916 1.5279 4.8218-1.126 4.9542v13.962c1.826 4.1006 2.3333 7.2782-3.3779 6.418-19.883-21.966 2.2644-17.666 4.2787-26.01" fill="#af412a" fill-rule="evenodd" stroke="#000"/>
 <path d="m103.14 81.187 11.191-5.6713c-1.7415-6.5984-1.1886-8.0436 5.8435-10.501 5.4067 0.50928 8.2494 3.8573 8.7872 9.7573-3.8744 8.8224-8.0776 5.9116-11.827 5.7037l-11.191 5.6713c-1.8727-1.3673-4.155-2.6097-2.8033-4.9596z" fill-rule="evenodd" stroke="#000"/>
 <path d="m91.426 79.836 11.191-5.6713c-1.7415-6.5984-1.1886-8.0436 5.8435-10.501 5.4067 0.50928 8.2494 3.8573 8.7872 9.7573-3.8744 8.8224-8.0776 5.9116-11.827 5.7037l-11.191 5.6713c-1.8727-1.3673-4.155-2.6097-2.8033-4.9596z" fill-rule="evenodd" stroke="#000"/>
 <path d="m177.07 271.34 3.8217 23.567" fill="none" stroke="#000"/>
 <path d="m93.817 99.176-11.465 5.0955c1.4041 6.6783 0.77847 8.0936-6.3694 10.191-5.3738-0.78326-8.0429-4.2714-8.2802-10.191 4.3175-8.6142 8.3675-5.4937 12.102-5.0955l11.465-5.0955c1.8008 1.4606 4.0171 2.8174 2.5478 5.0955z" fill-rule="evenodd" stroke="#000"/>
 <path d="m84.359 91.97-11.465 5.0955c1.4041 6.6783 0.77846 8.0936-6.3694 10.191-5.3738-0.78326-8.0429-4.2714-8.2803-10.191 4.3175-8.6142 8.3675-5.4937 12.102-5.0955l11.465-5.0955c1.8008 1.4606 4.0171 2.8174 2.5478 5.0955z" fill-rule="evenodd" stroke="#000"/>
</svg>
