<?xml version='1.0' encoding='utf-8'?>
<svg xmlns="http://www.w3.org/2000/svg" version="1.1" width="600px" height="976px" viewBox="0 0 600 976"> <g id="layer1"> <g style="fill:rgb(0,0,0); fill-opacity:0.11372549; stroke-linejoin: miter"> <path d="M259.60092,563.82654L234.24771,588.82275Q167.69452,595.4881,168.79756,597.43365Q168.93979,598.47815,185.0075,598.8035Q202.56604,599.1001,224.00598,598.4906Q254.78012,597.6359,262.41397,594.8174Q265.68915,593.7335,267.17563,591.49994L259.6307,563.9354"/> </g> <g style="fill:rgb(163,231,255); fill-opacity:1.0; stroke-linejoin: miter"> <path d="M227.65509,547.1785L227.65509,589.0431L227.73846,589.0431L270.33502,589.0431L270.33502,549.7951L270.33502,547.1785L227.73843,547.1785"/> </g> <g style="fill:rgb(163,231,255); fill-opacity:1.0; stroke-linejoin: miter"> <path d="M247.74826,542.6163Q237.50381,542.79535,230.445,544.7155Q224.18619,546.51117,223.98593,548.9263Q224.04816,551.261,229.98627,553.0594Q236.19702,554.8467,245.6347,555.1959Q255.74796,555.4995,264.0988,553.9521Q272.85638,552.21594,273.9583,549.4304Q274.7613,546.54095,266.7792,544.4507Q258.89218,542.5077,247.77167,542.61597"/> </g> <g style="fill:rgb(255,255,255); fill-opacity:1.0; stroke-linejoin: miter"> <path d="M247.98761,544.6523Q240.2786,544.78827,234.9891,546.2303Q229.9642,547.6797,230.17111,549.6191Q230.55795,551.53973,236.2547,552.9065Q241.93512,554.18964,249.81076,554.1289Q257.45758,554.0146,262.93134,552.5375Q267.90298,551.1357,267.69916,549.12866Q267.30835,547.22894,261.63568,545.8778Q255.87357,544.57263,248.01749,544.65186"/> </g> <g style="fill:rgb(163,231,255); fill-opacity:1.0; stroke-linejoin: miter"> <path d="M244.87589,580.4458Q235.93509,581.24396,230.94522,584.2672Q226.79266,586.93964,227.93054,590.0264Q229.13602,592.8667,234.71603,594.87244Q240.30127,596.7779,248.00699,596.9317Q256.175,597.0129,262.83704,594.86975Q269.72934,592.5533,270.34445,588.77783Q270.6886,584.8568,262.91278,582.194Q255.08783,579.66956,244.91223,580.4429"/> </g> <g style="fill:rgb(0,0,0); fill-opacity:0.050980393; stroke-linejoin: miter"> <path d="M248.91037,544.64734Q248.46735,544.64734,248.01749,544.65186L247.98761,544.6523Q240.2786,544.78827,234.9891,546.2303Q229.9642,547.6797,230.17111,549.6191Q230.2055,549.79,230.28198,549.9564Q233.05594,547.9598,235.943,547.1557Q240.6626,545.69495,248.28546,545.69495Q249.59033,545.69495,250.98029,545.7377Q260.0742,546.1313,265.03937,548.244Q266.38858,548.77527,267.67316,549.6034Q267.72372,549.3705,267.69916,549.12866Q267.30835,547.22894,261.63568,545.8778Q256.20352,544.64734,248.91037,544.64734 Z"/> </g> <g style="fill:rgb(255,142,213); fill-opacity:1.0; stroke-linejoin: miter"> <path d="M259.0119,496.32318Q257.7694,496.21863,254.98566,498.53345L250.06046,536.629Q246.16077,539.14996,245.19067,541.48676Q244.0437,543.73486,243.74188,550.08923L257.23352,550.89075Q258.41797,546.0507,257.859,543.54175Q257.4277,541.1145,254.4985,537.18365L262.8704,499.8432Q260.62183,496.21796,259.01968,496.32318"/> </g> <g style="fill:rgb(0,0,0); fill-opacity:0.09803922; stroke-linejoin: miter"> <path d="M251.42966,538.40094Q245.69781,538.5567,244.36002,547.3789Q244.18048,548.8455,244.16885,550.11487L244.17285,550.11487L256.62762,550.8548Q257.37112,544.67346,256.3517,541.94977Q255.05255,538.5605,251.43991,538.401L251.42966,538.40094 Z"/> </g> <g style="fill:rgb(255,142,213); fill-opacity:1.0; stroke-linejoin: miter"> <path d="M252.60779,485.36774Q252.60632,485.36646,252.60779,485.38013L252.61517,485.43195Q252.56326,485.5224,252.55203,485.59375Q252.5434,485.64764,252.55502,485.69867Q252.57187,485.7749,252.63834,485.8673Q252.69327,485.9403,252.73724,485.94495Q252.77051,485.94507,252.77151,485.90448Q252.77179,485.8855,252.763,485.85944Q252.76544,485.79443,252.75775,485.72076Q252.75195,485.66687,252.74084,485.61694Q252.72046,485.5265,252.68497,485.4591Q252.66458,485.45044,252.64716,485.4298Q252.63922,485.42047,252.63116,485.4077L252.60791,485.36774"/> </g> <g style="fill:rgb(255,142,213); fill-opacity:1.0; stroke-linejoin: miter"> <path d="M262.4056,501.69873L256.16876,502.70355Q258.4291,505.02863,259.03958,506.18915Q259.7524,507.40582,259.45233,508.57727Q258.50156,511.58325,253.96576,511.005Q255.66263,516.767,256.16983,519.081Q256.7342,521.52484,257.06686,524.713L258.8142,517.86L262.40332,501.70905"/> </g> </g> </svg>